<?xml version="1.0" encoding="UTF-8" standalone="no"?>
<!-- Created with Inkscape (http://www.inkscape.org/) -->

<svg
   width="210mm"
   height="297mm"
   viewBox="0 0 210 297"
   version="1.1"
   id="svg1"
   inkscape:version="1.3.2 (091e20e, 2023-11-25, custom)"
   sodipodi:docname="addACross.svg"
   xml:space="preserve"
   xmlns:inkscape="http://www.inkscape.org/namespaces/inkscape"
   xmlns:sodipodi="http://sodipodi.sourceforge.net/DTD/sodipodi-0.dtd"
   xmlns="http://www.w3.org/2000/svg"
   xmlns:svg="http://www.w3.org/2000/svg"><sodipodi:namedview
     id="namedview1"
     pagecolor="#505050"
     bordercolor="#eeeeee"
     borderopacity="1"
     inkscape:showpageshadow="0"
     inkscape:pageopacity="0"
     inkscape:pagecheckerboard="0"
     inkscape:deskcolor="#505050"
     inkscape:document-units="mm"
     inkscape:zoom="8.1941057"
     inkscape:cx="216.25301"
     inkscape:cy="470.76522"
     inkscape:window-width="1920"
     inkscape:window-height="1009"
     inkscape:window-x="1912"
     inkscape:window-y="660"
     inkscape:window-maximized="1"
     inkscape:current-layer="layer1" /><defs
     id="defs1"><marker
       id="DistanceX"
       orient="auto"
       refX="0.0"
       refY="0.0"
       style="overflow:visible"><path
         d="M 3,-3 L -3,3 M 0,-5 L  0,5"
         style="stroke:#000000; stroke-width:0.5"
         id="path1" /></marker><pattern
       id="Hatch"
       patternUnits="userSpaceOnUse"
       width="8"
       height="8"
       x="0"
       y="0"><path
         d="M8 4 l-4,4"
         stroke="#000000"
         stroke-width="0.25"
         linecap="square"
         id="path2" /><path
         d="M6 2 l-4,4"
         stroke="#000000"
         stroke-width="0.25"
         linecap="square"
         id="path3" /><path
         d="M4 0 l-4,4"
         stroke="#000000"
         stroke-width="0.25"
         linecap="square"
         id="path4" /></pattern></defs><g
     inkscape:label="Шар 1"
     inkscape:groupmode="layer"
     id="layer1"><path
       style="fill:none;stroke:#000000;stroke-width:0.264583"
       d="m -12.130334,116.98915 17.2134929,5.26256"
       id="path5" /><path
       style="fill:none;stroke:#000000;stroke-width:0.264583"
       d="m 5.0831589,122.25171 -5.26269475,17.2138"
       id="path6" /><path
       style="fill:none;stroke:#000000;stroke-width:0.264583"
       d="M -0.17953585,139.46551 -17.393036,134.20294"
       id="path7" /><path
       style="fill:none;stroke:#000000;stroke-width:0.264583"
       d="m -17.393036,134.20294 5.262702,-17.21379"
       id="path8" /><path
       style="fill:none;stroke:#000000;stroke-width:0.264583"
       d="m 8.3129011,123.44234 16.6893609,6.74158"
       id="path9" /><path
       style="fill:none;stroke:#000000;stroke-width:0.264583"
       d="m 25.002262,130.18392 -6.742906,16.68992"
       id="path10" /><path
       style="fill:none;stroke:#000000;stroke-width:0.264583"
       d="M 18.259356,146.87384 1.569995,140.13226"
       id="path11" /><path
       style="fill:none;stroke:#000000;stroke-width:0.264583"
       d="M 1.569995,140.13226 8.3129011,123.44234"
       id="path12" /><path
       style="fill:none;stroke:#000000;stroke-width:0.264583"
       d="m 15.430431,105.82585 16.689387,6.74291"
       id="path13" /><path
       style="fill:none;stroke:#000000;stroke-width:0.264583"
       d="m 32.119818,112.56876 -6.742906,16.68912"
       id="path14" /><path
       style="fill:none;stroke:#000000;stroke-width:0.264583"
       d="M 25.376912,129.25788 8.6875247,122.5163"
       id="path15" /><path
       style="fill:none;stroke:#000000;stroke-width:0.264583"
       d="M 8.6875247,122.5163 15.430431,105.82585"
       id="path16" /><path
       style="fill:none;stroke:#000000;stroke-width:0.264583"
       d="m 22.547987,88.209365 16.689387,6.742906"
       id="path17" /><path
       style="fill:none;stroke:#000000;stroke-width:0.264583"
       d="M 39.237374,94.952271 32.494468,111.64166"
       id="path18" /><path
       style="fill:none;stroke:#000000;stroke-width:0.264583"
       d="M 32.494468,111.64166 15.805081,104.89875"
       id="path19" /><path
       style="fill:none;stroke:#000000;stroke-width:0.264583"
       d="M 15.805081,104.89875 22.547987,88.209365"
       id="path20" /><path
       style="fill:none;stroke:#000000;stroke-width:0.264583"
       d="m 29.916633,127.17561 16.038247,8.17033"
       id="path21" /><path
       style="fill:none;stroke:#000000;stroke-width:0.264583"
       d="m 45.95488,135.34594 -8.17192,16.03905"
       id="path22" /><path
       style="fill:none;stroke:#000000;stroke-width:0.264583"
       d="M 37.78296,151.38499 21.744712,143.21201"
       id="path23" /><path
       style="fill:none;stroke:#000000;stroke-width:0.264583"
       d="m 21.744712,143.21201 8.171921,-16.0364"
       id="path24" /><path
       style="fill:none;stroke:#000000;stroke-width:0.264583"
       d="m 38.542578,110.24598 16.037984,8.17192"
       id="path25" /><path
       style="fill:none;stroke:#000000;stroke-width:0.264583"
       d="m 54.580562,118.4179 -8.171921,16.03904"
       id="path26" /><path
       style="fill:none;stroke:#000000;stroke-width:0.264583"
       d="M 46.408641,134.45694 30.370658,126.28396"
       id="path27" /><path
       style="fill:none;stroke:#000000;stroke-width:0.264583"
       d="m 30.370658,126.28396 8.17192,-16.03798"
       id="path28" /><path
       style="fill:none;stroke:#000000;stroke-width:0.264583"
       d="m 47.16826,93.316882 16.038247,8.171658"
       id="path29" /><path
       style="fill:none;stroke:#000000;stroke-width:0.264583"
       d="m 63.206507,101.48854 -8.17192,16.03772"
       id="path30" /><path
       style="fill:none;stroke:#000000;stroke-width:0.264583"
       d="M 55.034587,117.52626 38.996339,109.35487"
       id="path31" /><path
       style="fill:none;stroke:#000000;stroke-width:0.264583"
       d="M 38.996339,109.35487 47.16826,93.316882"
       id="path32" /><path
       style="fill:none;stroke:#000000;stroke-width:0.264583"
       d="m 44.121847,141.14561 16.037983,8.17298"
       id="path33" /><path
       style="fill:none;stroke:#000000;stroke-width:0.264583"
       d="m 60.15983,149.31859 -8.171656,16.03904"
       id="path34" /><path
       style="fill:none;stroke:#000000;stroke-width:0.264583"
       d="M 51.988174,165.35763 35.949926,157.18465"
       id="path35" /><path
       style="fill:none;stroke:#000000;stroke-width:0.264583"
       d="m 35.949926,157.18465 8.171921,-16.03904"
       id="path36" /><path
       style="fill:none;stroke:#000000;stroke-width:0.264583"
       d="m 52.747528,124.21757 16.038248,8.17298"
       id="path37" /><path
       style="fill:none;stroke:#000000;stroke-width:0.264583"
       d="m 68.785776,132.39055 -8.171921,16.03639"
       id="path38" /><path
       style="fill:none;stroke:#000000;stroke-width:0.264583"
       d="M 60.613855,148.42694 44.575872,140.25661"
       id="path39" /><path
       style="fill:none;stroke:#000000;stroke-width:0.264583"
       d="m 44.575872,140.25661 8.171656,-16.03904"
       id="path40" /><path
       style="fill:none;stroke:#000000;stroke-width:0.264583"
       d="m 61.373474,107.28873 16.038248,8.17113"
       id="path41" /><path
       style="fill:none;stroke:#000000;stroke-width:0.264583"
       d="M 77.411722,115.45986 69.239801,131.4989"
       id="path42" /><path
       style="fill:none;stroke:#000000;stroke-width:0.264583"
       d="M 69.239801,131.4989 53.201553,123.32592"
       id="path43" /><path
       style="fill:none;stroke:#000000;stroke-width:0.264583"
       d="m 53.201553,123.32592 8.171921,-16.03719"
       id="path44" /><path
       style="fill:none;stroke:#000000;stroke-width:0.264583"
       d="m 65.136907,141.75415 16.037983,8.17034"
       id="path45" /><path
       style="fill:none;stroke:#000000;stroke-width:0.264583"
       d="m 81.17489,149.92449 -8.171656,16.03904"
       id="path46" /><path
       style="fill:none;stroke:#000000;stroke-width:0.264583"
       d="M 73.003234,165.96353 56.964987,157.79055"
       id="path47" /><path
       style="fill:none;stroke:#000000;stroke-width:0.264583"
       d="m 56.964987,157.79055 8.17192,-16.0364"
       id="path48" /><path
       style="fill:none;stroke:#000000;stroke-width:0.264583"
       d="m 73.762588,124.82346 16.038248,8.17298"
       id="path49" /><path
       style="fill:none;stroke:#000000;stroke-width:0.264583"
       d="m 89.800836,132.99644 -8.171921,16.03905"
       id="path50" /><path
       style="fill:none;stroke:#000000;stroke-width:0.264583"
       d="M 81.628915,149.03549 65.590932,140.86251"
       id="path51" /><path
       style="fill:none;stroke:#000000;stroke-width:0.264583"
       d="m 65.590932,140.86251 8.171656,-16.03905"
       id="path52" /><path
       style="fill:none;stroke:#000000;stroke-width:0.264583"
       d="m 59.157059,164.14319 13.37654,12.04648"
       id="path53" /><path
       style="fill:none;stroke:#000000;stroke-width:0.264583"
       d="M 72.533599,176.18967 60.489237,189.56436"
       id="path54" /><path
       style="fill:none;stroke:#000000;stroke-width:0.264583"
       d="M 60.489237,189.56436 47.112697,177.52053"
       id="path55" /><path
       style="fill:none;stroke:#000000;stroke-width:0.264583"
       d="M 47.112697,177.52053 59.157059,164.14319"
       id="path56" /><path
       style="fill:none;stroke:#000000;stroke-width:0.264583"
       d="m 79.618347,185.71732 6.156325,16.91481"
       id="path57" /><path
       style="fill:none;stroke:#000000;stroke-width:0.264583"
       d="m 85.774672,202.63213 -16.914548,6.15685"
       id="path58" /><path
       style="fill:none;stroke:#000000;stroke-width:0.264583"
       d="M 68.860124,208.78898 62.703799,191.87417"
       id="path59" /><path
       style="fill:none;stroke:#000000;stroke-width:0.264583"
       d="m 62.703799,191.87417 16.914548,-6.15685"
       id="path60" /><path
       style="fill:none;stroke:#000000;stroke-width:0.264583"
       d="m 204.60698,122.25171 17.21353,-5.26256"
       id="path61" /><path
       style="fill:none;stroke:#000000;stroke-width:0.264583"
       d="m 221.82051,116.98915 5.26256,17.21379"
       id="path62" /><path
       style="fill:none;stroke:#000000;stroke-width:0.264583"
       d="m 227.08307,134.20294 -17.21352,5.26257"
       id="path63" /><path
       style="fill:none;stroke:#000000;stroke-width:0.264583"
       d="m 209.86955,139.46551 -5.26257,-17.2138"
       id="path64" /><path
       style="fill:none;stroke:#000000;stroke-width:0.264583"
       d="m 184.68783,130.18392 16.68938,-6.74158"
       id="path65" /><path
       style="fill:none;stroke:#000000;stroke-width:0.264583"
       d="m 201.37721,123.44234 6.74291,16.68992"
       id="path66" /><path
       style="fill:none;stroke:#000000;stroke-width:0.264583"
       d="m 208.12012,140.13226 -16.68939,6.74158"
       id="path67" /><path
       style="fill:none;stroke:#000000;stroke-width:0.264583"
       d="m 191.43073,146.87384 -6.7429,-16.68992"
       id="path68" /><path
       style="fill:none;stroke:#000000;stroke-width:0.264583"
       d="m 177.57027,112.56876 16.68939,-6.74291"
       id="path69" /><path
       style="fill:none;stroke:#000000;stroke-width:0.264583"
       d="m 194.25966,105.82585 6.7429,16.69045"
       id="path70" /><path
       style="fill:none;stroke:#000000;stroke-width:0.264583"
       d="m 201.00256,122.5163 -16.68938,6.74158"
       id="path71" /><path
       style="fill:none;stroke:#000000;stroke-width:0.264583"
       d="m 184.31318,129.25788 -6.74291,-16.68912"
       id="path72" /><path
       style="fill:none;stroke:#000000;stroke-width:0.264583"
       d="M 170.45298,94.952271 187.1421,88.209365"
       id="path73" /><path
       style="fill:none;stroke:#000000;stroke-width:0.264583"
       d="m 187.1421,88.209365 6.74291,16.689385"
       id="path74" /><path
       style="fill:none;stroke:#000000;stroke-width:0.264583"
       d="m 193.88501,104.89875 -16.68912,6.74291"
       id="path75" /><path
       style="fill:none;stroke:#000000;stroke-width:0.264583"
       d="M 177.19589,111.64166 170.45298,94.952271"
       id="path76" /><path
       style="fill:none;stroke:#000000;stroke-width:0.264583"
       d="m 163.73547,135.34594 16.03799,-8.17033"
       id="path77" /><path
       style="fill:none;stroke:#000000;stroke-width:0.264583"
       d="m 179.77346,127.17561 8.17192,16.0364"
       id="path78" /><path
       style="fill:none;stroke:#000000;stroke-width:0.264583"
       d="m 187.94538,143.21201 -16.03825,8.17298"
       id="path79" /><path
       style="fill:none;stroke:#000000;stroke-width:0.264583"
       d="m 171.90713,151.38499 -8.17166,-16.03905"
       id="path80" /><path
       style="fill:none;stroke:#000000;stroke-width:0.264583"
       d="m 155.10953,118.4179 16.03824,-8.17192"
       id="path81" /><path
       style="fill:none;stroke:#000000;stroke-width:0.264583"
       d="m 171.14777,110.24598 8.17166,16.03798"
       id="path82" /><path
       style="fill:none;stroke:#000000;stroke-width:0.264583"
       d="m 179.31943,126.28396 -16.03798,8.17298"
       id="path83" /><path
       style="fill:none;stroke:#000000;stroke-width:0.264583"
       d="M 163.28145,134.45694 155.10953,118.4179"
       id="path84" /><path
       style="fill:none;stroke:#000000;stroke-width:0.264583"
       d="m 146.48385,101.48854 16.03798,-8.171658"
       id="path85" /><path
       style="fill:none;stroke:#000000;stroke-width:0.264583"
       d="m 162.52183,93.316882 8.17192,16.037988"
       id="path86" /><path
       style="fill:none;stroke:#000000;stroke-width:0.264583"
       d="m 170.69375,109.35487 -16.03825,8.17139"
       id="path87" /><path
       style="fill:none;stroke:#000000;stroke-width:0.264583"
       d="m 154.6555,117.52626 -8.17165,-16.03772"
       id="path88" /><path
       style="fill:none;stroke:#000000;stroke-width:0.264583"
       d="m 149.53026,149.31859 16.03798,-8.17298"
       id="path89" /><path
       style="fill:none;stroke:#000000;stroke-width:0.264583"
       d="m 165.56824,141.14561 8.17192,16.03904"
       id="path90" /><path
       style="fill:none;stroke:#000000;stroke-width:0.264583"
       d="m 173.74016,157.18465 -16.03825,8.17298"
       id="path91" /><path
       style="fill:none;stroke:#000000;stroke-width:0.264583"
       d="m 157.70191,165.35763 -8.17165,-16.03904"
       id="path92" /><path
       style="fill:none;stroke:#000000;stroke-width:0.264583"
       d="m 140.90431,132.39055 16.03825,-8.17298"
       id="path93" /><path
       style="fill:none;stroke:#000000;stroke-width:0.264583"
       d="m 156.94256,124.21757 8.17166,16.03904"
       id="path94" /><path
       style="fill:none;stroke:#000000;stroke-width:0.264583"
       d="m 165.11422,140.25661 -16.03799,8.17033"
       id="path95" /><path
       style="fill:none;stroke:#000000;stroke-width:0.264583"
       d="m 149.07623,148.42694 -8.17192,-16.03639"
       id="path96" /><path
       style="fill:none;stroke:#000000;stroke-width:0.264583"
       d="m 132.27863,115.45986 16.03798,-8.17113"
       id="path97" /><path
       style="fill:none;stroke:#000000;stroke-width:0.264583"
       d="m 148.31661,107.28873 8.17193,16.03719"
       id="path98" /><path
       style="fill:none;stroke:#000000;stroke-width:0.264583"
       d="m 156.48854,123.32592 -16.03825,8.17298"
       id="path99" /><path
       style="fill:none;stroke:#000000;stroke-width:0.264583"
       d="m 140.45029,131.4989 -8.17166,-16.03904"
       id="path100" /><path
       style="fill:none;stroke:#000000;stroke-width:0.264583"
       d="m 128.5152,149.92449 16.03798,-8.17034"
       id="path101" /><path
       style="fill:none;stroke:#000000;stroke-width:0.264583"
       d="m 144.55318,141.75415 8.17192,16.0364"
       id="path102" /><path
       style="fill:none;stroke:#000000;stroke-width:0.264583"
       d="m 152.7251,157.79055 -16.03825,8.17298"
       id="path103" /><path
       style="fill:none;stroke:#000000;stroke-width:0.264583"
       d="M 136.68685,165.96353 128.5152,149.92449"
       id="path104" /><path
       style="fill:none;stroke:#000000;stroke-width:0.264583"
       d="m 119.88925,132.99644 16.03825,-8.17298"
       id="path105" /><path
       style="fill:none;stroke:#000000;stroke-width:0.264583"
       d="m 135.9275,124.82346 8.17166,16.03905"
       id="path106" /><path
       style="fill:none;stroke:#000000;stroke-width:0.264583"
       d="m 144.09916,140.86251 -16.03799,8.17298"
       id="path107" /><path
       style="fill:none;stroke:#000000;stroke-width:0.264583"
       d="m 128.06117,149.03549 -8.17192,-16.03905"
       id="path108" /><path
       style="fill:none;stroke:#000000;stroke-width:0.264583"
       d="m 137.15649,176.18967 13.3768,-12.04648"
       id="path109" /><path
       style="fill:none;stroke:#000000;stroke-width:0.264583"
       d="m 150.53329,164.14319 12.04437,13.37734"
       id="path110" /><path
       style="fill:none;stroke:#000000;stroke-width:0.264583"
       d="m 162.57766,177.52053 -13.37681,12.04383"
       id="path111" /><path
       style="fill:none;stroke:#000000;stroke-width:0.264583"
       d="M 149.20085,189.56436 137.15649,176.18967"
       id="path112" /><path
       style="fill:none;stroke:#000000;stroke-width:0.264583"
       d="m 123.91542,202.63213 6.15632,-16.91481"
       id="path113" /><path
       style="fill:none;stroke:#000000;stroke-width:0.264583"
       d="m 130.07174,185.71732 16.91455,6.15685"
       id="path114" /><path
       style="fill:none;stroke:#000000;stroke-width:0.264583"
       d="m 146.98629,191.87417 -6.15633,16.91481"
       id="path115" /><path
       style="fill:none;stroke:#000000;stroke-width:0.264583"
       d="m 140.82996,208.78898 -16.91454,-6.15685"
       id="path116" /></g></svg>
