<?xml version="1.0" standalone="no"?>
 <!DOCTYPE svg PUBLIC "-//W3C//DTD SVG 1.1//EN" 
 "http://www.w3.org/Graphics/SVG/1.1/DTD/svg11.dtd"> 
<svg
  xmlns:svg="http://www.w3.org/2000/svg"
  xmlns="http://www.w3.org/2000/svg"
  xmlns:xlink="http://www.w3.org/1999/xlink"
  version="1.1"
  width="297.0022mm" height="210.0072mm" viewBox="0.0000 0.0000 297.0022 210.0072">
<title>SVG Image created as kazhan-User_Drawings.svg date 2024/11/25 21:33:51 </title>
  <desc>Image generated by PCBNEW </desc>
<g style="fill:#000000; fill-opacity:1.0000;stroke:#000000; stroke-opacity:1.0000;
stroke-linecap:round; stroke-linejoin:round;"
 transform="translate(0 0) scale(1 1)">
</g>
<g style="fill:none; 
stroke:#000000; stroke-width:0.1500; stroke-opacity:1; 
stroke-linecap:round; stroke-linejoin:round;">
<path d="M177.0022 166.0072
L285.0022 166.0072
L285.0022 198.0072
L177.0022 198.0072
L177.0022 166.0072
" />
</g>
<g style="fill:none; 
stroke:#000000; stroke-width:0.1500; stroke-opacity:1; 
stroke-linecap:round; stroke-linejoin:round;">
<path d="M10.0000 10.0000
L287.0022 10.0000
L287.0022 200.0072
L10.0000 200.0072
L10.0000 10.0000
" />
</g>
<g style="fill:none; 
stroke:#000000; stroke-width:0.1500; stroke-opacity:1; 
stroke-linecap:round; stroke-linejoin:round;">
<path d="M12.0000 12.0000
L285.0022 12.0000
L285.0022 198.0072
L12.0000 198.0072
L12.0000 12.0000
" />
</g>
<g style="fill:none; 
stroke:#000000; stroke-width:0.1500; stroke-opacity:1; 
stroke-linecap:round; stroke-linejoin:round;">
<path d="M60.0000 12.0000
L60.0000 10.0000
" />
</g>
<g style="fill:none; 
stroke:#000000; stroke-width:0.1500; stroke-opacity:1; 
stroke-linecap:round; stroke-linejoin:round;">
<path d="M110.0000 12.0000
L110.0000 10.0000
" />
</g>
<g style="fill:none; 
stroke:#000000; stroke-width:0.1500; stroke-opacity:1; 
stroke-linecap:round; stroke-linejoin:round;">
<path d="M160.0000 12.0000
L160.0000 10.0000
" />
</g>
<g style="fill:none; 
stroke:#000000; stroke-width:0.1500; stroke-opacity:1; 
stroke-linecap:round; stroke-linejoin:round;">
<path d="M210.0000 12.0000
L210.0000 10.0000
" />
</g>
<g style="fill:none; 
stroke:#000000; stroke-width:0.1500; stroke-opacity:1; 
stroke-linecap:round; stroke-linejoin:round;">
<path d="M260.0000 12.0000
L260.0000 10.0000
" />
</g>
<g style="fill:none; 
stroke:#000000; stroke-width:0.1500; stroke-opacity:1; 
stroke-linecap:round; stroke-linejoin:round;">
<text x="35.0000" y="11.6500"
textLength="1.4281" font-size="1.7333" lengthAdjust="spacingAndGlyphs"
text-anchor="start" opacity="0">1</text>
<g class="stroked-text"><desc>1</desc>
<path d="M36.0892 11.5936
L35.3463 11.5936
" />
<path d="M35.7177 11.5936
L35.7177 10.2936
" />
<path d="M35.7177 10.2936
L35.5939 10.4793
" />
<path d="M35.5939 10.4793
L35.4701 10.6031
" />
<path d="M35.4701 10.6031
L35.3463 10.6650
" />
</g></g>
<g style="fill:none; 
stroke:#000000; stroke-width:0.1500; stroke-opacity:1; 
stroke-linecap:round; stroke-linejoin:round;">
<text x="85.0000" y="11.6500"
textLength="1.4281" font-size="1.7333" lengthAdjust="spacingAndGlyphs"
text-anchor="start" opacity="0">2</text>
<g class="stroked-text"><desc>2</desc>
<path d="M85.3463 10.4174
L85.4082 10.3555
" />
<path d="M85.4082 10.3555
L85.5320 10.2936
" />
<path d="M85.5320 10.2936
L85.8415 10.2936
" />
<path d="M85.8415 10.2936
L85.9654 10.3555
" />
<path d="M85.9654 10.3555
L86.0273 10.4174
" />
<path d="M86.0273 10.4174
L86.0892 10.5412
" />
<path d="M86.0892 10.5412
L86.0892 10.6650
" />
<path d="M86.0892 10.6650
L86.0273 10.8507
" />
<path d="M86.0273 10.8507
L85.2844 11.5936
" />
<path d="M85.2844 11.5936
L86.0892 11.5936
" />
</g></g>
<g style="fill:none; 
stroke:#000000; stroke-width:0.1500; stroke-opacity:1; 
stroke-linecap:round; stroke-linejoin:round;">
<text x="135.0000" y="11.6500"
textLength="1.4281" font-size="1.7333" lengthAdjust="spacingAndGlyphs"
text-anchor="start" opacity="0">3</text>
<g class="stroked-text"><desc>3</desc>
<path d="M135.2844 10.2936
L136.0892 10.2936
" />
<path d="M136.0892 10.2936
L135.6558 10.7888
" />
<path d="M135.6558 10.7888
L135.8415 10.7888
" />
<path d="M135.8415 10.7888
L135.9654 10.8507
" />
<path d="M135.9654 10.8507
L136.0273 10.9127
" />
<path d="M136.0273 10.9127
L136.0892 11.0365
" />
<path d="M136.0892 11.0365
L136.0892 11.3460
" />
<path d="M136.0892 11.3460
L136.0273 11.4698
" />
<path d="M136.0273 11.4698
L135.9654 11.5317
" />
<path d="M135.9654 11.5317
L135.8415 11.5936
" />
<path d="M135.8415 11.5936
L135.4701 11.5936
" />
<path d="M135.4701 11.5936
L135.3463 11.5317
" />
<path d="M135.3463 11.5317
L135.2844 11.4698
" />
</g></g>
<g style="fill:none; 
stroke:#000000; stroke-width:0.1500; stroke-opacity:1; 
stroke-linecap:round; stroke-linejoin:round;">
<text x="185.0000" y="11.6500"
textLength="1.4281" font-size="1.7333" lengthAdjust="spacingAndGlyphs"
text-anchor="start" opacity="0">4</text>
<g class="stroked-text"><desc>4</desc>
<path d="M185.9654 10.7269
L185.9654 11.5936
" />
<path d="M185.6558 10.2317
L185.3463 11.1603
" />
<path d="M185.3463 11.1603
L186.1511 11.1603
" />
</g></g>
<g style="fill:none; 
stroke:#000000; stroke-width:0.1500; stroke-opacity:1; 
stroke-linecap:round; stroke-linejoin:round;">
<text x="235.0000" y="11.6500"
textLength="1.4281" font-size="1.7333" lengthAdjust="spacingAndGlyphs"
text-anchor="start" opacity="0">5</text>
<g class="stroked-text"><desc>5</desc>
<path d="M236.0273 10.2936
L235.4082 10.2936
" />
<path d="M235.4082 10.2936
L235.3463 10.9127
" />
<path d="M235.3463 10.9127
L235.4082 10.8507
" />
<path d="M235.4082 10.8507
L235.5320 10.7888
" />
<path d="M235.5320 10.7888
L235.8415 10.7888
" />
<path d="M235.8415 10.7888
L235.9654 10.8507
" />
<path d="M235.9654 10.8507
L236.0273 10.9127
" />
<path d="M236.0273 10.9127
L236.0892 11.0365
" />
<path d="M236.0892 11.0365
L236.0892 11.3460
" />
<path d="M236.0892 11.3460
L236.0273 11.4698
" />
<path d="M236.0273 11.4698
L235.9654 11.5317
" />
<path d="M235.9654 11.5317
L235.8415 11.5936
" />
<path d="M235.8415 11.5936
L235.5320 11.5936
" />
<path d="M235.5320 11.5936
L235.4082 11.5317
" />
<path d="M235.4082 11.5317
L235.3463 11.4698
" />
</g></g>
<g style="fill:none; 
stroke:#000000; stroke-width:0.1500; stroke-opacity:1; 
stroke-linecap:round; stroke-linejoin:round;">
<text x="285.0000" y="11.6500"
textLength="1.4281" font-size="1.7333" lengthAdjust="spacingAndGlyphs"
text-anchor="start" opacity="0">6</text>
<g class="stroked-text"><desc>6</desc>
<path d="M285.9654 10.2936
L285.7177 10.2936
" />
<path d="M285.7177 10.2936
L285.5939 10.3555
" />
<path d="M285.5939 10.3555
L285.5320 10.4174
" />
<path d="M285.5320 10.4174
L285.4082 10.6031
" />
<path d="M285.4082 10.6031
L285.3463 10.8507
" />
<path d="M285.3463 10.8507
L285.3463 11.3460
" />
<path d="M285.3463 11.3460
L285.4082 11.4698
" />
<path d="M285.4082 11.4698
L285.4701 11.5317
" />
<path d="M285.4701 11.5317
L285.5939 11.5936
" />
<path d="M285.5939 11.5936
L285.8415 11.5936
" />
<path d="M285.8415 11.5936
L285.9654 11.5317
" />
<path d="M285.9654 11.5317
L286.0273 11.4698
" />
<path d="M286.0273 11.4698
L286.0892 11.3460
" />
<path d="M286.0892 11.3460
L286.0892 11.0365
" />
<path d="M286.0892 11.0365
L286.0273 10.9127
" />
<path d="M286.0273 10.9127
L285.9654 10.8507
" />
<path d="M285.9654 10.8507
L285.8415 10.7888
" />
<path d="M285.8415 10.7888
L285.5939 10.7888
" />
<path d="M285.5939 10.7888
L285.4701 10.8507
" />
<path d="M285.4701 10.8507
L285.4082 10.9127
" />
<path d="M285.4082 10.9127
L285.3463 11.0365
" />
</g></g>
<g style="fill:none; 
stroke:#000000; stroke-width:0.1500; stroke-opacity:1; 
stroke-linecap:round; stroke-linejoin:round;">
<path d="M60.0000 198.0072
L60.0000 200.0072
" />
</g>
<g style="fill:none; 
stroke:#000000; stroke-width:0.1500; stroke-opacity:1; 
stroke-linecap:round; stroke-linejoin:round;">
<path d="M110.0000 198.0072
L110.0000 200.0072
" />
</g>
<g style="fill:none; 
stroke:#000000; stroke-width:0.1500; stroke-opacity:1; 
stroke-linecap:round; stroke-linejoin:round;">
<path d="M160.0000 198.0072
L160.0000 200.0072
" />
</g>
<g style="fill:none; 
stroke:#000000; stroke-width:0.1500; stroke-opacity:1; 
stroke-linecap:round; stroke-linejoin:round;">
<path d="M210.0000 198.0072
L210.0000 200.0072
" />
</g>
<g style="fill:none; 
stroke:#000000; stroke-width:0.1500; stroke-opacity:1; 
stroke-linecap:round; stroke-linejoin:round;">
<path d="M260.0000 198.0072
L260.0000 200.0072
" />
</g>
<g style="fill:none; 
stroke:#000000; stroke-width:0.1500; stroke-opacity:1; 
stroke-linecap:round; stroke-linejoin:round;">
<text x="35.0000" y="199.6572"
textLength="1.4281" font-size="1.7333" lengthAdjust="spacingAndGlyphs"
text-anchor="start" opacity="0">1</text>
<g class="stroked-text"><desc>1</desc>
<path d="M36.0892 199.6008
L35.3463 199.6008
" />
<path d="M35.7177 199.6008
L35.7177 198.3008
" />
<path d="M35.7177 198.3008
L35.5939 198.4865
" />
<path d="M35.5939 198.4865
L35.4701 198.6103
" />
<path d="M35.4701 198.6103
L35.3463 198.6722
" />
</g></g>
<g style="fill:none; 
stroke:#000000; stroke-width:0.1500; stroke-opacity:1; 
stroke-linecap:round; stroke-linejoin:round;">
<text x="85.0000" y="199.6572"
textLength="1.4281" font-size="1.7333" lengthAdjust="spacingAndGlyphs"
text-anchor="start" opacity="0">2</text>
<g class="stroked-text"><desc>2</desc>
<path d="M85.3463 198.4246
L85.4082 198.3627
" />
<path d="M85.4082 198.3627
L85.5320 198.3008
" />
<path d="M85.5320 198.3008
L85.8415 198.3008
" />
<path d="M85.8415 198.3008
L85.9654 198.3627
" />
<path d="M85.9654 198.3627
L86.0273 198.4246
" />
<path d="M86.0273 198.4246
L86.0892 198.5484
" />
<path d="M86.0892 198.5484
L86.0892 198.6722
" />
<path d="M86.0892 198.6722
L86.0273 198.8579
" />
<path d="M86.0273 198.8579
L85.2844 199.6008
" />
<path d="M85.2844 199.6008
L86.0892 199.6008
" />
</g></g>
<g style="fill:none; 
stroke:#000000; stroke-width:0.1500; stroke-opacity:1; 
stroke-linecap:round; stroke-linejoin:round;">
<text x="135.0000" y="199.6572"
textLength="1.4281" font-size="1.7333" lengthAdjust="spacingAndGlyphs"
text-anchor="start" opacity="0">3</text>
<g class="stroked-text"><desc>3</desc>
<path d="M135.2844 198.3008
L136.0892 198.3008
" />
<path d="M136.0892 198.3008
L135.6558 198.7960
" />
<path d="M135.6558 198.7960
L135.8415 198.7960
" />
<path d="M135.8415 198.7960
L135.9654 198.8579
" />
<path d="M135.9654 198.8579
L136.0273 198.9199
" />
<path d="M136.0273 198.9199
L136.0892 199.0437
" />
<path d="M136.0892 199.0437
L136.0892 199.3532
" />
<path d="M136.0892 199.3532
L136.0273 199.4770
" />
<path d="M136.0273 199.4770
L135.9654 199.5389
" />
<path d="M135.9654 199.5389
L135.8415 199.6008
" />
<path d="M135.8415 199.6008
L135.4701 199.6008
" />
<path d="M135.4701 199.6008
L135.3463 199.5389
" />
<path d="M135.3463 199.5389
L135.2844 199.4770
" />
</g></g>
<g style="fill:none; 
stroke:#000000; stroke-width:0.1500; stroke-opacity:1; 
stroke-linecap:round; stroke-linejoin:round;">
<text x="185.0000" y="199.6572"
textLength="1.4281" font-size="1.7333" lengthAdjust="spacingAndGlyphs"
text-anchor="start" opacity="0">4</text>
<g class="stroked-text"><desc>4</desc>
<path d="M185.9654 198.7341
L185.9654 199.6008
" />
<path d="M185.6558 198.2389
L185.3463 199.1675
" />
<path d="M185.3463 199.1675
L186.1511 199.1675
" />
</g></g>
<g style="fill:none; 
stroke:#000000; stroke-width:0.1500; stroke-opacity:1; 
stroke-linecap:round; stroke-linejoin:round;">
<text x="235.0000" y="199.6572"
textLength="1.4281" font-size="1.7333" lengthAdjust="spacingAndGlyphs"
text-anchor="start" opacity="0">5</text>
<g class="stroked-text"><desc>5</desc>
<path d="M236.0273 198.3008
L235.4082 198.3008
" />
<path d="M235.4082 198.3008
L235.3463 198.9199
" />
<path d="M235.3463 198.9199
L235.4082 198.8579
" />
<path d="M235.4082 198.8579
L235.5320 198.7960
" />
<path d="M235.5320 198.7960
L235.8415 198.7960
" />
<path d="M235.8415 198.7960
L235.9654 198.8579
" />
<path d="M235.9654 198.8579
L236.0273 198.9199
" />
<path d="M236.0273 198.9199
L236.0892 199.0437
" />
<path d="M236.0892 199.0437
L236.0892 199.3532
" />
<path d="M236.0892 199.3532
L236.0273 199.4770
" />
<path d="M236.0273 199.4770
L235.9654 199.5389
" />
<path d="M235.9654 199.5389
L235.8415 199.6008
" />
<path d="M235.8415 199.6008
L235.5320 199.6008
" />
<path d="M235.5320 199.6008
L235.4082 199.5389
" />
<path d="M235.4082 199.5389
L235.3463 199.4770
" />
</g></g>
<g style="fill:none; 
stroke:#000000; stroke-width:0.1500; stroke-opacity:1; 
stroke-linecap:round; stroke-linejoin:round;">
<text x="285.0000" y="199.6572"
textLength="1.4281" font-size="1.7333" lengthAdjust="spacingAndGlyphs"
text-anchor="start" opacity="0">6</text>
<g class="stroked-text"><desc>6</desc>
<path d="M285.9654 198.3008
L285.7177 198.3008
" />
<path d="M285.7177 198.3008
L285.5939 198.3627
" />
<path d="M285.5939 198.3627
L285.5320 198.4246
" />
<path d="M285.5320 198.4246
L285.4082 198.6103
" />
<path d="M285.4082 198.6103
L285.3463 198.8579
" />
<path d="M285.3463 198.8579
L285.3463 199.3532
" />
<path d="M285.3463 199.3532
L285.4082 199.4770
" />
<path d="M285.4082 199.4770
L285.4701 199.5389
" />
<path d="M285.4701 199.5389
L285.5939 199.6008
" />
<path d="M285.5939 199.6008
L285.8415 199.6008
" />
<path d="M285.8415 199.6008
L285.9654 199.5389
" />
<path d="M285.9654 199.5389
L286.0273 199.4770
" />
<path d="M286.0273 199.4770
L286.0892 199.3532
" />
<path d="M286.0892 199.3532
L286.0892 199.0437
" />
<path d="M286.0892 199.0437
L286.0273 198.9199
" />
<path d="M286.0273 198.9199
L285.9654 198.8579
" />
<path d="M285.9654 198.8579
L285.8415 198.7960
" />
<path d="M285.8415 198.7960
L285.5939 198.7960
" />
<path d="M285.5939 198.7960
L285.4701 198.8579
" />
<path d="M285.4701 198.8579
L285.4082 198.9199
" />
<path d="M285.4082 198.9199
L285.3463 199.0437
" />
</g></g>
<g style="fill:none; 
stroke:#000000; stroke-width:0.1500; stroke-opacity:1; 
stroke-linecap:round; stroke-linejoin:round;">
<path d="M10.0000 60.0000
L12.0000 60.0000
" />
</g>
<g style="fill:none; 
stroke:#000000; stroke-width:0.1500; stroke-opacity:1; 
stroke-linecap:round; stroke-linejoin:round;">
<path d="M10.0000 110.0000
L12.0000 110.0000
" />
</g>
<g style="fill:none; 
stroke:#000000; stroke-width:0.1500; stroke-opacity:1; 
stroke-linecap:round; stroke-linejoin:round;">
<path d="M10.0000 160.0000
L12.0000 160.0000
" />
</g>
<g style="fill:none; 
stroke:#000000; stroke-width:0.1500; stroke-opacity:1; 
stroke-linecap:round; stroke-linejoin:round;">
<text x="11.0000" y="35.6500"
textLength="1.3043" font-size="1.7333" lengthAdjust="spacingAndGlyphs"
text-anchor="middle" opacity="0">A</text>
<g class="stroked-text"><desc>A</desc>
<path d="M10.6905 35.2222
L11.3095 35.2222
" />
<path d="M10.5667 35.5936
L11.0000 34.2936
" />
<path d="M11.0000 34.2936
L11.4333 35.5936
" />
</g></g>
<g style="fill:none; 
stroke:#000000; stroke-width:0.1500; stroke-opacity:1; 
stroke-linecap:round; stroke-linejoin:round;">
<text x="11.0000" y="85.6500"
textLength="1.4900" font-size="1.7333" lengthAdjust="spacingAndGlyphs"
text-anchor="middle" opacity="0">B</text>
<g class="stroked-text"><desc>B</desc>
<path d="M11.0929 84.9127
L11.2786 84.9746
" />
<path d="M11.2786 84.9746
L11.3405 85.0365
" />
<path d="M11.3405 85.0365
L11.4024 85.1603
" />
<path d="M11.4024 85.1603
L11.4024 85.3460
" />
<path d="M11.4024 85.3460
L11.3405 85.4698
" />
<path d="M11.3405 85.4698
L11.2786 85.5317
" />
<path d="M11.2786 85.5317
L11.1548 85.5936
" />
<path d="M11.1548 85.5936
L10.6595 85.5936
" />
<path d="M10.6595 85.5936
L10.6595 84.2936
" />
<path d="M10.6595 84.2936
L11.0929 84.2936
" />
<path d="M11.0929 84.2936
L11.2167 84.3555
" />
<path d="M11.2167 84.3555
L11.2786 84.4174
" />
<path d="M11.2786 84.4174
L11.3405 84.5412
" />
<path d="M11.3405 84.5412
L11.3405 84.6650
" />
<path d="M11.3405 84.6650
L11.2786 84.7888
" />
<path d="M11.2786 84.7888
L11.2167 84.8507
" />
<path d="M11.2167 84.8507
L11.0929 84.9127
" />
<path d="M11.0929 84.9127
L10.6595 84.9127
" />
</g></g>
<g style="fill:none; 
stroke:#000000; stroke-width:0.1500; stroke-opacity:1; 
stroke-linecap:round; stroke-linejoin:round;">
<text x="11.0000" y="135.6500"
textLength="1.4900" font-size="1.7333" lengthAdjust="spacingAndGlyphs"
text-anchor="middle" opacity="0">C</text>
<g class="stroked-text"><desc>C</desc>
<path d="M11.4024 135.4698
L11.3405 135.5317
" />
<path d="M11.3405 135.5317
L11.1548 135.5936
" />
<path d="M11.1548 135.5936
L11.0310 135.5936
" />
<path d="M11.0310 135.5936
L10.8452 135.5317
" />
<path d="M10.8452 135.5317
L10.7214 135.4079
" />
<path d="M10.7214 135.4079
L10.6595 135.2841
" />
<path d="M10.6595 135.2841
L10.5976 135.0365
" />
<path d="M10.5976 135.0365
L10.5976 134.8507
" />
<path d="M10.5976 134.8507
L10.6595 134.6031
" />
<path d="M10.6595 134.6031
L10.7214 134.4793
" />
<path d="M10.7214 134.4793
L10.8452 134.3555
" />
<path d="M10.8452 134.3555
L11.0310 134.2936
" />
<path d="M11.0310 134.2936
L11.1548 134.2936
" />
<path d="M11.1548 134.2936
L11.3405 134.3555
" />
<path d="M11.3405 134.3555
L11.4024 134.4174
" />
</g></g>
<g style="fill:none; 
stroke:#000000; stroke-width:0.1500; stroke-opacity:1; 
stroke-linecap:round; stroke-linejoin:round;">
<text x="11.0000" y="185.6500"
textLength="1.4900" font-size="1.7333" lengthAdjust="spacingAndGlyphs"
text-anchor="middle" opacity="0">D</text>
<g class="stroked-text"><desc>D</desc>
<path d="M10.6595 185.5936
L10.6595 184.2936
" />
<path d="M10.6595 184.2936
L10.9690 184.2936
" />
<path d="M10.9690 184.2936
L11.1548 184.3555
" />
<path d="M11.1548 184.3555
L11.2786 184.4793
" />
<path d="M11.2786 184.4793
L11.3405 184.6031
" />
<path d="M11.3405 184.6031
L11.4024 184.8507
" />
<path d="M11.4024 184.8507
L11.4024 185.0365
" />
<path d="M11.4024 185.0365
L11.3405 185.2841
" />
<path d="M11.3405 185.2841
L11.2786 185.4079
" />
<path d="M11.2786 185.4079
L11.1548 185.5317
" />
<path d="M11.1548 185.5317
L10.9690 185.5936
" />
<path d="M10.9690 185.5936
L10.6595 185.5936
" />
</g></g>
<g style="fill:none; 
stroke:#000000; stroke-width:0.1500; stroke-opacity:1; 
stroke-linecap:round; stroke-linejoin:round;">
<path d="M287.0022 60.0000
L285.0022 60.0000
" />
</g>
<g style="fill:none; 
stroke:#000000; stroke-width:0.1500; stroke-opacity:1; 
stroke-linecap:round; stroke-linejoin:round;">
<path d="M287.0022 110.0000
L285.0022 110.0000
" />
</g>
<g style="fill:none; 
stroke:#000000; stroke-width:0.1500; stroke-opacity:1; 
stroke-linecap:round; stroke-linejoin:round;">
<path d="M287.0022 160.0000
L285.0022 160.0000
" />
</g>
<g style="fill:none; 
stroke:#000000; stroke-width:0.1500; stroke-opacity:1; 
stroke-linecap:round; stroke-linejoin:round;">
<text x="286.0022" y="35.6500"
textLength="1.3043" font-size="1.7333" lengthAdjust="spacingAndGlyphs"
text-anchor="middle" opacity="0">A</text>
<g class="stroked-text"><desc>A</desc>
<path d="M285.6927 35.2222
L286.3117 35.2222
" />
<path d="M285.5689 35.5936
L286.0022 34.2936
" />
<path d="M286.0022 34.2936
L286.4355 35.5936
" />
</g></g>
<g style="fill:none; 
stroke:#000000; stroke-width:0.1500; stroke-opacity:1; 
stroke-linecap:round; stroke-linejoin:round;">
<text x="286.0022" y="85.6500"
textLength="1.4900" font-size="1.7333" lengthAdjust="spacingAndGlyphs"
text-anchor="middle" opacity="0">B</text>
<g class="stroked-text"><desc>B</desc>
<path d="M286.0951 84.9127
L286.2808 84.9746
" />
<path d="M286.2808 84.9746
L286.3427 85.0365
" />
<path d="M286.3427 85.0365
L286.4046 85.1603
" />
<path d="M286.4046 85.1603
L286.4046 85.3460
" />
<path d="M286.4046 85.3460
L286.3427 85.4698
" />
<path d="M286.3427 85.4698
L286.2808 85.5317
" />
<path d="M286.2808 85.5317
L286.1570 85.5936
" />
<path d="M286.1570 85.5936
L285.6617 85.5936
" />
<path d="M285.6617 85.5936
L285.6617 84.2936
" />
<path d="M285.6617 84.2936
L286.0951 84.2936
" />
<path d="M286.0951 84.2936
L286.2189 84.3555
" />
<path d="M286.2189 84.3555
L286.2808 84.4174
" />
<path d="M286.2808 84.4174
L286.3427 84.5412
" />
<path d="M286.3427 84.5412
L286.3427 84.6650
" />
<path d="M286.3427 84.6650
L286.2808 84.7888
" />
<path d="M286.2808 84.7888
L286.2189 84.8507
" />
<path d="M286.2189 84.8507
L286.0951 84.9127
" />
<path d="M286.0951 84.9127
L285.6617 84.9127
" />
</g></g>
<g style="fill:none; 
stroke:#000000; stroke-width:0.1500; stroke-opacity:1; 
stroke-linecap:round; stroke-linejoin:round;">
<text x="286.0022" y="135.6500"
textLength="1.4900" font-size="1.7333" lengthAdjust="spacingAndGlyphs"
text-anchor="middle" opacity="0">C</text>
<g class="stroked-text"><desc>C</desc>
<path d="M286.4046 135.4698
L286.3427 135.5317
" />
<path d="M286.3427 135.5317
L286.1570 135.5936
" />
<path d="M286.1570 135.5936
L286.0332 135.5936
" />
<path d="M286.0332 135.5936
L285.8474 135.5317
" />
<path d="M285.8474 135.5317
L285.7236 135.4079
" />
<path d="M285.7236 135.4079
L285.6617 135.2841
" />
<path d="M285.6617 135.2841
L285.5998 135.0365
" />
<path d="M285.5998 135.0365
L285.5998 134.8507
" />
<path d="M285.5998 134.8507
L285.6617 134.6031
" />
<path d="M285.6617 134.6031
L285.7236 134.4793
" />
<path d="M285.7236 134.4793
L285.8474 134.3555
" />
<path d="M285.8474 134.3555
L286.0332 134.2936
" />
<path d="M286.0332 134.2936
L286.1570 134.2936
" />
<path d="M286.1570 134.2936
L286.3427 134.3555
" />
<path d="M286.3427 134.3555
L286.4046 134.4174
" />
</g></g>
<g style="fill:none; 
stroke:#000000; stroke-width:0.1500; stroke-opacity:1; 
stroke-linecap:round; stroke-linejoin:round;">
<text x="286.0022" y="185.6500"
textLength="1.4900" font-size="1.7333" lengthAdjust="spacingAndGlyphs"
text-anchor="middle" opacity="0">D</text>
<g class="stroked-text"><desc>D</desc>
<path d="M285.6617 185.5936
L285.6617 184.2936
" />
<path d="M285.6617 184.2936
L285.9712 184.2936
" />
<path d="M285.9712 184.2936
L286.1570 184.3555
" />
<path d="M286.1570 184.3555
L286.2808 184.4793
" />
<path d="M286.2808 184.4793
L286.3427 184.6031
" />
<path d="M286.3427 184.6031
L286.4046 184.8507
" />
<path d="M286.4046 184.8507
L286.4046 185.0365
" />
<path d="M286.4046 185.0365
L286.3427 185.2841
" />
<path d="M286.3427 185.2841
L286.2808 185.4079
" />
<path d="M286.2808 185.4079
L286.1570 185.5317
" />
<path d="M286.1570 185.5317
L285.9712 185.5936
" />
<path d="M285.9712 185.5936
L285.6617 185.5936
" />
</g></g>
<g style="fill:none; 
stroke:#000000; stroke-width:0.1500; stroke-opacity:1; 
stroke-linecap:round; stroke-linejoin:round;">
<text x="200.0022" y="193.8572"
textLength="7.0071" font-size="2.0000" lengthAdjust="spacingAndGlyphs"
text-anchor="start" opacity="0">Date: </text>
<g class="stroked-text"><desc>Date: </desc>
<path d="M200.4580 193.7933
L200.4580 192.2933
" />
<path d="M200.4580 192.2933
L200.8152 192.2933
" />
<path d="M200.8152 192.2933
L201.0295 192.3648
" />
<path d="M201.0295 192.3648
L201.1723 192.5076
" />
<path d="M201.1723 192.5076
L201.2437 192.6505
" />
<path d="M201.2437 192.6505
L201.3152 192.9362
" />
<path d="M201.3152 192.9362
L201.3152 193.1505
" />
<path d="M201.3152 193.1505
L201.2437 193.4362
" />
<path d="M201.2437 193.4362
L201.1723 193.5790
" />
<path d="M201.1723 193.5790
L201.0295 193.7219
" />
<path d="M201.0295 193.7219
L200.8152 193.7933
" />
<path d="M200.8152 193.7933
L200.4580 193.7933
" />
<path d="M202.6009 193.7933
L202.6009 193.0076
" />
<path d="M202.6009 193.0076
L202.5295 192.8648
" />
<path d="M202.5295 192.8648
L202.3866 192.7933
" />
<path d="M202.3866 192.7933
L202.1009 192.7933
" />
<path d="M202.1009 192.7933
L201.9580 192.8648
" />
<path d="M202.6009 193.7219
L202.4580 193.7933
" />
<path d="M202.4580 193.7933
L202.1009 193.7933
" />
<path d="M202.1009 193.7933
L201.9580 193.7219
" />
<path d="M201.9580 193.7219
L201.8866 193.5790
" />
<path d="M201.8866 193.5790
L201.8866 193.4362
" />
<path d="M201.8866 193.4362
L201.9580 193.2933
" />
<path d="M201.9580 193.2933
L202.1009 193.2219
" />
<path d="M202.1009 193.2219
L202.4580 193.2219
" />
<path d="M202.4580 193.2219
L202.6009 193.1505
" />
<path d="M203.1009 192.7933
L203.6723 192.7933
" />
<path d="M203.3152 192.2933
L203.3152 193.5790
" />
<path d="M203.3152 193.5790
L203.3866 193.7219
" />
<path d="M203.3866 193.7219
L203.5295 193.7933
" />
<path d="M203.5295 193.7933
L203.6723 193.7933
" />
<path d="M204.7437 193.7219
L204.6009 193.7933
" />
<path d="M204.6009 193.7933
L204.3152 193.7933
" />
<path d="M204.3152 193.7933
L204.1723 193.7219
" />
<path d="M204.1723 193.7219
L204.1009 193.5790
" />
<path d="M204.1009 193.5790
L204.1009 193.0076
" />
<path d="M204.1009 193.0076
L204.1723 192.8648
" />
<path d="M204.1723 192.8648
L204.3152 192.7933
" />
<path d="M204.3152 192.7933
L204.6009 192.7933
" />
<path d="M204.6009 192.7933
L204.7437 192.8648
" />
<path d="M204.7437 192.8648
L204.8152 193.0076
" />
<path d="M204.8152 193.0076
L204.8152 193.1505
" />
<path d="M204.8152 193.1505
L204.1009 193.2933
" />
<path d="M205.4580 193.6505
L205.5295 193.7219
" />
<path d="M205.5295 193.7219
L205.4580 193.7933
" />
<path d="M205.4580 193.7933
L205.3866 193.7219
" />
<path d="M205.3866 193.7219
L205.4580 193.6505
" />
<path d="M205.4580 193.6505
L205.4580 193.7933
" />
<path d="M205.4580 192.8648
L205.5295 192.9362
" />
<path d="M205.5295 192.9362
L205.4580 193.0076
" />
<path d="M205.4580 193.0076
L205.3866 192.9362
" />
<path d="M205.3866 192.9362
L205.4580 192.8648
" />
<path d="M205.4580 192.8648
L205.4580 193.0076
" />
</g></g>
<g style="fill:none; 
stroke:#000000; stroke-width:0.1500; stroke-opacity:1; 
stroke-linecap:round; stroke-linejoin:round;">
<path d="M177.0022 194.5072
L285.0022 194.5072
" />
</g>
<g style="fill:none; 
stroke:#000000; stroke-width:0.1500; stroke-opacity:1; 
stroke-linecap:round; stroke-linejoin:round;">
<text x="178.0022" y="196.6572"
textLength="20.8643" font-size="2.0000" lengthAdjust="spacingAndGlyphs"
text-anchor="start" opacity="0">KiCad E.D.A. 8.0.2</text>
<g class="stroked-text"><desc>KiCad E.D.A. 8.0.2</desc>
<path d="M178.4580 196.5933
L178.4580 195.0933
" />
<path d="M179.3152 196.5933
L178.6723 195.7362
" />
<path d="M179.3152 195.0933
L178.4580 195.9505
" />
<path d="M179.9580 196.5933
L179.9580 195.5933
" />
<path d="M179.9580 195.0933
L179.8866 195.1648
" />
<path d="M179.8866 195.1648
L179.9580 195.2362
" />
<path d="M179.9580 195.2362
L180.0295 195.1648
" />
<path d="M180.0295 195.1648
L179.9580 195.0933
" />
<path d="M179.9580 195.0933
L179.9580 195.2362
" />
<path d="M181.5295 196.4505
L181.4580 196.5219
" />
<path d="M181.4580 196.5219
L181.2437 196.5933
" />
<path d="M181.2437 196.5933
L181.1009 196.5933
" />
<path d="M181.1009 196.5933
L180.8866 196.5219
" />
<path d="M180.8866 196.5219
L180.7437 196.3790
" />
<path d="M180.7437 196.3790
L180.6723 196.2362
" />
<path d="M180.6723 196.2362
L180.6009 195.9505
" />
<path d="M180.6009 195.9505
L180.6009 195.7362
" />
<path d="M180.6009 195.7362
L180.6723 195.4505
" />
<path d="M180.6723 195.4505
L180.7437 195.3076
" />
<path d="M180.7437 195.3076
L180.8866 195.1648
" />
<path d="M180.8866 195.1648
L181.1009 195.0933
" />
<path d="M181.1009 195.0933
L181.2437 195.0933
" />
<path d="M181.2437 195.0933
L181.4580 195.1648
" />
<path d="M181.4580 195.1648
L181.5295 195.2362
" />
<path d="M182.8152 196.5933
L182.8152 195.8076
" />
<path d="M182.8152 195.8076
L182.7437 195.6648
" />
<path d="M182.7437 195.6648
L182.6009 195.5933
" />
<path d="M182.6009 195.5933
L182.3152 195.5933
" />
<path d="M182.3152 195.5933
L182.1723 195.6648
" />
<path d="M182.8152 196.5219
L182.6723 196.5933
" />
<path d="M182.6723 196.5933
L182.3152 196.5933
" />
<path d="M182.3152 196.5933
L182.1723 196.5219
" />
<path d="M182.1723 196.5219
L182.1009 196.3790
" />
<path d="M182.1009 196.3790
L182.1009 196.2362
" />
<path d="M182.1009 196.2362
L182.1723 196.0933
" />
<path d="M182.1723 196.0933
L182.3152 196.0219
" />
<path d="M182.3152 196.0219
L182.6723 196.0219
" />
<path d="M182.6723 196.0219
L182.8152 195.9505
" />
<path d="M184.1723 196.5933
L184.1723 195.0933
" />
<path d="M184.1723 196.5219
L184.0295 196.5933
" />
<path d="M184.0295 196.5933
L183.7437 196.5933
" />
<path d="M183.7437 196.5933
L183.6009 196.5219
" />
<path d="M183.6009 196.5219
L183.5295 196.4505
" />
<path d="M183.5295 196.4505
L183.4580 196.3076
" />
<path d="M183.4580 196.3076
L183.4580 195.8790
" />
<path d="M183.4580 195.8790
L183.5295 195.7362
" />
<path d="M183.5295 195.7362
L183.6009 195.6648
" />
<path d="M183.6009 195.6648
L183.7437 195.5933
" />
<path d="M183.7437 195.5933
L184.0295 195.5933
" />
<path d="M184.0295 195.5933
L184.1723 195.6648
" />
<path d="M186.0295 195.8076
L186.5295 195.8076
" />
<path d="M186.7437 196.5933
L186.0295 196.5933
" />
<path d="M186.0295 196.5933
L186.0295 195.0933
" />
<path d="M186.0295 195.0933
L186.7437 195.0933
" />
<path d="M187.3866 196.4505
L187.4580 196.5219
" />
<path d="M187.4580 196.5219
L187.3866 196.5933
" />
<path d="M187.3866 196.5933
L187.3152 196.5219
" />
<path d="M187.3152 196.5219
L187.3866 196.4505
" />
<path d="M187.3866 196.4505
L187.3866 196.5933
" />
<path d="M188.1009 196.5933
L188.1009 195.0933
" />
<path d="M188.1009 195.0933
L188.4580 195.0933
" />
<path d="M188.4580 195.0933
L188.6723 195.1648
" />
<path d="M188.6723 195.1648
L188.8152 195.3076
" />
<path d="M188.8152 195.3076
L188.8866 195.4505
" />
<path d="M188.8866 195.4505
L188.9580 195.7362
" />
<path d="M188.9580 195.7362
L188.9580 195.9505
" />
<path d="M188.9580 195.9505
L188.8866 196.2362
" />
<path d="M188.8866 196.2362
L188.8152 196.3790
" />
<path d="M188.8152 196.3790
L188.6723 196.5219
" />
<path d="M188.6723 196.5219
L188.4580 196.5933
" />
<path d="M188.4580 196.5933
L188.1009 196.5933
" />
<path d="M189.6009 196.4505
L189.6723 196.5219
" />
<path d="M189.6723 196.5219
L189.6009 196.5933
" />
<path d="M189.6009 196.5933
L189.5295 196.5219
" />
<path d="M189.5295 196.5219
L189.6009 196.4505
" />
<path d="M189.6009 196.4505
L189.6009 196.5933
" />
<path d="M190.2437 196.1648
L190.9580 196.1648
" />
<path d="M190.1009 196.5933
L190.6009 195.0933
" />
<path d="M190.6009 195.0933
L191.1009 196.5933
" />
<path d="M191.6009 196.4505
L191.6723 196.5219
" />
<path d="M191.6723 196.5219
L191.6009 196.5933
" />
<path d="M191.6009 196.5933
L191.5295 196.5219
" />
<path d="M191.5295 196.5219
L191.6009 196.4505
" />
<path d="M191.6009 196.4505
L191.6009 196.5933
" />
<path d="M193.6723 195.7362
L193.5295 195.6648
" />
<path d="M193.5295 195.6648
L193.4580 195.5933
" />
<path d="M193.4580 195.5933
L193.3866 195.4505
" />
<path d="M193.3866 195.4505
L193.3866 195.3790
" />
<path d="M193.3866 195.3790
L193.4580 195.2362
" />
<path d="M193.4580 195.2362
L193.5295 195.1648
" />
<path d="M193.5295 195.1648
L193.6723 195.0933
" />
<path d="M193.6723 195.0933
L193.9580 195.0933
" />
<path d="M193.9580 195.0933
L194.1009 195.1648
" />
<path d="M194.1009 195.1648
L194.1723 195.2362
" />
<path d="M194.1723 195.2362
L194.2437 195.3790
" />
<path d="M194.2437 195.3790
L194.2437 195.4505
" />
<path d="M194.2437 195.4505
L194.1723 195.5933
" />
<path d="M194.1723 195.5933
L194.1009 195.6648
" />
<path d="M194.1009 195.6648
L193.9580 195.7362
" />
<path d="M193.9580 195.7362
L193.6723 195.7362
" />
<path d="M193.6723 195.7362
L193.5295 195.8076
" />
<path d="M193.5295 195.8076
L193.4580 195.8790
" />
<path d="M193.4580 195.8790
L193.3866 196.0219
" />
<path d="M193.3866 196.0219
L193.3866 196.3076
" />
<path d="M193.3866 196.3076
L193.4580 196.4505
" />
<path d="M193.4580 196.4505
L193.5295 196.5219
" />
<path d="M193.5295 196.5219
L193.6723 196.5933
" />
<path d="M193.6723 196.5933
L193.9580 196.5933
" />
<path d="M193.9580 196.5933
L194.1009 196.5219
" />
<path d="M194.1009 196.5219
L194.1723 196.4505
" />
<path d="M194.1723 196.4505
L194.2437 196.3076
" />
<path d="M194.2437 196.3076
L194.2437 196.0219
" />
<path d="M194.2437 196.0219
L194.1723 195.8790
" />
<path d="M194.1723 195.8790
L194.1009 195.8076
" />
<path d="M194.1009 195.8076
L193.9580 195.7362
" />
<path d="M194.8866 196.4505
L194.9580 196.5219
" />
<path d="M194.9580 196.5219
L194.8866 196.5933
" />
<path d="M194.8866 196.5933
L194.8152 196.5219
" />
<path d="M194.8152 196.5219
L194.8866 196.4505
" />
<path d="M194.8866 196.4505
L194.8866 196.5933
" />
<path d="M195.8866 195.0933
L196.0295 195.0933
" />
<path d="M196.0295 195.0933
L196.1723 195.1648
" />
<path d="M196.1723 195.1648
L196.2437 195.2362
" />
<path d="M196.2437 195.2362
L196.3152 195.3790
" />
<path d="M196.3152 195.3790
L196.3866 195.6648
" />
<path d="M196.3866 195.6648
L196.3866 196.0219
" />
<path d="M196.3866 196.0219
L196.3152 196.3076
" />
<path d="M196.3152 196.3076
L196.2437 196.4505
" />
<path d="M196.2437 196.4505
L196.1723 196.5219
" />
<path d="M196.1723 196.5219
L196.0295 196.5933
" />
<path d="M196.0295 196.5933
L195.8866 196.5933
" />
<path d="M195.8866 196.5933
L195.7437 196.5219
" />
<path d="M195.7437 196.5219
L195.6723 196.4505
" />
<path d="M195.6723 196.4505
L195.6009 196.3076
" />
<path d="M195.6009 196.3076
L195.5295 196.0219
" />
<path d="M195.5295 196.0219
L195.5295 195.6648
" />
<path d="M195.5295 195.6648
L195.6009 195.3790
" />
<path d="M195.6009 195.3790
L195.6723 195.2362
" />
<path d="M195.6723 195.2362
L195.7437 195.1648
" />
<path d="M195.7437 195.1648
L195.8866 195.0933
" />
<path d="M197.0295 196.4505
L197.1009 196.5219
" />
<path d="M197.1009 196.5219
L197.0295 196.5933
" />
<path d="M197.0295 196.5933
L196.9580 196.5219
" />
<path d="M196.9580 196.5219
L197.0295 196.4505
" />
<path d="M197.0295 196.4505
L197.0295 196.5933
" />
<path d="M197.6723 195.2362
L197.7437 195.1648
" />
<path d="M197.7437 195.1648
L197.8866 195.0933
" />
<path d="M197.8866 195.0933
L198.2437 195.0933
" />
<path d="M198.2437 195.0933
L198.3866 195.1648
" />
<path d="M198.3866 195.1648
L198.4580 195.2362
" />
<path d="M198.4580 195.2362
L198.5295 195.3790
" />
<path d="M198.5295 195.3790
L198.5295 195.5219
" />
<path d="M198.5295 195.5219
L198.4580 195.7362
" />
<path d="M198.4580 195.7362
L197.6009 196.5933
" />
<path d="M197.6009 196.5933
L198.5295 196.5933
" />
</g></g>
<g style="fill:none; 
stroke:#000000; stroke-width:0.1500; stroke-opacity:1; 
stroke-linecap:round; stroke-linejoin:round;">
<path d="M177.0022 191.5072
L285.0022 191.5072
" />
</g>
<g style="fill:none; 
stroke:#000000; stroke-width:0.3000; stroke-opacity:1; 
stroke-linecap:round; stroke-linejoin:round;">
<text x="263.0022" y="193.8572"
textLength="6.3857" font-size="2.0000" lengthAdjust="spacingAndGlyphs"
text-anchor="start" opacity="0">Rev: </text>
<g class="stroked-text"><desc>Rev: </desc>
<path d="M264.4139 193.7855
L263.9139 193.0712
" />
<path d="M263.5567 193.7855
L263.5567 192.2855
" />
<path d="M263.5567 192.2855
L264.1281 192.2855
" />
<path d="M264.1281 192.2855
L264.2710 192.3570
" />
<path d="M264.2710 192.3570
L264.3424 192.4284
" />
<path d="M264.3424 192.4284
L264.4139 192.5712
" />
<path d="M264.4139 192.5712
L264.4139 192.7855
" />
<path d="M264.4139 192.7855
L264.3424 192.9284
" />
<path d="M264.3424 192.9284
L264.2710 192.9998
" />
<path d="M264.2710 192.9998
L264.1281 193.0712
" />
<path d="M264.1281 193.0712
L263.5567 193.0712
" />
<path d="M265.6281 193.7141
L265.4853 193.7855
" />
<path d="M265.4853 193.7855
L265.1996 193.7855
" />
<path d="M265.1996 193.7855
L265.0567 193.7141
" />
<path d="M265.0567 193.7141
L264.9853 193.5712
" />
<path d="M264.9853 193.5712
L264.9853 192.9998
" />
<path d="M264.9853 192.9998
L265.0567 192.8570
" />
<path d="M265.0567 192.8570
L265.1996 192.7855
" />
<path d="M265.1996 192.7855
L265.4853 192.7855
" />
<path d="M265.4853 192.7855
L265.6281 192.8570
" />
<path d="M265.6281 192.8570
L265.6996 192.9998
" />
<path d="M265.6996 192.9998
L265.6996 193.1427
" />
<path d="M265.6996 193.1427
L264.9853 193.2855
" />
<path d="M266.1996 192.7855
L266.5567 193.7855
" />
<path d="M266.5567 193.7855
L266.9139 192.7855
" />
<path d="M267.4853 193.6427
L267.5567 193.7141
" />
<path d="M267.5567 193.7141
L267.4853 193.7855
" />
<path d="M267.4853 193.7855
L267.4139 193.7141
" />
<path d="M267.4139 193.7141
L267.4853 193.6427
" />
<path d="M267.4853 193.6427
L267.4853 193.7855
" />
<path d="M267.4853 192.8570
L267.5567 192.9284
" />
<path d="M267.5567 192.9284
L267.4853 192.9998
" />
<path d="M267.4853 192.9998
L267.4139 192.9284
" />
<path d="M267.4139 192.9284
L267.4853 192.8570
" />
<path d="M267.4853 192.8570
L267.4853 192.9998
" />
</g></g>
<g style="fill:none; 
stroke:#000000; stroke-width:0.1500; stroke-opacity:1; 
stroke-linecap:round; stroke-linejoin:round;">
<text x="178.0022" y="193.8572"
textLength="9.3643" font-size="2.0000" lengthAdjust="spacingAndGlyphs"
text-anchor="start" opacity="0">Size: A4</text>
<g class="stroked-text"><desc>Size: A4</desc>
<path d="M178.3866 193.7219
L178.6009 193.7933
" />
<path d="M178.6009 193.7933
L178.9580 193.7933
" />
<path d="M178.9580 193.7933
L179.1009 193.7219
" />
<path d="M179.1009 193.7219
L179.1723 193.6505
" />
<path d="M179.1723 193.6505
L179.2437 193.5076
" />
<path d="M179.2437 193.5076
L179.2437 193.3648
" />
<path d="M179.2437 193.3648
L179.1723 193.2219
" />
<path d="M179.1723 193.2219
L179.1009 193.1505
" />
<path d="M179.1009 193.1505
L178.9580 193.0790
" />
<path d="M178.9580 193.0790
L178.6723 193.0076
" />
<path d="M178.6723 193.0076
L178.5295 192.9362
" />
<path d="M178.5295 192.9362
L178.4580 192.8648
" />
<path d="M178.4580 192.8648
L178.3866 192.7219
" />
<path d="M178.3866 192.7219
L178.3866 192.5790
" />
<path d="M178.3866 192.5790
L178.4580 192.4362
" />
<path d="M178.4580 192.4362
L178.5295 192.3648
" />
<path d="M178.5295 192.3648
L178.6723 192.2933
" />
<path d="M178.6723 192.2933
L179.0295 192.2933
" />
<path d="M179.0295 192.2933
L179.2437 192.3648
" />
<path d="M179.8866 193.7933
L179.8866 192.7933
" />
<path d="M179.8866 192.2933
L179.8152 192.3648
" />
<path d="M179.8152 192.3648
L179.8866 192.4362
" />
<path d="M179.8866 192.4362
L179.9580 192.3648
" />
<path d="M179.9580 192.3648
L179.8866 192.2933
" />
<path d="M179.8866 192.2933
L179.8866 192.4362
" />
<path d="M180.4580 192.7933
L181.2437 192.7933
" />
<path d="M181.2437 192.7933
L180.4580 193.7933
" />
<path d="M180.4580 193.7933
L181.2437 193.7933
" />
<path d="M182.3866 193.7219
L182.2437 193.7933
" />
<path d="M182.2437 193.7933
L181.9580 193.7933
" />
<path d="M181.9580 193.7933
L181.8152 193.7219
" />
<path d="M181.8152 193.7219
L181.7437 193.5790
" />
<path d="M181.7437 193.5790
L181.7437 193.0076
" />
<path d="M181.7437 193.0076
L181.8152 192.8648
" />
<path d="M181.8152 192.8648
L181.9580 192.7933
" />
<path d="M181.9580 192.7933
L182.2437 192.7933
" />
<path d="M182.2437 192.7933
L182.3866 192.8648
" />
<path d="M182.3866 192.8648
L182.4580 193.0076
" />
<path d="M182.4580 193.0076
L182.4580 193.1505
" />
<path d="M182.4580 193.1505
L181.7437 193.2933
" />
<path d="M183.1009 193.6505
L183.1723 193.7219
" />
<path d="M183.1723 193.7219
L183.1009 193.7933
" />
<path d="M183.1009 193.7933
L183.0295 193.7219
" />
<path d="M183.0295 193.7219
L183.1009 193.6505
" />
<path d="M183.1009 193.6505
L183.1009 193.7933
" />
<path d="M183.1009 192.8648
L183.1723 192.9362
" />
<path d="M183.1723 192.9362
L183.1009 193.0076
" />
<path d="M183.1009 193.0076
L183.0295 192.9362
" />
<path d="M183.0295 192.9362
L183.1009 192.8648
" />
<path d="M183.1009 192.8648
L183.1009 193.0076
" />
<path d="M184.8866 193.3648
L185.6009 193.3648
" />
<path d="M184.7437 193.7933
L185.2437 192.2933
" />
<path d="M185.2437 192.2933
L185.7437 193.7933
" />
<path d="M186.8866 192.7933
L186.8866 193.7933
" />
<path d="M186.5295 192.2219
L186.1723 193.2933
" />
<path d="M186.1723 193.2933
L187.1009 193.2933
" />
</g></g>
<g style="fill:none; 
stroke:#000000; stroke-width:0.1500; stroke-opacity:1; 
stroke-linecap:round; stroke-linejoin:round;">
<text x="263.0022" y="196.6572"
textLength="8.5071" font-size="2.0000" lengthAdjust="spacingAndGlyphs"
text-anchor="start" opacity="0">Id: 1/1</text>
<g class="stroked-text"><desc>Id: 1/1</desc>
<path d="M263.4580 196.5933
L263.4580 195.0933
" />
<path d="M264.8152 196.5933
L264.8152 195.0933
" />
<path d="M264.8152 196.5219
L264.6723 196.5933
" />
<path d="M264.6723 196.5933
L264.3866 196.5933
" />
<path d="M264.3866 196.5933
L264.2437 196.5219
" />
<path d="M264.2437 196.5219
L264.1723 196.4505
" />
<path d="M264.1723 196.4505
L264.1009 196.3076
" />
<path d="M264.1009 196.3076
L264.1009 195.8790
" />
<path d="M264.1009 195.8790
L264.1723 195.7362
" />
<path d="M264.1723 195.7362
L264.2437 195.6648
" />
<path d="M264.2437 195.6648
L264.3866 195.5933
" />
<path d="M264.3866 195.5933
L264.6723 195.5933
" />
<path d="M264.6723 195.5933
L264.8152 195.6648
" />
<path d="M265.5295 196.4505
L265.6009 196.5219
" />
<path d="M265.6009 196.5219
L265.5295 196.5933
" />
<path d="M265.5295 196.5933
L265.4580 196.5219
" />
<path d="M265.4580 196.5219
L265.5295 196.4505
" />
<path d="M265.5295 196.4505
L265.5295 196.5933
" />
<path d="M265.5295 195.6648
L265.6009 195.7362
" />
<path d="M265.6009 195.7362
L265.5295 195.8076
" />
<path d="M265.5295 195.8076
L265.4580 195.7362
" />
<path d="M265.4580 195.7362
L265.5295 195.6648
" />
<path d="M265.5295 195.6648
L265.5295 195.8076
" />
<path d="M268.1723 196.5933
L267.3152 196.5933
" />
<path d="M267.7437 196.5933
L267.7437 195.0933
" />
<path d="M267.7437 195.0933
L267.6009 195.3076
" />
<path d="M267.6009 195.3076
L267.4580 195.4505
" />
<path d="M267.4580 195.4505
L267.3152 195.5219
" />
<path d="M269.8866 195.0219
L268.6009 196.9505
" />
<path d="M271.1723 196.5933
L270.3152 196.5933
" />
<path d="M270.7437 196.5933
L270.7437 195.0933
" />
<path d="M270.7437 195.0933
L270.6009 195.3076
" />
<path d="M270.6009 195.3076
L270.4580 195.4505
" />
<path d="M270.4580 195.4505
L270.3152 195.5219
" />
</g></g>
<g style="fill:none; 
stroke:#000000; stroke-width:0.1500; stroke-opacity:1; 
stroke-linecap:round; stroke-linejoin:round;">
<path d="M177.0022 187.5072
L285.0022 187.5072
" />
</g>
<g style="fill:none; 
stroke:#000000; stroke-width:0.4000; stroke-opacity:1; 
stroke-linecap:round; stroke-linejoin:round;">
<text x="178.0022" y="190.3072"
textLength="9.6571" font-size="2.6667" lengthAdjust="spacingAndGlyphs"
text-anchor="start" opacity="0">Title: </text>
<g class="stroked-text"><desc>Title: </desc>
<path d="M178.6939 188.2116
L179.8368 188.2116
" />
<path d="M179.0154 190.2116
L179.2654 188.2116
" />
<path d="M180.2535 190.2116
L180.4201 188.8783
" />
<path d="M180.5035 188.2116
L180.3963 188.3069
" />
<path d="M180.3963 188.3069
L180.4796 188.4021
" />
<path d="M180.4796 188.4021
L180.5868 188.3069
" />
<path d="M180.5868 188.3069
L180.5035 188.2116
" />
<path d="M180.5035 188.2116
L180.4796 188.4021
" />
<path d="M181.0868 188.8783
L181.8487 188.8783
" />
<path d="M181.4558 188.2116
L181.2415 189.9259
" />
<path d="M181.2415 189.9259
L181.3130 190.1164
" />
<path d="M181.3130 190.1164
L181.4915 190.2116
" />
<path d="M181.4915 190.2116
L181.6820 190.2116
" />
<path d="M182.6344 190.2116
L182.4558 190.1164
" />
<path d="M182.4558 190.1164
L182.3844 189.9259
" />
<path d="M182.3844 189.9259
L182.5987 188.2116
" />
<path d="M184.1701 190.1164
L183.9677 190.2116
" />
<path d="M183.9677 190.2116
L183.5868 190.2116
" />
<path d="M183.5868 190.2116
L183.4082 190.1164
" />
<path d="M183.4082 190.1164
L183.3368 189.9259
" />
<path d="M183.3368 189.9259
L183.4320 189.1640
" />
<path d="M183.4320 189.1640
L183.5511 188.9735
" />
<path d="M183.5511 188.9735
L183.7535 188.8783
" />
<path d="M183.7535 188.8783
L184.1344 188.8783
" />
<path d="M184.1344 188.8783
L184.3130 188.9735
" />
<path d="M184.3130 188.9735
L184.3844 189.1640
" />
<path d="M184.3844 189.1640
L184.3606 189.3545
" />
<path d="M184.3606 189.3545
L183.3844 189.5450
" />
<path d="M185.1344 190.0212
L185.2177 190.1164
" />
<path d="M185.2177 190.1164
L185.1106 190.2116
" />
<path d="M185.1106 190.2116
L185.0273 190.1164
" />
<path d="M185.0273 190.1164
L185.1344 190.0212
" />
<path d="M185.1344 190.0212
L185.1106 190.2116
" />
<path d="M185.2654 188.9735
L185.3487 189.0688
" />
<path d="M185.3487 189.0688
L185.2415 189.1640
" />
<path d="M185.2415 189.1640
L185.1582 189.0688
" />
<path d="M185.1582 189.0688
L185.2654 188.9735
" />
<path d="M185.2654 188.9735
L185.2415 189.1640
" />
</g></g>
<g style="fill:none; 
stroke:#000000; stroke-width:0.1500; stroke-opacity:1; 
stroke-linecap:round; stroke-linejoin:round;">
<text x="178.0022" y="186.4572"
textLength="25.7214" font-size="2.0000" lengthAdjust="spacingAndGlyphs"
text-anchor="start" opacity="0">File: kazhan.kicad_pcb</text>
<g class="stroked-text"><desc>File: kazhan.kicad_pcb</desc>
<path d="M178.9580 185.6076
L178.4580 185.6076
" />
<path d="M178.4580 186.3933
L178.4580 184.8933
" />
<path d="M178.4580 184.8933
L179.1723 184.8933
" />
<path d="M179.7437 186.3933
L179.7437 185.3933
" />
<path d="M179.7437 184.8933
L179.6723 184.9648
" />
<path d="M179.6723 184.9648
L179.7437 185.0362
" />
<path d="M179.7437 185.0362
L179.8152 184.9648
" />
<path d="M179.8152 184.9648
L179.7437 184.8933
" />
<path d="M179.7437 184.8933
L179.7437 185.0362
" />
<path d="M180.6723 186.3933
L180.5295 186.3219
" />
<path d="M180.5295 186.3219
L180.4580 186.1790
" />
<path d="M180.4580 186.1790
L180.4580 184.8933
" />
<path d="M181.8152 186.3219
L181.6723 186.3933
" />
<path d="M181.6723 186.3933
L181.3866 186.3933
" />
<path d="M181.3866 186.3933
L181.2437 186.3219
" />
<path d="M181.2437 186.3219
L181.1723 186.1790
" />
<path d="M181.1723 186.1790
L181.1723 185.6076
" />
<path d="M181.1723 185.6076
L181.2437 185.4648
" />
<path d="M181.2437 185.4648
L181.3866 185.3933
" />
<path d="M181.3866 185.3933
L181.6723 185.3933
" />
<path d="M181.6723 185.3933
L181.8152 185.4648
" />
<path d="M181.8152 185.4648
L181.8866 185.6076
" />
<path d="M181.8866 185.6076
L181.8866 185.7505
" />
<path d="M181.8866 185.7505
L181.1723 185.8933
" />
<path d="M182.5295 186.2505
L182.6009 186.3219
" />
<path d="M182.6009 186.3219
L182.5295 186.3933
" />
<path d="M182.5295 186.3933
L182.4580 186.3219
" />
<path d="M182.4580 186.3219
L182.5295 186.2505
" />
<path d="M182.5295 186.2505
L182.5295 186.3933
" />
<path d="M182.5295 185.4648
L182.6009 185.5362
" />
<path d="M182.6009 185.5362
L182.5295 185.6076
" />
<path d="M182.5295 185.6076
L182.4580 185.5362
" />
<path d="M182.4580 185.5362
L182.5295 185.4648
" />
<path d="M182.5295 185.4648
L182.5295 185.6076
" />
<path d="M184.3866 186.3933
L184.3866 184.8933
" />
<path d="M184.5295 185.8219
L184.9580 186.3933
" />
<path d="M184.9580 185.3933
L184.3866 185.9648
" />
<path d="M186.2437 186.3933
L186.2437 185.6076
" />
<path d="M186.2437 185.6076
L186.1723 185.4648
" />
<path d="M186.1723 185.4648
L186.0295 185.3933
" />
<path d="M186.0295 185.3933
L185.7437 185.3933
" />
<path d="M185.7437 185.3933
L185.6009 185.4648
" />
<path d="M186.2437 186.3219
L186.1009 186.3933
" />
<path d="M186.1009 186.3933
L185.7437 186.3933
" />
<path d="M185.7437 186.3933
L185.6009 186.3219
" />
<path d="M185.6009 186.3219
L185.5295 186.1790
" />
<path d="M185.5295 186.1790
L185.5295 186.0362
" />
<path d="M185.5295 186.0362
L185.6009 185.8933
" />
<path d="M185.6009 185.8933
L185.7437 185.8219
" />
<path d="M185.7437 185.8219
L186.1009 185.8219
" />
<path d="M186.1009 185.8219
L186.2437 185.7505
" />
<path d="M186.8152 185.3933
L187.6009 185.3933
" />
<path d="M187.6009 185.3933
L186.8152 186.3933
" />
<path d="M186.8152 186.3933
L187.6009 186.3933
" />
<path d="M188.1723 186.3933
L188.1723 184.8933
" />
<path d="M188.8152 186.3933
L188.8152 185.6076
" />
<path d="M188.8152 185.6076
L188.7437 185.4648
" />
<path d="M188.7437 185.4648
L188.6009 185.3933
" />
<path d="M188.6009 185.3933
L188.3866 185.3933
" />
<path d="M188.3866 185.3933
L188.2437 185.4648
" />
<path d="M188.2437 185.4648
L188.1723 185.5362
" />
<path d="M190.1723 186.3933
L190.1723 185.6076
" />
<path d="M190.1723 185.6076
L190.1009 185.4648
" />
<path d="M190.1009 185.4648
L189.9580 185.3933
" />
<path d="M189.9580 185.3933
L189.6723 185.3933
" />
<path d="M189.6723 185.3933
L189.5295 185.4648
" />
<path d="M190.1723 186.3219
L190.0295 186.3933
" />
<path d="M190.0295 186.3933
L189.6723 186.3933
" />
<path d="M189.6723 186.3933
L189.5295 186.3219
" />
<path d="M189.5295 186.3219
L189.4580 186.1790
" />
<path d="M189.4580 186.1790
L189.4580 186.0362
" />
<path d="M189.4580 186.0362
L189.5295 185.8933
" />
<path d="M189.5295 185.8933
L189.6723 185.8219
" />
<path d="M189.6723 185.8219
L190.0295 185.8219
" />
<path d="M190.0295 185.8219
L190.1723 185.7505
" />
<path d="M190.8866 185.3933
L190.8866 186.3933
" />
<path d="M190.8866 185.5362
L190.9580 185.4648
" />
<path d="M190.9580 185.4648
L191.1009 185.3933
" />
<path d="M191.1009 185.3933
L191.3152 185.3933
" />
<path d="M191.3152 185.3933
L191.4580 185.4648
" />
<path d="M191.4580 185.4648
L191.5295 185.6076
" />
<path d="M191.5295 185.6076
L191.5295 186.3933
" />
<path d="M192.2437 186.2505
L192.3152 186.3219
" />
<path d="M192.3152 186.3219
L192.2437 186.3933
" />
<path d="M192.2437 186.3933
L192.1723 186.3219
" />
<path d="M192.1723 186.3219
L192.2437 186.2505
" />
<path d="M192.2437 186.2505
L192.2437 186.3933
" />
<path d="M192.9580 186.3933
L192.9580 184.8933
" />
<path d="M193.1009 185.8219
L193.5295 186.3933
" />
<path d="M193.5295 185.3933
L192.9580 185.9648
" />
<path d="M194.1723 186.3933
L194.1723 185.3933
" />
<path d="M194.1723 184.8933
L194.1009 184.9648
" />
<path d="M194.1009 184.9648
L194.1723 185.0362
" />
<path d="M194.1723 185.0362
L194.2437 184.9648
" />
<path d="M194.2437 184.9648
L194.1723 184.8933
" />
<path d="M194.1723 184.8933
L194.1723 185.0362
" />
<path d="M195.5295 186.3219
L195.3866 186.3933
" />
<path d="M195.3866 186.3933
L195.1009 186.3933
" />
<path d="M195.1009 186.3933
L194.9580 186.3219
" />
<path d="M194.9580 186.3219
L194.8866 186.2505
" />
<path d="M194.8866 186.2505
L194.8152 186.1076
" />
<path d="M194.8152 186.1076
L194.8152 185.6790
" />
<path d="M194.8152 185.6790
L194.8866 185.5362
" />
<path d="M194.8866 185.5362
L194.9580 185.4648
" />
<path d="M194.9580 185.4648
L195.1009 185.3933
" />
<path d="M195.1009 185.3933
L195.3866 185.3933
" />
<path d="M195.3866 185.3933
L195.5295 185.4648
" />
<path d="M196.8152 186.3933
L196.8152 185.6076
" />
<path d="M196.8152 185.6076
L196.7437 185.4648
" />
<path d="M196.7437 185.4648
L196.6009 185.3933
" />
<path d="M196.6009 185.3933
L196.3152 185.3933
" />
<path d="M196.3152 185.3933
L196.1723 185.4648
" />
<path d="M196.8152 186.3219
L196.6723 186.3933
" />
<path d="M196.6723 186.3933
L196.3152 186.3933
" />
<path d="M196.3152 186.3933
L196.1723 186.3219
" />
<path d="M196.1723 186.3219
L196.1009 186.1790
" />
<path d="M196.1009 186.1790
L196.1009 186.0362
" />
<path d="M196.1009 186.0362
L196.1723 185.8933
" />
<path d="M196.1723 185.8933
L196.3152 185.8219
" />
<path d="M196.3152 185.8219
L196.6723 185.8219
" />
<path d="M196.6723 185.8219
L196.8152 185.7505
" />
<path d="M198.1723 186.3933
L198.1723 184.8933
" />
<path d="M198.1723 186.3219
L198.0295 186.3933
" />
<path d="M198.0295 186.3933
L197.7437 186.3933
" />
<path d="M197.7437 186.3933
L197.6009 186.3219
" />
<path d="M197.6009 186.3219
L197.5295 186.2505
" />
<path d="M197.5295 186.2505
L197.4580 186.1076
" />
<path d="M197.4580 186.1076
L197.4580 185.6790
" />
<path d="M197.4580 185.6790
L197.5295 185.5362
" />
<path d="M197.5295 185.5362
L197.6009 185.4648
" />
<path d="M197.6009 185.4648
L197.7437 185.3933
" />
<path d="M197.7437 185.3933
L198.0295 185.3933
" />
<path d="M198.0295 185.3933
L198.1723 185.4648
" />
<path d="M198.5295 186.5362
L199.6723 186.5362
" />
<path d="M200.0295 185.3933
L200.0295 186.8933
" />
<path d="M200.0295 185.4648
L200.1723 185.3933
" />
<path d="M200.1723 185.3933
L200.4580 185.3933
" />
<path d="M200.4580 185.3933
L200.6009 185.4648
" />
<path d="M200.6009 185.4648
L200.6723 185.5362
" />
<path d="M200.6723 185.5362
L200.7437 185.6790
" />
<path d="M200.7437 185.6790
L200.7437 186.1076
" />
<path d="M200.7437 186.1076
L200.6723 186.2505
" />
<path d="M200.6723 186.2505
L200.6009 186.3219
" />
<path d="M200.6009 186.3219
L200.4580 186.3933
" />
<path d="M200.4580 186.3933
L200.1723 186.3933
" />
<path d="M200.1723 186.3933
L200.0295 186.3219
" />
<path d="M202.0295 186.3219
L201.8866 186.3933
" />
<path d="M201.8866 186.3933
L201.6009 186.3933
" />
<path d="M201.6009 186.3933
L201.4580 186.3219
" />
<path d="M201.4580 186.3219
L201.3866 186.2505
" />
<path d="M201.3866 186.2505
L201.3152 186.1076
" />
<path d="M201.3152 186.1076
L201.3152 185.6790
" />
<path d="M201.3152 185.6790
L201.3866 185.5362
" />
<path d="M201.3866 185.5362
L201.4580 185.4648
" />
<path d="M201.4580 185.4648
L201.6009 185.3933
" />
<path d="M201.6009 185.3933
L201.8866 185.3933
" />
<path d="M201.8866 185.3933
L202.0295 185.4648
" />
<path d="M202.6723 186.3933
L202.6723 184.8933
" />
<path d="M202.6723 185.4648
L202.8152 185.3933
" />
<path d="M202.8152 185.3933
L203.1009 185.3933
" />
<path d="M203.1009 185.3933
L203.2437 185.4648
" />
<path d="M203.2437 185.4648
L203.3152 185.5362
" />
<path d="M203.3152 185.5362
L203.3866 185.6790
" />
<path d="M203.3866 185.6790
L203.3866 186.1076
" />
<path d="M203.3866 186.1076
L203.3152 186.2505
" />
<path d="M203.3152 186.2505
L203.2437 186.3219
" />
<path d="M203.2437 186.3219
L203.1009 186.3933
" />
<path d="M203.1009 186.3933
L202.8152 186.3933
" />
<path d="M202.8152 186.3933
L202.6723 186.3219
" />
</g></g>
<g style="fill:none; 
stroke:#000000; stroke-width:0.1500; stroke-opacity:1; 
stroke-linecap:round; stroke-linejoin:round;">
<path d="M177.0022 181.5072
L285.0022 181.5072
" />
</g>
<g style="fill:none; 
stroke:#000000; stroke-width:0.1500; stroke-opacity:1; 
stroke-linecap:round; stroke-linejoin:round;">
<text x="178.0022" y="183.7572"
textLength="8.2214" font-size="2.0000" lengthAdjust="spacingAndGlyphs"
text-anchor="start" opacity="0">Sheet: </text>
<g class="stroked-text"><desc>Sheet: </desc>
<path d="M178.3866 183.6219
L178.6009 183.6933
" />
<path d="M178.6009 183.6933
L178.9580 183.6933
" />
<path d="M178.9580 183.6933
L179.1009 183.6219
" />
<path d="M179.1009 183.6219
L179.1723 183.5505
" />
<path d="M179.1723 183.5505
L179.2437 183.4076
" />
<path d="M179.2437 183.4076
L179.2437 183.2648
" />
<path d="M179.2437 183.2648
L179.1723 183.1219
" />
<path d="M179.1723 183.1219
L179.1009 183.0505
" />
<path d="M179.1009 183.0505
L178.9580 182.9790
" />
<path d="M178.9580 182.9790
L178.6723 182.9076
" />
<path d="M178.6723 182.9076
L178.5295 182.8362
" />
<path d="M178.5295 182.8362
L178.4580 182.7648
" />
<path d="M178.4580 182.7648
L178.3866 182.6219
" />
<path d="M178.3866 182.6219
L178.3866 182.4790
" />
<path d="M178.3866 182.4790
L178.4580 182.3362
" />
<path d="M178.4580 182.3362
L178.5295 182.2648
" />
<path d="M178.5295 182.2648
L178.6723 182.1933
" />
<path d="M178.6723 182.1933
L179.0295 182.1933
" />
<path d="M179.0295 182.1933
L179.2437 182.2648
" />
<path d="M179.8866 183.6933
L179.8866 182.1933
" />
<path d="M180.5295 183.6933
L180.5295 182.9076
" />
<path d="M180.5295 182.9076
L180.4580 182.7648
" />
<path d="M180.4580 182.7648
L180.3152 182.6933
" />
<path d="M180.3152 182.6933
L180.1009 182.6933
" />
<path d="M180.1009 182.6933
L179.9580 182.7648
" />
<path d="M179.9580 182.7648
L179.8866 182.8362
" />
<path d="M181.8152 183.6219
L181.6723 183.6933
" />
<path d="M181.6723 183.6933
L181.3866 183.6933
" />
<path d="M181.3866 183.6933
L181.2437 183.6219
" />
<path d="M181.2437 183.6219
L181.1723 183.4790
" />
<path d="M181.1723 183.4790
L181.1723 182.9076
" />
<path d="M181.1723 182.9076
L181.2437 182.7648
" />
<path d="M181.2437 182.7648
L181.3866 182.6933
" />
<path d="M181.3866 182.6933
L181.6723 182.6933
" />
<path d="M181.6723 182.6933
L181.8152 182.7648
" />
<path d="M181.8152 182.7648
L181.8866 182.9076
" />
<path d="M181.8866 182.9076
L181.8866 183.0505
" />
<path d="M181.8866 183.0505
L181.1723 183.1933
" />
<path d="M183.1009 183.6219
L182.9580 183.6933
" />
<path d="M182.9580 183.6933
L182.6723 183.6933
" />
<path d="M182.6723 183.6933
L182.5295 183.6219
" />
<path d="M182.5295 183.6219
L182.4580 183.4790
" />
<path d="M182.4580 183.4790
L182.4580 182.9076
" />
<path d="M182.4580 182.9076
L182.5295 182.7648
" />
<path d="M182.5295 182.7648
L182.6723 182.6933
" />
<path d="M182.6723 182.6933
L182.9580 182.6933
" />
<path d="M182.9580 182.6933
L183.1009 182.7648
" />
<path d="M183.1009 182.7648
L183.1723 182.9076
" />
<path d="M183.1723 182.9076
L183.1723 183.0505
" />
<path d="M183.1723 183.0505
L182.4580 183.1933
" />
<path d="M183.6009 182.6933
L184.1723 182.6933
" />
<path d="M183.8152 182.1933
L183.8152 183.4790
" />
<path d="M183.8152 183.4790
L183.8866 183.6219
" />
<path d="M183.8866 183.6219
L184.0295 183.6933
" />
<path d="M184.0295 183.6933
L184.1723 183.6933
" />
<path d="M184.6723 183.5505
L184.7437 183.6219
" />
<path d="M184.7437 183.6219
L184.6723 183.6933
" />
<path d="M184.6723 183.6933
L184.6009 183.6219
" />
<path d="M184.6009 183.6219
L184.6723 183.5505
" />
<path d="M184.6723 183.5505
L184.6723 183.6933
" />
<path d="M184.6723 182.7648
L184.7437 182.8362
" />
<path d="M184.7437 182.8362
L184.6723 182.9076
" />
<path d="M184.6723 182.9076
L184.6009 182.8362
" />
<path d="M184.6009 182.8362
L184.6723 182.7648
" />
<path d="M184.6723 182.7648
L184.6723 182.9076
" />
</g></g>
<g style="fill:none; 
stroke:#000000; stroke-width:0.3000; stroke-opacity:1; 
stroke-linecap:round; stroke-linejoin:round;">
<text x="178.0022" y="180.7572"
textLength="0.9000" font-size="2.0000" lengthAdjust="spacingAndGlyphs"
text-anchor="start" opacity="0"></text>
<g class="stroked-text"><desc></desc>
</g></g>
<g style="fill:none; 
stroke:#000000; stroke-width:0.1500; stroke-opacity:1; 
stroke-linecap:round; stroke-linejoin:round;">
<text x="178.0022" y="177.7572"
textLength="0.4500" font-size="2.0000" lengthAdjust="spacingAndGlyphs"
text-anchor="start" opacity="0"></text>
<g class="stroked-text"><desc></desc>
</g></g>
<g style="fill:none; 
stroke:#000000; stroke-width:0.1500; stroke-opacity:1; 
stroke-linecap:round; stroke-linejoin:round;">
<text x="178.0022" y="174.7572"
textLength="0.4500" font-size="2.0000" lengthAdjust="spacingAndGlyphs"
text-anchor="start" opacity="0"></text>
<g class="stroked-text"><desc></desc>
</g></g>
<g style="fill:none; 
stroke:#000000; stroke-width:0.1500; stroke-opacity:1; 
stroke-linecap:round; stroke-linejoin:round;">
<text x="178.0022" y="171.7572"
textLength="0.4500" font-size="2.0000" lengthAdjust="spacingAndGlyphs"
text-anchor="start" opacity="0"></text>
<g class="stroked-text"><desc></desc>
</g></g>
<g style="fill:none; 
stroke:#000000; stroke-width:0.1500; stroke-opacity:1; 
stroke-linecap:round; stroke-linejoin:round;">
<text x="178.0022" y="168.7572"
textLength="0.4500" font-size="2.0000" lengthAdjust="spacingAndGlyphs"
text-anchor="start" opacity="0"></text>
<g class="stroked-text"><desc></desc>
</g></g>
<g style="fill:none; 
stroke:#000000; stroke-width:0.1500; stroke-opacity:1; 
stroke-linecap:round; stroke-linejoin:round;">
<path d="M197.0022 191.5072
L197.0022 194.5072
" />
</g>
<g style="fill:none; 
stroke:#000000; stroke-width:0.1500; stroke-opacity:1; 
stroke-linecap:round; stroke-linejoin:round;">
<path d="M261.0022 191.5072
L261.0022 198.0072
" />
</g>
<g style="fill:none; 
stroke:#C2C2C2; stroke-width:0.1000; stroke-opacity:1; 
stroke-linecap:round; stroke-linejoin:round;">
<path d="M256.9690 54.3680
L265.9254 37.5551
" />
<path d="M240.1489 45.4245
L256.9690 54.3680
" />
<path d="M249.0923 28.6044
L240.1489 45.4245
" />
<path d="M265.9125 37.5478
L249.1053 28.6116
" />
</g>
<g style="fill:none; 
stroke:#C2C2C2; stroke-width:0.2000; stroke-opacity:1; 
stroke-linecap:round; stroke-linejoin:round;">
<path d="M271.9762 78.0000
L254.7627 83.2627
" />
<path d="M105.0530 93.1156
L96.8811 109.1537
" />
<path d="M208.6284 79.1437
L224.6665 70.9719
" />
<path d="M117.8962 109.7605
L101.8581 101.5887
" />
<path d="M197.6181 101.5887
L181.5800 109.7605
" />
<path d="M46.4630 83.9285
L53.2059 67.2392
" />
<path d="M245.8956 66.3120
L229.2063 73.0549
" />
<path d="M134.6938 76.7932
L126.5220 92.8314
" />
</g>
<g style="fill:none; 
stroke:#C2C2C2; stroke-width:0.1000; stroke-opacity:1; 
stroke-linecap:round; stroke-linejoin:round;">
<path d="M74.8097 70.9719
L82.6760 95.1819
" />
<path d="M83.4355 54.0428
L91.3018 78.2527
" />
</g>
<g style="fill:none; 
stroke:#C2C2C2; stroke-width:0.2000; stroke-opacity:1; 
stroke-linecap:round; stroke-linejoin:round;">
<path d="M181.5800 109.7605
L173.4082 93.7224
" />
<path d="M201.3815 67.1236
L185.3434 75.2955
" />
<path d="M89.4689 84.0528
L97.6407 68.0147
" />
<path d="M126.0680 93.7224
L117.8962 109.7605
" />
<path d="M122.3046 59.2574
L114.1328 75.2955
" />
<path d="M249.5000 66.0492
L266.7135 60.7865
" />
<path d="M191.8793 135.6718
L185.7229 152.5863
" />
<path d="M60.3235 49.6227
L67.4410 32.0062
" />
<path d="M199.5486 61.3236
L191.3767 45.2855
" />
<path d="M236.3238 90.6714
L229.5809 73.9821
" />
</g>
<g style="fill:none; 
stroke:#C2C2C2; stroke-width:0.1000; stroke-opacity:1; 
stroke-linecap:round; stroke-linejoin:round;">
<path d="M49.9762 66.0492
L27.5000 78.0000
" />
</g>
<g style="fill:none; 
stroke:#C2C2C2; stroke-width:0.2000; stroke-opacity:1; 
stroke-linecap:round; stroke-linejoin:round;">
<path d="M185.7974 76.1865
L201.8355 68.0147
" />
<path d="M49.9762 66.0492
L44.7135 83.2627
" />
<path d="M195.4262 107.9409
L207.4706 121.3175
" />
</g>
<g style="fill:none; 
stroke:#C2C2C2; stroke-width:0.1000; stroke-opacity:1; 
stroke-linecap:round; stroke-linejoin:round;">
<path d="M89.0149 84.9438
L96.8811 109.1537
" />
</g>
<g style="fill:none; 
stroke:#C2C2C2; stroke-width:0.2000; stroke-opacity:1; 
stroke-linecap:round; stroke-linejoin:round;">
<path d="M194.4232 93.1156
L210.4613 84.9438
" />
<path d="M108.0994 45.2855
L99.9276 61.3236
" />
<path d="M189.4463 85.5505
L197.6181 101.5887
" />
<path d="M32.7627 60.7865
L49.9762 66.0492
" />
</g>
<g style="fill:none; 
stroke:#C2C2C2; stroke-width:0.1000; stroke-opacity:1; 
stroke-linecap:round; stroke-linejoin:round;">
<path d="M104.0500 107.9409
L105.3822 133.3619
" />
</g>
<g style="fill:none; 
stroke:#C2C2C2; stroke-width:0.2000; stroke-opacity:1; 
stroke-linecap:round; stroke-linejoin:round;">
<path d="M215.5867 53.1518
L199.5486 61.3236
" />
<path d="M130.6677 146.4299
L113.7532 152.5863
" />
</g>
<g style="fill:none; 
stroke:#C2C2C2; stroke-width:0.1000; stroke-opacity:1; 
stroke-linecap:round; stroke-linejoin:round;">
<path d="M83.8895 53.1518
L108.0994 45.2855
" />
</g>
<g style="fill:none; 
stroke:#C2C2C2; stroke-width:0.2000; stroke-opacity:1; 
stroke-linecap:round; stroke-linejoin:round;">
<path d="M90.8478 79.1437
L82.6760 95.1819
" />
<path d="M84.1303 38.7491
L77.3874 55.4384
" />
</g>
<g style="fill:none; 
stroke:#C2C2C2; stroke-width:0.1000; stroke-opacity:1; 
stroke-linecap:round; stroke-linejoin:round;">
<path d="M36.1067 80.6313
L50.7253 32.8161
" />
</g>
<g style="fill:none; 
stroke:#C2C2C2; stroke-width:0.2000; stroke-opacity:1; 
stroke-linecap:round; stroke-linejoin:round;">
<path d="M207.4149 37.1137
L215.5867 53.1518
" />
<path d="M99.4736 62.2146
L91.3018 78.2527
" />
<path d="M173.4082 93.7224
L189.4463 85.5505
" />
<path d="M254.7627 83.2627
L249.5000 66.0492
" />
<path d="M53.5805 66.3120
L60.3235 49.6227
" />
<path d="M174.9648 129.5154
L191.8793 135.6718
" />
</g>
<g style="fill:none; 
stroke:#C2C2C2; stroke-width:0.1000; stroke-opacity:1; 
stroke-linecap:round; stroke-linejoin:round;">
<path d="M271.9762 78.0000
L263.3694 80.6313
" />
</g>
<g style="fill:none; 
stroke:#C2C2C2; stroke-width:0.2000; stroke-opacity:1; 
stroke-linecap:round; stroke-linejoin:round;">
<path d="M185.3434 75.2955
L177.1716 59.2574
" />
</g>
<g style="fill:none; 
stroke:#C2C2C2; stroke-width:0.1000; stroke-opacity:1; 
stroke-linecap:round; stroke-linejoin:round;">
<path d="M266.7135 60.7865
L254.7627 83.2627
" />
<path d="M134.6938 76.7932
L110.4839 84.6595
" />
</g>
<g style="fill:none; 
stroke:#C2C2C2; stroke-width:0.2000; stroke-opacity:1; 
stroke-linecap:round; stroke-linejoin:round;">
<path d="M63.1523 90.6714
L46.4630 83.9285
" />
</g>
<g style="fill:none; 
stroke:#C2C2C2; stroke-width:0.1000; stroke-opacity:1; 
stroke-linecap:round; stroke-linejoin:round;">
<path d="M113.6788 76.1865
L89.4689 84.0528
" />
<path d="M32.7627 60.7865
L44.7135 83.2627
" />
<path d="M97.6407 68.0147
L105.5070 92.2246
" />
</g>
<g style="fill:none; 
stroke:#C2C2C2; stroke-width:0.2000; stroke-opacity:1; 
stroke-linecap:round; stroke-linejoin:round;">
<path d="M105.3822 133.3619
L92.0056 121.3175
" />
<path d="M92.0056 121.3175
L104.0500 107.9409
" />
</g>
<g style="fill:none; 
stroke:#C2C2C2; stroke-width:0.1000; stroke-opacity:1; 
stroke-linecap:round; stroke-linejoin:round;">
<path d="M75.2637 70.0809
L99.4736 62.2146
" />
</g>
<g style="fill:none; 
stroke:#C2C2C2; stroke-width:0.2000; stroke-opacity:1; 
stroke-linecap:round; stroke-linejoin:round;">
<path d="M200.0026 62.2146
L216.0407 54.0428
" />
<path d="M117.4266 119.9852
L105.3822 133.3619
" />
</g>
<g style="fill:none; 
stroke:#C2C2C2; stroke-width:0.1000; stroke-opacity:1; 
stroke-linecap:round; stroke-linejoin:round;">
<path d="M126.0680 93.7224
L101.8581 101.5887
" />
</g>
<g style="fill:none; 
stroke:#C2C2C2; stroke-width:0.2000; stroke-opacity:1; 
stroke-linecap:round; stroke-linejoin:round;">
<path d="M168.8085 146.4299
L174.9648 129.5154
" />
<path d="M180.8205 68.6214
L188.9923 84.6595
" />
<path d="M67.4410 32.0062
L84.1303 38.7491
" />
<path d="M191.3767 45.2855
L207.4149 37.1137
" />
</g>
<g style="fill:none; 
stroke:#C2C2C2; stroke-width:0.1000; stroke-opacity:1; 
stroke-linecap:round; stroke-linejoin:round;">
<path d="M84.1303 38.7491
L60.6981 48.6955
" />
</g>
<g style="fill:none; 
stroke:#C2C2C2; stroke-width:0.2000; stroke-opacity:1; 
stroke-linecap:round; stroke-linejoin:round;">
<path d="M80.8430 100.9819
L89.0149 84.9438
" />
<path d="M92.0613 37.1137
L108.0994 45.2855
" />
</g>
<g style="fill:none; 
stroke:#C2C2C2; stroke-width:0.1000; stroke-opacity:1; 
stroke-linecap:round; stroke-linejoin:round;">
<path d="M90.8478 79.1437
L66.6379 87.0100
" />
</g>
<g style="fill:none; 
stroke:#C2C2C2; stroke-width:0.2000; stroke-opacity:1; 
stroke-linecap:round; stroke-linejoin:round;">
<path d="M69.8952 73.9821
L63.1523 90.6714
" />
<path d="M215.3459 38.7491
L232.0352 32.0062
" />
<path d="M201.8355 68.0147
L210.0073 84.0528
" />
<path d="M27.5000 78.0000
L32.7627 60.7865
" />
<path d="M182.0496 119.9852
L195.4262 107.9409
" />
<path d="M222.4634 56.3656
L239.1527 49.6227
" />
<path d="M218.6331 100.9819
L202.5950 109.1537
" />
</g>
<g style="fill:none; 
stroke:#C2C2C2; stroke-width:0.1000; stroke-opacity:1; 
stroke-linecap:round; stroke-linejoin:round;">
<path d="M164.7823 76.7932
L134.6938 76.7932
" />
</g>
<g style="fill:none; 
stroke:#C2C2C2; stroke-width:0.2000; stroke-opacity:1; 
stroke-linecap:round; stroke-linejoin:round;">
<path d="M96.8811 109.1537
L80.8430 100.9819
" />
<path d="M66.6379 87.0100
L74.8097 70.9719
" />
</g>
<g style="fill:none; 
stroke:#C2C2C2; stroke-width:0.1000; stroke-opacity:1; 
stroke-linecap:round; stroke-linejoin:round;">
<path d="M118.6557 68.6214
L126.5220 92.8314
" />
</g>
<g style="fill:none; 
stroke:#C2C2C2; stroke-width:0.2000; stroke-opacity:1; 
stroke-linecap:round; stroke-linejoin:round;">
<path d="M83.4355 54.0428
L99.4736 62.2146
" />
<path d="M216.8002 95.1819
L208.6284 79.1437
" />
<path d="M77.3874 55.4384
L60.6981 48.6955
" />
<path d="M193.2097 51.0855
L201.3815 67.1236
" />
<path d="M185.7229 152.5863
L168.8085 146.4299
" />
</g>
<g style="fill:none; 
stroke:#C2C2C2; stroke-width:0.1000; stroke-opacity:1; 
stroke-linecap:round; stroke-linejoin:round;">
<path d="M92.0613 37.1137
L99.9276 61.3236
" />
<path d="M258.1067 63.4179
L263.3694 80.6313
" />
</g>
<g style="fill:none; 
stroke:#C2C2C2; stroke-width:0.2000; stroke-opacity:1; 
stroke-linecap:round; stroke-linejoin:round;">
<path d="M208.1744 78.2527
L200.0026 62.2146
" />
<path d="M210.0073 84.0528
L193.9692 92.2246
" />
</g>
<g style="fill:none; 
stroke:#C2C2C2; stroke-width:0.1000; stroke-opacity:1; 
stroke-linecap:round; stroke-linejoin:round;">
<path d="M105.0530 93.1156
L80.8430 100.9819
" />
</g>
<g style="fill:none; 
stroke:#C2C2C2; stroke-width:0.2000; stroke-opacity:1; 
stroke-linecap:round; stroke-linejoin:round;">
<path d="M107.5969 135.6718
L124.5113 129.5154
" />
</g>
<g style="fill:none; 
stroke:#C2C2C2; stroke-width:0.1000; stroke-opacity:1; 
stroke-linecap:round; stroke-linejoin:round;">
<path d="M117.4266 119.9852
L92.0056 121.3175
" />
</g>
<g style="fill:none; 
stroke:#C2C2C2; stroke-width:0.2000; stroke-opacity:1; 
stroke-linecap:round; stroke-linejoin:round;">
<path d="M60.3235 49.6227
L77.0128 56.3656
" />
<path d="M75.2637 70.0809
L83.4355 54.0428
" />
<path d="M229.5809 73.9821
L246.2702 67.2392
" />
<path d="M44.7135 83.2627
L27.5000 78.0000
" />
<path d="M98.0947 67.1236
L106.2665 51.0855
" />
<path d="M74.8097 70.9719
L90.8478 79.1437
" />
<path d="M177.1716 59.2574
L193.2097 51.0855
" />
</g>
<g style="fill:none; 
stroke:#C2C2C2; stroke-width:0.1000; stroke-opacity:1; 
stroke-linecap:round; stroke-linejoin:round;">
<path d="M149.7381 76.7932
L149.7381 146.4299
" />
</g>
<g style="fill:none; 
stroke:#C2C2C2; stroke-width:0.2000; stroke-opacity:1; 
stroke-linecap:round; stroke-linejoin:round;">
<path d="M266.7135 60.7865
L271.9762 78.0000
" />
</g>
<g style="fill:none; 
stroke:#C2C2C2; stroke-width:0.1000; stroke-opacity:1; 
stroke-linecap:round; stroke-linejoin:round;">
<path d="M69.8952 73.9821
L46.4630 83.9285
" />
</g>
<g style="fill:none; 
stroke:#C2C2C2; stroke-width:0.2000; stroke-opacity:1; 
stroke-linecap:round; stroke-linejoin:round;">
<path d="M253.0132 83.9285
L236.3238 90.6714
" />
<path d="M210.4613 84.9438
L218.6331 100.9819
" />
<path d="M193.9692 92.2246
L185.7974 76.1865
" />
<path d="M89.0149 84.9438
L105.0530 93.1156
" />
<path d="M222.0888 55.4384
L215.3459 38.7491
" />
</g>
<g style="fill:none; 
stroke:#C2C2C2; stroke-width:0.1000; stroke-opacity:1; 
stroke-linecap:round; stroke-linejoin:round;">
<path d="M53.2059 67.2392
L63.1523 90.6714
" />
</g>
<g style="fill:none; 
stroke:#C2C2C2; stroke-width:0.2000; stroke-opacity:1; 
stroke-linecap:round; stroke-linejoin:round;">
<path d="M106.2665 51.0855
L122.3046 59.2574
" />
<path d="M232.8383 87.0100
L216.8002 95.1819
" />
<path d="M104.0500 107.9409
L117.4266 119.9852
" />
</g>
<g style="fill:none; 
stroke:#C2C2C2; stroke-width:0.1000; stroke-opacity:1; 
stroke-linecap:round; stroke-linejoin:round;">
<path d="M107.5969 135.6718
L130.6677 146.4299
" />
</g>
<g style="fill:none; 
stroke:#C2C2C2; stroke-width:0.2000; stroke-opacity:1; 
stroke-linecap:round; stroke-linejoin:round;">
<path d="M113.6788 76.1865
L105.5070 92.2246
" />
<path d="M126.5220 92.8314
L110.4839 84.6595
" />
</g>
<g style="fill:none; 
stroke:#C2C2C2; stroke-width:0.1000; stroke-opacity:1; 
stroke-linecap:round; stroke-linejoin:round;">
<path d="M77.0128 56.3656
L53.5805 66.3120
" />
<path d="M249.5000 66.0492
L271.9762 78.0000
" />
<path d="M67.4410 32.0062
L77.3874 55.4384
" />
</g>
<g style="fill:none; 
stroke:#C2C2C2; stroke-width:0.2000; stroke-opacity:1; 
stroke-linecap:round; stroke-linejoin:round;">
<path d="M110.4839 84.6595
L118.6557 68.6214
" />
</g>
<g style="fill:none; 
stroke:#C2C2C2; stroke-width:0.1000; stroke-opacity:1; 
stroke-linecap:round; stroke-linejoin:round;">
<path d="M124.5113 129.5154
L113.7532 152.5863
" />
</g>
<g style="fill:none; 
stroke:#C2C2C2; stroke-width:0.2000; stroke-opacity:1; 
stroke-linecap:round; stroke-linejoin:round;">
<path d="M110.0299 85.5505
L126.0680 93.7224
" />
<path d="M77.0128 56.3656
L70.2699 73.0549
" />
<path d="M118.6557 68.6214
L134.6938 76.7932
" />
</g>
<g style="fill:none; 
stroke:#C2C2C2; stroke-width:0.1000; stroke-opacity:1; 
stroke-linecap:round; stroke-linejoin:round;">
<path d="M106.2665 51.0855
L114.1328 75.2955
" />
</g>
<g style="fill:none; 
stroke:#C2C2C2; stroke-width:0.2000; stroke-opacity:1; 
stroke-linecap:round; stroke-linejoin:round;">
<path d="M114.1328 75.2955
L98.0947 67.1236
" />
<path d="M70.2699 73.0549
L53.5805 66.3120
" />
<path d="M164.7823 76.7932
L180.8205 68.6214
" />
<path d="M238.7781 48.6955
L222.0888 55.4384
" />
<path d="M232.0352 32.0062
L238.7781 48.6955
" />
<path d="M101.8581 101.5887
L110.0299 85.5505
" />
<path d="M188.9923 84.6595
L172.9542 92.8314
" />
<path d="M224.6665 70.9719
L232.8383 87.0100
" />
<path d="M173.4082 93.7224
L164.7823 76.7932
" />
<path d="M207.4706 121.3175
L194.0940 133.3619
" />
</g>
<g style="fill:none; 
stroke:#C2C2C2; stroke-width:0.1000; stroke-opacity:1; 
stroke-linecap:round; stroke-linejoin:round;">
<path d="M98.0947 67.1236
L122.3046 59.2574
" />
</g>
<g style="fill:none; 
stroke:#C2C2C2; stroke-width:0.2000; stroke-opacity:1; 
stroke-linecap:round; stroke-linejoin:round;">
<path d="M83.8895 53.1518
L92.0613 37.1137
" />
<path d="M124.5113 129.5154
L130.6677 146.4299
" />
<path d="M91.3018 78.2527
L75.2637 70.0809
" />
<path d="M194.0940 133.3619
L182.0496 119.9852
" />
<path d="M224.2125 70.0809
L208.1744 78.2527
" />
<path d="M105.5070 92.2246
L89.4689 84.0528
" />
</g>
<g style="fill:none; 
stroke:#C2C2C2; stroke-width:0.1000; stroke-opacity:1; 
stroke-linecap:round; stroke-linejoin:round;">
<path d="M168.8085 146.4299
L130.6677 146.4299
" />
</g>
<g style="fill:none; 
stroke:#C2C2C2; stroke-width:0.2000; stroke-opacity:1; 
stroke-linecap:round; stroke-linejoin:round;">
<path d="M82.6760 95.1819
L66.6379 87.0100
" />
</g>
<g style="fill:none; 
stroke:#C2C2C2; stroke-width:0.1000; stroke-opacity:1; 
stroke-linecap:round; stroke-linejoin:round;">
<path d="M110.0299 85.5505
L117.8962 109.7605
" />
</g>
<g style="fill:none; 
stroke:#C2C2C2; stroke-width:0.2000; stroke-opacity:1; 
stroke-linecap:round; stroke-linejoin:round;">
<path d="M229.2063 73.0549
L222.4634 56.3656
" />
<path d="M239.1527 49.6227
L245.8956 66.3120
" />
<path d="M202.5950 109.1537
L194.4232 93.1156
" />
<path d="M99.9276 61.3236
L83.8895 53.1518
" />
<path d="M246.2702 67.2392
L253.0132 83.9285
" />
<path d="M97.6407 68.0147
L113.6788 76.1865
" />
<path d="M53.2059 67.2392
L69.8952 73.9821
" />
<path d="M216.0407 54.0428
L224.2125 70.0809
" />
</g>
<g style="fill:none; 
stroke:#C2C2C2; stroke-width:0.1000; stroke-opacity:1; 
stroke-linecap:round; stroke-linejoin:round;">
<path d="M60.3235 49.6227
L70.2699 73.0549
" />
</g>
<g style="fill:none; 
stroke:#C2C2C2; stroke-width:0.2000; stroke-opacity:1; 
stroke-linecap:round; stroke-linejoin:round;">
<path d="M113.7532 152.5863
L107.5969 135.6718
" />
</g>
<g style="fill:none; 
stroke:#C2C2C2; stroke-width:0.1500; stroke-opacity:1; 
stroke-linecap:round; stroke-linejoin:round;">
<text x="82.0000" y="35.6000"
textLength="3.3929" font-size="1.3333" lengthAdjust="spacingAndGlyphs"
text-anchor="start" opacity="0">-22</text>
<g class="stroked-text"><desc>-22</desc>
<path d="M82.3368 35.0889
L83.0987 35.0889
" />
<path d="M83.5273 34.5651
L83.5749 34.5174
" />
<path d="M83.5749 34.5174
L83.6701 34.4698
" />
<path d="M83.6701 34.4698
L83.9082 34.4698
" />
<path d="M83.9082 34.4698
L84.0034 34.5174
" />
<path d="M84.0034 34.5174
L84.0511 34.5651
" />
<path d="M84.0511 34.5651
L84.0987 34.6603
" />
<path d="M84.0987 34.6603
L84.0987 34.7555
" />
<path d="M84.0987 34.7555
L84.0511 34.8984
" />
<path d="M84.0511 34.8984
L83.4796 35.4698
" />
<path d="M83.4796 35.4698
L84.0987 35.4698
" />
<path d="M84.4796 34.5651
L84.5273 34.5174
" />
<path d="M84.5273 34.5174
L84.6225 34.4698
" />
<path d="M84.6225 34.4698
L84.8606 34.4698
" />
<path d="M84.8606 34.4698
L84.9558 34.5174
" />
<path d="M84.9558 34.5174
L85.0034 34.5651
" />
<path d="M85.0034 34.5651
L85.0511 34.6603
" />
<path d="M85.0511 34.6603
L85.0511 34.7555
" />
<path d="M85.0511 34.7555
L85.0034 34.8984
" />
<path d="M85.0034 34.8984
L84.4320 35.4698
" />
<path d="M84.4320 35.4698
L85.0511 35.4698
" />
</g><text x="127.4000" y="131.0000"
textLength="3.3929" font-size="1.3333" lengthAdjust="spacingAndGlyphs"
text-anchor="start" opacity="0">-70</text>
<g class="stroked-text"><desc>-70</desc>
<path d="M127.7368 130.4889
L128.4987 130.4889
" />
<path d="M128.8796 129.8698
L129.5463 129.8698
" />
<path d="M129.5463 129.8698
L129.1177 130.8698
" />
<path d="M130.1177 129.8698
L130.2130 129.8698
" />
<path d="M130.2130 129.8698
L130.3082 129.9174
" />
<path d="M130.3082 129.9174
L130.3558 129.9651
" />
<path d="M130.3558 129.9651
L130.4034 130.0603
" />
<path d="M130.4034 130.0603
L130.4511 130.2508
" />
<path d="M130.4511 130.2508
L130.4511 130.4889
" />
<path d="M130.4511 130.4889
L130.4034 130.6793
" />
<path d="M130.4034 130.6793
L130.3558 130.7746
" />
<path d="M130.3558 130.7746
L130.3082 130.8222
" />
<path d="M130.3082 130.8222
L130.2130 130.8698
" />
<path d="M130.2130 130.8698
L130.1177 130.8698
" />
<path d="M130.1177 130.8698
L130.0225 130.8222
" />
<path d="M130.0225 130.8222
L129.9749 130.7746
" />
<path d="M129.9749 130.7746
L129.9273 130.6793
" />
<path d="M129.9273 130.6793
L129.8796 130.4889
" />
<path d="M129.8796 130.4889
L129.8796 130.2508
" />
<path d="M129.8796 130.2508
L129.9273 130.0603
" />
<path d="M129.9273 130.0603
L129.9749 129.9651
" />
<path d="M129.9749 129.9651
L130.0225 129.9174
" />
<path d="M130.0225 129.9174
L130.1177 129.8698
" />
</g><text x="47.2000" y="63.2000"
textLength="3.3929" font-size="1.3333" lengthAdjust="spacingAndGlyphs"
text-anchor="start" opacity="0">-17</text>
<g class="stroked-text"><desc>-17</desc>
<path d="M47.5368 62.6889
L48.2987 62.6889
" />
<path d="M49.2987 63.0698
L48.7273 63.0698
" />
<path d="M49.0130 63.0698
L49.0130 62.0698
" />
<path d="M49.0130 62.0698
L48.9177 62.2127
" />
<path d="M48.9177 62.2127
L48.8225 62.3079
" />
<path d="M48.8225 62.3079
L48.7273 62.3555
" />
<path d="M49.6320 62.0698
L50.2987 62.0698
" />
<path d="M50.2987 62.0698
L49.8701 63.0698
" />
</g><text x="117.6500" y="116.4000"
textLength="6.7262" font-size="1.3333" lengthAdjust="spacingAndGlyphs"
text-anchor="start" opacity="0">-41,998</text>
<g class="stroked-text"><desc>-41,998</desc>
<path d="M117.9868 115.8889
L118.7487 115.8889
" />
<path d="M119.6534 115.6032
L119.6534 116.2698
" />
<path d="M119.4153 115.2222
L119.1773 115.9365
" />
<path d="M119.1773 115.9365
L119.7963 115.9365
" />
<path d="M120.7011 116.2698
L120.1296 116.2698
" />
<path d="M120.4153 116.2698
L120.4153 115.2698
" />
<path d="M120.4153 115.2698
L120.3201 115.4127
" />
<path d="M120.3201 115.4127
L120.2249 115.5079
" />
<path d="M120.2249 115.5079
L120.1296 115.5555
" />
<path d="M121.1773 116.2222
L121.1773 116.2698
" />
<path d="M121.1773 116.2698
L121.1296 116.3651
" />
<path d="M121.1296 116.3651
L121.0820 116.4127
" />
<path d="M121.6534 116.2698
L121.8439 116.2698
" />
<path d="M121.8439 116.2698
L121.9392 116.2222
" />
<path d="M121.9392 116.2222
L121.9868 116.1746
" />
<path d="M121.9868 116.1746
L122.0820 116.0317
" />
<path d="M122.0820 116.0317
L122.1296 115.8412
" />
<path d="M122.1296 115.8412
L122.1296 115.4603
" />
<path d="M122.1296 115.4603
L122.0820 115.3651
" />
<path d="M122.0820 115.3651
L122.0344 115.3174
" />
<path d="M122.0344 115.3174
L121.9392 115.2698
" />
<path d="M121.9392 115.2698
L121.7487 115.2698
" />
<path d="M121.7487 115.2698
L121.6534 115.3174
" />
<path d="M121.6534 115.3174
L121.6058 115.3651
" />
<path d="M121.6058 115.3651
L121.5582 115.4603
" />
<path d="M121.5582 115.4603
L121.5582 115.6984
" />
<path d="M121.5582 115.6984
L121.6058 115.7936
" />
<path d="M121.6058 115.7936
L121.6534 115.8412
" />
<path d="M121.6534 115.8412
L121.7487 115.8889
" />
<path d="M121.7487 115.8889
L121.9392 115.8889
" />
<path d="M121.9392 115.8889
L122.0344 115.8412
" />
<path d="M122.0344 115.8412
L122.0820 115.7936
" />
<path d="M122.0820 115.7936
L122.1296 115.6984
" />
<path d="M122.6058 116.2698
L122.7963 116.2698
" />
<path d="M122.7963 116.2698
L122.8915 116.2222
" />
<path d="M122.8915 116.2222
L122.9392 116.1746
" />
<path d="M122.9392 116.1746
L123.0344 116.0317
" />
<path d="M123.0344 116.0317
L123.0820 115.8412
" />
<path d="M123.0820 115.8412
L123.0820 115.4603
" />
<path d="M123.0820 115.4603
L123.0344 115.3651
" />
<path d="M123.0344 115.3651
L122.9868 115.3174
" />
<path d="M122.9868 115.3174
L122.8915 115.2698
" />
<path d="M122.8915 115.2698
L122.7011 115.2698
" />
<path d="M122.7011 115.2698
L122.6058 115.3174
" />
<path d="M122.6058 115.3174
L122.5582 115.3651
" />
<path d="M122.5582 115.3651
L122.5106 115.4603
" />
<path d="M122.5106 115.4603
L122.5106 115.6984
" />
<path d="M122.5106 115.6984
L122.5582 115.7936
" />
<path d="M122.5582 115.7936
L122.6058 115.8412
" />
<path d="M122.6058 115.8412
L122.7011 115.8889
" />
<path d="M122.7011 115.8889
L122.8915 115.8889
" />
<path d="M122.8915 115.8889
L122.9868 115.8412
" />
<path d="M122.9868 115.8412
L123.0344 115.7936
" />
<path d="M123.0344 115.7936
L123.0820 115.6984
" />
<path d="M123.6534 115.6984
L123.5582 115.6508
" />
<path d="M123.5582 115.6508
L123.5106 115.6032
" />
<path d="M123.5106 115.6032
L123.4630 115.5079
" />
<path d="M123.4630 115.5079
L123.4630 115.4603
" />
<path d="M123.4630 115.4603
L123.5106 115.3651
" />
<path d="M123.5106 115.3651
L123.5582 115.3174
" />
<path d="M123.5582 115.3174
L123.6534 115.2698
" />
<path d="M123.6534 115.2698
L123.8439 115.2698
" />
<path d="M123.8439 115.2698
L123.9392 115.3174
" />
<path d="M123.9392 115.3174
L123.9868 115.3651
" />
<path d="M123.9868 115.3651
L124.0344 115.4603
" />
<path d="M124.0344 115.4603
L124.0344 115.5079
" />
<path d="M124.0344 115.5079
L123.9868 115.6032
" />
<path d="M123.9868 115.6032
L123.9392 115.6508
" />
<path d="M123.9392 115.6508
L123.8439 115.6984
" />
<path d="M123.8439 115.6984
L123.6534 115.6984
" />
<path d="M123.6534 115.6984
L123.5582 115.7460
" />
<path d="M123.5582 115.7460
L123.5106 115.7936
" />
<path d="M123.5106 115.7936
L123.4630 115.8889
" />
<path d="M123.4630 115.8889
L123.4630 116.0793
" />
<path d="M123.4630 116.0793
L123.5106 116.1746
" />
<path d="M123.5106 116.1746
L123.5582 116.2222
" />
<path d="M123.5582 116.2222
L123.6534 116.2698
" />
<path d="M123.6534 116.2698
L123.8439 116.2698
" />
<path d="M123.8439 116.2698
L123.9392 116.2222
" />
<path d="M123.9392 116.2222
L123.9868 116.1746
" />
<path d="M123.9868 116.1746
L124.0344 116.0793
" />
<path d="M124.0344 116.0793
L124.0344 115.8889
" />
<path d="M124.0344 115.8889
L123.9868 115.7936
" />
<path d="M123.9868 115.7936
L123.9392 115.7460
" />
<path d="M123.9392 115.7460
L123.8439 115.6984
" />
</g><text x="106.5000" y="41.7500"
textLength="3.3929" font-size="1.3333" lengthAdjust="spacingAndGlyphs"
text-anchor="start" opacity="0">-27</text>
<g class="stroked-text"><desc>-27</desc>
<path d="M106.8368 41.2389
L107.5987 41.2389
" />
<path d="M108.0273 40.7151
L108.0749 40.6674
" />
<path d="M108.0749 40.6674
L108.1701 40.6198
" />
<path d="M108.1701 40.6198
L108.4082 40.6198
" />
<path d="M108.4082 40.6198
L108.5034 40.6674
" />
<path d="M108.5034 40.6674
L108.5511 40.7151
" />
<path d="M108.5511 40.7151
L108.5987 40.8103
" />
<path d="M108.5987 40.8103
L108.5987 40.9055
" />
<path d="M108.5987 40.9055
L108.5511 41.0484
" />
<path d="M108.5511 41.0484
L107.9796 41.6198
" />
<path d="M107.9796 41.6198
L108.5987 41.6198
" />
<path d="M108.9320 40.6198
L109.5987 40.6198
" />
<path d="M109.5987 40.6198
L109.1701 41.6198
" />
</g></g>
<g style="fill:none; 
stroke:#C2C2C2; stroke-width:0.1000; stroke-opacity:1; 
stroke-linecap:round; stroke-linejoin:round;">
<path d="M33.5508 37.5551
L42.4942 54.3752
" />
<path d="M42.4942 54.3752
L59.3143 45.4318
" />
<path d="M50.3709 28.6116
L33.5508 37.5551
" />
<path d="M59.3143 45.4318
L50.3709 28.6116
" />
<path d="M148.7381 90.6116
L150.9881 90.6116
" />
<path d="M149.7381 84.8616
L149.7381 94.6116
" />
<path d="M149.7381 90.6116
L149.7381 84.8616
" />
<path d="M33.5637 37.5478
L42.5072 54.3680
" />
<path d="M42.5072 54.3680
L59.3273 45.4245
" />
<path d="M50.3839 28.6044
L33.5637 37.5478
" />
<path d="M59.3273 45.4245
L50.3839 28.6044
" />
</g> 
</svg>
