<?xml version="1.0" encoding="UTF-8" standalone="no"?>
<!-- Created with Inkscape (http://www.inkscape.org/) -->

<svg
   version="1.1"
   id="svg1"
   width="624.29834"
   height="321.80115"
   viewBox="0 0 624.29834 321.80115"
   sodipodi:docname="logotry11.svg"
   inkscape:version="1.3.2 (091e20e, 2023-11-25, custom)"
   xmlns:inkscape="http://www.inkscape.org/namespaces/inkscape"
   xmlns:sodipodi="http://sodipodi.sourceforge.net/DTD/sodipodi-0.dtd"
   xmlns="http://www.w3.org/2000/svg"
   xmlns:svg="http://www.w3.org/2000/svg">
  <defs
     id="defs1" />
  <sodipodi:namedview
     id="namedview1"
     pagecolor="#505050"
     bordercolor="#eeeeee"
     borderopacity="1"
     inkscape:showpageshadow="0"
     inkscape:pageopacity="0"
     inkscape:pagecheckerboard="0"
     inkscape:deskcolor="#505050"
     showgrid="false"
     inkscape:zoom="0.11590278"
     inkscape:cx="-2760.9345"
     inkscape:cy="1048.2923"
     inkscape:window-width="1920"
     inkscape:window-height="1009"
     inkscape:window-x="1912"
     inkscape:window-y="660"
     inkscape:window-maximized="1"
     inkscape:current-layer="g1" />
  <g
     inkscape:groupmode="layer"
     inkscape:label="Image"
     id="g1"
     transform="translate(1667.0483,-1535.5095)">
    <path
       style="fill:#ff00ff;stroke-width:0.18164"
       d="m -1363.6435,1855.7751 c -5.0029,-5.677 -6.6352,-7.4508 -7.8909,-8.5749 -0.7721,-0.6912 -1.6159,-1.5428 -1.8751,-1.8925 -0.891,-1.202 -11.0039,-10.8327 -12.3687,-11.7789 -0.7492,-0.5195 -2.0162,-1.4744 -2.8154,-2.1221 -0.7992,-0.6476 -1.8209,-1.3959 -2.2705,-1.6629 -0.4496,-0.2669 -1.7982,-1.1964 -2.9971,-2.0655 -1.1988,-0.8691 -3.8553,-2.6361 -5.9033,-3.9267 -5.4772,-3.4516 -11.9547,-7.8918 -17.7821,-12.1894 -0.6391,-0.4713 -1.7489,-1.2248 -2.4662,-1.6743 -0.7173,-0.4496 -2.197,-1.3953 -3.2882,-2.1016 -1.0912,-0.7063 -2.4637,-1.5646 -3.05,-1.9072 -0.5863,-0.3427 -1.7341,-1.2361 -2.5505,-1.9854 -1.5678,-1.4387 -5.3902,-4.4391 -6.2571,-4.9114 -0.2823,-0.1538 -1.2822,-0.8924 -2.2221,-1.6412 -3.2737,-2.6084 -4.0917,-3.2096 -7.5214,-5.5288 -4.6287,-3.1299 -6.9411,-4.8622 -10.081,-7.5518 -4.2742,-3.6611 -6.2703,-5.0536 -11.1709,-7.7928 -2.247,-1.2558 -8.9826,-5.2874 -14.242,-8.5244 -3.1628,-1.9467 -6.5639,-4.171 -9.7374,-6.3684 -1.4002,-0.9695 -3.648,-2.3947 -4.9951,-3.1672 -1.3471,-0.7725 -2.6537,-1.5861 -2.9034,-1.8081 -0.5673,-0.5041 -2.3434,-1.6993 -3.542,-2.3835 -1.3935,-0.7953 -3.9304,-2.4885 -3.8497,-2.5692 0.039,-0.04 0.5541,0.05 1.1434,0.1998 1.8751,0.4756 2.8664,0.4148 7.1565,-0.439 2.2301,-0.4439 2.9426,-0.6617 5.9941,-1.833 3.4562,-1.3265 4.3814,-1.7815 7.6836,-3.7787 1.6767,-1.0139 3.1153,-1.8436 3.1969,-1.8436 0.082,0 0.5073,-0.3104 0.946,-0.6897 1.0932,-0.9456 3.2887,-2.408 4.9035,-3.2663 2.3516,-1.2499 2.6109,-1.3817 2.7964,-1.4212 0.1,-0.021 0.4881,-0.1698 0.8628,-0.3302 0.6045,-0.2588 0.9789,-0.1289 0.4933,0.1712 -0.1032,0.064 -0.7963,1.3151 -1.5401,2.7807 -1.6445,3.2405 -2.6265,4.8277 -4.5839,7.4092 -0.8241,1.0869 -1.6305,2.2537 -1.7921,2.5929 l -0.2937,0.6168 0.2883,0.6045 c 0.3522,0.7385 0.835,0.8826 2.4516,0.7319 7.4324,-0.6927 13.3373,-3.3876 23.2768,-10.6231 2.4655,-1.7947 2.1068,-1.4368 2.2533,-2.2478 l 0.1219,-0.6741 -0.9606,-0.2744 c -1.7868,-0.5106 -5.4316,-1.0738 -13.0396,-2.0151 -14.4308,-1.7854 -23.5286,-1.4965 -34.2478,1.0876 -3.8409,0.926 -5.5827,1.6468 -11.5894,4.7964 -2.761,1.4478 -2.9853,1.4831 -2.172,0.3417 0.8513,-1.1946 2.1938,-3.4665 2.7901,-4.7216 0.2968,-0.6248 0.827,-1.6264 1.1781,-2.2258 3.1779,-5.4247 4.082,-9.2677 2.8311,-12.0351 -1.3141,-2.9074 -10.1976,-5.689 -17.414,-5.4527 l -2.498,0.082 -1.5193,0.5694 c -2.11,0.7908 -2.9921,1.3496 -4.4766,2.8357 -3.38,3.3837 -2.9976,5.2968 2.3538,11.7757 0.887,1.0739 1.6831,1.9526 1.7691,1.9526 0.086,0 0.2307,0.1839 0.3217,0.4087 0.091,0.2248 0.7057,1.1035 1.3662,1.9526 0.6605,0.8492 1.4199,1.8709 1.6876,2.2705 0.2676,0.3997 0.9593,1.3562 1.5371,2.1257 l 1.0505,1.3992 -0.6828,-0.2853 c -2.0573,-0.8595 -7.2547,-3.6886 -8.3226,-4.5301 -2.624,-2.0679 -7.3999,-4.4 -16.7908,-8.1989 -2.3477,-0.9498 -5.8624,-2.3769 -7.8105,-3.1715 -1.9481,-0.7945 -4.425,-1.7654 -5.5042,-2.1575 -1.0793,-0.392 -3.2862,-1.2547 -4.9043,-1.917 -1.6182,-0.6624 -4.8629,-1.8397 -7.2106,-2.6164 -6.926,-2.2913 -15.0034,-5.2121 -14.8469,-5.3686 0.024,-0.024 1.8826,-0.093 4.1303,-0.1532 5.0362,-0.135 7.1213,-0.2588 8.1487,-0.4839 0.4358,-0.095 2.3975,-0.2933 4.3593,-0.4395 1.9618,-0.1463 3.8939,-0.3076 4.2935,-0.3585 0.3996,-0.051 3.1379,-0.3788 6.085,-0.7287 20.7958,-2.4691 23.5889,-3.5219 30.1582,-11.3671 0.8858,-1.0577 1.9655,-2.2141 2.3994,-2.5696 0.4339,-0.3556 0.9965,-0.9614 1.2502,-1.3463 1.6678,-2.5299 3.4285,-5.8691 3.4285,-6.5021 0,-0.1487 0.331,-1.2335 0.7355,-2.4108 0.754,-2.194 1.147,-3.7865 1.4473,-5.8641 0.094,-0.6494 0.4991,-2.191 0.9007,-3.4258 0.4253,-1.3078 0.7693,-2.763 0.8239,-3.4854 0.086,-1.1341 0.1968,-1.8057 0.644,-3.8964 0.2775,-1.2974 0.2626,-1.3182 -2.2493,-3.1436 -0.8398,-0.6103 -5.3674,-4.6151 -8.7367,-7.728 -3.2458,-2.9988 -7.0768,-6.1355 -10.3488,-8.4731 -6.2519,-4.4667 -6.5716,-4.7282 -8.1014,-6.627 -0.5494,-0.682 -1.4579,-1.7791 -2.0188,-2.4379 -0.5608,-0.6588 -2.3868,-3.0729 -4.0576,-5.3647 -3.1625,-4.3377 -3.7471,-5.1018 -5.2899,-6.9132 -0.9374,-1.1006 -1.8934,-2.4394 -1.8934,-2.6517 0,-0.2705 4.7718,2.3914 7.8105,4.357 1.7587,1.1377 3.7618,2.1469 5.5699,2.8063 0.6829,0.2491 2.0181,0.8204 2.9672,1.2696 8.0182,3.7952 16.6379,3.4098 20.2512,-0.9053 0.4888,-0.5838 1.355,-1.5563 1.9248,-2.1612 0.5698,-0.6049 1.3718,-1.6192 1.7821,-2.254 l 0.746,-1.1542 -0.1049,0.8917 c -0.3549,3.0184 -0.6817,5.3015 -0.9934,6.9405 -0.1957,1.029 -0.3558,2.3173 -0.3558,2.8627 0,0.5455 -0.1256,1.7722 -0.2791,2.726 -0.6253,3.8858 0.3211,5.9912 3.6048,8.0196 2.8615,1.7676 3.758,1.9603 3.8628,0.8304 0.4421,-4.7662 0.6825,-6.9362 0.9016,-8.136 0.146,-0.7992 0.4294,-2.9652 0.63,-4.8134 0.2005,-1.8482 0.4436,-3.8099 0.5402,-4.3594 0.097,-0.5495 0.4286,-2.9602 0.7379,-5.3571 0.9199,-7.1301 2.5574,-14.0934 5.2363,-22.2675 0.8976,-2.7389 1.8421,-5.8114 2.0988,-6.8278 0.6255,-2.4765 4.3215,-13.4955 5.2899,-15.7712 0.4252,-0.999 1.312,-3.0016 1.9707,-4.4502 0.6587,-1.4485 1.198,-2.7694 1.1984,-2.9351 0,-0.1658 0.706,-2.0458 1.5682,-4.1778 1.7911,-4.4293 3.267,-8.1432 5.7718,-14.5245 2.5418,-6.4754 5.8482,-12.9954 8.72,-17.1953 0.9078,-1.3276 1.9899,-2.9462 2.4046,-3.5969 0.6358,-0.9975 2.4772,-3.5405 3.0131,-4.1611 0.086,-0.1 -0.166,0.5131 -0.5606,1.3623 -0.9636,2.0739 -1.899,5.3734 -2.3685,8.3554 -0.2124,1.3487 -0.7538,4.5774 -1.203,7.1748 -2.3267,13.4521 -2.3739,16.4669 -0.5544,35.4199 2.1951,22.865 3.1507,28.0972 7.5473,41.3232 3.6005,10.8315 13.1708,29.7891 15.0382,29.789 0.6175,-10e-5 4.3096,-0.5918 7.3055,-1.1708 1.2488,-0.2414 2.7609,-0.4892 3.3603,-0.5509 0.5994,-0.062 1.7438,-0.2275 2.543,-0.3687 0.7992,-0.1412 2.2272,-0.351 3.1733,-0.4661 0.9461,-0.1152 2.6626,-0.4064 3.8145,-0.6472 1.1518,-0.2408 3.2386,-0.6041 4.6372,-0.8073 1.3986,-0.2032 4.1368,-0.7712 6.0849,-1.2621 1.9481,-0.491 5.5855,-1.2602 8.083,-1.7095 4.1292,-0.7428 6.3463,-1.1967 9.7178,-1.9898 0.6494,-0.1527 1.998,-0.4019 2.9971,-0.5538 1.5304,-0.2326 5.2731,-1.2826 9.082,-2.5478 2.8982,-0.9627 7.1151,-3.4704 9.8994,-5.887 3.2488,-2.8197 3.3354,-2.922 4.8639,-5.743 l 0.7874,-1.4532 -0.1465,1.3623 c -0.5091,4.7358 0.041,8.1639 1.938,12.0791 1.8892,3.8988 11.5766,17.8172 14.1491,20.3288 l 0.9149,0.8932 -0.088,-4.1628 c -0.048,-2.2895 -0.1646,-5.1436 -0.2586,-6.3424 -0.094,-1.1988 -0.2212,-3.8962 -0.2827,-5.9941 -0.061,-2.098 -0.1849,-4.591 -0.2745,-5.5401 -0.09,-0.949 -0.3304,-3.6873 -0.5353,-6.0849 -0.5493,-6.4257 -1.3334,-10.3609 -3.112,-15.6175 -1.0519,-3.109 -1.0652,-3.1321 -1.898,-3.2883 -1.09,-0.2045 -1.5469,0.058 -3.2923,1.8901 -2.5996,2.7289 -2.2754,1.0427 0.533,-2.7716 2.3726,-3.2225 2.7515,-3.7597 3.5309,-5.007 1.1689,-1.8703 4.706,-9.0358 5.2003,-10.5348 2.6327,-7.9831 2.9354,-9.0243 3.7696,-12.9665 0.3829,-1.8096 0.9051,-4.1894 1.1605,-5.2883 0.5006,-2.1547 0.9205,-4.9184 1.1866,-7.8106 0.092,-0.999 0.2513,-2.2659 0.3542,-2.8154 0.1028,-0.5494 0.3157,-2.3068 0.473,-3.9053 0.4471,-4.5426 0.8612,-7.6447 1.0451,-7.8285 0.2057,-0.2058 0.4966,0.1302 0.4966,0.5737 0,0.2438 0.082,0.4433 0.1816,0.4433 0.1,0 0.1816,-0.1995 0.1816,-0.4433 0,-0.4435 0.2909,-0.7795 0.4966,-0.5737 0.1839,0.1838 0.598,3.2859 1.0451,7.8285 0.1573,1.5985 0.3702,3.3559 0.473,3.9053 0.1029,0.5495 0.2623,1.8164 0.3542,2.8154 0.2661,2.8922 0.686,5.6559 1.1866,7.8106 0.2554,1.0989 0.7776,3.4787 1.1605,5.2883 0.8342,3.9422 1.1369,4.9834 3.7696,12.9665 0.4943,1.499 4.0314,8.6645 5.2003,10.5348 0.7794,1.2473 1.1583,1.7845 3.5309,5.007 2.8084,3.8143 3.1326,5.5005 0.533,2.7716 -2.9686,-3.1163 -3.7325,-2.9105 -5.1903,1.3982 -1.7786,5.2566 -2.5627,9.1918 -3.112,15.6175 -0.2049,2.3976 -0.4458,5.1359 -0.5353,6.0849 -0.09,0.9491 -0.2131,3.4421 -0.2745,5.5401 -0.061,2.0979 -0.1887,4.7953 -0.2827,5.9941 -0.094,1.1988 -0.2104,4.0529 -0.2586,6.3424 l -0.088,4.1628 0.9149,-0.8932 c 2.5725,-2.5116 12.2599,-16.43 14.1491,-20.3288 1.8971,-3.9152 2.4471,-7.3433 1.938,-12.0791 l -0.1465,-1.3623 0.7874,1.4532 c 1.5287,2.8213 1.6167,2.9252 4.8639,5.7423 2.8372,2.4614 6.9007,4.8768 9.8994,5.8843 3.5936,1.2073 7.547,2.3179 9.082,2.5512 0.9991,0.1519 2.3477,0.4011 2.9971,0.5538 3.3715,0.7931 5.5886,1.247 9.7178,1.9898 2.4975,0.4493 6.1349,1.2185 8.083,1.7095 1.9481,0.4909 4.6863,1.0589 6.0849,1.2621 1.3986,0.2032 3.4854,0.5665 4.6372,0.8073 1.1519,0.2408 2.8684,0.532 3.8145,0.6472 0.9461,0.1151 2.3741,0.3249 3.1733,0.4661 0.7992,0.1412 1.9436,0.3071 2.543,0.3687 0.5994,0.062 2.1115,0.3095 3.3603,0.5509 2.9959,0.579 6.688,1.1707 7.3055,1.1708 1.8674,10e-5 11.4377,-18.9575 15.0382,-29.789 4.3966,-13.226 5.3522,-18.4582 7.5473,-41.3232 1.8195,-18.953 1.7723,-21.9678 -0.5544,-35.4199 -0.4492,-2.5974 -0.9906,-5.8261 -1.203,-7.1748 -0.4695,-2.982 -1.4049,-6.2815 -2.3685,-8.3554 -0.3946,-0.8492 -0.6468,-1.4622 -0.5606,-1.3623 0.5359,0.6206 2.3773,3.1636 3.0131,4.1611 0.4147,0.6507 1.4968,2.2693 2.4046,3.5969 2.8718,4.1999 6.1782,10.7199 8.72,17.1953 2.5048,6.3813 3.9807,10.0952 5.7718,14.5245 0.8622,2.132 1.5679,4.012 1.5683,4.1778 0,0.1657 0.5396,1.4866 1.1983,2.9351 0.6587,1.4486 1.5455,3.4512 1.9707,4.4502 0.9684,2.2757 4.6644,13.2947 5.2899,15.7712 0.2567,1.0164 1.2012,4.0889 2.0988,6.8278 2.679,8.1741 4.3164,15.1374 5.2363,22.2675 0.3093,2.3969 0.6413,4.8076 0.7379,5.3571 0.097,0.5495 0.3397,2.5112 0.5402,4.3594 0.2006,1.8482 0.484,4.0142 0.63,4.8134 0.2191,1.1998 0.4596,3.3698 0.9016,8.136 0.1048,1.1299 1.0013,0.9372 3.8628,-0.8304 3.2837,-2.0284 4.2301,-4.1338 3.6048,-8.0196 -0.1535,-0.9538 -0.2791,-2.1805 -0.2791,-2.726 0,-0.5454 -0.1601,-1.8337 -0.3558,-2.8627 -0.3117,-1.639 -0.6385,-3.9221 -0.9934,-6.9405 l -0.1049,-0.8917 0.746,1.1542 c 0.4103,0.6348 1.2123,1.6491 1.7821,2.254 0.5698,0.6049 1.436,1.5774 1.9248,2.1612 3.6133,4.3151 12.233,4.7005 20.2512,0.9053 0.9491,-0.4492 2.2843,-1.0205 2.9673,-1.2696 1.808,-0.6594 3.8111,-1.6686 5.5698,-2.8063 3.0387,-1.9656 7.8105,-4.6275 7.8105,-4.357 0,0.2123 -0.956,1.5511 -1.8934,2.6517 -1.5428,1.8114 -2.1274,2.5755 -5.2899,6.9132 -1.6708,2.2918 -3.4968,4.7059 -4.0576,5.3647 -0.5609,0.6588 -1.4694,1.7559 -2.0188,2.4379 -1.5298,1.8988 -1.8495,2.1603 -8.1014,6.627 -3.2719,2.3376 -7.103,5.4743 -10.3488,8.4731 -3.3693,3.1129 -7.8969,7.1177 -8.7367,7.728 -2.5119,1.8254 -2.5268,1.8462 -2.2493,3.1436 0.4472,2.0907 0.5582,2.7623 0.644,3.8964 0.055,0.7224 0.3986,2.1776 0.8239,3.4854 0.4016,1.2348 0.8069,2.7764 0.9007,3.4258 0.3003,2.0776 0.6933,3.6701 1.4473,5.8641 0.4045,1.1773 0.7355,2.2621 0.7355,2.4108 0,0.633 1.7607,3.9722 3.4285,6.5021 0.2537,0.3849 0.8163,0.9907 1.2502,1.3463 0.4339,0.3555 1.5136,1.5119 2.3994,2.5696 6.5693,7.8452 9.3624,8.898 30.1582,11.3671 2.9471,0.3499 5.6854,0.6778 6.085,0.7287 0.3996,0.051 2.3317,0.2122 4.2935,0.3585 1.9618,0.1462 3.9235,0.344 4.3594,0.4395 1.0273,0.2251 3.1124,0.3489 8.1486,0.4839 2.2477,0.06 4.1063,0.1292 4.1303,0.1532 0.1566,0.1566 -7.8921,3.0657 -14.8469,5.3662 -2.3477,0.7765 -5.4129,1.8824 -6.8115,2.4574 -1.3986,0.575 -3.6056,1.4394 -4.9043,1.9208 -1.2987,0.4815 -3.9552,1.5244 -5.9033,2.3176 -1.9481,0.7932 -5.4628,2.2192 -7.8105,3.169 -9.3909,3.7989 -14.1668,6.131 -16.7908,8.1989 -1.0679,0.8415 -6.2653,3.6706 -8.3226,4.5301 l -0.6828,0.2853 1.0505,-1.3992 c 0.5778,-0.7695 1.2695,-1.726 1.5371,-2.1257 0.2677,-0.3996 1.0271,-1.4213 1.6876,-2.2705 0.6605,-0.8491 1.2754,-1.7278 1.3663,-1.9526 0.091,-0.2248 0.2356,-0.4087 0.3216,-0.4087 0.5712,0 5.0894,-6.1101 5.8253,-7.8779 1.3669,-3.2835 -1.1302,-6.7938 -6.179,-8.6861 l -1.5193,-0.5694 -2.498,-0.082 c -7.22,-0.2364 -16.1171,2.5506 -17.4067,5.4527 -1.1901,2.6782 -0.5759,5.7974 2.1107,10.7192 0.6956,1.2743 1.4976,2.7865 1.7822,3.3604 0.6894,1.3901 1.8401,3.3472 2.7241,4.6331 0.9873,1.436 0.8708,1.4318 -1.997,-0.072 -6.0067,-3.1496 -7.7485,-3.8704 -11.5894,-4.7964 -10.7192,-2.5841 -19.817,-2.873 -34.2478,-1.0876 -7.608,0.9413 -11.2528,1.5045 -13.0396,2.0151 l -0.9606,0.2744 0.1219,0.6741 c 0.1465,0.811 -0.2122,0.4531 2.2533,2.2478 9.9395,7.2355 15.8444,9.9304 23.2768,10.6231 1.5839,0.1477 2.0227,0.018 2.4182,-0.7169 l 0.3273,-0.6076 -0.2965,-0.6227 c -0.1631,-0.3425 -0.9708,-1.512 -1.7949,-2.5989 -1.9574,-2.5815 -2.9394,-4.1687 -4.5839,-7.4092 -0.7438,-1.4656 -1.4369,-2.7169 -1.5401,-2.7807 -0.4856,-0.3001 -0.1112,-0.43 0.4933,-0.1712 0.3747,0.1604 0.7629,0.3089 0.8628,0.3302 0.1855,0.04 0.4448,0.1713 2.7964,1.4212 1.6148,0.8583 3.8103,2.3207 4.9035,3.2663 0.4387,0.3793 0.8643,0.6897 0.946,0.6897 0.082,0 1.5202,0.8297 3.1969,1.8436 3.3022,1.9972 4.2274,2.4522 7.6836,3.7787 3.0515,1.1713 3.764,1.3891 5.9941,1.833 4.2901,0.8538 5.2814,0.9146 7.1565,0.439 0.5893,-0.1494 1.1039,-0.2394 1.1434,-0.1998 0.081,0.081 -2.4562,1.7739 -3.8497,2.5692 -1.1986,0.6842 -2.9747,1.8794 -3.542,2.3835 -0.2497,0.222 -1.5563,1.0356 -2.9034,1.8081 -1.3471,0.7725 -3.5949,2.1977 -4.9951,3.1672 -3.1735,2.1974 -6.5746,4.4217 -9.7374,6.3684 -5.2594,3.237 -11.995,7.2686 -14.242,8.5244 -4.9006,2.7392 -6.8967,4.1317 -11.1709,7.7928 -3.1399,2.6896 -5.4523,4.4219 -10.081,7.5518 -3.4297,2.3192 -4.2477,2.9204 -7.5214,5.5288 -0.9399,0.7488 -1.9398,1.4874 -2.2221,1.6412 -0.8704,0.4742 -4.7005,3.4792 -6.1713,4.8418 -0.7675,0.711 -1.9144,1.6023 -2.5488,1.9807 -0.6345,0.3785 -2.0463,1.2681 -3.1375,1.9769 -1.0912,0.7088 -2.5709,1.6566 -3.2882,2.1062 -0.7173,0.4495 -1.8271,1.203 -2.4662,1.6743 -5.8274,4.2976 -12.3049,8.7378 -17.7821,12.1894 -2.048,1.2906 -4.7045,3.0576 -5.9033,3.9267 -1.1989,0.8691 -2.5475,1.7986 -2.9971,2.0655 -0.4496,0.267 -1.4713,1.0153 -2.2705,1.6629 -0.7992,0.6477 -2.0662,1.6026 -2.8154,2.1221 -1.3648,0.9462 -11.4777,10.5769 -12.3687,11.7789 -0.2592,0.3497 -1.103,1.2013 -1.8751,1.8925 -1.2557,1.1241 -2.888,2.8979 -7.8909,8.5749 -1.798,2.0403 -1.9717,2.0454 -0.9412,0.028 0.4226,-0.8273 1.201,-2.6076 1.7298,-3.9563 0.5287,-1.3487 1.2531,-3.1061 1.6097,-3.9053 0.3566,-0.7992 0.9402,-2.5157 1.2968,-3.8144 2.3959,-8.7258 4.8363,-14.7833 8.0421,-19.962 3.1712,-5.1232 4.1021,-7.4663 4.1205,-10.372 l 0.01,-1.6347 -0.4833,-0.8174 c -2.2687,-3.8369 -8.4177,-3.995 -14.7745,-0.38 -1.1988,0.6818 -3.4781,1.922 -5.065,2.7561 l -2.8853,1.5165 -0.5659,0.8658 c -0.3112,0.4763 -0.6884,0.8659 -0.8383,0.8659 -0.1499,0 -0.5271,-0.3896 -0.8383,-0.8659 l -0.5659,-0.8658 -2.8853,-1.5165 c -1.5869,-0.8341 -3.8662,-2.0743 -5.065,-2.7561 -6.3568,-3.615 -12.5058,-3.4569 -14.7745,0.38 l -0.4833,0.8174 0.01,1.6347 c 0.018,2.9057 0.9493,5.2488 4.1205,10.372 3.2058,5.1787 5.6462,11.2362 8.0421,19.962 0.3566,1.2987 0.9402,3.0152 1.2968,3.8144 0.3566,0.7992 1.081,2.5566 1.6097,3.9053 0.5288,1.3487 1.3072,3.129 1.7298,3.9563 1.0305,2.0174 0.8568,2.0123 -0.9412,-0.028 z m -10.9733,-19.8263 c -1.6816,-4.7048 -2.2588,-5.9102 -4.6942,-9.8041 -2.0072,-3.2092 -3.4009,-6.0538 -4.0493,-8.2647 l -0.506,-1.7255 v -2.461 -2.461 l 0.687,-1.3907 c 2.9636,-5.9989 10.7985,-7.5809 19.1118,-3.8591 0.5994,0.2684 1.4168,0.6335 1.8164,0.8114 0.3996,0.1779 1.0535,0.4273 1.4531,0.5543 0.3996,0.127 1.6666,0.7321 2.8154,1.3446 3.4562,1.8429 2.7196,1.8429 6.1758,0 1.1489,-0.6125 2.4158,-1.2176 2.8154,-1.3446 0.3996,-0.127 1.0536,-0.3764 1.4532,-0.5543 0.3996,-0.1779 1.217,-0.543 1.8164,-0.8114 8.3132,-3.7218 16.1482,-2.1398 19.1118,3.8591 l 0.687,1.3907 v 2.461 2.461 l -0.506,1.7255 c -0.6483,2.2109 -2.042,5.0555 -4.0492,8.2647 -2.4352,3.8934 -3.0127,5.0994 -4.6927,9.7999 -0.8553,2.3928 -1.555,4.4176 -1.555,4.4994 0,0.082 2.1865,-2.0494 4.8589,-4.736 2.8465,-2.8616 5.4607,-5.3205 6.312,-5.9371 0.7992,-0.5788 1.9435,-1.4718 2.5429,-1.9844 3.9608,-3.3873 6.0786,-4.9016 12.0791,-8.6376 2.5232,-1.5709 6.6492,-4.3464 9.1729,-6.1703 1.2987,-0.9387 3.1312,-2.2429 4.0722,-2.8982 l 1.711,-1.1916 -0.7119,-0.1285 c -0.3916,-0.071 -1.4885,-0.2593 -2.4376,-0.4193 -3.1198,-0.5257 -13.1699,-3.3196 -16.1926,-4.5015 -9.829,-3.8432 -13.8618,-9.0439 -9.8343,-12.6824 2.2314,-2.016 6.9877,-4.1475 9.2706,-4.1546 0.7602,0 0.4148,-0.3044 -1.1407,-0.9975 -7.5141,-3.3482 -12.4867,-7.5633 -15.6459,-13.2626 -3.034,-5.4734 -5.0639,-11.0475 -6.4164,-17.6191 -0.3084,-1.4985 -0.6786,-3.1226 -0.8227,-3.6091 -0.1441,-0.4864 -0.5549,-2.4073 -0.9129,-4.2685 -0.358,-1.8613 -1.0498,-4.978 -1.5374,-6.9261 -1.0701,-4.276 -2.4882,-11.0611 -3.8912,-18.6181 -0.598,-3.2208 -1.3166,-9.9154 -1.1018,-10.263 0.053,-0.085 0.4011,-0.2522 0.7743,-0.3712 1.0694,-0.3409 1.8414,-0.7128 3.4033,-1.6393 1.4027,-0.8322 7.6917,-3.7525 15.621,-7.2536 2.098,-0.9263 5.4901,-2.2858 7.5381,-3.021 2.048,-0.7352 4.3007,-1.623 5.0059,-1.9729 1.7263,-0.8565 1.6109,-0.9051 3.3478,1.4072 0.8442,1.1239 1.9161,2.493 2.3819,3.0425 1.3194,1.5561 3.5996,4.8127 4.7693,6.8115 0.5846,0.999 1.3676,2.266 1.7399,2.8154 3.4317,5.0643 5.2089,10.3469 6.2026,18.4365 0.2854,2.3242 0.073,2.2371 2.8751,1.1797 2.49,-0.9397 6.3015,-2.0425 9.6423,-2.7898 2.2151,-0.4956 2.1735,-0.4373 0.999,-1.3968 -1.6744,-1.3679 -5.7396,-5.4843 -6.7912,-6.8766 -1.449,-1.9184 -2.9265,-4.0932 -2.9265,-4.3075 0,-0.099 -0.8574,-1.4009 -1.9054,-2.8937 -2.027,-2.8874 -2.6069,-3.7318 -4.7331,-6.8918 -2.5261,-3.7543 -3.806,-5.6986 -5.4406,-8.2649 -0.8991,-1.4116 -2.1417,-3.3173 -2.7612,-4.2348 -0.9424,-1.3956 -1.6273,-2.5009 -3.9966,-6.4504 -0.1085,-0.1808 -0.7125,0.1422 -2.4151,1.2915 -4.5491,3.0707 -7.886,4.8057 -22.705,11.8055 -8.3422,3.9404 -12.0191,5.4568 -12.3537,5.0949 -0.1291,-0.1397 -0.6116,-2.5471 -1.0719,-5.3477 -1.3179,-8.02 1.681,-15.0386 11.9932,-28.0687 1.2795,-1.6167 2.9956,-3.866 3.8137,-4.9986 7.5669,-10.4761 14.3912,-12.9469 25.7568,-9.3257 1.3576,0.4325 3.4492,1.0878 4.648,1.4561 1.1988,0.3683 3.1605,1.0202 4.3593,1.4488 10.255,3.6661 18.7451,6.1871 23.8364,7.078 2.0208,0.3536 4.9634,1.0074 6.539,1.4527 2.9135,0.8235 7.2402,1.9159 7.5884,1.9159 0.3376,0 5.5391,-6.496 5.5391,-6.9176 0,-0.1483 -0.3508,-0.2107 -3.542,-0.6301 -1.1988,-0.1576 -3.6101,-0.6101 -5.3584,-1.0056 -4.4872,-1.0151 -4.4263,-1.0022 -8.4462,-1.7953 -1.9981,-0.3942 -4.7772,-0.8888 -6.1758,-1.0991 -1.3986,-0.2103 -3.156,-0.5365 -3.9053,-0.7248 -1.8291,-0.4597 -4.5113,-1.0152 -6.1758,-1.2788 -0.7492,-0.1187 -1.8527,-0.3651 -2.4521,-0.5476 -0.5994,-0.1825 -2.088,-0.5009 -3.308,-0.7076 -3.159,-0.5353 -11.5637,-2.5761 -16.4908,-4.0041 -2.8218,-0.8179 -6.3817,-2.1917 -8.7187,-3.3647 -1.9933,-1.0005 -2.4047,-1.2599 -4.2232,-2.6629 -0.5296,-0.4085 -0.9904,-0.7108 -1.0242,-0.6717 -0.034,0.039 -0.3718,0.8067 -0.7514,1.7058 -1.511,3.5797 -6.7923,12.0777 -9.9856,16.0676 -1.2093,1.511 -1.865,2.4047 -3.1166,4.2481 -1.7953,2.6439 -5.58,6.1755 -8.3721,7.8121 -0.8241,0.4831 -1.5441,0.9523 -1.6,1.0427 -0.3643,0.5894 -0.5661,0.06 -0.9002,-2.36 -0.6677,-4.837 -0.8193,-9.7091 -0.4497,-14.4589 0.101,-1.2987 0.2627,-4.6091 0.3594,-7.3565 0.097,-2.7473 0.2591,-5.7716 0.3611,-6.7206 0.102,-0.9491 0.2693,-2.7474 0.3719,-3.9961 0.3608,-4.3934 0.5365,-6.0349 0.8224,-7.6868 0.4109,-2.3733 1.4246,-6.5403 2.2616,-9.2966 1.9684,-6.4819 2.0096,-5.9866 -1.0121,-12.1906 -2.658,-5.4574 -5.0489,-12.6136 -6.3499,-19.0061 -0.6254,-3.0731 -0.6359,-3.0731 -1.2613,0 -1.3005,6.3901 -3.6848,13.5283 -6.3369,18.9712 -3.0346,6.2281 -2.9939,5.7423 -1.0251,12.2255 0.837,2.7563 1.8508,6.9233 2.2616,9.2966 0.2859,1.6519 0.4616,3.2934 0.8224,7.6868 0.1026,1.2487 0.2699,3.047 0.372,3.9961 0.1019,0.949 0.2645,3.9733 0.3611,6.7206 0.097,2.7474 0.2583,6.0578 0.3593,7.3565 0.552,7.0947 -0.3573,18.4249 -1.3499,16.8189 -0.056,-0.09 -0.7759,-0.5596 -1.6,-1.0427 -2.7921,-1.6366 -6.5768,-5.1682 -8.372,-7.8121 -1.2517,-1.8434 -1.9074,-2.7371 -3.1167,-4.2481 -3.1933,-3.9899 -8.4745,-12.4879 -9.9856,-16.0676 -0.3795,-0.8991 -0.7198,-1.6688 -0.7561,-1.7105 -0.036,-0.042 -0.3725,0.1695 -0.7471,0.4693 -4.6151,3.6932 -10.3309,5.8059 -25.2549,9.3351 -1.2277,0.2903 -3.2303,0.697 -4.4502,0.9037 -1.22,0.2067 -2.7086,0.5251 -3.308,0.7076 -0.5994,0.1825 -1.7029,0.4289 -2.4521,0.5476 -1.6644,0.2636 -4.3467,0.8191 -6.1758,1.2788 -0.7493,0.1883 -2.5066,0.5145 -3.9053,0.7248 -1.3986,0.2103 -4.1777,0.7049 -6.1758,1.0991 -4.0199,0.7931 -3.959,0.7802 -8.4462,1.7953 -1.7483,0.3955 -4.1596,0.848 -5.3584,1.0056 -3.1912,0.4194 -3.542,0.4818 -3.542,0.6301 0,0.4216 5.2015,6.9176 5.5391,6.9176 0.3482,0 4.6749,-1.0924 7.5884,-1.9159 1.5756,-0.4453 4.5182,-1.0991 6.5391,-1.4527 5.0912,-0.8909 13.5813,-3.4119 23.8363,-7.078 1.1988,-0.4286 3.1605,-1.0805 4.3593,-1.4488 1.1989,-0.3683 3.2904,-1.0236 4.648,-1.4561 11.3656,-3.6212 18.1899,-1.1504 25.7568,9.3257 0.8181,1.1326 2.5342,3.3819 3.8137,4.9986 10.3122,13.0301 13.3111,20.0487 11.9932,28.0687 -0.4679,2.847 -0.9438,5.2091 -1.0789,5.3547 -0.353,0.3805 -4.9651,-1.578 -15.2529,-6.4767 -13.2871,-6.3269 -15.2192,-7.3439 -19.708,-10.3733 -1.1988,-0.8091 -2.2283,-1.494 -2.2877,-1.5222 -0.059,-0.028 -0.697,0.9528 -1.4169,2.1797 -0.72,1.227 -1.8974,3.1031 -2.6167,4.1692 -0.7192,1.0661 -2.0432,3.0943 -2.9424,4.5072 -1.6319,2.5645 -2.902,4.4945 -5.4406,8.2673 -2.1262,3.16 -2.7061,4.0044 -4.7331,6.8918 -1.048,1.4928 -1.9054,2.7949 -1.9054,2.8937 0,0.2143 -1.4775,2.3891 -2.9265,4.3075 -1.0438,1.3821 -5.1141,5.5067 -6.7629,6.8532 -1.1801,0.9637 -1.1999,0.9346 0.9707,1.4202 3.3408,0.7473 7.1523,1.8501 9.6423,2.7898 2.8018,1.0574 2.5897,1.1445 2.8751,-1.1797 0.9935,-8.088 2.7597,-13.34 6.2,-18.4365 0.3709,-0.5494 1.1824,-1.8572 1.8033,-2.9062 1.3045,-2.2041 3.3008,-5.061 4.6326,-6.6299 0.5089,-0.5994 1.6154,-2.0094 2.459,-3.1333 1.7356,-2.3123 1.6203,-2.2638 3.3466,-1.407 0.7053,0.35 2.917,1.2216 4.9151,1.9369 1.998,0.7153 4.818,1.8281 6.2666,2.4729 1.4486,0.6448 3.5329,1.5618 4.6318,2.0377 4.4735,1.9375 11.1548,5.0756 12.2896,5.7723 1.2985,0.7973 2.3806,1.3173 3.4652,1.6654 0.3732,0.1198 0.7217,0.2874 0.7743,0.3726 0.2148,0.3476 -0.5038,7.0422 -1.1018,10.263 -1.36,7.3256 -2.9338,14.8454 -3.9536,18.8906 -0.4533,1.7982 -1.1171,4.7923 -1.4751,6.6536 -0.3579,1.8612 -0.7687,3.7821 -0.9128,4.2685 -0.1441,0.4865 -0.5143,2.1106 -0.8227,3.6091 -1.3525,6.5716 -3.3824,12.1457 -6.4164,17.6191 -1.8362,3.3127 -2.5204,4.2669 -4.2499,5.928 -1.9226,1.8465 -7.2422,5.3052 -10.8096,7.0282 -2.1343,1.0308 -2.4928,1.3015 -1.7271,1.3039 2.2829,0.01 7.0392,2.1386 9.2707,4.1546 4.0274,3.6385 -0.01,8.8392 -9.8344,12.6824 -3.0227,1.1819 -13.0728,3.9758 -16.1926,4.5015 -0.9491,0.16 -2.046,0.3486 -2.4376,0.4193 l -0.7119,0.1285 1.711,1.1916 c 0.941,0.6553 2.7735,1.9595 4.0722,2.8982 2.5237,1.8239 6.6497,4.5994 9.1729,6.1703 5.2999,3.2998 7.0514,4.5126 9.9712,6.905 2.2645,1.8554 3.711,3.0124 5.4951,4.3956 0.7345,0.5694 3.338,3.0701 5.7856,5.5571 2.4476,2.487 4.4713,4.4713 4.4971,4.4094 0.026,-0.062 -0.6535,-2.0721 -1.5096,-4.4672 z m 11.608,-41.6854 c -2.3356,-0.6038 -4.3597,-1.8627 -7.4057,-4.6061 -0.7628,-0.687 -1.5687,-1.3897 -1.7908,-1.5617 -1.204,-0.9319 -2.9083,-2.0264 -3.5632,-2.2885 -0.4103,-0.1642 -0.746,-0.3568 -0.746,-0.428 0,-0.1509 1.6467,-0.9209 1.9693,-0.9209 3.0153,0 9.0315,-7.7144 11.4518,-14.6843 0.583,-1.679 1.1865,-3.251 1.341,-3.4933 0.3319,-0.5202 1.25,-3.9431 1.6731,-6.2372 0.1642,-0.8905 0.572,-2.4844 0.9062,-3.542 1.3179,-4.1705 2.2774,-8.603 2.736,-12.6398 0.5214,-4.5888 0.6085,-5.2514 0.8839,-6.7207 0.1498,-0.7992 0.2969,-1.6983 0.3269,-1.998 0.034,-0.3391 0.1575,-0.545 0.327,-0.545 0.1695,0 0.2931,0.2059 0.327,0.545 0.03,0.2997 0.1771,1.1988 0.3269,1.998 0.2754,1.4693 0.3625,2.1319 0.8839,6.7207 0.4586,4.0368 1.4181,8.4693 2.736,12.6398 0.3342,1.0576 0.742,2.6515 0.9062,3.542 0.4231,2.2941 1.3412,5.717 1.6731,6.2372 0.1545,0.2423 0.758,1.8143 1.341,3.4933 2.4203,6.9699 8.4365,14.6843 11.4518,14.6843 0.3226,0 1.9693,0.77 1.9693,0.9209 0,0.071 -0.3357,0.2638 -0.746,0.428 -0.6549,0.2621 -2.3592,1.3566 -3.5632,2.2885 -0.2221,0.172 -1.028,0.8747 -1.7908,1.5617 -3.0956,2.788 -5.0727,4.0063 -7.4899,4.6155 -2.5729,0.6484 -3.479,0.3085 -6.2481,-2.3442 l -1.7772,-1.7024 -1.7772,1.7024 c -2.7665,2.6502 -3.7334,3.0067 -6.3323,2.3348 z m 3.1651,-5.7509 c 1.5394,-1.6972 3.3365,-4.7359 4.2508,-7.1876 0.7179,-1.9248 0.6715,-1.9184 1.3129,-0.1816 1.4043,3.803 4.4599,8.2468 5.8497,8.5075 1.1457,0.215 3.0839,-0.8631 5.4973,-3.0578 0.9417,-0.8564 0.9477,-0.809 -0.2755,-2.1733 -3.1686,-3.534 -6.0541,-7.9161 -7.0316,-10.6783 -2.4575,-6.9446 -2.8168,-8.1721 -3.6818,-12.5786 -0.4854,-2.4725 -0.9252,-4.4956 -0.9774,-4.4956 -0.052,0 -0.492,2.0231 -0.9774,4.4956 -0.865,4.4065 -1.2243,5.634 -3.6818,12.5786 -0.9775,2.7622 -3.863,7.1443 -7.0316,10.6783 -1.2238,1.365 -1.2179,1.3174 -0.2707,2.1733 3.7711,3.4072 5.2908,3.8229 7.0171,1.9195 z m -63.2616,16.5776 c 0.7454,-0.1727 2.8875,-0.3707 5.1768,-0.4786 4.8698,-0.2293 6.5228,-0.4727 11.0915,-1.6333 10.5621,-2.6831 15.7547,-4.8448 18.5159,-7.7081 l 0.8174,-0.8477 -0.545,-0.4518 c -2.9089,-2.4122 -7.846,-3.4036 -16.8037,-3.3745 -2.9482,0.01 -5.6263,0.064 -5.9514,0.1215 -0.6823,0.1202 -5.2619,-0.3263 -7.3972,-0.7212 -0.7992,-0.1478 -2.0253,-0.356 -2.7246,-0.4625 -1.2198,-0.1859 -2.5047,-0.5212 -3.604,-0.9405 l -0.5161,-0.1969 0.3345,-0.1939 c 0.1916,-0.1111 1.5442,-0.2061 3.1667,-0.2224 3.0539,-0.031 4.2659,-0.1287 6.7741,-0.5476 0.8878,-0.1483 1.7052,-0.2363 1.8164,-0.1956 0.3529,0.1292 2.7691,-0.1984 5.066,-0.6869 3.4699,-0.7378 4.5165,-1.023 5.4336,-1.4804 0.4686,-0.2338 1.4819,-0.5979 2.2519,-0.8091 3.7878,-1.0392 11.2882,-5.0391 14.89,-7.9408 4.1151,-3.3152 8.6105,-13.2056 10.622,-23.3696 0.2168,-1.0952 0.4639,-2.1748 0.5491,-2.399 0.085,-0.2241 0.4048,-1.7801 0.7102,-3.4578 0.3053,-1.6776 1.0767,-5.1754 1.7143,-7.7728 0.6375,-2.5975 1.4092,-5.9896 1.7148,-7.5381 0.3057,-1.5485 0.7602,-3.7963 1.0101,-4.9951 1.1529,-5.5311 1.7565,-9.004 1.8606,-10.7048 l 0.1131,-1.8487 -0.8882,-0.5697 c -1.2763,-0.8186 -5.318,-2.7096 -13.8756,-6.492 -1.6484,-0.7286 -3.5692,-1.5862 -4.2685,-1.9059 -3.3785,-1.5444 -8.9072,-3.387 -9.267,-3.0884 -0.1448,0.1202 -1.3761,1.8908 -2.7362,3.9347 l -2.4728,3.7162 0.3357,0.2587 c 3.8084,2.9358 12.0279,4.9354 14.8789,3.6196 2.0457,-0.9441 4.9153,-2.0575 5.6293,-2.1841 l 0.7161,-0.127 -0.8472,0.8842 c -1.0265,1.0713 -1.6232,2.0584 -3.3893,5.6068 -1.6947,3.4052 -1.745,3.7538 -0.8773,6.085 1.7643,4.7404 2.0313,6.3782 1.9985,12.2607 -0.052,9.3307 -2.5464,15.6338 -8.9251,22.5521 -3.955,4.2895 -4.3953,5.4912 -4.4008,12.0084 v 3.2207 l -0.6386,-0.7266 c -0.3513,-0.3996 -1.2368,-1.5032 -1.9679,-2.4525 -0.7311,-0.9492 -1.4769,-1.8484 -1.6573,-1.998 -0.1804,-0.1497 -0.7542,-0.926 -1.2751,-1.7252 -1.6575,-2.5433 -9.5887,-11.1709 -10.2691,-11.1709 -0.1965,0 -0.4175,5.4718 -0.2727,6.7518 0.258,2.2808 1.0233,6.8268 1.3554,8.0519 0.3882,1.4316 1.2063,5.0771 1.3839,6.1662 l 0.1169,0.717 -0.7869,-0.6791 c -0.4328,-0.3735 -1.2365,-1.0413 -1.7859,-1.4841 -1.6124,-1.2993 -2.928,-2.6047 -4.5159,-4.4808 -6.3423,-7.4934 -16.8087,-13.4082 -23.7264,-13.4082 h -1.165 l -0.4388,0.5904 c -1.1266,1.5154 -1.4003,3.793 -0.955,7.9467 0.5413,5.0497 0.958,6.623 2.6459,9.9903 0.4757,0.949 1.2887,2.6655 1.8067,3.8144 0.5179,1.1489 1.8349,3.8587 2.9266,6.0217 1.0917,2.1631 2.4414,5.0649 2.9993,6.4483 0.5579,1.3834 1.4142,3.3327 1.903,4.3317 0.8881,1.8156 2.5574,6.3072 3.1977,8.6042 0.085,0.3051 1.5245,0.2072 3.4244,-0.233 z m 139.8447,0.2113 c 0.5549,-2.0649 2.3055,-6.7755 3.1894,-8.5825 0.4888,-0.999 1.3386,-2.9323 1.8885,-4.2961 0.55,-1.3639 1.9865,-4.4328 3.1924,-6.8198 1.2058,-2.387 2.1924,-4.3915 2.1924,-4.4545 0,-0.063 0.8071,-1.8166 1.7935,-3.897 2.4924,-5.2568 2.6436,-5.7805 3.2159,-11.139 0.4437,-4.1552 0.1697,-6.4322 -0.9562,-7.9467 l -0.4388,-0.5904 h -1.165 c -6.9177,0 -17.3841,5.9148 -23.7265,13.4082 -1.5879,1.8761 -2.9034,3.1815 -4.5158,4.4808 -0.5494,0.4428 -1.3531,1.1106 -1.7859,1.4841 l -0.787,0.6791 0.117,-0.717 c 0.1775,-1.0891 0.9957,-4.7346 1.3839,-6.1662 0.3321,-1.2251 1.0974,-5.7711 1.3554,-8.0519 0.1448,-1.28 -0.076,-6.7518 -0.2727,-6.7518 -0.6804,0 -8.6116,8.6276 -10.2691,11.1709 -0.5209,0.7992 -1.0947,1.5755 -1.2751,1.7252 -0.1804,0.1496 -0.9262,1.0488 -1.6573,1.998 -0.7311,0.9493 -1.6166,2.0529 -1.9679,2.4525 l -0.6386,0.7266 v -3.2207 c -0.01,-6.5172 -0.4459,-7.7189 -4.4008,-12.0084 -6.3787,-6.9183 -8.8732,-13.2214 -8.9252,-22.5521 -0.033,-5.8825 0.2342,-7.5203 1.9986,-12.2607 0.8676,-2.3312 0.8174,-2.6798 -0.8774,-6.085 -1.766,-3.5484 -2.3627,-4.5355 -3.3892,-5.6068 l -0.8472,-0.8842 0.7161,0.127 c 0.7139,0.1266 3.5835,1.24 5.6293,2.1841 2.8517,1.3162 11.069,-0.6834 14.8809,-3.621 l 0.3376,-0.2602 -1.4275,-2.114 c -0.7851,-1.1627 -1.844,-2.7672 -2.3532,-3.5655 -0.5092,-0.7983 -1.0933,-1.6189 -1.2979,-1.8235 l -0.372,-0.3721 -1.7901,0.5914 c -2.5844,0.8539 -5.7718,2.0533 -7.2392,2.7241 -0.6993,0.3197 -2.6202,1.1773 -4.2685,1.9059 -8.5576,3.7824 -12.5993,5.6734 -13.8756,6.492 l -0.8882,0.5697 0.1131,1.8487 c 0.1041,1.7008 0.7077,5.1737 1.8606,10.7048 0.2499,1.1988 0.7044,3.4466 1.0101,4.9951 0.3056,1.5485 1.0773,4.9406 1.7148,7.5381 0.6375,2.5974 1.409,6.0952 1.7143,7.7728 0.3054,1.6777 0.6249,3.2337 0.7102,3.4578 0.085,0.2242 0.3323,1.3038 0.549,2.399 2.0116,10.164 6.5069,20.0544 10.6221,23.3696 3.6018,2.9017 11.1021,6.9016 14.89,7.9408 0.7699,0.2112 1.7833,0.5753 2.2519,0.8091 1.6703,0.8331 9.6464,2.4796 10.4995,2.1673 0.1113,-0.041 0.9286,0.047 1.8164,0.1956 2.5083,0.4189 3.7203,0.5169 6.7742,0.5476 1.6225,0.016 2.9751,0.1113 3.1667,0.2224 l 0.3344,0.1939 -0.5161,0.1937 c -1.1029,0.414 -2.3853,0.748 -3.6039,0.9386 -0.6994,0.1093 -1.9254,0.3198 -2.7246,0.4676 -2.1354,0.3949 -6.7149,0.8414 -7.3972,0.7212 -0.3251,-0.057 -3.0032,-0.1119 -5.9514,-0.1215 -8.9578,-0.029 -13.8948,0.9623 -16.8038,3.3745 l -0.5449,0.4518 0.8174,0.8477 c 2.7612,2.8633 7.9538,5.025 18.5159,7.7081 4.5678,1.1603 6.2207,1.4038 11.0915,1.6338 3.2848,0.1552 6.4059,0.547 6.7056,0.842 0.1924,0.1895 1.8476,0.057 1.9039,-0.1526 z m -155.151,-17.0858 c -1.0919,-2.1306 -2.4169,-4.849 -2.9444,-6.0407 -0.5275,-1.1918 -1.3683,-2.9843 -1.8684,-3.9833 -1.2154,-2.4276 -2.0376,-4.6008 -2.3921,-6.3222 -2.4201,-11.7517 -0.1957,-18.7157 5.9662,-18.678 6.6683,0.041 15.5764,4.0613 22.63,10.2138 l 1.1807,1.0299 v -3.7477 c 0,-2.0612 0.04,-4.7376 0.089,-5.9475 0.1042,-2.5878 0.254,-2.311 -2.2015,-4.0661 -2.8165,-2.0132 -4.9038,-2.7869 -20.3174,-7.5316 -7.9265,-2.44 -7.0099,-2.2503 -7.0325,-1.4556 -0.028,0.9828 -0.4039,1.3872 -3.0737,3.3044 -1.3609,0.9773 -3.0159,2.1707 -3.6779,2.6521 -8.8767,6.4556 -18.4145,10.2192 -25.0847,9.8984 -3.2527,-0.1564 -5.5446,-2.5175 -5.5446,-5.7119 v -1.2956 l -1.9494,0.9777 c -1.812,0.9087 -5.5103,2.4563 -7.0872,2.9656 -0.9186,0.2968 -0.9027,0.3211 0.9618,1.4634 0.8969,0.5494 3.6528,2.361 6.1242,4.0256 2.4715,1.6646 5.597,3.6989 6.9457,4.5205 7.6484,4.6595 10.8449,6.573 12.7148,7.6112 5.4252,3.0121 8.4076,5.0519 12.5547,8.5865 2.8718,2.4477 5.6909,4.6066 8.2432,6.3126 2.1542,1.44 6.4593,4.4645 7.0839,4.9768 0.9119,0.7478 0.7433,0.268 -1.32,-3.7583 z m 168.7016,1.5768 c 1.1489,-0.8019 2.8654,-1.9772 3.8145,-2.6118 2.8017,-1.8734 5.5523,-3.9666 8.2872,-6.3066 4.3633,-3.7333 6.7806,-5.3933 12.7725,-8.7711 2.5437,-1.434 4.6141,-2.6731 12.7254,-7.6158 1.3487,-0.8218 4.4742,-2.8562 6.9457,-4.5208 2.4714,-1.6646 5.2273,-3.4762 6.1242,-4.0256 1.8645,-1.1423 1.8804,-1.1666 0.9618,-1.4634 -1.5769,-0.5093 -5.2752,-2.0569 -7.0872,-2.9656 l -1.9494,-0.9777 v 1.2956 c 0,3.1944 -2.2919,5.5555 -5.5446,5.7119 -6.6702,0.3208 -16.208,-3.4428 -25.0847,-9.8984 -0.662,-0.4814 -2.317,-1.6748 -3.6779,-2.6521 -2.6698,-1.9172 -3.0459,-2.3216 -3.0737,-3.3044 -0.023,-0.7947 0.894,-0.9844 -7.0325,1.4556 -15.4136,4.7447 -17.5009,5.5184 -20.3174,7.5316 -2.4555,1.7551 -2.3057,1.4783 -2.2015,4.0661 0.049,1.2099 0.089,3.8863 0.089,5.9475 v 3.7477 l 1.1807,-1.0299 c 7.0536,-6.1525 15.9617,-10.173 22.63,-10.2138 6.1619,-0.038 8.3863,6.9263 5.9662,18.678 -0.3545,1.7214 -1.1767,3.8946 -2.3921,6.3222 -0.5001,0.999 -1.3409,2.7915 -1.8684,3.9833 -0.5275,1.1917 -1.8459,3.8971 -2.9297,6.0119 -2.2068,4.3063 -2.2911,4.5657 -1.1985,3.6855 0.4246,-0.342 1.712,-1.278 2.8608,-2.0799 z m -128.6503,-28.6306 c 0.6954,-1.3451 1.916,-2.9071 4.5424,-5.8134 3.1597,-3.4964 5.1383,-6.9881 6.5094,-11.4868 l 0.6642,-2.1797 0.1934,-3.5348 c 0.2967,-5.4225 -0.1268,-8.3033 -1.9506,-13.2669 -0.6348,-1.7275 -0.7984,-3.871 -0.3946,-5.1683 0.154,-0.4949 0.2626,-0.9099 0.2413,-0.9223 -0.021,-0.013 -0.8828,-0.1667 -1.9144,-0.3427 -3.3507,-0.5716 -7.6964,-2.1555 -10.7718,-3.9261 -0.862,-0.4963 -1.6173,-0.9023 -1.6783,-0.9023 -0.1819,0 -3.0209,4.6725 -3.0209,4.9717 0,0.042 0.7755,0.5055 1.7234,1.0306 5.9971,3.3223 8.6601,8.3315 7.4885,14.0859 -1.4146,6.9476 -5.0991,8.6901 -11.5258,5.4507 -9.3577,-4.7167 -14.8264,-6.4182 -26.9302,-8.3786 -4.7205,-0.7645 -12.4065,-2.4184 -17.2559,-3.7131 -1.8482,-0.4934 -4.9134,-1.1849 -6.8115,-1.5365 -5.1745,-0.9587 -10.2786,-2.0189 -11.2801,-2.3429 -1.2172,-0.3938 -3.3685,-0.9239 -6.0138,-1.4817 -1.2198,-0.2571 -2.8137,-0.6603 -3.542,-0.8957 -0.7283,-0.2355 -2.0394,-0.6445 -2.9136,-0.9089 -2.1189,-0.6409 -2.0529,-0.6953 1.2869,-1.0623 3.0724,-0.3375 8.7243,-1.2599 9.4753,-1.5462 0.2498,-0.095 0.9445,-0.2313 1.544,-0.3024 1.2337,-0.1462 6.9909,-1.4387 10.5351,-2.3651 1.2987,-0.3395 4.323,-1.1189 6.7207,-1.7321 2.3977,-0.6131 4.9724,-1.3628 5.7217,-1.6659 2.1037,-0.851 10.6442,-3.9514 12.1699,-4.418 2.5571,-0.7821 6.9918,-2.2466 7.6759,-2.5349 l 0.6828,-0.2878 0.4979,0.3187 c 0.652,0.4173 4.6322,3.7389 6.5388,5.4568 l 1.5,1.3514 0.3593,-0.427 c 0.1977,-0.2349 0.6058,-0.8358 0.9069,-1.3353 0.3011,-0.4995 0.8663,-1.4139 1.2559,-2.0319 l 0.7084,-1.1238 -1.279,-0.9651 c -0.7034,-0.5308 -2.3096,-1.694 -3.5693,-2.585 -3.1565,-2.2324 -6.4115,-4.6884 -7.8861,-5.9501 -1.453,-1.2432 -1.2136,-1.201 -2.78,-0.4898 -4.6953,2.1319 -14.1229,5.3542 -17.2355,5.8911 -0.2997,0.052 -0.9945,0.2471 -1.544,0.4342 -0.5494,0.1872 -1.5936,0.476 -2.3204,0.6418 -0.7268,0.1658 -1.5442,0.4177 -1.8164,0.5598 -0.2723,0.142 -0.7351,0.2587 -1.0285,0.2593 h -0.5335 l 0.5335,-0.5595 c 0.2934,-0.3077 1.0239,-0.9108 1.6233,-1.3403 1.1339,-0.8124 2.5334,-2.2118 3.4578,-3.4573 0.2961,-0.3989 1.0151,-1.298 1.5979,-1.998 0.5828,-0.7 1.6373,-2.2537 2.3434,-3.4525 0.706,-1.1988 2.0479,-3.4589 2.9819,-5.0224 0.9339,-1.5635 1.6981,-2.9281 1.6981,-3.0325 0,-0.1044 -1.2996,-1.3359 -2.888,-2.7366 -2.6967,-2.3781 -5.182,-4.8971 -6.5914,-6.6808 -0.3309,-0.4187 -1.283,-1.5631 -2.1159,-2.543 -3.6064,-4.243 -8.212,-10.7259 -9.9375,-13.9882 -0.6762,-1.2785 -1.5161,-2.7741 -1.8663,-3.3236 -2.5291,-3.9675 -2.3106,-3.5465 -3.6291,-6.9931 -1.0029,-2.6217 -2.7349,-6.5892 -3.8228,-8.7567 -2.3233,-4.6291 -5.5101,-14.1744 -7.2185,-21.6217 -1.7445,-7.6041 -2.2703,-10.7862 -3.0694,-18.5737 -0.2512,-2.4476 -0.6164,-6.0032 -0.8116,-7.9014 -1.234,-11.9977 -1.5349,-16.4221 -1.5442,-22.7069 l -0.01,-5.4511 -1.5633,3.998 c -0.8599,2.1989 -2.0245,5.1169 -2.5882,6.4844 -0.5636,1.3676 -1.303,3.3358 -1.643,4.3738 -0.3401,1.0381 -1.3523,3.5156 -2.2495,5.5057 -0.8971,1.9901 -1.8373,4.1088 -2.0893,4.7082 -0.7904,1.8803 -4.2429,12.393 -5.1219,15.5962 -0.4623,1.6846 -1.1986,4.0782 -1.6362,5.3192 -2.1575,6.1175 -4.4657,15.4391 -5.0814,20.5213 -0.1559,1.2863 -0.5227,4.0552 -0.8152,6.1531 -0.2926,2.098 -0.5819,4.3458 -0.6431,4.9951 -0.166,1.7621 -0.4533,3.9078 -0.7418,5.5401 -0.1412,0.7992 -0.3385,2.5566 -0.4383,3.9052 -0.1,1.3487 -0.3372,3.147 -0.5275,3.9961 -0.1902,0.8492 -0.3306,1.5605 -0.3119,1.5808 0.2728,0.2951 7.416,2.1352 9.0121,2.3216 0.5495,0.064 1.4273,0.1785 1.9506,0.254 l 0.9516,0.1373 1.7035,-2.283 c 1.99,-2.667 5.5341,-6.8115 6.89,-8.0572 1.8272,-1.6794 7.0586,-5.3975 7.5934,-5.3975 0.1534,0 0.8211,-0.3636 1.4838,-0.8081 l 1.2049,-0.8081 0.9178,1.9213 c 0.5048,1.0567 0.9177,1.9745 0.9177,2.0396 0,0.1936 2.3626,6.0269 2.763,6.8219 1.4858,2.9502 3.9134,6.6857 8.8444,13.6097 3.8248,5.3708 4.2054,5.84 8.2823,10.2096 1.2987,1.392 2.951,3.1834 3.6718,3.981 0.7207,0.7975 2.049,2.2203 2.9516,3.1618 1.9798,2.0649 1.9776,1.4957 0.022,5.5042 -2.7618,5.6602 -5.1627,8.8133 -8.8247,11.5893 -0.8991,0.6817 -1.9209,1.5014 -2.2705,1.8218 -0.3497,0.3203 -0.8958,0.6929 -1.2137,0.8279 -0.3178,0.1351 -0.6211,0.3154 -0.6738,0.4008 -0.1182,0.1912 0.9008,3.4232 1.6994,5.3903 0.5319,1.3099 1.4596,3.9688 1.4596,4.1833 0,0.1462 -0.5114,0.093 -0.5752,-0.06 -0.1231,-0.2947 -4.6225,-3.7203 -6.9669,-5.3043 -0.6654,-0.4495 -1.6315,-1.1267 -2.1469,-1.5047 -1.3389,-0.9822 -1.4549,-0.986 -4.6261,-0.1515 -7.163,1.8849 -9.6078,2.2639 -14.6566,2.2717 -10.7367,0.017 -17.6237,-3.4923 -22.0553,-11.2379 -1.9672,-3.4381 -0.8833,-11.0032 2.3322,-16.2775 0.2074,-0.3403 0.3774,-0.7048 0.3778,-0.8102 0,-0.3325 -5.4472,-5.2018 -5.5361,-4.9476 -0.045,0.1292 -0.3315,1.6003 -0.6363,3.2692 -2.0087,10.9996 -4.0253,16.9605 -7.3003,21.578 -2.1673,3.0558 -3.0895,4.2898 -4.228,5.6576 -3.9563,4.753 -9.7269,8.5958 -14.9594,9.9619 -1.5542,0.4057 -11.3457,1.839 -18.7435,2.7436 -2.6474,0.3237 -4.8716,0.6371 -4.9428,0.6964 -0.071,0.059 1.3185,0.6709 3.0879,1.359 1.7695,0.6882 5.0563,1.9845 7.3041,2.8808 2.2478,0.8963 5.2721,2.1015 6.7207,2.6783 3.6932,1.4705 10.3305,4.2396 11.0256,4.5999 0.3198,0.1658 0.6174,0.3013 0.6614,0.3013 0.044,0 -0.1647,-0.5926 -0.4638,-1.3168 -2.9533,-7.1528 4.9647,-15.054 15.1147,-15.0826 6.0074,-0.017 14.5819,2.2536 17.9556,4.7546 3.994,2.9609 4.8938,8.6066 2.3046,14.461 l -0.46,1.0403 0.408,-0.1137 c 11.0906,-3.0898 19.6332,-3.6286 34.6472,-2.1855 11.7739,1.1316 16.7878,2.1057 25.79,5.0102 1.5501,0.5001 3.8809,1.2208 5.1796,1.6015 12.7413,3.7348 17.4919,5.5688 21.1419,8.1616 1.1383,0.8086 2.1445,1.4702 2.236,1.4702 0.091,0 0.5905,0.3936 1.1091,0.8747 0.5184,0.4811 1.8827,1.6562 3.0316,2.6114 2.3254,1.9335 5.4254,5.0727 7.9013,8.0015 1.9413,2.2963 1.6839,2.2088 2.4032,0.8175 z m -105.3743,-105.0672 c -0.9396,-4.5471 -0.3878,-14.3879 1.1627,-20.7374 1.8633,-7.6306 7.3691,-18.72 12.1999,-24.5724 0.3826,-0.4634 0.6955,-0.8957 0.6955,-0.9606 0,-0.1696 2.098,-3.2659 2.4545,-3.6224 0.4289,-0.4289 0.6809,-0.1768 0.588,0.5882 -0.072,0.5942 0.1278,2.7175 0.5922,6.2905 0.091,0.6993 0.336,2.8654 0.5445,4.8135 0.389,3.6339 0.898,6.5015 1.8056,10.1719 0.2841,1.1488 0.6118,2.661 0.7283,3.3603 0.1165,0.6993 0.2835,1.6393 0.3711,2.0889 l 0.1594,0.8174 -1.0524,1.6347 c -0.5788,0.8991 -1.4863,2.3296 -2.0166,3.1787 -3.8854,6.2209 -6.3844,9.2979 -9.4421,11.6259 -0.4496,0.3423 -1.3487,1.1051 -1.9981,1.6952 -1.7845,1.6216 -5.106,3.8039 -6.1135,4.0167 l -0.5736,0.1212 z m 4.5246,-8.4157 c 0.063,-0.1021 0.5369,-0.47 1.0528,-0.8174 3.2473,-2.1869 5.9272,-5.4318 9.4575,-11.4516 l 1.3921,-2.3737 -0.8343,-3.6204 c -0.8458,-3.6703 -1.5848,-7.5569 -1.8454,-9.7054 l -0.1433,-1.1807 -1.0253,1.6348 c -1.1949,1.9052 -1.8373,3.1653 -3.6237,7.1072 -2.8009,6.1806 -3.8796,10.2107 -4.5149,16.8693 -0.1048,1.099 -0.2391,2.3863 -0.2984,2.8609 -0.1017,0.8132 0.09,1.1515 0.3829,0.677 z m 190.1749,112.6654 c 2.4759,-2.9288 5.5759,-6.068 7.9013,-8.0015 1.1489,-0.9552 2.5132,-2.1303 3.0316,-2.6114 0.5186,-0.4811 1.0176,-0.8747 1.1091,-0.8747 0.091,0 1.0977,-0.6616 2.236,-1.4702 3.65,-2.5928 8.4006,-4.4268 21.1419,-8.1616 1.2987,-0.3807 3.6295,-1.1014 5.1796,-1.6015 9.0022,-2.9045 14.0161,-3.8786 25.79,-5.0102 15.014,-1.4431 23.5566,-0.9043 34.6472,2.1855 l 0.408,0.1137 -0.46,-1.0403 c -2.5892,-5.8544 -1.6894,-11.5001 2.3046,-14.461 3.3737,-2.501 11.9482,-4.7715 17.9556,-4.7546 10.15,0.029 18.068,7.9298 15.1147,15.0826 -0.2991,0.7242 -0.5078,1.3168 -0.4638,1.3168 0.044,0 0.3416,-0.1355 0.6614,-0.3013 0.6951,-0.3603 7.3324,-3.1294 11.0256,-4.5999 1.4486,-0.5768 4.4729,-1.782 6.7207,-2.6783 2.2478,-0.8963 5.5346,-2.1926 7.3041,-2.8808 1.7694,-0.6881 3.159,-1.2997 3.0879,-1.359 -0.071,-0.059 -2.2954,-0.3727 -4.9428,-0.6964 -21.1485,-2.5861 -23.858,-3.4311 -30.6314,-9.5536 -2.4051,-2.1739 -3.7111,-3.75 -7.2995,-8.8095 -3.275,-4.6175 -5.2916,-10.5784 -7.3003,-21.578 -0.3047,-1.6689 -0.5911,-3.14 -0.6363,-3.2692 -0.089,-0.2542 -5.5372,4.6151 -5.5361,4.9476 0,0.1054 0.1704,0.4699 0.3778,0.8102 3.2155,5.2743 4.2994,12.8394 2.3322,16.2775 -4.4316,7.7456 -11.3186,11.2547 -22.0553,11.2379 -5.0488,-0.01 -7.4936,-0.3868 -14.6566,-2.2717 -3.1712,-0.8345 -3.2872,-0.8307 -4.6261,0.1515 -0.5154,0.378 -1.4815,1.0552 -2.1469,1.5047 -2.3444,1.584 -6.8438,5.0096 -6.9669,5.3043 -0.064,0.1528 -0.5752,0.2059 -0.5752,0.06 0,-0.2145 0.9277,-2.8734 1.4596,-4.1833 0.7986,-1.9671 1.8176,-5.1991 1.6994,-5.3903 -0.053,-0.085 -0.356,-0.2657 -0.6738,-0.4008 -0.3179,-0.135 -0.864,-0.5076 -1.2137,-0.8279 -0.3496,-0.3204 -1.3714,-1.1401 -2.2705,-1.8218 -3.662,-2.776 -6.0629,-5.9291 -8.8247,-11.5893 -1.956,-4.0085 -1.9582,-3.4393 0.022,-5.5042 0.9026,-0.9415 2.2309,-2.3643 2.9516,-3.1618 0.7208,-0.7976 2.3731,-2.589 3.6718,-3.981 4.0769,-4.3696 4.4575,-4.8388 8.2823,-10.2096 4.931,-6.924 7.3586,-10.6595 8.8444,-13.6097 0.4004,-0.795 2.763,-6.6283 2.763,-6.8219 0,-0.065 0.4129,-0.9829 0.9177,-2.0396 l 0.9178,-1.9213 1.2049,0.8081 c 0.6627,0.4445 1.3304,0.8081 1.4838,0.8081 0.5348,0 5.7662,3.7181 7.5934,5.3968 1.3559,1.2457 4.9,5.3902 6.8899,8.0572 l 1.7035,2.2831 0.9516,-0.1374 c 0.5234,-0.075 1.4011,-0.1898 1.9506,-0.254 1.5962,-0.1864 8.7393,-2.0265 9.0121,-2.3216 0.019,-0.02 -0.1216,-0.7316 -0.3119,-1.5808 -0.1903,-0.8491 -0.4276,-2.6474 -0.5274,-3.9961 -0.1,-1.3486 -0.2971,-3.106 -0.4384,-3.9052 -0.2885,-1.6323 -0.5758,-3.778 -0.7417,-5.5401 -0.061,-0.6493 -0.3506,-2.8971 -0.6431,-4.9951 -0.2925,-2.0979 -0.6594,-4.8668 -0.8152,-6.153 -0.6158,-5.0823 -2.9239,-14.4039 -5.0814,-20.5214 -0.4377,-1.2409 -1.174,-3.6346 -1.6363,-5.3192 -0.879,-3.2032 -4.3314,-13.7159 -5.1219,-15.5961 -0.2519,-0.5995 -1.1921,-2.7182 -2.0893,-4.7083 -0.8971,-1.9901 -1.9094,-4.4676 -2.2494,-5.5057 -0.34,-1.038 -1.0794,-3.0062 -1.6431,-4.3738 -0.5636,-1.3675 -1.7283,-4.2855 -2.5881,-6.4844 l -1.5634,-3.998 -0.01,5.4511 c -0.01,6.2848 -0.3103,10.7092 -1.5442,22.7069 -0.1953,1.8982 -0.5605,5.4538 -0.8116,7.9014 -0.7991,7.7876 -1.325,10.9696 -3.0694,18.5737 -1.7085,7.4473 -4.8952,16.9926 -7.2186,21.6217 -1.0878,2.1675 -2.8199,6.135 -3.8228,8.7567 -1.1398,2.9796 -1.3212,3.3692 -2.2406,4.8134 -0.4134,0.6494 -1.0382,1.6303 -1.3884,2.1797 -0.3503,0.5495 -1.1901,2.0451 -1.8663,3.3236 -1.7255,3.2623 -6.3311,9.7452 -9.9376,13.9883 -0.8328,0.9798 -1.785,2.1242 -2.1159,2.5429 -1.4094,1.7837 -3.8946,4.3027 -6.5913,6.6808 -1.5885,1.4007 -2.8881,2.6322 -2.8881,2.7366 0,0.1044 0.7642,1.469 1.6982,3.0325 0.934,1.5635 2.2758,3.8236 2.9819,5.0224 0.7061,1.1989 1.7606,2.7525 2.3433,3.4525 0.5828,0.7 1.3019,1.5991 1.5979,1.998 0.9244,1.2455 2.324,2.6449 3.4578,3.4573 0.5994,0.4295 1.3299,1.0326 1.6233,1.3403 l 0.5335,0.5595 h -0.5335 c -0.2934,0 -0.7562,-0.1173 -1.0285,-0.2593 -0.2722,-0.1421 -1.0896,-0.394 -1.8164,-0.5598 -0.7267,-0.1658 -1.7709,-0.4546 -2.3204,-0.6418 -0.5494,-0.1871 -1.2442,-0.3825 -1.5439,-0.4342 -3.1127,-0.5369 -12.5402,-3.7592 -17.2356,-5.8911 -1.5664,-0.7112 -1.3269,-0.7534 -2.7799,0.4898 -1.4747,1.2618 -4.7297,3.7177 -7.8862,5.9502 -1.2596,0.8909 -2.8658,2.0541 -3.5693,2.5849 l -1.2789,0.9652 0.7084,1.1237 c 0.3896,0.618 0.9547,1.5324 1.2558,2.0319 0.3012,0.4995 0.7093,1.1004 0.9069,1.3353 l 0.3594,0.427 1.4999,-1.3514 c 1.9067,-1.7179 5.8869,-5.0395 6.5389,-5.4568 l 0.4978,-0.3187 0.6828,0.2878 c 0.6841,0.2883 5.1188,1.7529 7.676,2.5349 1.5257,0.4666 10.0661,3.567 12.1699,4.418 0.7492,0.3031 3.324,1.0528 5.7216,1.6659 2.3977,0.6132 5.422,1.3926 6.7207,1.7321 3.5442,0.9264 9.3015,2.2189 10.5352,2.3651 0.5994,0.071 1.2942,0.2071 1.5439,0.3024 0.751,0.2863 6.403,1.2087 9.4753,1.5462 3.3399,0.367 3.4058,0.4214 1.2869,1.0623 -0.8741,0.2644 -2.1852,0.6734 -2.9136,0.9089 -0.7283,0.2355 -2.3222,0.6386 -3.542,0.8958 -2.6453,0.5578 -4.7966,1.0878 -6.0138,1.4816 -1.0015,0.324 -6.1056,1.3842 -11.2801,2.3429 -1.8981,0.3517 -4.9633,1.0431 -6.8115,1.5365 -4.8493,1.2947 -12.5354,2.9486 -17.2558,3.7131 -12.1038,1.9604 -17.5726,3.6619 -26.9302,8.3786 -6.4267,3.2394 -10.1112,1.4969 -11.5258,-5.4507 -1.1717,-5.7544 1.4914,-10.7636 7.4884,-14.0859 0.9479,-0.5251 1.7235,-0.9888 1.7235,-1.0305 0,-0.2993 -2.8391,-4.9718 -3.0209,-4.9718 -0.061,0 -0.8163,0.406 -1.6783,0.9024 -3.0754,1.7705 -7.4211,3.3545 -10.7719,3.9261 -1.0315,0.1759 -1.893,0.3301 -1.9143,0.3426 -0.021,0.012 0.087,0.4275 0.2413,0.9223 0.414,1.3302 0.2425,3.4404 -0.4277,5.2618 -4.1028,11.15 -2.1656,21.9481 5.4495,30.3747 2.6264,2.9063 3.8469,4.4683 4.5423,5.8134 0.7194,1.3913 0.462,1.4789 2.4032,-0.8175 z m 101.9467,-103.9422 c -0.7884,-0.2373 -4.4704,-2.7463 -5.7681,-3.9306 -0.6494,-0.5925 -1.5485,-1.3574 -1.9981,-1.6997 -3.0577,-2.328 -5.5567,-5.405 -9.4421,-11.6259 -0.5303,-0.8491 -1.4378,-2.2796 -2.0166,-3.1787 l -1.0524,-1.6347 0.1594,-0.8174 c 0.088,-0.4496 0.2546,-1.3896 0.3711,-2.0889 0.1165,-0.6993 0.4442,-2.2115 0.7283,-3.3603 0.9076,-3.6704 1.4166,-6.538 1.8056,-10.1719 0.2085,-1.9481 0.4535,-4.1142 0.5445,-4.8135 0.4644,-3.573 0.6643,-5.6963 0.5922,-6.2905 -0.093,-0.765 0.1591,-1.0171 0.588,-0.5882 0.3565,0.3565 2.4545,3.4528 2.4545,3.6224 0,0.065 0.3129,0.4972 0.6955,0.9606 3.7522,4.5457 8.8808,14.0778 11.0292,20.4988 2.2175,6.628 3.1881,14.7541 2.6227,21.9585 -0.2791,3.5555 -0.248,3.4808 -1.3137,3.16 z m -3.1173,-9.4002 c -0.059,-0.4746 -0.1936,-1.7619 -0.2984,-2.8609 -0.6353,-6.6586 -1.7139,-10.6887 -4.5148,-16.8693 -1.7864,-3.9419 -2.4289,-5.202 -3.6238,-7.1072 l -1.0253,-1.6348 -0.1433,1.1807 c -0.2606,2.1485 -0.9996,6.0351 -1.8454,9.7054 l -0.8343,3.6204 1.3921,2.3737 c 3.5303,6.0198 6.2102,9.2647 9.4575,11.4516 0.5159,0.3474 0.9897,0.7153 1.0528,0.8174 0.2933,0.4745 0.4846,0.1362 0.3829,-0.677 z m -191.9399,88.4332 c 0.3878,-0.3878 1.1096,-3.2093 1.1096,-4.3371 0,-2.6837 -1.9346,-5.4058 -5.1757,-7.2824 -1.4807,-0.8574 -1.4945,-0.8509 -1.7118,0.8017 -0.091,0.694 -0.423,2.7566 -0.7371,4.5836 -0.3142,1.8269 -0.5458,3.5842 -0.5148,3.9052 l 0.056,0.5836 1.5762,0.781 c 2.318,1.1486 4.7742,1.5874 5.3972,0.9644 z m 97.5654,-0.038 c 0.4521,-0.097 1.5147,-0.5205 2.3613,-0.9416 l 1.5393,-0.7657 0.056,-0.5836 c 0.031,-0.321 -0.2006,-2.0783 -0.5148,-3.9052 -0.3141,-1.827 -0.6458,-3.8896 -0.7371,-4.5836 -0.2173,-1.6526 -0.2311,-1.6591 -1.7118,-0.8017 -4.2852,2.4811 -5.772,5.473 -4.7927,9.6444 0.5792,2.4672 0.7991,2.5793 3.7994,1.937 z m -128.9908,-9.2792 c 1.7378,-1.0501 4.4286,-3.0882 5.9324,-4.4934 0.9168,-0.8567 1.9991,-1.8227 2.4051,-2.1466 0.754,-0.6016 1.8682,-1.9306 3.0495,-3.6373 l 0.6621,-0.9567 -0.2468,-0.3017 c -0.1357,-0.166 -1.2663,-1.1947 -2.5126,-2.2859 l -2.2658,-1.9842 -0.7312,0.1248 c -0.4022,0.069 -0.9356,0.1382 -1.1854,0.1546 -0.2497,0.017 -0.4949,0.078 -0.5449,0.136 -0.05,0.058 -0.8138,0.248 -1.6974,0.4215 -1.5275,0.2998 -2.9967,0.6779 -6.4764,1.6666 -0.8492,0.2412 -2.3204,0.6476 -3.2695,0.903 -0.9491,0.2554 -2.8291,0.8197 -4.1777,1.254 -2.4915,0.8024 -10.3831,2.8839 -18.4287,4.861 -1.1378,0.2796 -1.0659,0.3001 6.2588,1.7783 1.948,0.3931 5.1358,1.1175 7.0839,1.6097 6.6728,1.686 13.4859,3.1507 15.2364,3.2755 0.138,0.01 0.5467,-0.1608 0.9082,-0.3792 z m 160.7757,-0.049 c 2.8436,-0.4765 7.0877,-1.4273 12.7123,-2.8476 1.9481,-0.492 5.1359,-1.2162 7.0839,-1.6093 7.3247,-1.4782 7.3966,-1.4987 6.2588,-1.7783 -8.0456,-1.9771 -15.9372,-4.0586 -18.4287,-4.861 -1.3486,-0.4343 -3.2286,-0.9986 -4.1777,-1.254 -0.9491,-0.2554 -2.4203,-0.6618 -3.2695,-0.903 -3.4797,-0.9887 -4.9489,-1.3668 -6.4764,-1.6666 -0.8836,-0.1735 -1.6475,-0.3631 -1.6974,-0.4215 -0.05,-0.058 -0.2952,-0.1195 -0.5449,-0.136 -0.2498,-0.016 -0.7832,-0.086 -1.1854,-0.1546 l -0.7312,-0.1248 -2.2658,1.9842 c -1.2463,1.0912 -2.3769,2.1199 -2.5126,2.2859 l -0.2468,0.3017 0.6621,0.9567 c 1.1847,1.7117 2.2964,3.0365 3.0523,3.6373 0.4075,0.3239 1.4433,1.2447 2.302,2.0462 1.9618,1.8315 6.2257,4.9983 6.7167,4.9887 0.062,0 1.2983,-0.201 2.7483,-0.444 z m -214.2198,-21.897 c 2.9049,-0.2216 4.7745,-0.5359 8.2839,-1.3925 l 2.6806,-0.6543 -0.2285,-0.277 c -0.1256,-0.1524 -1.5362,-1.2569 -3.1347,-2.4545 -3.5695,-2.6744 -3.0866,-1.9611 -3.8968,-5.7554 -1.2441,-5.8268 -2.087,-8.2543 -3.2802,-9.4475 -3.0743,-3.0743 -7.1672,-2.2283 -11.6179,2.4014 l -0.8222,0.8553 -1.544,-1.0223 c -2.2531,-1.492 -4.907,-3.1407 -5.0515,-3.1382 -0.8979,0.015 -2.759,6.6536 -2.759,9.841 v 1.4692 l 0.5694,0.9283 c 3.364,5.4841 7.8497,8.0908 14.87,8.6414 2.5918,0.2033 3.3244,0.2039 5.9309,0.01 z m 272.5238,-0.2817 c 5.5353,-0.8516 9.5447,-3.5328 12.5087,-8.3648 l 0.5694,-0.9283 v -1.4692 c 0,-3.1874 -1.8611,-9.8256 -2.759,-9.841 -0.1445,0 -2.7983,1.6462 -5.0515,3.1382 l -1.544,1.0223 -0.8222,-0.8553 c -4.4507,-4.6297 -8.5436,-5.4757 -11.6179,-2.4014 -1.1932,1.1932 -2.0361,3.6207 -3.2802,9.4475 -0.8102,3.7943 -0.3273,3.081 -3.8968,5.7554 -1.5985,1.1976 -3.0091,2.3021 -3.1347,2.4545 l -0.2285,0.277 2.6806,0.6548 c 6.328,1.5459 11.4958,1.892 16.5761,1.1103 z m -197.0518,-4.2584 c 0.8338,-1.2991 2.4459,-3.8125 3.5824,-5.5855 1.1365,-1.7729 2.665,-4.1226 3.3965,-5.2215 0.7315,-1.099 1.7576,-2.8155 2.2802,-3.8145 1.0782,-2.061 2.6412,-4.2685 3.0223,-4.2685 0.4476,0 2.6211,1.2913 4.3107,2.5611 3.4943,2.626 14.0951,8.3675 19.9804,10.8215 0.5995,0.25 2.1933,1.0086 3.542,1.6859 3.8299,1.9232 7.2573,3.3581 7.4827,3.1328 0.1261,-0.1261 0.1606,-1.1159 0.1007,-2.8847 -0.2111,-6.2267 -2.293,-10.3142 -10.854,-21.3108 -2.1469,-2.7576 -3.5856,-4.6596 -6.0145,-7.9514 -3.1322,-4.245 -7.4626,-6.7623 -11.6303,-6.7609 -3.4444,0 -5.4062,0.5419 -21.9517,6.0502 -5.8443,1.9457 -11.5251,3.7819 -12.624,4.0805 -3.8027,1.0332 -5.2899,1.4534 -10.3295,2.9188 -2.784,0.8094 -5.4597,1.6202 -5.946,1.8016 l -0.8841,0.3298 1.3142,1.2884 c 1.0959,1.0745 3.4491,3.0768 6.6446,5.6542 0.3343,0.2696 0.6778,0.6207 0.7635,0.7802 0.2095,0.3903 -1.2441,3.7678 -2.494,5.7949 -0.5235,0.8492 -1.4178,2.3205 -1.9872,3.2696 -0.5694,0.949 -1.1217,1.8372 -1.2275,1.9737 -0.1058,0.1365 -0.2874,0.5247 -0.4036,0.8628 l -0.2113,0.6146 h 0.3923 c 0.2157,0 0.5654,-0.1212 0.777,-0.2695 0.4779,-0.3347 5.6068,-2.368 6.4284,-2.5485 0.7834,-0.172 3.5938,-1.4867 4.9835,-2.3312 1.3946,-0.8475 1.3369,-0.8568 2.6487,0.4268 0.6127,0.5995 1.4526,1.3535 1.8664,1.6754 0.9798,0.7623 3.2183,2.7445 5.287,4.6818 0.9068,0.8492 2.3009,2.0333 3.0981,2.6315 0.7972,0.5981 1.7706,1.3542 2.1632,1.6802 0.9462,0.7855 0.7754,0.9067 2.4929,-1.7693 z m 115.7805,1.7693 c 0.3926,-0.326 1.366,-1.0821 2.1632,-1.6802 0.7972,-0.5982 2.1913,-1.7823 3.0981,-2.6315 2.0687,-1.9373 4.3072,-3.9195 5.287,-4.6818 0.4138,-0.3219 1.2537,-1.0759 1.8664,-1.6754 1.3118,-1.2836 1.2541,-1.2743 2.6487,-0.4268 1.3897,0.8445 4.2001,2.1592 4.9835,2.3312 0.8216,0.1805 5.9505,2.2138 6.4284,2.5485 0.2116,0.1483 0.5613,0.2695 0.777,0.2695 h 0.3923 l -0.2113,-0.6146 c -0.1162,-0.3381 -0.2978,-0.7263 -0.4036,-0.8628 -0.1058,-0.1365 -0.6581,-1.0247 -1.2275,-1.9737 -0.5694,-0.9491 -1.4637,-2.4204 -1.9872,-3.2696 -1.2499,-2.0271 -2.7035,-5.4046 -2.494,-5.7949 0.086,-0.1595 0.4292,-0.5106 0.7635,-0.7802 3.1955,-2.5774 5.5487,-4.5797 6.6446,-5.6542 l 1.3142,-1.2884 -0.8841,-0.3298 c -0.4863,-0.1814 -3.162,-0.9922 -5.946,-1.8016 -5.0396,-1.4654 -6.5268,-1.8856 -10.3295,-2.9188 -1.0989,-0.2986 -6.7797,-2.1348 -12.624,-4.0805 -16.5455,-5.5083 -18.5073,-6.049 -21.9517,-6.0502 -4.1677,0 -8.4981,2.5159 -11.6303,6.7609 -2.4289,3.2918 -3.8676,5.1938 -6.0145,7.9514 -8.561,10.9966 -10.6429,15.0841 -10.854,21.3108 -0.06,1.7688 -0.025,2.7586 0.1007,2.8847 0.2254,0.2253 3.6528,-1.2096 7.4827,-3.1328 1.3487,-0.6773 2.9425,-1.4359 3.542,-1.6859 5.8853,-2.454 16.4861,-8.1955 19.9804,-10.8215 1.6896,-1.2698 3.8631,-2.5611 4.3107,-2.5611 0.3811,0 1.9441,2.2075 3.0223,4.2685 0.5226,0.999 1.5487,2.7155 2.2802,3.8145 0.7315,1.0989 2.26,3.4486 3.3965,5.2215 1.1365,1.773 2.7486,4.2864 3.5824,5.5855 1.7175,2.676 1.5467,2.5548 2.4929,1.7693 z m -173.8763,-0.5427 c -0.063,-0.3246 -0.216,-0.7538 -0.3389,-0.9536 -1.4248,-2.316 -2.2828,-8.6995 -1.553,-11.5532 1.065,-4.1642 2.8248,-6.1261 8.6072,-9.5961 l 0.6876,-0.4126 -1.374,-1.4797 c -1.4507,-1.5624 -3.4174,-4.1267 -6.4983,-8.473 l -1.867,-2.6338 -2.4478,-0.1144 c -1.3462,-0.063 -3.2651,-0.2015 -4.2641,-0.3079 -0.999,-0.1065 -2.6747,-0.1468 -3.7236,-0.09 -2.0072,0.1095 -9.5084,-0.4491 -12.624,-0.94 -0.8992,-0.1417 -2.7791,-0.426 -4.1778,-0.6319 -6.5534,-0.9647 -12.3761,-2.2624 -15.0031,-3.3438 -4.2509,-1.7498 -5.3875,-2.3208 -6.8318,-3.4322 -3.99,-3.0702 -5.8524,-7.2716 -5.167,-11.6567 0.2372,-1.518 0.2991,-1.4387 -0.7999,-1.0232 -4.1506,1.5693 -10.3272,1.3952 -15.692,-0.4424 -1.3066,-0.4476 -2.4202,-0.8137 -2.4747,-0.8137 -0.055,0 0.335,0.6292 0.8654,1.3982 1.0257,1.4869 0.6575,1.1867 8.5335,6.957 3.2725,2.3975 6.1486,4.7854 9.4661,7.8593 3.671,3.4014 8.0231,7.2174 10.3771,9.0989 2.9612,2.3667 9.3662,8.0215 9.3728,8.275 0.01,0.3119 3.5918,3.2261 5.0355,4.0947 l 1.6779,1.0095 1.6824,-1.1602 c 7.9411,-5.4761 15.641,-2.6528 18.0171,6.6062 1.4791,5.7633 2.1404,7.9052 2.5235,8.1738 1.3936,0.9768 3.7468,2.8313 5.3,4.1769 2.5176,2.1809 2.8789,2.37 2.6909,1.4085 z m 229.9569,0.3798 c 0.2183,-0.1158 1.2142,-0.9196 2.2132,-1.7862 1.5524,-1.3467 3.8999,-3.1976 5.3,-4.179 0.3831,-0.2686 1.0444,-2.4105 2.5235,-8.1738 2.3761,-9.259 10.076,-12.0823 18.0171,-6.6062 l 1.6824,1.1602 1.6779,-1.0095 c 1.4437,-0.8686 5.0274,-3.7828 5.0355,-4.0947 0.01,-0.2535 6.4116,-5.9083 9.3728,-8.275 2.354,-1.8815 6.7061,-5.6975 10.3771,-9.0989 3.3175,-3.0739 6.1936,-5.4618 9.4661,-7.8593 7.876,-5.7703 7.5078,-5.4701 8.5335,-6.957 0.5304,-0.769 0.9199,-1.3982 0.8654,-1.3982 -0.055,0 -1.1681,0.3661 -2.4747,0.8137 -5.3648,1.8376 -11.5414,2.0117 -15.692,0.4424 -1.099,-0.4155 -1.0371,-0.4948 -0.7999,1.0232 0.6854,4.3851 -1.177,8.5865 -5.167,11.6567 -1.4442,1.1114 -2.5809,1.6824 -6.8318,3.4322 -2.627,1.0814 -8.4497,2.3791 -15.0031,3.3438 -1.3987,0.2059 -3.2786,0.4902 -4.1778,0.6319 -3.1156,0.4909 -10.6168,1.0495 -12.624,0.94 -1.0489,-0.057 -2.7246,-0.017 -3.7236,0.09 -0.999,0.1064 -2.9179,0.245 -4.2641,0.3079 l -2.4478,0.1144 -1.867,2.6338 c -3.0809,4.3463 -5.0476,6.9106 -6.4983,8.473 l -1.374,1.4797 0.6876,0.4126 c 5.7824,3.47 7.5422,5.4319 8.6072,9.5961 0.7298,2.8537 -0.1282,9.2372 -1.553,11.5532 -0.2474,0.4023 -0.5108,1.544 -0.3561,1.544 0.054,0 0.2767,-0.095 0.4949,-0.2106 z m -225.2643,-1.9836 c 1.8585,-0.9946 8.5494,-8.4233 9.7586,-10.8345 0.9733,-1.9409 1.0911,-1.621 -1.5776,-4.2838 l -2.3271,-2.3219 -0.9513,0.5989 c -4.8472,3.0517 -5.9619,3.9962 -6.8005,5.7618 -1.1129,2.343 -0.7127,6.3848 1.0496,10.6027 0.3117,0.746 0.3281,0.7552 0.8483,0.4768 z m 221.5157,-2.1775 c 2.536,-7.5461 1.6245,-9.6594 -6.3243,-14.6638 l -0.9513,-0.5989 -2.3271,2.3219 c -2.6687,2.6628 -2.5509,2.3429 -1.5776,4.2838 1.4552,2.9019 9.2496,11.2499 10.2398,10.967 0.1,-0.028 0.5231,-1.068 0.9405,-2.31 z m -232.4639,-36.6109 c 0.7095,-0.1419 0.707,-0.2063 -0.039,-0.9817 -1.2152,-1.2638 -3.1095,-4.7918 -4.4995,-8.38 -0.516,-1.3322 -0.9625,-2.4509 -0.9922,-2.4859 -0.094,-0.1109 -3.2108,2.0944 -4.3769,3.0968 -1.7662,1.5183 -7.1573,7.8221 -6.9052,8.0742 0.053,0.053 1.5123,0.1773 3.2433,0.2767 1.7311,0.1 4.1691,0.2425 5.4179,0.3179 2.9843,0.1802 7.4362,0.2249 8.1511,0.082 z m 249.869,-0.075 c 1.5985,-0.096 4.2407,-0.2491 5.8716,-0.3398 1.631,-0.091 3.0087,-0.2081 3.0617,-0.2611 0.2524,-0.2525 -5.1369,-6.5549 -6.9048,-8.0746 -1.1661,-1.0024 -4.283,-3.2077 -4.3769,-3.0968 -0.03,0.035 -0.4762,1.1537 -0.9922,2.4859 -1.39,3.5882 -3.2843,7.1162 -4.4995,8.38 -0.7159,0.7447 -0.74,0.8625 -0.1974,0.967 0.7663,0.1476 5.1249,0.1147 8.0375,-0.061 z m -373.8158,51.4715 c -0.9991,-0.3577 -3.4103,-1.1651 -5.3584,-1.7942 -1.9481,-0.6291 -5.5855,-1.8389 -8.083,-2.6885 -6.1404,-2.0888 -20.1543,-6.0912 -25.5856,-7.3073 -1.5127,-0.3387 -3.5268,-0.8986 -4.4759,-1.2442 -0.9491,-0.3456 -1.9708,-0.6852 -2.2705,-0.7547 -0.2997,-0.069 -1.978,-0.6819 -3.7296,-1.3611 -1.7516,-0.6791 -4.4898,-1.6008 -6.085,-2.048 -3.33,-0.9338 -7.1765,-2.0706 -9.8026,-2.8972 l -1.8164,-0.5718 1.4531,-0.1258 c 0.7993,-0.069 5.5809,-0.1738 10.626,-0.2325 15.1563,-0.1762 14.8907,-0.152 20.2778,-1.8477 5.1868,-1.6327 8.4214,-3.349 8.4214,-4.4684 0,-1.0249 -2.6988,-4.6106 -4.5833,-6.0894 -4.2735,-3.3535 -12.1132,-7.6835 -17.0319,-9.4071 -2.6906,-0.9428 -11.8044,-5.4063 -11.4659,-5.6154 0.1146,-0.071 1.1679,-0.078 2.3406,-0.017 6.0559,0.319 19.5941,0.4192 21.8401,0.1615 9.7349,-1.1166 13.5003,-2.8983 20.9645,-9.9198 7.0041,-6.5888 8.2449,-8.9637 11.466,-21.9463 0.8077,-3.2557 1.5823,-5.4035 3.6315,-10.0701 5.0653,-11.5347 0.5348,-21.7134 -13.5386,-30.4175 -1.3487,-0.8341 -3.3089,-2.136 -4.356,-2.8931 -1.8065,-1.3061 -6.6153,-4.1981 -6.9807,-4.1981 -0.094,0 -0.8308,-0.3175 -1.6373,-0.7055 -1.8961,-0.9123 -2.9203,-1.3724 -4.024,-1.8077 -0.4914,-0.1938 -1.7927,-0.7793 -2.8916,-1.3011 -1.0989,-0.5218 -2.2841,-1.0739 -2.6338,-1.2269 -1.041,-0.4557 -0.3635,-0.4458 1.3734,0.02 5.0538,1.3555 6.6789,1.8267 9.1088,2.6414 1.4777,0.4954 3.0543,0.9969 3.5035,1.1144 0.4492,0.1175 2.6153,0.931 4.8135,1.8077 12.7511,5.0858 25.4806,9.473 30.2437,10.4235 6.5407,1.3052 14.0695,0.9402 16.2007,-0.7855 l 0.4042,-0.3273 -0.5178,-1.2863 c -0.6947,-1.7257 -2.916,-4.6622 -5.6347,-7.4487 -2.1913,-2.246 -2.6823,-2.6568 -6.0042,-5.0233 -0.9816,-0.6993 -2.2019,-1.642 -2.7116,-2.0949 -0.8371,-0.7436 -2.752,-1.9464 -6.6409,-4.1714 -0.7492,-0.4287 -1.8527,-1.1224 -2.4521,-1.5417 -0.5994,-0.4193 -2.0854,-1.3472 -3.3021,-2.0619 -1.2167,-0.7148 -2.9328,-1.8887 -3.8135,-2.6086 -0.8808,-0.7199 -2.0444,-1.6194 -2.586,-1.9987 -0.5415,-0.3794 -0.9139,-0.6898 -0.8276,-0.6898 0.8136,0 12.5965,3.6144 15.3426,4.7063 4.6311,1.8415 8.1231,2.7567 11.8067,3.0944 9.0353,0.8285 18.6185,0.032 28.145,-2.3384 1.154,-0.2872 2.7929,-0.6585 3.642,-0.8253 8.3801,-1.6452 15.1036,-4.5795 21.2751,-9.2848 1.2361,-0.9424 2.8789,-2.1826 3.6507,-2.756 6.283,-4.6674 7.6147,-5.7427 8.7914,-7.099 0.6868,-0.7915 1.5347,-1.6106 1.8843,-1.8203 0.3497,-0.2097 1.4123,-1.1267 2.3614,-2.0377 0.949,-0.9111 1.9359,-1.807 2.1931,-1.9909 l 0.4675,-0.3344 -0.5048,1.0599 c -0.958,2.0112 -4.1631,6.6179 -9.0582,13.019 -4.2145,5.5112 -7.4479,8.8958 -18.0402,18.8833 -3.8196,3.6016 -5.0492,5.1478 -10.7196,13.4801 -3.738,5.4926 -4.9705,11.3537 -3.661,17.41 2.3008,10.642 4.2078,14.7139 10.1195,21.6082 2.0397,2.3787 4.194,5.161 4.0825,5.2726 -0.1929,0.1929 -8.3342,-3.3033 -9.1032,-3.9093 -0.1081,-0.085 -0.5234,-0.2596 -0.923,-0.3877 -0.3997,-0.1281 -1.1762,-0.4602 -1.7256,-0.7379 -0.5495,-0.2778 -1.6174,-0.6705 -2.3731,-0.8726 -1.45,-0.3877 -2.6646,-0.8844 -6.7998,-2.7803 -1.3986,-0.6413 -3.0334,-1.358 -3.6328,-1.5926 -0.5994,-0.2347 -3.1919,-1.313 -5.7611,-2.3963 -8.2145,-3.4638 -9.4311,-3.6187 -13.8774,-1.7677 -5.3161,2.2131 -10.5239,9.363 -13.1491,18.0526 -1.9356,6.4071 -3.3516,11.9137 -3.5777,13.9126 l -0.094,0.8344 1.1329,1.3452 c 1.1825,1.4041 1.2419,1.463 3.4474,3.4121 0.7485,0.6615 1.9337,1.7371 2.6338,2.3903 0.7001,0.6531 2.2538,1.9954 3.4526,2.9829 1.1988,0.9875 2.7124,2.2922 3.3636,2.8994 2.3333,2.1758 5.5112,4.6661 5.6444,4.4231 0.07,-0.1272 0.5014,-1.866 0.9591,-3.8641 0.4577,-1.998 1.0271,-4.2867 1.2654,-5.0859 0.2382,-0.7992 0.6133,-2.3114 0.8336,-3.3604 0.2202,-1.0489 0.5554,-2.4385 0.7447,-3.0878 0.86,-2.9499 2.3964,-11.3159 2.6353,-14.3496 0.067,-0.8492 0.1606,-1.7892 0.2085,-2.0889 0.048,-0.2997 0.1334,-3.2014 0.1901,-6.4482 l 0.1031,-5.9033 0.2203,0.999 c 0.1211,0.5494 0.3581,1.7346 0.5266,2.6338 0.6139,3.276 3.7336,12.8263 5.025,15.3831 1.7125,3.3904 4.9636,8.4788 6.8978,10.7959 3.272,3.9198 9.877,9.9714 13.6139,12.4735 0.7492,0.5016 1.6484,1.1647 1.998,1.4735 0.3497,0.3088 1.6805,1.2877 2.9574,2.1753 2.7051,1.8805 2.747,1.9712 0.5122,1.1081 -2.434,-0.94 -5.7695,-1.8517 -7.9832,-2.182 -1.0641,-0.1588 -2.5885,-0.422 -3.3877,-0.585 -1.0285,-0.2097 -2.4163,-0.2962 -4.7492,-0.2961 l -3.2961,10e-5 -0.8816,0.4537 c -0.485,0.2496 -1.0639,0.7242 -1.2867,1.0547 -1.1727,1.74 -5.2616,16.9748 -5.0834,18.9401 0.389,4.2902 4.6077,4.9179 12.5724,1.8707 1.3986,-0.5351 3.0742,-1.1497 3.7236,-1.3659 0.6494,-0.2161 2.1615,-0.8644 3.3603,-1.4406 1.1989,-0.5762 2.4658,-1.1537 2.8155,-1.2834 0.7541,-0.2796 1.6346,-0.6588 3.3603,-1.4472 1.5662,-0.7155 5.2255,-2.1962 5.2782,-2.1358 0.021,0.024 -0.6154,1.0252 -1.4147,2.224 -1.6163,2.424 -2.297,3.5485 -3.6838,6.0849 -6.2289,11.393 -16.0906,16.2635 -29.9947,14.8137 -2.9946,-0.3122 -8.2585,-0.6089 -13.1317,-0.7401 -1.9419,-0.052 -3.5613,-0.1256 -3.5987,-0.163 -0.072,-0.072 1.4955,-5.2563 2.6953,-8.9155 1.4781,-4.5076 2.7859,-9.1172 2.974,-10.4821 l 0.1178,-0.8552 -1.1369,-0.8704 c -0.6253,-0.4787 -2.285,-1.854 -3.6882,-3.0561 -1.4032,-1.2022 -3.2869,-2.796 -4.1861,-3.5417 -2.1655,-1.7962 -7.5704,-6.4261 -9.6663,-8.2803 -0.9208,-0.8145 -2.37,-1.944 -3.2204,-2.5099 l -1.5462,-1.0288 -0.6434,0.4372 c -0.3539,0.2404 -1.2652,1.1065 -2.0251,1.9245 -1.8615,2.0037 -5.034,4.7046 -7.193,6.1237 -0.974,0.6402 -1.7707,1.2244 -1.7704,1.2981 0,0.074 0.1592,1.0906 0.3533,2.2596 1.0787,6.5005 0.9094,10.7153 -0.6248,15.5515 -0.3995,1.2595 -0.4404,1.5619 -0.2456,1.8164 1.2301,1.6068 6.9711,7.4559 9.4818,9.6603 1.1437,1.0042 2.2122,2.0283 2.3744,2.2758 0.1621,0.2475 0.7831,1.0173 1.3799,1.7108 1.5026,1.7458 1.5482,1.7097 -1.0037,0.7957 z m 44.411,-7.9658 c 4.3198,-0.7535 7.273,-2.3165 11.321,-5.9916 2.2175,-2.0132 2.6151,-2.7532 1.0778,-2.0057 -13.1772,6.4075 -23.1156,4.1564 -23.1156,-5.2358 v -1.6373 l 1.3734,-5.5499 c 3.6819,-14.8793 5.1189,-17.0399 11.5685,-17.3945 1.074,-0.059 1.9527,-0.1505 1.9527,-0.2033 0,-0.053 -1.0854,-1.2053 -2.412,-2.5611 -3.3623,-3.4365 -4.8758,-5.3152 -7.7207,-9.5839 -1.9583,-2.9384 -2.503,-3.6423 -2.6354,-3.4057 -0.1646,0.294 -0.5401,1.8631 -1.1277,4.7119 -0.453,2.1958 -1.5223,6.5703 -1.9314,7.9013 -0.1996,0.6494 -0.643,2.4476 -0.9852,3.9961 -0.5384,2.4356 -2.6202,10.2465 -2.9597,11.1046 -0.095,0.2397 -0.521,-0.014 -2.2064,-1.3146 -1.1489,-0.8864 -2.2524,-1.687 -2.4522,-1.7792 -0.1998,-0.092 -1.3121,-0.9718 -2.4718,-1.9549 -3.0988,-2.6268 -4.6204,-3.8616 -6.2457,-5.0685 -0.7986,-0.593 -3.169,-2.7161 -5.2676,-4.718 -2.0986,-2.0019 -4.2652,-3.9901 -4.8146,-4.4184 -0.5495,-0.4282 -1.6767,-1.3989 -2.5048,-2.1571 l -1.5058,-1.3784 0.092,-1.378 c 0.1988,-2.9871 0.8531,-5.7871 2.4655,-10.5507 0.6932,-2.048 1.6375,-4.9498 2.0984,-6.4483 3.2304,-10.5024 9.707,-18.5886 16.8085,-20.9856 5.1588,-1.7413 7.4293,-1.4716 15.1791,1.803 2.5988,1.0981 5.5356,2.3204 6.5262,2.7162 0.9906,0.3959 2.8228,1.1848 4.0716,1.7532 4.0659,1.8505 5.4957,2.4665 5.5649,2.3973 0.037,-0.037 -0.3413,-0.8214 -0.8416,-1.7422 -1.3107,-2.4123 -3.021,-8.0112 -4.3465,-14.2292 -0.5311,-2.4915 -0.5303,-6.9545 0,-9.7117 0.996,-5.1618 1.9967,-7.1503 7.5226,-14.9492 0.8141,-1.1488 1.9645,-2.7735 2.5566,-3.6104 1.356,-1.9166 3.9887,-4.6895 7.5151,-7.915 1.5097,-1.3809 2.7162,-2.5394 2.6812,-2.5744 -0.035,-0.035 -0.8696,0.2654 -1.8545,0.6677 -2.0392,0.8329 -6.6729,2.2578 -9.6267,2.9604 -15.2348,3.6235 -23.3317,4.6001 -32.6657,3.9399 -3.8896,-0.2751 -3.7902,-0.3438 -1.7151,1.184 0.927,0.6826 2.5372,2.1037 3.5781,3.1582 11.9522,12.1076 9.8066,18.4352 -6.2519,18.4387 l -3.9961,9e-4 -3.1941,-0.6765 c -3.8417,-0.8138 -8.4664,-2.1492 -11.7594,-3.3956 -1.3312,-0.5039 -2.4696,-0.9161 -2.5297,-0.9161 -0.06,0 0.5479,0.6743 1.3514,1.4985 4.0586,4.163 6.6176,10.4171 6.6332,16.2114 0.011,3.9546 -0.3911,5.5538 -2.8535,11.3581 -1.8625,4.3904 -2.4486,6.0483 -3.0803,8.7131 -3.075,12.9727 -5.018,16.7019 -12.24,23.493 -8.7073,8.1878 -13.5488,10.4435 -24.7308,11.5224 l -3.3603,0.3242 1.5372,0.792 c 9.4758,4.8816 15.1412,10.5565 15.5516,15.5777 l 0.1162,1.4206 -0.6104,0.9027 c -2.0171,2.9834 -10.0482,6.5926 -16.988,7.6343 -0.9601,0.1441 -1.7798,0.2962 -1.8215,0.338 -0.042,0.042 0.889,0.2971 2.0685,0.5675 4.8623,1.1147 23.3163,6.2058 23.9412,6.605 0.1,0.064 0.5284,0.2059 0.9522,0.3159 l 0.7706,0.1998 -0.6038,-0.7436 c -0.3321,-0.4089 -1.0353,-1.2748 -1.5626,-1.9242 -0.5273,-0.6493 -1.1493,-1.5829 -1.3822,-2.0745 l -0.4235,-0.8939 0.284,-0.6501 c 0.5043,-1.1541 1.2906,-3.7006 1.5864,-5.1379 0.6004,-2.9172 0.1338,-10.0138 -0.8574,-13.0404 -0.1473,-0.4496 -0.3172,-1.0346 -0.3777,-1.3 -0.061,-0.2655 -0.1564,-0.6038 -0.2132,-0.7518 -0.072,-0.187 0.2464,-0.479 1.0436,-0.9576 3.3253,-1.9962 7.859,-5.7343 10.5299,-8.6819 1.7679,-1.951 4.802,-5.0196 4.9632,-5.0196 0.043,0 0.4294,0.3323 0.8583,0.7384 0.429,0.4061 1.7199,1.4437 2.8687,2.3056 1.1489,0.862 2.6611,2.0702 3.3604,2.685 0.6993,0.6147 2.2115,1.841 3.3603,2.7251 1.1489,0.8841 2.6611,2.1501 3.3604,2.8134 0.6993,0.6632 2.7428,2.4364 4.541,3.9403 1.7982,1.504 3.9751,3.3361 4.8374,4.0714 0.8624,0.7353 2.2392,1.8665 3.0596,2.5136 1.7053,1.3452 2.0617,1.7814 2.3598,2.8883 l 0.2133,0.7921 -0.7521,2.5666 c -0.4137,1.4116 -0.8735,2.9344 -1.0218,3.384 -0.2204,0.6679 -1.1279,3.7459 -2.8501,9.6666 -0.2581,0.8875 -0.5981,0.8016 4.1441,1.0474 2.2978,0.1191 5.2403,0.3271 6.5391,0.4622 2.9376,0.3057 7.7562,0.2142 10.081,-0.1913 z m 443.3842,8.5438 c 0,-0.062 0.4883,-0.6803 1.0851,-1.3737 0.5968,-0.6935 1.2178,-1.4633 1.3799,-1.7108 0.1622,-0.2475 1.2307,-1.2716 2.3744,-2.2758 2.5107,-2.2044 8.2517,-8.0535 9.4818,-9.6603 0.1948,-0.2545 0.1539,-0.5569 -0.2456,-1.8164 -1.5342,-4.8362 -1.7035,-9.051 -0.6247,-15.5515 0.194,-1.169 0.3529,-2.1859 0.3532,-2.2596 0,-0.074 -0.7964,-0.6579 -1.7704,-1.2981 -2.159,-1.4191 -5.3314,-4.12 -7.193,-6.1237 -0.7599,-0.818 -1.6712,-1.6841 -2.0251,-1.9245 l -0.6433,-0.4372 -1.5463,1.0288 c -0.8504,0.5659 -2.2996,1.6954 -3.2204,2.5099 -2.0958,1.8542 -7.5008,6.4841 -9.6663,8.2803 -0.8992,0.7457 -2.7829,2.3395 -4.1861,3.5417 -1.4032,1.2021 -3.0629,2.5774 -3.6882,3.0561 l -1.1369,0.8704 0.1178,0.8552 c 0.1881,1.3649 1.4959,5.9745 2.974,10.4821 1.1998,3.6592 2.7671,8.8437 2.6953,8.9155 -0.037,0.037 -1.6568,0.1107 -3.5987,0.163 -4.8732,0.1312 -10.137,0.4279 -13.1317,0.7401 -13.9041,1.4498 -23.7658,-3.4207 -29.9947,-14.8137 -1.3868,-2.5364 -2.0675,-3.6609 -3.6838,-6.0849 -0.7993,-1.1988 -1.4359,-2.1996 -1.4147,-2.224 0.053,-0.06 3.712,1.4203 5.2782,2.1358 1.7258,0.7884 2.6062,1.1676 3.3603,1.4472 0.3497,0.1297 1.6166,0.7072 2.8155,1.2834 1.1988,0.5762 2.7109,1.2245 3.3603,1.4406 0.6494,0.2162 2.325,0.8308 3.7236,1.3659 7.9647,3.0472 12.1834,2.4195 12.5724,-1.8707 0.1782,-1.9653 -3.9107,-17.2001 -5.0834,-18.9401 -0.2227,-0.3305 -0.8017,-0.8051 -1.2867,-1.0547 l -0.8816,-0.4537 -3.2961,-10e-5 c -2.3329,-10e-5 -3.7206,0.086 -4.7492,0.2961 -0.7992,0.163 -2.3236,0.4262 -3.3876,0.585 -2.2138,0.3303 -5.5493,1.242 -7.9833,2.182 -2.2348,0.8631 -2.1929,0.7724 0.5122,-1.1081 1.2769,-0.8876 2.6077,-1.8665 2.9574,-2.1753 0.3496,-0.3088 1.2488,-0.9719 1.998,-1.4735 3.6503,-2.444 10.1327,-8.3535 13.3083,-12.132 2.2445,-2.6707 5.3595,-7.4869 7.2034,-11.1374 1.2914,-2.5568 4.4111,-12.1071 5.025,-15.3831 0.1685,-0.8992 0.4055,-2.0844 0.5266,-2.6338 l 0.2203,-0.999 0.1031,5.9033 c 0.057,3.2468 0.1423,6.1485 0.1901,6.4482 0.048,0.2997 0.1417,1.2397 0.2086,2.0889 0.2388,3.0337 1.7752,11.3997 2.6352,14.3496 0.1893,0.6493 0.5245,2.0389 0.7447,3.0878 0.2203,1.049 0.5954,2.5612 0.8336,3.3604 0.2383,0.7992 0.8077,3.0879 1.2654,5.0859 0.4577,1.9981 0.8893,3.7369 0.9591,3.8641 0.1332,0.243 3.3111,-2.2473 5.6444,-4.4231 0.6512,-0.6072 2.1648,-1.9119 3.3636,-2.8994 1.1988,-0.9875 2.7525,-2.3298 3.4526,-2.9829 0.7001,-0.6532 1.8853,-1.7288 2.6338,-2.3903 2.2055,-1.9491 2.2649,-2.008 3.4474,-3.4121 l 1.1329,-1.3452 -0.094,-0.8344 c -0.3325,-2.9398 -3.5219,-14.4137 -5.0791,-18.2719 -1.0768,-2.6681 -5.3849,-9.1954 -7.1525,-10.8369 -1.9482,-1.8092 -4.739,-3.1827 -7.688,-3.7837 -2.7515,-0.5607 -3.2789,-0.4277 -10.6846,2.695 -2.5692,1.0833 -5.1617,2.1616 -5.7611,2.3963 -0.5994,0.2346 -2.2342,0.9513 -3.6328,1.5926 -4.1352,1.8959 -5.3498,2.3926 -6.7998,2.7803 -0.7557,0.2021 -1.8236,0.5948 -2.3731,0.8726 -0.5494,0.2777 -1.3259,0.6098 -1.7256,0.7379 -0.3996,0.1281 -0.8149,0.3025 -0.923,0.3877 -0.769,0.606 -8.9102,4.1022 -9.1032,3.9093 -0.1115,-0.1116 2.0428,-2.8939 4.0825,-5.2726 5.9117,-6.8943 7.8187,-10.9662 10.1195,-21.6082 1.3095,-6.0563 0.077,-11.9174 -3.6609,-17.41 -5.6621,-8.32 -6.8881,-9.8612 -10.7224,-13.48 -10.6591,-10.0601 -13.8234,-13.3727 -18.0375,-18.8834 -4.895,-6.4011 -8.1002,-11.0078 -9.0582,-13.019 l -0.5048,-1.0599 0.4675,0.3344 c 0.2572,0.1839 1.2441,1.0798 2.1931,1.9909 0.9491,0.911 2.0117,1.828 2.3614,2.0377 0.3496,0.2097 1.1975,1.0288 1.8843,1.8203 1.1767,1.3563 2.5084,2.4316 8.7914,7.099 0.7718,0.5734 2.4147,1.8136 3.6507,2.756 6.1715,4.7053 12.895,7.6396 21.2751,9.2848 0.8491,0.1668 2.488,0.5381 3.642,0.8253 13.222,3.2903 27.2387,3.5696 35.9315,0.7159 1.428,-0.4688 2.1054,-0.7176 4.2926,-1.5769 2.6611,-1.0453 14.3075,-4.6013 15.0702,-4.6013 0.086,0 -0.2861,0.3104 -0.8276,0.6898 -0.5416,0.3793 -1.7052,1.2788 -2.586,1.9987 -0.8807,0.7199 -2.5968,1.8938 -3.8135,2.6086 -1.2167,0.7147 -2.7027,1.6426 -3.3021,2.0619 -0.5994,0.4193 -1.7029,1.113 -2.4521,1.5417 -3.8889,2.225 -5.8038,3.4278 -6.6409,4.1714 -0.5097,0.4529 -1.73,1.3956 -2.7116,2.0949 -3.3218,2.3665 -3.8129,2.7773 -6.0042,5.0233 -2.7186,2.7865 -4.94,5.723 -5.6347,7.4487 l -0.5178,1.2863 0.4042,0.3273 c 1.0571,0.8559 3.6778,1.3699 7.9361,1.5564 5.2789,0.2311 9.8866,-0.7428 19.3447,-4.089 9.9254,-3.5115 13.1584,-4.7102 19.1636,-7.1054 2.1982,-0.8767 4.3643,-1.6902 4.8135,-1.8077 0.4492,-0.1175 2.0258,-0.619 3.5036,-1.1144 2.4298,-0.8147 4.0549,-1.2859 9.1087,-2.6414 1.7369,-0.4658 2.4144,-0.4757 1.3734,-0.02 -0.3497,0.153 -1.5349,0.7051 -2.6338,1.2269 -1.0989,0.5218 -2.4001,1.1073 -2.8916,1.3011 -1.1037,0.4353 -2.1279,0.8954 -4.024,1.8077 -0.8065,0.388 -1.5433,0.7055 -1.6373,0.7055 -0.3654,0 -5.1742,2.892 -6.9807,4.1981 -1.0471,0.7571 -3.0073,2.059 -4.356,2.8931 -12.8133,7.9247 -17.9825,17.6997 -14.6343,27.6736 0.242,0.7211 0.9457,2.4509 1.5636,3.8439 1.7483,3.9416 2.3152,5.5523 3.1795,9.0348 3.2045,12.9119 4.4546,15.3009 11.4501,21.8816 7.4642,7.0215 11.2297,8.8033 20.9645,9.9199 2.246,0.2576 15.7842,0.1575 21.8401,-0.1615 1.1727,-0.062 2.226,-0.054 2.3406,0.017 0.3385,0.2092 -8.7753,4.6726 -11.4659,5.6154 -9.8829,3.4631 -21.6152,11.8743 -21.6152,15.4965 0,1.1195 3.2346,2.8358 8.4214,4.4685 5.3871,1.6957 5.1215,1.6715 20.2778,1.8477 5.0451,0.059 9.8267,0.1632 10.626,0.2324 l 1.4531,0.1259 -1.8164,0.5717 c -2.6261,0.8266 -6.4726,1.9635 -9.8026,2.8972 -1.5952,0.4473 -4.3334,1.3689 -6.085,2.0481 -1.7516,0.6791 -3.4299,1.2916 -3.7296,1.3611 -0.2997,0.069 -1.3214,0.409 -2.2705,0.7546 -0.9491,0.3456 -2.9632,0.9056 -4.4759,1.2442 -5.4417,1.2185 -19.4549,5.2214 -25.5856,7.3087 -2.4975,0.8503 -5.898,1.9767 -7.5566,2.503 -1.6586,0.5263 -3.9473,1.2881 -5.0859,1.693 -2.538,0.9023 -2.8877,1.0068 -2.8877,0.8633 z m -32.5136,-8.3507 c 1.5484,-0.1453 4.6545,-0.3583 6.9023,-0.4733 4.6447,-0.2378 4.3109,-0.1523 4.0533,-1.0381 -1.7222,-5.9207 -2.6297,-8.9987 -2.8501,-9.6666 -0.1483,-0.4496 -0.6082,-1.9724 -1.0218,-3.384 l -0.7521,-2.5666 0.2133,-0.7921 c 0.2981,-1.1069 0.6545,-1.5431 2.3597,-2.8883 0.8205,-0.6471 2.1973,-1.7783 3.0596,-2.5136 0.8624,-0.7353 3.0392,-2.5674 4.8375,-4.0714 1.7982,-1.5039 3.8417,-3.2771 4.541,-3.9403 0.6993,-0.6633 2.2115,-1.9293 3.3603,-2.8134 1.1489,-0.8841 2.6611,-2.1104 3.3604,-2.7251 0.6993,-0.6148 2.2115,-1.823 3.3603,-2.685 1.1489,-0.8619 2.4398,-1.8995 2.8688,-2.3056 0.4289,-0.4061 0.8151,-0.7384 0.8582,-0.7384 0.1613,0 3.1954,3.0686 4.9633,5.0196 2.6708,2.9476 7.2046,6.6857 10.5299,8.6819 0.7972,0.4786 1.1154,0.7706 1.0436,0.9576 -0.057,0.148 -0.1527,0.4863 -0.2132,0.7518 -0.061,0.2654 -0.2304,0.8504 -0.3777,1.3 -0.9912,3.0266 -1.4578,10.1232 -0.8574,13.0404 0.2958,1.4373 1.0821,3.9838 1.5864,5.1379 l 0.284,0.6501 -0.4235,0.8939 c -0.2329,0.4916 -0.8549,1.4252 -1.3822,2.0745 -0.5273,0.6494 -1.2305,1.5153 -1.5626,1.9242 l -0.6038,0.7436 0.7705,-0.1998 c 0.4238,-0.11 0.8523,-0.2521 0.9522,-0.3159 0.625,-0.3992 19.079,-5.4903 23.9413,-6.605 1.1794,-0.2704 2.1103,-0.5257 2.0685,-0.5675 -0.042,-0.042 -0.8614,-0.1939 -1.8215,-0.338 -6.9398,-1.0417 -14.9709,-4.6509 -16.988,-7.6343 l -0.6104,-0.9027 0.1162,-1.4206 c 0.4104,-5.0212 6.0758,-10.6961 15.5516,-15.5777 l 1.5372,-0.792 -3.3603,-0.3242 c -11.1821,-1.0789 -16.0236,-3.3346 -24.7308,-11.5224 -7.222,-6.7911 -9.165,-10.5203 -12.24,-23.493 -0.6317,-2.6648 -1.2178,-4.3227 -3.0804,-8.7131 -2.4623,-5.8043 -2.8641,-7.4035 -2.8534,-11.3581 0.016,-5.7943 2.5746,-12.0484 6.6332,-16.2114 0.8035,-0.8242 1.4116,-1.4985 1.3514,-1.4985 -0.06,0 -1.1985,0.4122 -2.5297,0.9161 -3.2931,1.2464 -7.9177,2.5818 -11.7595,3.3955 l -3.1941,0.6765 -3.9961,-9e-4 c -16.0585,0 -18.2041,-6.3311 -6.2519,-18.4387 1.0409,-1.0544 2.6511,-2.4756 3.5781,-3.1581 2.0751,-1.5278 2.1745,-1.4592 -1.7151,-1.184 -9.334,0.6601 -17.4309,-0.3165 -32.6657,-3.94 -2.9538,-0.7025 -7.5875,-2.1275 -9.6267,-2.9603 -0.9849,-0.4023 -1.8194,-0.7028 -1.8545,-0.6678 -0.035,0.035 1.1715,1.1936 2.6812,2.5745 3.5264,3.2255 6.1591,5.9983 7.5151,7.915 0.5921,0.8368 1.7425,2.4615 2.5566,3.6104 6.6039,9.3203 7.6622,11.9164 7.8487,19.2539 l 0.09,3.542 -0.6466,2.8154 c -1.691,7.3633 -2.7459,10.7361 -4.2035,13.4396 -0.4496,0.834 -0.7875,1.5462 -0.7509,1.5828 0.068,0.068 1.515,-0.5561 5.5634,-2.3988 1.2488,-0.5684 3.081,-1.3573 4.0716,-1.7531 0.9906,-0.3959 3.9274,-1.6182 6.5262,-2.7163 7.7498,-3.2746 10.0203,-3.5443 15.1791,-1.803 7.1015,2.397 13.5781,10.4833 16.8085,20.9857 0.4609,1.4985 1.4052,4.4002 2.0984,6.4482 1.6124,4.7636 2.2667,7.5636 2.4655,10.5508 l 0.092,1.3779 -1.5058,1.3785 c -0.8281,0.7581 -1.9553,1.7288 -2.5048,2.1571 -0.5494,0.4282 -2.716,2.4165 -4.8146,4.4184 -2.0986,2.0018 -4.469,4.1249 -5.2676,4.7179 -1.6253,1.2069 -3.1469,2.4417 -6.2457,5.0686 -1.1597,0.983 -2.272,1.8627 -2.4718,1.9549 -0.1998,0.092 -1.3033,0.8927 -2.4522,1.7791 -1.6853,1.3004 -2.1115,1.5543 -2.2064,1.3147 -0.3395,-0.8582 -2.4213,-8.6691 -2.9597,-11.1047 -0.3422,-1.5484 -0.7856,-3.3467 -0.9852,-3.996 -0.4091,-1.331 -1.4784,-5.7056 -1.9314,-7.9014 -0.5876,-2.8488 -0.9631,-4.4179 -1.1277,-4.7118 -0.1324,-0.2366 -0.6771,0.4672 -2.6354,3.4056 -2.8449,4.2687 -4.3584,6.1475 -7.7206,9.5839 -1.3266,1.3559 -2.4121,2.5084 -2.4121,2.5612 0,0.053 0.8787,0.1442 1.9527,0.2033 6.4497,0.3546 7.8866,2.5152 11.5685,17.3944 l 1.3734,5.5499 v 1.6373 c 0,9.3923 -9.9384,11.6434 -23.1156,5.2359 -3.2201,-1.5658 2.655,3.882 6.4459,5.9771 3.9035,2.1573 8.8912,2.8576 15.7615,2.2132 z"
       id="path1"
       inkscape:export-filename="path1.svg"
       inkscape:export-xdpi="96"
       inkscape:export-ydpi="96" />
  </g>
</svg>
