<?xml version="1.0" encoding="UTF-8" standalone="no"?>
<!-- Created with Inkscape (http://www.inkscape.org/) -->

<svg
   version="1.1"
   id="svg1"
   width="500.00024"
   height="257.85864"
   viewBox="0 0 500.00024 257.85864"
   sodipodi:docname="logo450-232for footprint.svg"
   inkscape:version="1.3.2 (091e20e, 2023-11-25, custom)"
   xmlns:inkscape="http://www.inkscape.org/namespaces/inkscape"
   xmlns:sodipodi="http://sodipodi.sourceforge.net/DTD/sodipodi-0.dtd"
   xmlns="http://www.w3.org/2000/svg"
   xmlns:svg="http://www.w3.org/2000/svg">
  <sodipodi:namedview
     id="namedview1"
     pagecolor="#505050"
     bordercolor="#eeeeee"
     borderopacity="1"
     inkscape:showpageshadow="0"
     inkscape:pageopacity="0"
     inkscape:pagecheckerboard="0"
     inkscape:deskcolor="#505050"
     inkscape:zoom="1.0499995"
     inkscape:cx="210.47629"
     inkscape:cy="218.57154"
     inkscape:window-width="1920"
     inkscape:window-height="1009"
     inkscape:window-x="1912"
     inkscape:window-y="660"
     inkscape:window-maximized="1"
     inkscape:current-layer="svg1" />
  <defs
     id="defs1" />
  <path
     style="fill:none;stroke:#000000;stroke-width:0.130911;stroke-opacity:1"
     d="m 218.69821,230.89805 c -3.60566,-4.09167 -4.7825,-5.37021 -5.68763,-6.1803 -0.55647,-0.49752 -1.16379,-1.11177 -1.35144,-1.36386 -0.64107,-0.86652 -7.9308,-7.8074 -8.91396,-8.49014 -0.54054,-0.37314 -1.45332,-1.06227 -2.03013,-1.52973 -0.57492,-0.46647 -1.31202,-1.00494 -1.63602,-1.1979 -0.32391,-0.19197 -1.29519,-0.86301 -2.15973,-1.48878 -0.86436,-0.62595 -2.77893,-1.89936 -4.25493,-2.82969 -3.94811,-2.48787 -8.61641,-5.68782 -12.81644,-8.78562 -0.46044,-0.33912 -1.26072,-0.88263 -1.7775,-1.20663 -0.51696,-0.324 -1.58364,-1.00602 -2.37033,-1.51524 -0.78651,-0.50868 -1.77651,-1.12743 -2.19789,-1.37412 -0.42273,-0.24678 -1.24974,-0.89117 -1.83915,-1.43117 -1.12878,-1.03671 -3.88404,-3.19932 -4.50936,-3.53952 -0.20313,-0.11106 -0.92403,-0.64323 -1.60128,-1.18215 -2.35908,-1.88091 -2.9492,-2.31453 -5.42087,-3.98547 -3.3363,-2.25576 -5.00319,-3.50487 -7.26579,-5.4432 -3.08088,-2.63907 -4.51926,-3.64302 -8.05158,-5.61735 -1.61982,-0.90522 -6.47406,-3.81015 -10.26458,-6.14321 -2.27862,-1.40283 -4.73202,-3.00681 -7.01865,-4.59027 -1.00917,-0.69858 -2.62881,-1.72584 -3.60018,-2.28267 -0.97128,-0.55575 -1.9125,-1.14309 -2.09196,-1.30257 -0.40923,-0.36414 -1.68921,-1.22472 -2.55402,-1.71855 -1.00359,-0.5733 -2.83203,-1.79379 -2.77344,-1.85157 0.027,-0.0279 0.39897,0.0351 0.82305,0.14436 1.35144,0.34218 2.06622,0.2988 5.15826,-0.31599 1.60767,-0.32103 2.12211,-0.47736 4.32054,-1.32192 2.49066,-0.9558 3.15774,-1.28403 5.53779,-2.72277 1.2087,-0.73152 2.24559,-1.3293 2.30391,-1.3293 0.0567,0 0.36549,-0.22437 0.68157,-0.49725 0.7875,-0.68139 2.37086,-1.73592 3.53492,-2.35404 1.69443,-0.9009 1.88163,-0.99639 2.01465,-1.02447 0.0693,-0.0144 0.35235,-0.12249 0.62208,-0.23805 0.43605,-0.18675 0.70578,-0.09 0.35649,0.12366 -0.072,0.0441 -0.57393,0.94716 -1.11024,2.00439 -1.18557,2.33532 -1.89333,3.47922 -3.30444,5.33934 -0.59382,0.78363 -1.17513,1.62396 -1.29131,1.8693 l -0.21159,0.44478 0.20781,0.43542 c 0.25406,0.53172 0.60227,0.63639 1.76588,0.52713 5.35779,-0.49905 9.6138,-2.44107 16.77789,-7.65639 1.7766,-1.29339 1.5183,-1.03527 1.62387,-1.62 l 0.0855,-0.48609 -0.69273,-0.19728 c -1.28727,-0.36792 -3.91464,-0.77391 -9.39789,-1.45296 -10.40138,-1.28565 -16.95878,-1.07757 -24.6842,0.78426 -2.76804,0.66771 -4.02399,1.18692 -8.35326,3.45717 -1.98945,1.04328 -2.15046,1.06902 -1.56465,0.24588 0.61308,-0.86085 1.58094,-2.49795 2.01033,-3.40245 0.21393,-0.45027 0.5958,-1.17243 0.84933,-1.60479 2.29059,-3.90914 2.9421,-6.67988 2.04057,-8.67311 -0.94761,-2.09646 -7.34984,-4.10157 -12.55067,-3.93129 l -1.80045,0.0567 -1.09539,0.41058 c -1.521091,0.57087 -2.156941,0.97245 -3.226231,2.04417 -2.436929,2.43819 -2.160539,3.81753 1.69614,8.48735 0.639721,0.77328 1.213021,1.40715 1.275481,1.40715 0.0603,0 0.16569,0.13185 0.23184,0.2943 0.0639,0.16236 0.50904,0.79524 0.98505,1.4076 0.4752,0.61281 1.02222,1.34847 1.21572,1.6362 0.19242,0.28827 0.69111,0.97731 1.10754,1.53243 l 0.75753,1.00836 -0.4923,-0.20574 c -1.48329,-0.61938 -5.229181,-2.65932 -5.998501,-3.26484 -1.891169,-1.49076 -5.332948,-3.17169 -12.102835,-5.9093 -1.69128,-0.68562 -4.224869,-1.71342 -5.628058,-2.28519 -1.40427,-0.57312 -3.189509,-1.27368 -3.967829,-1.55646 -0.777689,-0.2817 -2.367449,-0.90414 -3.534298,-1.38123 -1.1664,-0.47745 -3.504329,-1.32615 -5.196418,-1.88595 -4.992568,-1.6506 -10.814486,-3.75633 -10.701266,-3.86892 0.0162,-0.0162 1.356659,-0.0648 2.976749,-0.11079 3.629878,-0.0939 5.132608,-0.18531 5.873307,-0.34812 0.31338,-0.0657 1.72674,-0.21186 3.141989,-0.31689 1.41417,-0.10539 2.806199,-0.22203 3.095009,-0.25839 0.28701,-0.036 2.261339,-0.27342 4.385338,-0.52542 14.988235,-1.77966 17.000724,-2.53962 21.736252,-8.1918 0.63864,-0.76392 1.416421,-1.59705 1.728811,-1.85319 0.31266,-0.25686 0.71865,-0.69273 0.90117,-0.9702 1.20141,-1.82349 2.47149,-4.2299 2.47149,-4.68701 0,-0.10656 0.23841,-0.8883 0.52902,-1.73709 0.54441,-1.5813 0.82818,-2.72898 1.04382,-4.22631 0.0657,-0.46746 0.35982,-1.58013 0.64926,-2.46834 0.30744,-0.94392 0.55377,-1.99314 0.59382,-2.51208 0.0603,-0.81828 0.1413,-1.30275 0.46431,-2.809439 0.20034,-0.93483 0.18936,-0.94986 -1.62135,-2.265209 -0.60561,-0.44028 -3.86802,-3.326309 -6.296491,-5.570098 -2.339819,-2.162249 -5.101018,-4.422598 -7.459287,-6.107218 -4.505849,-3.218939 -4.737238,-3.408118 -5.839468,-4.776658 -0.39555,-0.49104 -1.05075,-1.282409 -1.454039,-1.756619 -0.40401,-0.47529 -1.72044,-2.214539 -2.924729,-3.866399 -2.28015,-3.126239 -2.701169,-3.677398 -3.812939,-4.982218 -0.67581,-0.79317 -1.364219,-1.758869 -1.364219,-1.911779 0,-0.19467 3.438628,1.722869 5.629137,3.139469 1.26702,0.819629 2.710889,1.547819 4.013909,2.023109 0.49248,0.17973 1.454399,0.59067 2.139299,0.915749 5.778898,2.735099 11.991687,2.45664 14.595207,-0.653039 0.35262,-0.42102 0.97749,-1.12176 1.38717,-1.55763 0.41085,-0.43578 0.98883,-1.166939 1.28457,-1.624139 l 0.53856,-0.83277 -0.0738,0.64305 c -0.25569,2.175569 -0.4914,3.821039 -0.71568,5.003278 -0.14211,0.74097 -0.25695,1.669409 -0.25695,2.062889 0,0.39222 -0.0882,1.27638 -0.20061,1.9647 -0.45072,2.799899 0.23103,4.316668 2.59821,5.779347 2.06235,1.27431 2.70827,1.41354 2.78333,0.59805 0.31869,-3.434669 0.49221,-4.997878 0.65025,-5.863768 0.10476,-0.574829 0.30951,-2.136779 0.45405,-3.468958 0.14535,-1.33227 0.31986,-2.746169 0.38871,-3.142259 0.0675,-0.39627 0.30906,-2.133089 0.53199,-3.860009 0.66339,-5.139988 1.84356,-10.158656 3.77433,-16.049874 0.64638,-1.973789 1.32795,-4.187968 1.51326,-4.921018 0.45081,-1.785329 3.1149,-9.726656 3.81186,-11.366545 0.30699,-0.72054 0.94626,-2.16414 1.42083,-3.207239 0.47475,-1.04544 0.864,-1.997279 0.86427,-2.117069 0,-0.11844 0.50841,-1.4733 1.12923,-3.010499 1.29195,-3.192569 2.3553,-5.869438 4.16043,-10.468706 1.83177,-4.665869 4.21533,-9.3660268 6.28542,-12.3922756 0.65385,-0.9583197 1.43351,-2.1242692 1.73267,-2.5931691 0.4581,-0.7193697 1.78479,-2.55203899 2.17278,-2.99951882 0.0603,-0.06929997 -0.12069,0.37043986 -0.40545,0.98180962 -0.69525,1.4956194 -1.36809,3.8740485 -1.7073,6.0227077 -0.15201,0.9722697 -0.54315,3.2982292 -0.86642,5.1707682 -1.6767,9.696596 -1.71018,11.869465 -0.39978,25.52993 1.58309,16.479084 2.27024,20.250983 5.44058,29.782879 2.59425,7.805697 9.49203,21.470572 10.83816,21.470572 0.44514,-9e-5 3.1068,-0.42633 5.26545,-0.84375 0.90009,-0.17415 1.98945,-0.35316 2.42145,-0.39798 0.43263,-0.0432 1.25622,-0.16371 1.83357,-0.2664 0.57519,-0.10053 1.60469,-0.250829 2.2868,-0.334709 0.68139,-0.0801 1.91898,-0.29367 2.74977,-0.46665 0.8298,-0.1737 2.33379,-0.43587 3.34116,-0.58176 1.00845,-0.14697 2.98197,-0.55593 4.38597,-0.91008 1.40373,-0.35361 4.02498,-0.908009 5.82498,-1.231649 2.97693,-0.53622 4.57461,-0.86301 7.00533,-1.43505 0.46791,-0.10962 1.43937,-0.2889 2.15972,-0.39798 1.10322,-0.168119 3.80088,-0.924389 6.54624,-1.835819 2.08845,-0.69417 5.12748,-2.501369 7.13484,-4.244758 2.34072,-2.031299 2.40399,-2.105459 3.50541,-4.138019 l 0.56763,-1.047419 -0.10521,0.981359 c -0.3672,3.413429 0.0279,5.884558 1.39689,8.705247 1.36125,2.810879 8.34317,12.842455 10.1969,14.652985 l 0.66006,0.642509 -0.0612,-2.999609 c -0.0342,-1.650149 -0.11907,-3.707188 -0.18594,-4.571458 -0.0657,-0.86355 -0.1593,-2.807639 -0.20358,-4.319278 -0.0423,-1.51254 -0.13329,-3.309479 -0.19827,-3.992759 -0.063,-0.684719 -0.23769,-2.658239 -0.38574,-4.386598 -0.39555,-4.630948 -0.9612,-7.467477 -2.24244,-11.256116 -0.75833,-2.241089 -0.76805,-2.257109 -1.36808,-2.370059 -0.78588,-0.14724 -1.11627,0.0405 -2.37321,1.36305 -1.87398,1.966229 -1.63962,0.750689 0.38412,-1.99836 1.71081,-2.322359 1.98351,-2.709449 2.54529,-3.608458 0.8423,-1.34811 3.39146,-6.512308 3.74732,-7.593477 1.89783,-5.752798 2.11599,-6.503578 2.71692,-9.344787 0.27666,-1.304099 0.65295,-3.019319 0.83637,-3.812308 0.36117,-1.55232 0.66294,-3.544739 0.85653,-5.629048 0.0639,-0.72045 0.18036,-1.63413 0.25362,-2.02932 0.072,-0.395909 0.22833,-1.663559 0.34128,-2.813489 0.3231,-3.274558 0.62118,-5.510877 0.75447,-5.643807 0.14697,-0.14886 0.35721,0.0909 0.35721,0.413909 0,0.17586 0.0567,0.31923 0.13059,0.31923 0.0693,0 0.13113,-0.14337 0.13113,-0.31923 0,-0.319229 0.21024,-0.562769 0.35739,-0.413909 0.1332,0.13293 0.43074,2.369249 0.75429,5.643807 0.11241,1.14993 0.26622,2.41758 0.34119,2.813489 0.072,0.39519 0.189,1.30887 0.25398,2.02932 0.19323,2.084309 0.49482,4.076728 0.85581,5.629048 0.18387,0.792989 0.55998,2.508209 0.83646,3.812308 0.60102,2.841209 0.81954,3.591989 2.71692,9.344787 0.35631,1.081169 2.90538,6.245367 3.74769,7.593477 0.56169,0.899009 0.83403,1.286099 2.54502,3.608458 2.0241,2.749049 2.2581,3.964589 0.3843,1.99836 -2.13921,-2.24622 -2.69055,-2.09853 -3.74121,1.007009 -1.28133,3.788639 -1.84626,6.625168 -2.24253,11.256116 -0.14841,1.728359 -0.32121,3.701879 -0.38574,4.386598 -0.063,0.68328 -0.15417,2.480219 -0.19791,3.992759 -0.0423,1.511639 -0.13626,3.455728 -0.20376,4.319278 -0.0657,0.86427 -0.15183,2.921309 -0.18603,4.571458 l -0.0612,2.999609 0.66024,-0.642509 c 1.85382,-1.81053 8.83548,-11.842106 10.19736,-14.652985 1.36745,-2.820689 1.76381,-5.291818 1.39688,-8.705247 l -0.10593,-0.981359 0.56808,1.047419 c 1.10151,2.03274 1.16541,2.10807 3.50541,4.137569 2.04507,1.774619 4.97331,3.516028 7.13448,4.241428 2.5911,0.87048 5.4396,1.67094 6.54642,1.839599 0.72,0.10908 1.69191,0.28836 2.16045,0.39798 2.43,0.57204 4.02768,0.89883 7.00451,1.43505 1.80009,0.32364 4.42143,0.878039 5.82516,1.231649 1.40373,0.35415 3.37752,0.76311 4.38597,0.91008 1.00737,0.14589 2.51127,0.40806 3.3408,0.58176 0.8316,0.17298 2.06883,0.38358 2.74968,0.46665 0.68247,0.0801 1.71207,0.234179 2.28762,0.334709 0.5769,0.10269 1.40067,0.22266 1.83294,0.2664 0.43209,0.0432 1.52217,0.22383 2.42217,0.39798 2.15946,0.41742 4.82039,0.84366 5.2649,0.84375 1.34604,0 8.24391,-13.664875 10.83816,-21.470572 3.17034,-9.531896 3.85731,-13.303795 5.44104,-29.782879 1.31004,-13.660465 1.27692,-15.833334 -0.40023,-25.52993 -0.32337,-1.872539 -0.71406,-4.1984985 -0.86643,-5.1707682 -0.33921,-2.1486592 -1.01214,-4.5270883 -1.70721,-6.0227077 -0.28512,-0.61136976 -0.46575,-1.05335959 -0.40536,-0.98180962 0.38817,0.44747983 1.71459,2.28014912 2.17314,2.99951882 0.29862,0.4688999 1.07865,1.6348494 1.73277,2.5931691 2.06946,3.0262488 4.45329,7.7264066 6.28479,12.3922756 1.80521,4.599268 2.86856,7.276137 4.16042,10.468706 0.62064,1.537199 1.12887,2.892059 1.12914,3.010499 0,0.11979 0.38943,1.071629 0.86427,2.117069 0.47457,1.043099 1.11384,2.486699 1.42092,3.207239 0.6975,1.639889 3.36105,9.581216 3.81186,11.366545 0.18522,0.73305 0.86679,2.947229 1.51308,4.921018 1.93113,5.891218 3.1113,10.909886 3.77451,16.049874 0.22266,1.72692 0.46215,3.463739 0.53199,3.860009 0.0675,0.39609 0.24354,1.809989 0.3888,3.142259 0.14454,1.332179 0.34911,2.894129 0.45396,3.468958 0.15795,0.86589 0.33147,2.429099 0.65007,5.863768 0.0729,0.81549 0.7218,0.67626 2.78334,-0.59805 2.36745,-1.462679 3.04884,-2.979448 2.5983,-5.779347 -0.10998,-0.68832 -0.20025,-1.57248 -0.20025,-1.9647 0,-0.39348 -0.1152,-1.321919 -0.25704,-2.062889 -0.22437,-1.182239 -0.46026,-2.827709 -0.71532,-5.003278 l -0.0738,-0.64305 0.53874,0.83277 c 0.29529,0.4572 0.87363,1.188359 1.28448,1.624139 0.41022,0.43587 1.03464,1.13661 1.38717,1.55763 2.60387,3.109679 8.81648,3.388138 14.59529,0.653039 0.68472,-0.325079 1.64664,-0.736019 2.13957,-0.915749 1.30257,-0.47529 2.74662,-1.20348 4.01409,-2.023109 2.18988,-1.4166 5.62905,-3.334139 5.62905,-3.139469 0,0.15291 -0.68895,1.118609 -1.36449,1.911779 -1.11195,1.30482 -1.53297,1.855979 -3.81249,4.982218 -1.20483,1.65186 -2.52063,3.391109 -2.92482,3.866399 -0.40401,0.47421 -1.05894,1.265579 -1.45458,1.756619 -1.10241,1.36854 -1.33362,1.557719 -5.83947,4.776658 -2.35755,1.68462 -5.11956,3.944969 -7.45893,6.107218 -2.42874,2.243789 -5.69114,5.129818 -6.29702,5.570098 -1.81071,1.315349 -1.82106,1.330379 -1.62117,2.265209 0.32283,1.506689 0.40248,1.991159 0.46431,2.809439 0.0387,0.51894 0.28647,1.56816 0.59382,2.51208 0.28944,0.88821 0.58086,2.00088 0.64917,2.46834 0.21636,1.49733 0.49959,2.64501 1.044,4.22631 0.29115,0.84879 0.52902,1.63053 0.52902,1.73709 0,0.45711 1.27008,2.86352 2.47139,4.68701 0.18261,0.27747 0.58923,0.71334 0.90108,0.9702 0.31284,0.25614 1.09035,1.08927 1.72881,1.85319 4.73571,5.65218 6.74802,6.41214 21.73716,8.1918 2.12309,0.252 4.09751,0.48816 4.38515,0.52542 0.28827,0.036 1.68039,0.153 3.09483,0.25839 1.41462,0.10503 2.82798,0.2475 3.14163,0.31689 0.7407,0.16281 2.24325,0.2511 5.87331,0.34812 1.62009,0.0414 2.95992,0.09 2.97666,0.11079 0.11331,0.11268 -5.688,2.21022 -10.70055,3.8673 -1.69299,0.55962 -3.90105,1.35684 -4.90959,1.77156 -1.00827,0.41355 -2.59838,1.03698 -3.53537,1.38384 -0.93546,0.34785 -2.84994,1.09935 -4.25421,1.67166 -1.4031,0.57078 -3.93696,1.59777 -5.62833,2.28339 -6.76998,2.73761 -10.21149,4.41854 -12.10221,5.9093 -0.76914,0.60552 -4.51574,2.64546 -5.99912,3.26484 l -0.49221,0.20574 0.75762,-1.00836 c 0.41652,-0.55512 0.91584,-1.24416 1.10736,-1.53243 0.19377,-0.28773 0.74079,-1.02339 1.21599,-1.6362 0.47663,-0.61236 0.91943,-1.24524 0.98486,-1.4076 0.0639,-0.16245 0.17037,-0.2943 0.23256,-0.2943 0.41175,0 3.66849,-4.40369 4.19805,-5.67827 0.98568,-2.36574 -0.81414,-4.89645 -4.4532,-6.2604 l -1.09484,-0.41058 -1.80036,-0.0567 c -5.20416,-0.17037 -11.61576,1.83852 -12.54627,3.93129 -0.85707,1.92897 -0.41418,4.17726 1.52127,7.72487 0.50121,0.91845 1.08018,2.00835 1.28457,2.421 0.49698,1.00278 1.3257,2.41344 1.9629,3.34125 0.71154,1.03392 0.6282,1.03068 -1.43856,-0.0504 -4.32891,-2.27034 -5.58486,-2.78946 -8.3529,-3.45717 -7.7255,-1.86192 -14.28281,-2.06991 -24.6842,-0.78417 -5.48325,0.67905 -8.11062,1.08504 -9.39788,1.45296 l -0.69273,0.1971 0.0855,0.48618 c 0.10494,0.58473 -0.15354,0.32661 1.62305,1.62009 7.16391,5.21532 11.42037,7.15725 16.77798,7.6563 1.13985,0.10728 1.45746,0.0126 1.74195,-0.51588 l 0.2367,-0.43839 -0.21456,-0.44883 c -0.11745,-0.24741 -0.69939,-1.08981 -1.2933,-1.87362 -1.41102,-1.86012 -2.11878,-3.00366 -3.30435,-5.33925 -0.5364,-1.05723 -1.03455,-1.95903 -1.10943,-2.00439 -0.35001,-0.21627 -0.0774,-0.31041 0.35577,-0.12366 0.26937,0.11565 0.54981,0.22257 0.62235,0.23805 0.1323,0.0279 0.32031,0.12357 2.0142,1.02447 1.16415,0.61803 2.74752,1.67256 3.53475,2.3544 0.31635,0.27279 0.62325,0.49698 0.68193,0.49698 0.0567,0 1.09494,0.59769 2.30373,1.32921 2.37996,1.43874 3.04713,1.76697 5.53769,2.72277 2.19924,0.84438 2.71269,1.00089 4.32081,1.32192 3.09186,0.61479 3.80646,0.65817 5.1579,0.31608 0.42408,-0.10836 0.79497,-0.17262 0.82341,-0.14445 0.0558,0.0558 -1.77021,1.27827 -2.77317,1.85157 -0.86508,0.49383 -2.14542,1.35441 -2.55375,1.71846 -0.18009,0.15966 -1.12122,0.74691 -2.0925,1.30275 -0.97146,0.55683 -2.5911,1.58409 -3.60027,2.28258 -2.28662,1.58409 -4.73975,3.18735 -7.01855,4.59018 -3.78999,2.33315 -8.64486,5.23835 -10.26513,6.14384 -3.53205,1.97388 -4.9707,2.9781 -8.05068,5.6169 -2.26322,1.93815 -3.92993,3.18735 -7.26659,5.44311 -2.47122,1.67094 -3.06117,2.10456 -5.42088,3.98547 -0.67698,0.53892 -1.39797,1.07109 -1.60083,1.18215 -0.6282,0.34191 -3.38877,2.50749 -4.44816,3.48993 -0.55341,0.51147 -1.37979,1.15397 -1.83681,1.42649 -0.45765,0.27351 -1.47501,0.91449 -2.26152,1.42515 -0.7866,0.51093 -1.85337,1.19439 -2.37042,1.51857 -0.51705,0.32382 -1.31688,0.86751 -1.7775,1.20654 -4.20011,3.0978 -8.86787,6.29784 -12.81635,8.78553 -1.47537,0.93042 -3.39066,2.20392 -4.25475,2.82987 -0.86472,0.62586 -1.83582,1.29672 -2.15991,1.48869 -0.324,0.19305 -1.06083,0.73143 -1.63629,1.1979 -0.57636,0.46746 -1.48914,1.15659 -2.02986,1.52982 -0.98307,0.68256 -8.27306,7.62407 -8.91386,8.49014 -0.18774,0.25236 -0.79533,0.86625 -1.35144,1.36377 -0.90486,0.81009 -2.08242,2.08863 -5.68809,6.1803 -1.29555,1.4706 -1.42074,1.47474 -0.67761,0.0189 0.30402,-0.59616 0.86517,-1.87893 1.2465,-2.8512 0.38043,-0.97173 0.90315,-2.23902 1.16001,-2.81448 0.25713,-0.57627 0.67761,-1.81269 0.93555,-2.74986 1.72638,-6.28946 3.48489,-10.65428 5.79555,-14.38793 2.28555,-3.69153 2.95658,-5.37984 2.96945,-7.47504 l 0.01,-1.17855 -0.34812,-0.58779 c -1.63592,-2.76588 -6.06743,-2.87973 -10.64906,-0.27459 -0.86481,0.4914 -2.50668,1.38492 -3.65031,1.98603 l -2.07936,1.09296 -0.40824,0.6246 c -0.22437,0.34317 -0.49617,0.6246 -0.60444,0.6246 -0.10737,0 -0.38007,-0.28143 -0.60372,-0.6246 l -0.40761,-0.6246 -2.08008,-1.09296 c -1.14345,-0.60111 -2.78595,-1.49463 -3.65112,-1.98603 -4.58099,-2.60514 -9.01313,-2.49129 -10.64834,0.27459 l -0.34767,0.58779 0.01,1.17855 c 0.0126,2.0952 0.68418,3.78351 2.96964,7.47504 2.31039,3.73365 4.06989,8.09847 5.79572,14.38793 0.25794,0.93717 0.67869,2.17359 0.93546,2.74986 0.2565,0.57546 0.7794,1.84275 1.1601,2.81448 0.38133,0.97227 0.9423,2.25504 1.24749,2.8512 0.74187,1.4544 0.61668,1.45026 -0.6795,-0.0189 z m -7.90874,-14.28965 c -1.2123,-3.39066 -1.62801,-4.25934 -3.38301,-7.06545 -1.44729,-2.31327 -2.45196,-4.3632 -2.91933,-5.95764 l -0.36405,-1.24281 v -1.77426 -1.77318 l 0.49509,-1.00242 c 2.13543,-4.32323 7.78257,-5.46443 13.77476,-2.78226 0.432,0.19431 1.02141,0.45666 1.30869,0.58554 0.288,0.12861 0.75987,0.30753 1.04787,0.39951 0.28755,0.0882 1.20069,0.52731 2.02797,0.96849 2.49228,1.32894 1.96119,1.32894 4.45257,0 0.82791,-0.44118 1.7406,-0.87777 2.02824,-0.96849 0.28836,-0.0882 0.7596,-0.2709 1.04823,-0.39951 0.28755,-0.12888 0.87651,-0.39123 1.30851,-0.58554 5.99166,-2.68217 11.63924,-1.54097 13.77539,2.78226 l 0.49464,1.00242 v 1.77318 1.77426 l -0.36423,1.24281 c -0.46728,1.59444 -1.47204,3.64437 -2.91906,5.95764 -1.75535,2.80575 -2.17097,3.67488 -3.38156,7.06257 -0.61722,1.72485 -1.12131,3.1842 -1.12131,3.24351 0,0.0567 1.57626,-1.47726 3.50226,-3.41352 2.05136,-2.06307 3.93605,-3.83535 4.54913,-4.27995 0.57636,-0.41607 1.40058,-1.0611 1.83168,-1.42965 2.8557,-2.44152 4.38255,-3.53295 8.7075,-6.22584 1.81791,-1.13112 4.79097,-3.13335 6.61077,-4.44699 0.93609,-0.67752 2.25711,-1.61631 2.9358,-2.08818 l 1.23255,-0.85977 -0.51354,-0.09 c -0.28143,-0.0495 -1.07217,-0.18702 -1.75617,-0.30213 -2.24874,-0.37917 -9.49284,-2.39282 -11.67084,-3.24359 -7.08381,-2.77056 -9.99108,-6.51951 -7.0875,-9.14175 1.6074,-1.45359 5.03613,-2.98899 6.68034,-2.99394 0.54891,0 0.29952,-0.22059 -0.82107,-0.71964 -5.41557,-2.41308 -8.99973,-5.45166 -11.27672,-9.5589 -2.18736,-3.94514 -3.65094,-7.96238 -4.62474,-12.69881 -0.22203,-1.08108 -0.48969,-2.25063 -0.59337,-2.60136 -0.10332,-0.35073 -0.40005,-1.73457 -0.65718,-3.07638 -0.2583,-1.34181 -0.75726,-3.58767 -1.10898,-4.99203 -0.77121,-3.08214 -1.79361,-7.97291 -2.80413,-13.41926 -0.43101,-2.32137 -0.94932,-7.14699 -0.79461,-7.39548 0.0369,-0.0594 0.28935,-0.18234 0.55863,-0.26892 0.76986,-0.24525 1.32741,-0.51363 2.45304,-1.18134 1.01025,-0.6003 5.54283,-2.70495 11.25881,-5.22828 1.51146,-0.66726 3.95712,-1.64727 5.43258,-2.17719 1.476,-0.53046 3.1005,-1.16937 3.60828,-1.42218 1.24461,-0.61722 1.16046,-0.6516 2.41326,1.01421 0.60822,0.81045 1.38078,1.79685 1.71522,2.19294 0.95193,1.12176 2.59596,3.47022 3.43872,4.90941 0.42183,0.72 0.9855,1.63323 1.25307,2.02977 2.47428,3.64959 3.75543,7.45686 4.47147,13.28742 0.20574,1.67561 0.0513,1.61262 2.07143,0.84987 1.79487,-0.67635 4.54194,-1.47114 6.94971,-2.0097 1.59669,-0.35739 1.56762,-0.31554 0.71964,-1.00755 -1.20582,-0.98568 -4.13559,-3.95217 -4.89411,-4.95603 -1.04382,-1.38222 -2.10789,-2.94966 -2.10789,-3.10455 0,-0.0684 -0.6192,-1.00971 -1.37465,-2.08548 -1.46124,-2.08098 -1.87866,-2.68992 -3.41082,-4.96701 -1.82061,-2.70621 -2.7432,-4.10715 -3.92202,-5.95656 -0.64755,-1.01781 -1.54341,-2.39156 -1.9899,-3.05333 -0.6795,-1.0053 -1.17261,-1.80243 -2.88036,-4.64904 -0.0756,-0.13005 -0.51381,0.10341 -1.74114,0.93042 -3.27843,2.21382 -5.68305,3.46473 -16.36415,8.50949 -6.01281,2.84013 -8.66259,3.93282 -8.90361,3.67254 -0.09,-0.10098 -0.441,-1.83672 -0.77238,-3.85416 -0.95103,-5.78069 1.21122,-10.83905 8.64378,-20.231179 0.92205,-1.165049 2.15919,-2.786129 2.7495,-3.602698 5.45219,-7.550907 10.37195,-9.331107 18.5633,-6.721468 0.97839,0.31239 2.48571,0.78435 3.35016,1.04985 0.86445,0.26532 2.27772,0.73449 3.14208,1.04373 7.39043,2.642759 13.51079,4.460128 17.18009,5.101108 1.45584,0.25605 3.57696,0.726569 4.71303,1.047509 2.10024,0.59364 5.21802,1.38051 5.46867,1.38051 0.24417,0 3.99257,-4.682249 3.99257,-4.985278 0,-0.10692 -0.25281,-0.15255 -2.55275,-0.45459 -0.86427,-0.11331 -2.60226,-0.43956 -3.86271,-0.72378 -3.23334,-0.73206 -3.18888,-0.72306 -6.08796,-1.294199 -1.43946,-0.28404 -3.44214,-0.64152 -4.45014,-0.79227 -1.00836,-0.1512 -2.27439,-0.38664 -2.81511,-0.52209 -1.31787,-0.33219 -3.25179,-0.7326 -4.45131,-0.92097 -0.53937,-0.0828 -1.33578,-0.2646 -1.76634,-0.396449 -0.43263,-0.13086 -1.50579,-0.36108 -2.38553,-0.50832 -2.27619,-0.38772 -8.33373,-1.85715 -11.88513,-2.887469 -2.03391,-0.58914 -4.59927,-1.57905 -6.2838,-2.424779 -1.43649,-0.72009 -1.73349,-0.90837 -3.04452,-1.9188 -0.38178,-0.294839 -0.71208,-0.512549 -0.73782,-0.483839 -0.0234,0.027 -0.26775,0.579959 -0.54207,1.228319 -1.08855,2.580029 -4.89509,8.705787 -7.19594,11.580746 -0.87174,1.089629 -1.34442,1.733219 -2.24649,3.061709 -1.29411,1.906199 -4.02183,4.452568 -6.03432,5.631387 -0.59337,0.34776 -1.11285,0.68535 -1.15317,0.75087 -0.26244,0.4248 -0.40797,0.0414 -0.64881,-1.700909 -0.48105,-3.486329 -0.59004,-6.997317 -0.32418,-10.421006 0.0702,-0.93627 0.18972,-3.321269 0.2592,-5.302618 0.0675,-1.979729 0.18621,-4.158989 0.26028,-4.843618 0.0702,-0.684 0.19395,-1.98009 0.26802,-2.880089 0.25947,-3.166289 0.38619,-4.349519 0.59229,-5.540398 0.29637,-1.71045 1.02627,-4.713208 1.63026,-6.700138 1.41912,-4.671538 1.44783,-4.314418 -0.72972,-8.786336 -1.91475,-3.933449 -3.63888,-9.091617 -4.57686,-13.698985 -0.45081,-2.214719 -0.4581,-2.214719 -0.90882,0 -0.93645,4.605658 -2.65572,9.751046 -4.56714,13.674055 -2.18727,4.489198 -2.15874,4.138828 -0.73917,8.811266 0.60399,1.98693 1.33452,4.989688 1.63071,6.700138 0.20574,1.190879 0.33237,2.374109 0.59229,5.540398 0.072,0.899999 0.19521,2.196089 0.26784,2.880089 0.0702,0.684629 0.19116,2.863889 0.26082,4.843618 0.0675,1.981349 0.18576,4.366348 0.25929,5.302618 0.3978,5.113888 -0.25794,13.280035 -0.97362,12.121915 -0.0387,-0.063 -0.56007,-0.40311 -1.1529,-0.75087 -2.01222,-1.178819 -4.73975,-3.725188 -6.03368,-5.631387 -0.90207,-1.32849 -1.3752,-1.97208 -2.24649,-3.061709 -2.30157,-2.874959 -6.10848,-9.000717 -7.19721,-11.580746 -0.27351,-0.64836 -0.51849,-1.202219 -0.54522,-1.231739 -0.0252,-0.0288 -0.2682,0.12114 -0.5382,0.3384 -3.3264,2.661028 -7.44642,4.184098 -18.20177,6.726867 -0.88506,0.21087 -2.32839,0.50346 -3.20796,0.65304 -0.87939,0.14724 -1.953,0.37746 -2.38347,0.50832 -0.43263,0.131849 -1.22814,0.309419 -1.7685,0.396449 -1.19916,0.18837 -3.13272,0.58878 -4.45122,0.92097 -0.54072,0.13545 -1.80639,0.37089 -2.81457,0.52209 -1.008,0.15075 -3.01149,0.50823 -4.45077,0.79227 -2.89818,0.571139 -2.85399,0.562139 -6.08804,1.294199 -1.26036,0.28422 -2.99835,0.61047 -3.86199,0.72378 -2.29986,0.30204 -2.5524,0.34767 -2.5524,0.45459 0,0.303029 3.74769,4.985278 3.99159,4.985278 0.25128,0 3.3696,-0.78687 5.46974,-1.38051 1.13571,-0.32094 3.2562,-0.791459 4.71321,-1.047509 3.66876,-0.64098 9.78813,-2.458349 17.17947,-5.101108 0.86382,-0.30924 2.277,-0.77841 3.14172,-1.04373 0.86435,-0.2655 2.37185,-0.73746 3.35024,-1.04985 8.1909,-2.609639 13.11039,-0.829439 18.56403,6.721468 0.58986,0.816569 1.82691,2.437649 2.74869,3.602698 7.43237,9.392129 9.59471,14.450489 8.64422,20.231179 -0.33714,2.05182 -0.67995,3.75399 -0.77787,3.8592 -0.25407,0.2736 -3.57876,-1.13787 -10.99295,-4.6683 -9.57672,-4.56065 -10.96938,-5.29307 -14.20452,-7.47647 -0.864,-0.58311 -1.60596,-1.07676 -1.6497,-1.09701 -0.0414,-0.0189 -0.50103,0.6867 -1.02015,1.57068 -0.51939,0.88488 -1.36818,2.23695 -1.88658,3.00519 -0.51822,0.76833 -1.47222,2.23046 -2.12066,3.24908 -1.17558,1.84752 -2.09169,3.23865 -3.92121,5.95827 -1.53288,2.27709 -1.95048,2.88603 -3.41136,4.96701 -0.75537,1.07577 -1.37259,2.01447 -1.37259,2.08548 0,0.15489 -1.0656,1.72233 -2.11032,3.10455 -0.75213,0.99657 -3.6855,3.969 -4.87395,4.93974 -0.85059,0.69435 -0.86553,0.67338 0.69984,1.02384 2.40804,0.53856 5.15457,1.33335 6.94935,2.0097 2.01861,0.76275 1.8666,0.82574 2.07243,-0.84987 0.71577,-5.82921 1.98846,-9.61443 4.46904,-13.28742 0.26712,-0.39654 0.85167,-1.33875 1.29924,-2.09457 0.94103,-1.58949 2.37914,-3.64842 3.33908,-4.77918 0.36684,-0.432 1.16406,-1.44792 1.77228,-2.25837 1.25082,-1.66581 1.16784,-1.63143 2.412,-1.01412 0.50841,0.2529 2.10231,0.88029 3.54213,1.39626 1.43991,0.51543 3.47265,1.3176 4.51611,1.78227 1.04463,0.46485 2.54727,1.12599 3.33855,1.46889 3.22524,1.39707 8.04032,3.6585 8.85806,4.16043 0.93582,0.57555 1.71648,0.9495 2.49795,1.20006 0.26865,0.0828 0.51984,0.20754 0.55854,0.26991 0.15417,0.24849 -0.36378,5.07411 -0.7947,7.39548 -0.98037,5.27985 -2.11536,10.70027 -2.84949,13.61555 -0.32714,1.29573 -0.80621,3.45393 -1.06415,4.79574 -0.25677,1.34181 -0.55269,2.72565 -0.65754,3.07638 -0.10296,0.35073 -0.37035,1.52028 -0.59229,2.60136 -0.97452,4.73643 -2.4381,8.75367 -4.62474,12.69881 -1.32435,2.3877 -1.81665,3.07602 -3.06306,4.27266 -1.38537,1.33083 -5.22027,3.82374 -7.79076,5.06529 -1.53846,0.74394 -1.79676,0.93897 -1.2447,0.94059 1.64484,0.01 5.07303,1.54035 6.68151,2.99394 2.90286,2.62224 -0.01,6.37119 -7.08786,9.14175 -2.17863,0.85077 -9.42281,2.86442 -11.67092,3.24359 -0.68409,0.11511 -1.47474,0.25083 -1.7568,0.30213 l -0.51309,0.09 1.23282,0.85977 c 0.67869,0.47187 1.99926,1.41066 2.93589,2.08818 1.81863,1.31364 4.79195,3.31587 6.61058,4.44699 3.81942,2.37834 5.08266,3.25278 7.1865,4.97601 1.63197,1.33749 2.67552,2.17215 3.96081,3.16935 0.52956,0.40968 2.40561,2.21193 4.17033,4.00464 1.76373,1.7928 3.22227,3.22326 3.24081,3.1779 0.0189,-0.0432 -0.47079,-1.4931 -1.0881,-3.21957 z m 8.36594,-30.04388 c -1.68282,-0.4356 -3.14244,-1.3428 -5.33735,-3.32055 -0.54882,-0.495 -1.13022,-1.00116 -1.2906,-1.12536 -0.86823,-0.67194 -2.09565,-1.46097 -2.56815,-1.64997 -0.29493,-0.11745 -0.53757,-0.25722 -0.53757,-0.30825 0,-0.10845 1.18638,-0.66366 1.41975,-0.66366 2.17251,0 6.5087,-5.55921 8.25353,-10.58355 0.42003,-1.20995 0.85518,-2.34305 0.9657,-2.51729 0.24012,-0.37431 0.90099,-2.84265 1.20663,-4.49559 0.11853,-0.64233 0.41211,-1.79055 0.65277,-2.55339 0.95031,-3.00546 1.64187,-6.20028 1.97271,-9.10989 0.37494,-3.30633 0.43902,-3.78513 0.63711,-4.84416 0.10719,-0.57573 0.21339,-1.224 0.23427,-1.43964 0.0234,-0.24489 0.11412,-0.39294 0.23625,-0.39294 0.12258,0 0.21078,0.14805 0.23661,0.39294 0.0216,0.21564 0.12699,0.86391 0.23409,1.43964 0.19836,1.05903 0.26262,1.53783 0.63729,4.84416 0.33093,2.90961 1.0224,6.10443 1.97271,9.10989 0.24084,0.76284 0.53397,1.91106 0.65286,2.55339 0.30528,1.65294 0.96651,4.12128 1.20618,4.49559 0.11079,0.17424 0.54594,1.30734 0.96579,2.51729 1.74483,5.02434 6.08148,10.58355 8.2539,10.58355 0.2331,0 1.41993,0.55521 1.41993,0.66366 0,0.0495 -0.24309,0.1908 -0.53766,0.30825 -0.47187,0.189 -1.70001,0.97803 -2.56824,1.64997 -0.16029,0.1242 -0.74223,0.63036 -1.29069,1.12536 -2.23119,2.0097 -3.65634,2.88765 -5.39838,3.32712 -1.85463,0.46737 -2.50731,0.22176 -4.50324,-1.68975 l -1.28115,-1.22724 -1.28097,1.22724 c -1.99377,1.90971 -2.69046,2.1672 -4.56408,1.68318 z m 2.2806,-4.14576 c 1.11096,-1.22265 2.40579,-3.41262 3.06477,-5.18022 0.5166,-1.3869 0.48429,-1.38213 0.94617,-0.13077 1.01178,2.74122 3.21444,5.94414 4.21605,6.1317 0.82566,0.15552 2.22336,-0.62199 3.96198,-2.20401 0.67914,-0.61614 0.68337,-0.58293 -0.19827,-1.56618 -2.2833,-2.54727 -4.36401,-5.70528 -5.06844,-7.69644 -1.77003,-5.00489 -2.02914,-5.89013 -2.65293,-9.06596 -0.34974,-1.78191 -0.66816,-3.24036 -0.70488,-3.24036 -0.036,0 -0.35487,1.45845 -0.70434,3.24036 -0.62424,3.17583 -0.88299,4.06107 -2.65302,9.06596 -0.70479,1.99116 -2.78514,5.14917 -5.06844,7.69644 -0.882,0.9837 -0.87777,0.9504 -0.19503,1.56618 2.718,2.45592 3.81339,2.75562 5.05638,1.3833 z m -45.59407,11.94921 c 0.53739,-0.12456 2.08071,-0.26784 3.73005,-0.34569 3.51054,-0.16479 4.70088,-0.34074 7.99479,-1.17657 7.61237,-1.93482 11.3543,-3.49218 13.34456,-5.55615 l 0.59004,-0.6111 -0.39267,-0.32553 c -2.09754,-1.73853 -5.65551,-2.45286 -12.11156,-2.43189 -2.12472,0.01 -4.05495,0.0441 -4.29003,0.0855 -0.49149,0.0837 -3.79233,-0.23571 -5.33097,-0.52038 -0.576,-0.10521 -1.45998,-0.25596 -1.96434,-0.33318 -0.87867,-0.13365 -1.80513,-0.37521 -2.59767,-0.67869 l -0.37089,-0.14085 0.24075,-0.14004 c 0.13716,-0.0774 1.11312,-0.14787 2.28276,-0.15921 2.20077,-0.0216 3.07395,-0.09 4.88205,-0.39528 0.64044,-0.10737 1.22922,-0.17019 1.30878,-0.14121 0.25461,0.09 1.99584,-0.14319 3.65193,-0.49536 2.50055,-0.53217 3.25466,-0.73656 3.91625,-1.06677 0.33795,-0.16929 1.06758,-0.43092 1.62261,-0.58293 2.73105,-0.74916 8.13681,-3.63294 10.73205,-5.72328 2.96613,-2.38905 6.20505,-9.5183 7.65621,-16.84412 0.15624,-0.78876 0.33327,-1.56618 0.39537,-1.72863 0.0594,-0.16191 0.29151,-1.28313 0.5121,-2.49246 0.21987,-1.20915 0.77499,-3.73041 1.23426,-5.60205 0.45954,-1.872 1.01691,-4.31658 1.23705,-5.43212 0.22077,-1.11717 0.54738,-2.73708 0.72801,-3.60018 0.83105,-3.98709 1.26548,-6.4908 1.34072,-7.7166 l 0.0783,-1.33245 -0.64089,-0.4113 c -0.91997,-0.58896 -3.83246,-1.95201 -9.9998,-4.67838 -1.18899,-0.52398 -2.57346,-1.14273 -3.07728,-1.37385 -2.43513,-1.11249 -6.41952,-2.4408 -6.67872,-2.22588 -0.10521,0.0837 -0.99306,1.36296 -1.97235,2.83617 l -1.78227,2.67822 0.24138,0.1872 c 2.74554,2.115 8.66943,3.5568 10.72431,2.60865 1.47456,-0.68121 3.54249,-1.48293 4.05774,-1.57518 l 0.51543,-0.0882 -0.61074,0.63747 c -0.73971,0.77238 -1.17045,1.48356 -2.44224,4.04145 -1.22103,2.45385 -1.25811,2.70522 -0.63207,4.38543 1.27026,3.41676 1.46448,4.59675 1.43955,8.83691 -0.036,6.72525 -1.83465,11.26764 -6.43248,16.25454 -2.85057,3.09123 -3.168,3.95757 -3.17187,8.65466 v 2.32119 l -0.46044,-0.52353 c -0.25218,-0.28845 -0.89109,-1.0836 -1.41723,-1.76841 -0.52731,-0.68301 -1.06524,-1.332 -1.1952,-1.43946 -0.13014,-0.108 -0.5445,-0.6677 -0.91953,-1.2437 -1.19376,-1.83294 -6.91046,-8.05131 -7.40069,-8.05131 -0.14274,0 -0.30078,3.94461 -0.19728,4.86639 0.18675,1.64412 0.738,4.92119 0.97794,5.80436 0.27918,1.03068 0.86841,3.65796 0.99639,4.44384 l 0.081,0.51723 -0.56754,-0.49023 c -0.31185,-0.26937 -0.89145,-0.75051 -1.28727,-1.07046 -1.16253,-0.93582 -2.11059,-1.87641 -3.25494,-3.22893 -4.57155,-5.4008 -12.11454,-9.66383 -17.10072,-9.66383 h -0.83961 l -0.31626,0.42597 c -0.81224,1.0917 -1.00889,2.73357 -0.68903,5.72616 0.39069,3.64103 0.6911,4.77449 1.90772,7.20044 0.34209,0.68481 0.92907,1.92267 1.30221,2.7504 0.37305,0.82764 1.32273,2.78145 2.10915,4.33998 0.78651,1.55907 1.7595,3.65031 2.16153,4.64751 0.40257,0.99747 1.01907,2.40291 1.37196,3.12291 0.64017,1.30788 1.84275,4.54509 2.30499,6.20046 0.0594,0.22058 1.09845,0.14975 2.46816,-0.16686 z m 100.79177,0.1521 c 0.40068,-1.48815 1.66194,-4.88421 2.29914,-6.18543 0.35262,-0.72009 0.96462,-2.11428 1.36134,-3.0969 0.39672,-0.9837 1.43046,-3.19473 2.30067,-4.91562 0.86985,-1.72035 1.57914,-3.16521 1.57914,-3.21066 0,-0.0432 0.58302,-1.30914 1.2933,-2.8089 1.7964,-3.78783 1.90584,-4.16673 2.31903,-8.02916 0.31851,-2.99367 0.12177,-4.635 -0.69012,-5.72616 l -0.31626,-0.42597 h -0.83943 c -4.98627,0 -12.52971,4.26303 -17.10072,9.66374 -1.14443,1.35261 -2.0924,2.2932 -3.2552,3.22902 -0.39555,0.31986 -0.97542,0.80109 -1.28691,1.07037 l -0.56844,0.49032 0.081,-0.51732 c 0.1287,-0.78588 0.71784,-3.41307 0.99702,-4.44429 0.23976,-0.88272 0.79092,-4.1597 0.97776,-5.80382 0.10377,-0.92196 -0.0531,-4.86639 -0.19737,-4.86639 -0.49023,0 -6.20649,6.21837 -7.40034,8.05131 -0.3753,0.57591 -0.78975,1.1357 -0.91953,1.24361 -0.12996,0.10755 -0.66807,0.75654 -1.19556,1.43946 -0.52587,0.6849 -1.16469,1.48005 -1.41696,1.7685 l -0.46053,0.52353 v -2.32119 c -0.01,-4.69709 -0.32148,-5.5637 -3.17169,-8.65466 -4.59774,-4.9869 -6.39567,-9.52938 -6.43257,-16.25454 -0.0234,-4.24025 0.16848,-5.42015 1.43964,-8.83691 0.62559,-1.68021 0.58851,-1.93158 -0.63216,-4.38606 -1.2717,-2.55735 -1.70244,-3.26844 -2.44233,-4.04082 l -0.61056,-0.63756 0.51552,0.0882 c 0.51489,0.0882 2.58291,0.89388 4.05765,1.57509 2.05533,0.94851 7.97769,-0.49329 10.72566,-2.60955 l 0.24174,-0.18828 -1.02753,-1.52253 c -0.56565,-0.83916 -1.32921,-1.99467 -1.69695,-2.5713 -0.36702,-0.5742 -0.78723,-1.16586 -0.93429,-1.31364 l -0.26901,-0.26856 -1.29069,0.42651 c -1.8621,0.61506 -4.15989,1.48068 -5.21685,1.96308 -0.50364,0.23112 -1.88874,0.84987 -3.07746,1.37376 -6.16715,2.72637 -9.07964,4.08951 -9.99944,4.67847 l -0.6408,0.4113 0.0792,1.33236 c 0.0729,1.22535 0.50949,3.7296 1.34064,7.71669 0.18036,0.86301 0.50724,2.48301 0.72774,3.60018 0.2205,1.11545 0.77688,3.56003 1.23678,5.43212 0.45936,1.87155 1.01466,4.39281 1.23489,5.60196 0.22014,1.20933 0.45045,2.33055 0.51183,2.49246 0.0585,0.16227 0.23931,0.93996 0.39546,1.72872 1.45035,7.32582 4.68971,14.45507 7.6562,16.84403 2.59524,2.09034 8.00091,4.97421 10.73205,5.72328 0.55485,0.15201 1.28484,0.41373 1.62261,0.58302 1.20429,0.60048 6.95295,1.78704 7.56783,1.56213 0.0774,-0.0288 0.66861,0.0324 1.30905,0.14112 1.80827,0.30195 2.68145,0.37179 4.88213,0.39537 1.16964,0.0108 2.14569,0.0774 2.28276,0.15912 l 0.24075,0.14013 -0.37089,0.1386 c -0.79515,0.29925 -1.72017,0.53982 -2.59821,0.67734 -0.50373,0.0765 -1.38762,0.23148 -1.96371,0.33669 -1.53891,0.28467 -4.83938,0.60642 -5.33105,0.52047 -0.23535,-0.0396 -2.16531,-0.0783 -4.2903,-0.0855 -6.45579,-0.0207 -10.0143,0.69273 -12.11175,2.43189 l -0.39267,0.32535 0.59049,0.61128 c 1.98999,2.06397 5.7321,3.62133 13.3443,5.55606 3.29319,0.83574 4.48353,1.01169 7.99496,1.17702 2.36637,0.11169 4.61592,0.39375 4.83228,0.6065 0.13878,0.13716 1.33209,0.0396 1.37214,-0.10916 z M 164.80893,182.2051 c -0.7875,-1.53648 -1.74177,-3.49497 -2.12103,-4.35402 -0.38087,-0.8586 -0.98693,-2.15091 -1.34675,-2.87055 -0.87606,-1.74924 -1.46889,-3.31686 -1.72449,-4.55697 -1.74465,-8.46998 -0.14112,-13.48964 4.30037,-13.46192 4.80663,0.0288 11.22597,2.92716 16.31106,7.36128 l 0.84996,0.74259 v -2.70108 c 0,-1.48626 0.0279,-3.41487 0.0621,-4.28679 0.0729,-1.86489 0.18333,-1.66572 -1.58733,-2.93031 -2.03094,-1.45089 -3.53439,-2.00889 -14.64426,-5.4288 -5.71211,-1.75833 -5.05214,-1.62225 -5.06816,-1.0494 -0.0189,0.70956 -0.2907,1.00053 -2.21517,2.38212 -0.98127,0.70389 -2.17413,1.56456 -2.65095,1.91178 -6.39756,4.65237 -13.27203,7.36515 -18.07992,7.13412 -2.34395,-0.11223 -3.99608,-1.81512 -3.99608,-4.11714 v -0.93339 l -1.40526,0.70434 c -1.30545,0.65493 -3.97116,1.76994 -5.10777,2.13732 -0.66195,0.21384 -0.65097,0.23121 0.69309,1.05462 0.64692,0.39546 2.63223,1.70217 4.41387,2.90196 1.78137,1.19952 4.03461,2.66571 5.00624,3.25782 5.51259,3.35798 7.81668,4.73759 9.16398,5.48495 3.9105,2.17206 6.05988,3.64212 9.04914,6.18921 2.06946,1.76445 4.10247,3.32019 5.94117,4.55067 1.55223,1.03725 4.65524,3.21678 5.10533,3.58722 0.65754,0.53811 0.53649,0.19215 -0.95148,-2.70963 z m 121.59149,1.13661 c 0.82809,-0.57789 2.06469,-1.42524 2.74968,-1.88307 2.01825,-1.35018 4.00131,-2.85831 5.97248,-4.54482 3.14514,-2.691 4.88727,-3.88845 9.20583,-6.32214 1.83321,-1.03293 3.32586,-1.92627 9.17217,-5.48873 0.97173,-0.59238 3.22425,-2.05857 5.00625,-3.25809 1.78038,-1.19979 3.76667,-2.5065 4.41386,-2.90196 1.34397,-0.82341 1.35513,-0.84078 0.69282,-1.05462 -1.13643,-0.36738 -3.80213,-1.48239 -5.10758,-2.13732 l -1.40517,-0.70434 v 0.93339 c 0,2.30202 -1.65222,4.00491 -3.996,4.11714 -4.80825,0.23103 -11.68254,-2.48175 -18.0801,-7.13412 -0.47681,-0.34722 -1.67012,-1.20789 -2.65094,-1.91178 -1.92438,-1.38159 -2.1951,-1.67256 -2.21499,-2.38212 -0.0162,-0.57285 0.64359,-0.70893 -5.06835,1.0494 -11.10978,3.41991 -12.61323,3.97791 -14.64435,5.4288 -1.77084,1.26459 -1.66203,1.06542 -1.58715,2.93031 0.0342,0.87192 0.0621,2.80053 0.0621,4.28679 v 2.70108 l 0.84987,-0.74259 c 5.08509,-4.43412 11.50425,-7.33212 16.31106,-7.36128 4.44168,-0.0261 6.04467,4.99194 4.30029,13.46192 -0.25551,1.24011 -0.84825,2.80773 -1.7244,4.55697 -0.35973,0.71964 -0.96579,2.01195 -1.34667,2.87055 -0.37917,0.85905 -1.32903,2.80854 -2.11077,4.33332 -1.59147,3.10329 -1.65195,3.29049 -0.86418,2.65635 0.30663,-0.24678 1.23417,-0.92097 2.0619,-1.49904 z m -92.72418,-20.63546 c 0.50229,-0.96984 1.38051,-2.09493 3.2742,-4.19013 2.277,-2.51973 3.70314,-5.0373 4.69089,-8.2791 l 0.47907,-1.57113 0.13896,-2.54754 c 0.2151,-3.90825 -0.0882,-5.98481 -1.40544,-9.5624 -0.45729,-1.24488 -0.57636,-2.78973 -0.28413,-3.72447 0.11133,-0.35685 0.18936,-0.6561 0.17316,-0.66528 -0.0144,-0.01 -0.63567,-0.11988 -1.3797,-0.2466 -2.41425,-0.41247 -5.54643,-1.55403 -7.76295,-2.82987 -0.62172,-0.35838 -1.16595,-0.65007 -1.21023,-0.65007 -0.1305,0 -2.17754,3.36789 -2.17754,3.58326 0,0.0288 0.55854,0.36432 1.24244,0.7425 4.32261,2.39436 6.24213,6.0048 5.39748,10.15289 -1.01979,5.00706 -3.67479,6.26391 -8.30672,3.92832 -6.74469,-3.3993 -10.68615,-4.62636 -19.41048,-6.03863 -3.40191,-0.55134 -8.94122,-1.74357 -12.43664,-2.67552 -1.33236,-0.35676 -3.54105,-0.85563 -4.90968,-1.10934 -3.72933,-0.68922 -7.40835,-1.45386 -8.12979,-1.68813 -0.8775,-0.28332 -2.4282,-0.6651 -4.33485,-1.06785 -0.8793,-0.18405 -2.02751,-0.47529 -2.55365,-0.64413 -0.52398,-0.17055 -1.46916,-0.46521 -2.09916,-0.65691 -1.52712,-0.46152 -1.47897,-0.50067 0.9279,-0.76464 2.21427,-0.2439 6.28775,-0.90783 6.82838,-1.11447 0.18027,-0.0657 0.68148,-0.16578 1.11411,-0.21825 0.88947,-0.10503 5.03775,-1.03599 7.59222,-1.70478 0.93546,-0.24534 3.11598,-0.80667 4.84452,-1.2483 1.72791,-0.44154 3.5838,-0.98262 4.12344,-1.20015 1.5165,-0.61398 7.67204,-2.84814 8.77139,-3.18384 1.84401,-0.5643 5.03919,-1.61946 5.53239,-1.82817 l 0.49221,-0.20673 0.35874,0.22824 c 0.46944,0.30159 3.33882,2.69496 4.71222,3.93363 l 1.08198,0.97425 0.25839,-0.30771 c 0.14328,-0.16947 0.43704,-0.60228 0.65502,-0.96237 0.216,-0.35982 0.62379,-1.0188 0.90522,-1.46439 l 0.50895,-0.80928 -0.92124,-0.69579 c -0.50679,-0.38304 -1.66437,-1.22112 -2.57256,-1.86345 -2.27538,-1.60884 -4.62123,-3.37941 -5.68359,-4.2885 -1.04751,-0.89613 -0.87498,-0.86589 -2.00385,-0.35262 -3.38445,1.53702 -10.17863,3.8583 -12.42224,4.24611 -0.21582,0.036 -0.71694,0.17721 -1.11276,0.31248 -0.39582,0.13545 -1.14831,0.34299 -1.67256,0.46215 -0.52353,0.12051 -1.11222,0.30078 -1.30833,0.40356 -0.19773,0.10251 -0.53082,0.18684 -0.74232,0.1872 h -0.3843 l 0.3843,-0.40383 c 0.2115,-0.22131 0.73908,-0.65565 1.16955,-0.9648 0.81792,-0.58608 1.82727,-1.59534 2.49282,-2.49273 0.21267,-0.28728 0.73197,-0.93573 1.15173,-1.44018 0.41895,-0.50463 1.18008,-1.62404 1.68903,-2.48849 0.5085,-0.86337 1.47627,-2.49273 2.14875,-3.61917 0.67383,-1.12716 1.22426,-2.10996 1.22426,-2.18574 0,-0.0729 -0.93707,-0.96282 -2.08151,-1.97307 -1.94382,-1.71342 -3.73473,-3.52899 -4.75038,-4.81491 -0.23931,-0.30204 -0.92511,-1.126709 -1.52586,-1.832939 -2.59938,-3.058019 -5.91858,-7.730817 -7.16193,-10.082066 -0.4878,-0.92106 -1.09269,-1.998809 -1.34532,-2.394719 -1.82268,-2.859569 -1.66491,-2.556809 -2.61486,-5.040718 -0.72306,-1.89018 -1.97172,-4.749209 -2.75607,-6.311428 -1.67436,-3.336029 -3.97125,-10.215536 -5.20226,-15.584304 -1.25811,-5.479918 -1.63674,-7.772937 -2.21157,-13.386595 -0.18135,-1.764269 -0.44406,-4.326298 -0.58599,-5.693848 -0.88893,-8.648187 -1.10646,-11.837335 -1.11294,-16.366584 l -0.01,-3.928498 -1.12671,2.881979 c -0.6201,1.583189 -1.45881,3.687028 -1.86597,4.672438 -0.40545,0.98676 -0.93843,2.404799 -1.18332,3.152339 -0.24498,0.748619 -0.97497,2.534759 -1.62198,3.968368 -0.64593,1.43415 -1.3239,2.961539 -1.50525,3.393539 -0.56943,1.355669 -3.05856,8.932677 -3.69198,11.241266 -0.3321,1.213379 -0.86337,2.938679 -1.17981,3.833188 -1.55421,4.409639 -3.21678,11.128946 -3.66048,14.790145 -0.11367,0.927629 -0.37818,2.923739 -0.58824,4.436638 -0.2115,1.511279 -0.42021,3.131099 -0.46368,3.600269 -0.11997,1.268639 -0.32706,2.815559 -0.53523,3.992488 -0.10134,0.57474 -0.24372,1.842479 -0.31554,2.813489 -0.0693,0.97236 -0.24327,2.268449 -0.38025,2.880449 -0.1368,0.61281 -0.23841,1.12599 -0.22509,1.14012 0.19719,0.211949 5.34492,1.538279 6.49602,1.672469 0.39573,0.0441 1.02771,0.12942 1.40661,0.18324 l 0.68463,0.09576 1.22823,-1.64538 c 1.43379,-1.922489 3.98817,-4.908778 4.96539,-5.806617 1.31751,-1.21203 5.08869,-3.891149 5.47281,-3.891149 0.11106,0 0.59202,-0.26136 1.06929,-0.58203 l 0.86895,-0.582029 0.66168,1.384379 c 0.36467,0.76122 0.66131,1.423619 0.66131,1.469879 0,0.13959 1.70271,4.344479 1.99107,4.917329 1.07127,2.126519 2.82123,4.818958 6.37461,9.809006 2.75697,3.870448 3.03228,4.209658 5.96916,7.359117 0.9369,1.00251 2.12733,2.29302 2.64672,2.8683 0.52074,0.57501 1.47735,1.60056 2.12706,2.27889 1.42803,1.48797 1.42533,1.0782 0.0153,3.96684 -1.9908,4.08015 -3.72087,6.35255 -6.35994,8.35352 -0.64809,0.49104 -1.38438,1.08153 -1.63719,1.31265 -0.25146,0.23094 -0.64485,0.49977 -0.87462,0.59688 -0.22878,0.0939 -0.44775,0.22806 -0.48546,0.28917 -0.0819,0.13815 0.64962,2.46717 1.22445,3.88476 0.38376,0.94419 1.05255,2.86065 1.05255,3.01545 0,0.10485 -0.36855,0.0648 -0.41526,-0.0414 -0.0864,-0.21285 -3.3318,-2.68029 -5.02056,-3.8232 -0.48033,-0.324 -1.17648,-0.81171 -1.54773,-1.08405 -0.96498,-0.70866 -1.04796,-0.71127 -3.3345,-0.11007 -5.16185,1.35936 -6.92522,1.63179 -10.56284,1.63719 -7.73892,0.0117 -12.70224,-2.51613 -15.89652,-8.09955 -1.41714,-2.47769 -0.63738,-7.92962 1.68057,-11.73131 0.1494,-0.24498 0.27234,-0.50805 0.2727,-0.58428 0,-0.2403 -3.92616,-3.74922 -3.99015,-3.56607 -0.0306,0.09 -0.23894,1.15389 -0.45881,2.35647 -1.44756,7.92891 -2.90115,12.22334 -5.26212,15.55262 -1.56078,2.2023 -2.22705,3.09204 -3.04659,4.07835 -2.851651,3.42504 -7.011899,6.19443 -10.782538,7.17948 -1.120049,0.29223 -8.176317,1.32507 -13.508995,1.97685 -1.908269,0.23337 -3.511168,0.45945 -3.562738,0.50175 -0.0495,0.0414 0.950579,0.48303 2.225519,0.98019 1.276199,0.49536 3.645179,1.43028 5.264458,2.07576 1.620449,0.64647 3.800609,1.51497 4.843978,1.9296 2.660939,1.06092 7.445877,3.05676 7.947087,3.31623 0.23013,0.11934 0.44496,0.21708 0.47691,0.21708 0.0306,0 -0.11925,-0.42696 -0.33462,-0.94923 -2.129129,-5.15484 3.577319,-10.84995 10.893419,-10.87101 4.3308,-0.0117 10.50983,1.62477 12.94136,3.4272 2.87793,2.13426 3.52854,6.20271 1.66176,10.42298 l -0.33255,0.7506 0.29475,-0.0792 c 7.99281,-2.22668 14.15052,-2.6144 24.97157,-1.57482 8.48556,0.81585 12.09969,1.51749 18.58922,3.61098 1.11645,0.36054 2.79594,0.87975 3.73239,1.15425 9.18279,2.69154 12.60702,4.01337 15.2379,5.88168 0.81945,0.58383 1.54512,1.06047 1.61091,1.06047 0.0639,0 0.42606,0.28278 0.79965,0.63081 0.37395,0.34614 1.35666,1.19367 2.18547,1.88163 1.67607,1.39419 3.91022,3.65634 5.69519,5.76711 1.39923,1.65609 1.21284,1.59246 1.73169,0.58932 z M 117.72815,86.979376 c -0.67725,-3.277169 -0.27927,-10.370516 0.83718,-14.947375 1.34316,-5.498458 5.31216,-13.491715 8.79372,-17.709203 0.27621,-0.33381 0.50166,-0.64575 0.50166,-0.69255 0,-0.12186 1.51083,-2.353049 1.76805,-2.611439 0.31041,-0.30843 0.49149,-0.12735 0.42462,0.42453 -0.0504,0.42831 0.0891,1.958759 0.42759,4.533568 0.0639,0.50508 0.2403,2.06586 0.3915,3.468959 0.28008,2.620709 0.64764,4.687378 1.3014,7.331757 0.20511,0.82782 0.44064,1.91835 0.52524,2.422619 0.081,0.50373 0.20385,1.18071 0.26649,1.5048 l 0.11529,0.58923 -0.7587,1.177739 c -0.41679,0.64773 -1.07064,1.680209 -1.45305,2.291669 -2.79999,4.483529 -4.60107,6.701038 -6.80562,8.379987 -0.3231,0.24624 -0.97119,0.79641 -1.44072,1.2204 -1.28493,1.168649 -3.67911,2.742569 -4.40523,2.896379 l -0.41319,0.0846 z m 3.26097,-6.065188 c 0.0432,-0.0711 0.38691,-0.33984 0.75924,-0.59058 2.34072,-1.574999 4.27122,-3.913378 6.81579,-8.252907 l 1.00494,-1.710989 -0.60219,-2.608649 c -0.61038,-2.645639 -1.14318,-5.447338 -1.3302,-6.995517 l -0.10377,-0.85113 -0.73845,1.178459 c -0.86148,1.37385 -1.32462,2.28177 -2.61126,5.122258 -2.02023,4.454729 -2.79756,7.358848 -3.25521,12.158816 -0.0729,0.79245 -0.17244,1.720529 -0.21546,2.061809 -0.0702,0.5859 0.063,0.83016 0.27657,0.48843 z m 137.06761,81.202742 c 1.78497,-2.11086 4.01931,-4.37292 5.69475,-5.7672 0.82908,-0.68787 1.81161,-1.5354 2.18574,-1.88154 0.37377,-0.34803 0.73341,-0.6309 0.79875,-0.6309 0.0639,0 0.79263,-0.47664 1.61199,-1.06002 2.6306,-1.86876 6.05483,-3.1905 15.23771,-5.88204 0.93645,-0.27459 2.61603,-0.79371 3.73266,-1.15434 6.48945,-2.09349 10.10366,-2.79513 18.58913,-3.61098 10.82124,-1.03949 16.97876,-0.65186 24.9713,1.57491 l 0.29502,0.0792 -0.33264,-0.7506 c -1.86669,-4.22027 -1.21842,-8.28872 1.6614,-10.42298 2.43126,-1.80252 8.6112,-3.43926 12.94182,-3.42729 7.31555,0.0207 13.02236,5.71626 10.89341,10.87101 -0.21555,0.52227 -0.36675,0.94923 -0.33462,0.94923 0.0306,0 0.24687,-0.0948 0.47709,-0.21699 0.50076,-0.25956 5.2857,-2.25531 7.94691,-3.31623 1.04364,-0.41463 3.22353,-1.28322 4.84371,-1.92969 1.61973,-0.64548 3.98835,-1.58031 5.264,-2.07567 1.27566,-0.49716 2.27691,-0.93618 2.22525,-0.98019 -0.0495,-0.0414 -1.65366,-0.26847 -3.56192,-0.50184 -15.24312,-1.86372 -17.19576,-2.47266 -22.07718,-6.88518 -1.73412,-1.56636 -2.67507,-2.70279 -5.2613,-6.34941 -2.36061,-3.32928 -3.81447,-7.62371 -5.2614,-15.55262 -0.22014,-1.20249 -0.42543,-2.26332 -0.459,-2.35647 -0.0621,-0.18306 -3.99078,3.32577 -3.99006,3.56607 0,0.0738 0.12294,0.33921 0.2727,0.58428 2.31795,3.8016 3.09753,9.25371 1.68039,11.73167 -3.19446,5.58297 -8.15805,8.11161 -15.89643,8.09964 -3.63752,-0.01 -5.40098,-0.27828 -10.56266,-1.63773 -2.28672,-0.6012 -2.36979,-0.59859 -3.33495,0.11016 -0.37116,0.27234 -1.06713,0.76005 -1.54746,1.08396 -1.68876,1.14291 -4.93263,3.61089 -5.02056,3.82329 -0.0441,0.11016 -0.41517,0.14814 -0.41517,0.0414 0,-0.15489 0.6678,-2.07135 1.05264,-3.01554 0.57447,-1.4175 1.30932,-3.74643 1.22427,-3.88476 -0.0369,-0.0594 -0.25749,-0.19197 -0.48537,-0.28908 -0.23058,-0.0938 -0.6237,-0.36603 -0.87471,-0.59697 -0.25308,-0.23049 -0.98919,-0.82152 -1.63719,-1.31247 -2.63934,-2.00115 -4.36977,-4.27355 -6.35984,-8.35352 -1.41039,-2.88873 -1.41192,-2.47896 0.0153,-3.96702 0.64971,-0.67806 1.60685,-1.70379 2.12732,-2.2788 0.51948,-0.57528 1.70991,-1.86588 2.64699,-2.86839 2.93661,-3.149369 3.21219,-3.488579 5.96871,-7.359117 3.55383,-4.989778 5.30361,-7.682397 6.37506,-9.808916 0.28836,-0.57285 1.99089,-4.777829 1.99089,-4.917419 0,-0.045 0.29682,-0.708659 0.6615,-1.469879 l 0.66141,-1.384289 0.8676,0.582029 c 0.47853,0.32076 0.95967,0.58203 1.0701,0.58203 0.38484,0 4.15602,2.679029 5.47316,3.890609 0.97758,0.897929 3.53178,3.884128 4.96566,5.806617 l 1.22823,1.64547 0.68427,-0.09576 c 0.37881,-0.0522 1.01115,-0.13617 1.40679,-0.18324 1.15146,-0.13419 6.29892,-1.46052 6.49611,-1.672469 0.0135,-0.0135 -0.0855,-0.52731 -0.22518,-1.14012 -0.13734,-0.61191 -0.3087,-1.908089 -0.38034,-2.880449 -0.0693,-0.97101 -0.21375,-2.238929 -0.3159,-2.813399 -0.20817,-1.177019 -0.41454,-2.723849 -0.53478,-3.992578 -0.0423,-0.46863 -0.25209,-2.08899 -0.4635,-3.600269 -0.2106,-1.512809 -0.47484,-3.509009 -0.58815,-4.436548 -0.44397,-3.661289 -2.10645,-10.380596 -3.66066,-14.790145 -0.31662,-0.894599 -0.84762,-2.619899 -1.1799,-3.833188 -0.63378,-2.308679 -3.12255,-9.885687 -3.69243,-11.241176 -0.18117,-0.43218 -0.85878,-1.959569 -1.50462,-3.393719 -0.64719,-1.433609 -1.37709,-3.219749 -1.62207,-3.968368 -0.24471,-0.74754 -0.77778,-2.165579 -1.18323,-3.152339 -0.40706,-0.98532 -1.24694,-3.089249 -1.86668,-4.672438 l -1.12653,-2.881979 -0.01,3.928498 c -0.01,4.529339 -0.22419,7.718487 -1.11357,16.366674 -0.1413,1.36746 -0.4041,3.929489 -0.58572,5.693758 -0.57429,5.613838 -0.9531,7.906677 -2.21139,13.386685 -1.23093,5.368678 -3.52782,12.248275 -5.202,15.584214 -0.78435,1.562219 -2.03382,4.421428 -2.75625,6.311428 -0.82044,2.146859 -0.9522,2.427839 -1.61415,3.468778 -0.29853,0.46818 -0.7488,1.17531 -1.00053,1.57203 -0.25353,0.39582 -0.85743,1.473569 -1.34532,2.394629 -1.24335,2.351249 -4.56255,7.024137 -7.16202,10.082606 -0.60074,0.70569 -1.28708,1.530359 -1.52594,1.832489 -1.01583,1.28583 -2.80674,3.10149 -4.7502,4.81491 -1.1448,1.01016 -2.08197,1.89729 -2.08197,1.97316 0,0.0729 0.5508,1.0584 1.22472,2.18556 0.67257,1.12653 1.64025,2.7558 2.14875,3.61935 0.50895,0.86436 1.26792,1.98368 1.68885,2.48831 0.41976,0.50454 0.93924,1.1529 1.15173,1.43982 0.66564,0.89775 1.67507,1.90701 2.4929,2.49309 0.43047,0.30915 0.95814,0.74349 1.16919,0.96516 l 0.38466,0.40356 h -0.38466 c -0.21105,0 -0.54423,-0.081 -0.74196,-0.18729 -0.19629,-0.10278 -0.7848,-0.28296 -1.30832,-0.40356 -0.52416,-0.11916 -1.27674,-0.3267 -1.67256,-0.46215 -0.39582,-0.13554 -0.89685,-0.27639 -1.11276,-0.31248 -2.24361,-0.38772 -9.03852,-2.70909 -12.42225,-4.24602 -1.12905,-0.51336 -0.95616,-0.5436 -2.00376,0.35253 -1.06254,0.90918 -3.40947,2.67966 -5.68422,4.28868 -0.90756,0.64215 -2.06559,1.4805 -2.5722,1.86327 l -0.92106,0.69588 0.50859,0.80919 c 0.28179,0.44559 0.68958,1.10457 0.90504,1.46439 0.21861,0.36009 0.51183,0.79299 0.65556,0.96237 l 0.25776,0.30771 1.08261,-0.97425 c 1.37358,-1.23867 4.24278,-3.63204 4.71204,-3.93354 l 0.35892,-0.22833 0.49158,0.20673 c 0.49374,0.20871 3.68847,1.26396 5.53212,1.82835 1.10034,0.33552 7.25562,2.56968 8.77239,3.18375 0.53955,0.21717 2.39553,0.75861 4.12334,1.20006 1.72854,0.44163 3.90915,1.00305 4.84389,1.2483 2.55492,0.66879 6.70338,1.59948 7.59294,1.70478 0.43191,0.0495 0.93393,0.1494 1.11402,0.21825 0.54036,0.20664 4.61385,0.87057 6.82821,1.11447 2.40696,0.26397 2.4552,0.30312 0.92727,0.76473 -0.6291,0.19161 -1.57428,0.48627 -2.09844,0.65691 -0.52623,0.16875 -1.67454,0.45999 -2.55411,0.64413 -1.90602,0.40275 -3.45708,0.78444 -4.33467,1.06776 -0.72108,0.23445 -4.40064,0.999 -8.12979,1.68813 -1.36854,0.2538 -3.57741,0.75258 -4.9095,1.10934 -3.49514,0.93195 -9.03491,2.12418 -12.43691,2.67561 -8.72406,1.41218 -12.66534,2.63924 -19.41002,6.03854 -4.63212,2.33559 -7.28694,1.07874 -8.30691,-3.92832 -0.84483,-4.14809 1.07523,-7.75853 5.3973,-10.15289 0.68427,-0.37818 1.24173,-0.71271 1.24173,-0.74241 0,-0.21537 -2.04624,-3.58335 -2.17647,-3.58335 -0.0423,0 -0.58842,0.29169 -1.21068,0.65007 -2.21598,1.27584 -5.34807,2.41749 -7.76277,2.82996 -0.74367,0.12663 -1.36386,0.23778 -1.38024,0.24687 -0.0144,0.01 0.0612,0.30816 0.17406,0.66492 0.29898,0.95886 0.17487,2.47923 -0.30807,3.79242 -2.95785,8.03564 -1.56105,15.81938 3.9276,21.89222 1.89351,2.0952 2.77164,3.22029 3.27393,4.19013 0.51885,1.00305 0.33264,1.06677 1.7316,-0.58914 z M 331.5345,87.201496 c -0.5688,-0.17181 -3.22173,-1.98045 -4.15593,-2.834279 -0.46971,-0.4257 -1.11762,-0.97731 -1.44099,-1.22355 -2.20446,-1.678949 -4.00554,-3.896458 -6.8057,-8.379987 -0.38223,-0.61146 -1.0359,-1.643939 -1.45278,-2.291669 l -0.75897,-1.177739 0.11556,-0.58923 c 0.0612,-0.32409 0.1836,-1.00107 0.2664,-1.5048 0.081,-0.504269 0.32031,-1.594799 0.52524,-2.422619 0.65394,-2.644379 1.02141,-4.711048 1.30131,-7.331757 0.15129,-1.403099 0.32742,-2.963879 0.39168,-3.468959 0.33597,-2.574809 0.47943,-4.105258 0.42759,-4.533568 -0.0648,-0.55188 0.11403,-0.73296 0.42471,-0.42453 0.25704,0.25839 1.76804,2.489579 1.76804,2.611439 0,0.0459 0.22527,0.35874 0.50157,0.69255 2.70423,3.276179 6.40035,10.146506 7.94961,14.774574 1.5975,4.776389 2.29797,10.633766 1.88991,15.826134 -0.20151,2.562119 -0.17919,2.508569 -0.94725,2.27799 z m -2.24577,-6.775738 c -0.0414,-0.34128 -0.14049,-1.269359 -0.21573,-2.061809 -0.45756,-4.799968 -1.23462,-7.704087 -3.25485,-12.158816 -1.28682,-2.840488 -1.75005,-3.748408 -2.61162,-5.122258 l -0.738,-1.178459 -0.10413,0.85113 c -0.18666,1.548179 -0.71955,4.349878 -1.3301,6.995517 l -0.60183,2.608649 1.00467,1.710989 c 2.54465,4.339529 4.47488,6.677908 6.81578,8.252907 0.37215,0.25074 0.71307,0.51705 0.75906,0.59058 0.21168,0.34173 0.34965,0.09477 0.27675,-0.48843 z M 190.94807,144.16355 c 0.27999,-0.27972 0.79965,-2.31309 0.79965,-3.12614 0,-1.93392 -1.39446,-3.89592 -3.73031,-5.24862 -1.0674,-0.61803 -1.07703,-0.61308 -1.23444,0.5778 -0.0639,0.50058 -0.30429,1.98675 -0.53055,3.30345 -0.22644,1.31724 -0.39375,2.58362 -0.37197,2.81546 l 0.0387,0.4203 1.13616,0.56277 c 1.67058,0.82818 3.44105,1.14399 3.89006,0.69498 z m 70.32022,-0.0261 c 0.32562,-0.0675 1.09098,-0.37593 1.7019,-0.6786 l 1.10934,-0.55197 0.0387,-0.42039 c 0.0216,-0.23184 -0.14526,-1.49822 -0.37224,-2.81546 -0.2259,-1.31679 -0.46638,-2.80296 -0.53028,-3.30354 -0.15732,-1.19079 -0.16695,-1.19592 -1.23471,-0.57753 -3.08817,1.78812 -4.15917,3.94551 -3.45303,6.95114 0.41643,1.77831 0.5751,1.85904 2.73771,1.39635 z m -92.96988,-6.68825 c 1.25262,-0.75627 3.19158,-2.22669 4.27464,-3.23901 0.66222,-0.61722 1.44153,-1.31319 1.73421,-1.54665 0.54396,-0.43335 1.34667,-1.39149 2.1978,-2.62098 l 0.47754,-0.69039 -0.17793,-0.21636 c -0.0948,-0.12078 -0.91287,-0.86238 -1.81053,-1.64817 l -1.63395,-1.43046 -0.52704,0.0873 c -0.28935,0.0486 -0.67374,0.10035 -0.85356,0.11142 -0.17982,0.0117 -0.35685,0.054 -0.39258,0.0948 -0.0351,0.0405 -0.58689,0.17883 -1.22328,0.3033 -1.10124,0.21762 -2.16018,0.48951 -4.66866,1.20141 -0.61173,0.17487 -1.6731,0.46674 -2.35575,0.65115 -0.68489,0.1845 -2.03975,0.59094 -3.01139,0.90369 -1.79595,0.57816 -7.48341,2.07846 -13.2822,3.50325 -0.81954,0.20178 -0.76923,0.21663 4.51089,1.2816 1.40418,0.28395 3.70143,0.80604 5.1057,1.16082 4.80906,1.21401 9.71927,2.27088 10.98179,2.36025 0.0958,0.01 0.39321,-0.11547 0.6543,-0.27297 z m 115.87955,-0.0342 c 2.04741,-0.34299 5.10723,-1.02915 9.1611,-2.05209 1.40427,-0.35469 3.70124,-0.87669 5.10524,-1.16019 5.28057,-1.06524 5.33061,-1.08027 4.51098,-1.28196 -5.79861,-1.42479 -11.48588,-2.92509 -13.28183,-3.50271 -0.97173,-0.31338 -2.32659,-0.71982 -3.01158,-0.90405 -0.68238,-0.18459 -1.74429,-0.47646 -2.35557,-0.65079 -2.50875,-0.71253 -3.56742,-0.98433 -4.66857,-1.20195 -0.63666,-0.12447 -1.18683,-0.26091 -1.22328,-0.30294 -0.0351,-0.0405 -0.21303,-0.0828 -0.39267,-0.0948 -0.17973,-0.0117 -0.56421,-0.0603 -0.85329,-0.11151 l -0.5274,-0.0873 -1.63359,1.43055 c -0.89838,0.7857 -1.71306,1.52775 -1.81125,1.64808 l -0.17739,0.21627 0.47736,0.69048 c 0.85374,1.233 1.65456,2.18817 2.19996,2.62107 0.29358,0.23346 1.04022,0.89712 1.65852,1.47456 1.41345,1.32021 4.48758,3.60243 4.84047,3.59559 0.0432,0 0.93636,-0.14463 1.98279,-0.32004 z M 129.77852,121.63296 c 2.09331,-0.15858 3.44097,-0.38619 5.97078,-1.00422 l 1.93283,-0.47097 -0.16524,-0.19953 c -0.0873,-0.10998 -1.10718,-0.90585 -2.25962,-1.76895 -2.57274,-1.92807 -2.22426,-1.41471 -2.80872,-4.14827 -0.89676,-4.19994 -1.50363,-5.94954 -2.36466,-6.8094 -2.21526,-2.21607 -5.16483,-1.60623 -8.3736,1.73106 l -0.59193,0.61578 -1.11294,-0.73629 c -1.62468,-1.07622 -3.53673,-2.26386 -3.64041,-2.26152 -0.64755,0.0108 -1.98864,4.79412 -1.98864,7.09263 v 1.05957 l 0.40932,0.66797 c 2.42478,3.95262 5.65875,5.83146 10.71837,6.22854 1.8675,0.14661 2.39571,0.14697 4.27446,0.01 z m 196.42087,-0.2034 c 3.99015,-0.61416 6.87915,-2.54574 9.0162,-6.02874 l 0.40968,-0.66797 v -1.05957 c 0,-2.29851 -1.34136,-7.08183 -1.98909,-7.09263 -0.10368,0 -2.01546,1.1853 -3.64041,2.26152 l -1.11267,0.73629 -0.59211,-0.61578 c -3.20877,-3.33729 -6.15825,-3.94713 -8.37341,-1.73106 -0.86103,0.85986 -1.46799,2.60946 -2.36484,6.8094 -0.58455,2.73356 -0.23625,2.2202 -2.80881,4.14827 -1.15218,0.8631 -2.16864,1.65897 -2.25963,1.76895 l -0.16506,0.19953 1.93257,0.47124 c 4.56048,1.11546 8.2853,1.36404 11.94758,0.80055 z m -142.02435,-3.06891 c 0.60075,-0.93528 1.76265,-2.74707 2.58147,-4.02632 0.81972,-1.27764 1.92114,-2.97144 2.44799,-3.76281 0.52794,-0.79119 1.26738,-2.02941 1.64376,-2.74905 0.77751,-1.4859 1.9035,-3.0762 2.1789,-3.0762 0.32229,0 1.88865,0.93015 3.10644,1.84545 2.5182,1.89207 10.15893,6.03099 14.40072,7.7994 0.43209,0.18054 1.58058,0.72702 2.55357,1.21544 2.76002,1.38636 5.2298,2.42028 5.39333,2.25873 0.0882,-0.0882 0.11529,-0.80559 0.0693,-2.08026 -0.15228,-4.48775 -1.65294,-7.43354 -7.82315,-15.35975 -1.54719,-1.987829 -2.58381,-3.358618 -4.33449,-5.730837 -2.25756,-3.059729 -5.3793,-4.873588 -8.38332,-4.872598 -2.48121,0 -3.89628,0.389699 -15.82136,4.360408 -4.21119,1.402019 -8.30682,2.725469 -9.0981,2.941109 -2.74104,0.74385 -3.81285,1.047419 -7.44579,2.102849 -2.00601,0.58455 -3.93497,1.168199 -4.28516,1.299239 l -0.63729,0.23877 0.94761,0.92808 c 0.78939,0.77355 2.48597,2.21778 4.78916,4.07439 0.2403,0.19413 0.48825,0.44748 0.55017,0.56268 0.15012,0.28188 -0.89685,2.71575 -1.79757,4.17681 -0.37773,0.61317 -1.02231,1.67238 -1.43199,2.35656 -0.4113,0.68391 -0.80919,1.32354 -0.88506,1.42308 -0.0738,0.0948 -0.20673,0.37764 -0.29132,0.62091 l -0.15192,0.44315 h 0.28286 c 0.15552,0 0.4077,-0.0837 0.56007,-0.19403 0.34434,-0.24165 4.04073,-1.70694 4.63311,-1.83699 0.56448,-0.12348 2.59101,-1.07163 3.59154,-1.68093 1.0053,-0.61029 0.96354,-0.61677 1.90908,0.3087 0.44181,0.43155 1.04688,0.97641 1.34532,1.2069 0.70677,0.54981 2.32002,1.97865 3.81051,3.37562 0.65394,0.61137 1.65888,1.4643 2.23299,1.89558 0.57429,0.4311 1.27647,0.97605 1.55925,1.21131 0.68211,0.56592 0.55944,0.65349 1.79685,-1.27539 z m 83.44824,1.27539 c 0.28269,-0.23526 0.98486,-0.78021 1.55888,-1.21131 0.57438,-0.43128 1.57941,-1.28421 2.23281,-1.89558 1.49103,-1.39697 3.10392,-2.82581 3.81096,-3.37562 0.29826,-0.23049 0.9036,-0.77535 1.34541,-1.2069 0.94554,-0.92547 0.90369,-0.91899 1.9089,-0.3087 1.00026,0.6093 3.02724,1.55745 3.59154,1.68093 0.59211,0.13005 4.28859,1.59534 4.63293,1.83699 0.15264,0.107 0.40455,0.19403 0.56016,0.19403 h 0.28305 l -0.15192,-0.44315 c -0.081,-0.24327 -0.21519,-0.52308 -0.29151,-0.62091 -0.0738,-0.0948 -0.47349,-0.73917 -0.88524,-1.42308 -0.40968,-0.68418 -1.05444,-1.74339 -1.43154,-2.35656 -0.90081,-1.46106 -1.94769,-3.89493 -1.79766,-4.17681 0.0603,-0.1152 0.30996,-0.36855 0.54981,-0.56268 2.30337,-1.85661 4.00014,-3.30084 4.78962,-4.07439 l 0.94761,-0.92808 -0.63729,-0.23877 c -0.35019,-0.13104 -2.27961,-0.714689 -4.2858,-1.299239 -3.63231,-1.05543 -4.70421,-1.358999 -7.44516,-2.102849 -0.79146,-0.21564 -4.88709,-1.53909 -9.09854,-2.941109 -11.92455,-3.970709 -13.33989,-4.359598 -15.82128,-4.360408 -3.00429,0 -6.1254,1.812869 -8.38287,4.872598 -1.75076,2.372219 -2.78774,3.743008 -4.33475,5.730837 -6.17049,7.92621 -7.6707,10.872 -7.82298,15.35975 -0.0414,1.27467 -0.0171,1.98837 0.0702,2.08026 0.16335,0.16155 2.63349,-0.87237 5.39334,-2.25873 0.97299,-0.48842 2.12121,-1.0349 2.5533,-1.21544 4.24205,-1.76841 11.88287,-5.90733 14.40071,-7.7994 1.21806,-0.9153 2.78451,-1.84545 3.10626,-1.84545 0.27585,0 1.4022,1.5903 2.17917,3.0762 0.37656,0.71964 1.11654,1.95786 1.64403,2.74905 0.52668,0.79137 1.62783,2.48517 2.44755,3.76281 0.81927,1.27925 1.98108,3.09104 2.58192,4.02632 1.23732,1.92888 1.11438,1.84131 1.79685,1.27539 z m -125.32109,-0.39078 c -0.0432,-0.23499 -0.15507,-0.54369 -0.24417,-0.68823 -1.02699,-1.66941 -1.64538,-6.26903 -1.11924,-8.32571 0.76833,-3.00213 2.03598,-4.41603 6.20424,-6.91668 l 0.49428,-0.29691 -0.98928,-1.06713 c -1.04562,-1.12707 -2.46366,-2.973689 -4.68459,-6.106858 l -1.34577,-1.898189 -1.76319,-0.0792 c -0.97083,-0.0432 -2.35368,-0.14571 -3.07394,-0.22275 -0.71937,-0.0747 -1.92771,-0.10521 -2.68308,-0.063 -1.44666,0.0765 -6.85296,-0.3249 -9.09873,-0.67869 -0.64836,-0.10197 -2.00376,-0.306809 -3.0114,-0.455219 -4.72365,-0.6948 -8.92044,-1.63026 -10.81359,-2.41065 -3.06386,-1.260269 -3.88304,-1.672199 -4.92344,-2.473109 -2.87721,-2.212559 -4.21767,-5.239798 -3.72447,-8.400866 0.17118,-1.09548 0.21528,-1.03743 -0.57672,-0.73782 -2.991511,1.131569 -7.442549,1.00458 -11.309937,-0.31887 -0.94158,-0.32238 -1.74411,-0.5868 -1.78389,-0.5868 -0.0387,0 0.24246,0.45387 0.62397,1.00692 0.7398,1.072439 0.47403,0.85599 6.150688,5.015608 2.359259,1.726739 4.431778,3.448709 6.822359,5.663788 2.64609,2.451869 5.78277,5.202808 7.47873,6.558567 2.13515,1.70595 6.75062,5.781598 6.75548,5.963218 0.01,0.22572 2.58984,2.32578 3.63015,2.952 l 1.2096,0.72729 1.21293,-0.83637 c 5.72229,-3.94623 11.2725,-1.91178 12.98511,4.76262 1.0665,4.15323 1.54259,5.69691 1.81871,5.89004 1.00467,0.70452 2.70054,2.04102 3.82104,3.0105 1.8144,1.57194 2.07459,1.7091 1.93815,1.01592 z m 165.74151,0.27351 c 0.15678,-0.0801 0.87372,-0.66321 1.59345,-1.28799 1.12014,-0.97029 2.81178,-2.30427 3.82113,-3.01203 0.27585,-0.19322 0.75195,-1.73681 1.81881,-5.89004 1.71261,-6.6744 7.2629,-8.70885 12.98501,-4.76262 l 1.21275,0.83637 1.20996,-0.72729 c 1.03995,-0.62622 3.62385,-2.72628 3.62997,-2.952 0.01,-0.18171 4.62024,-4.257268 6.75558,-5.963128 1.69605,-1.355939 4.83273,-4.106788 7.47863,-6.558567 2.39067,-2.215529 4.46292,-3.937049 6.82254,-5.664148 5.6763,-4.159348 5.4108,-3.942809 6.15033,-5.015428 0.38187,-0.55296 0.66303,-1.00683 0.62415,-1.00683 -0.0387,0 -0.84222,0.26379 -1.7838,0.5868 -3.86739,1.32309 -8.3187,1.450169 -11.31003,0.31887 -0.79191,-0.29961 -0.74781,-0.35757 -0.57681,0.73764 0.49302,3.161338 -0.84725,6.188487 -3.72419,8.401046 -1.0404,0.80064 -1.85967,1.21284 -4.92381,2.472929 -1.89297,0.78057 -6.08967,1.7154 -10.81359,2.41083 -1.00746,0.14841 -2.36286,0.352979 -3.0114,0.455309 -2.24568,0.3537 -7.65197,0.75645 -9.09881,0.6786 -0.75501,-0.0396 -1.96335,-0.0117 -2.68299,0.063 -0.72,0.0747 -2.10294,0.17604 -3.07377,0.22212 l -1.7631,0.0792 -1.34577,1.898189 c -2.22102,3.133169 -3.63897,4.979788 -4.68486,6.106858 l -0.9891,1.06713 0.49446,0.29628 c 4.16808,2.50119 5.43555,3.91518 6.20415,6.91731 0.52605,2.05659 -0.0891,6.65621 -1.11951,8.32571 -0.17748,0.28989 -0.36909,1.11402 -0.25704,1.11402 0.0378,0 0.19953,-0.0657 0.35766,-0.15228 z M 145.68421,118.0884 c 1.33983,-0.71667 6.1623,-6.06959 7.03359,-7.80938 0.70272,-1.39734 0.7866,-1.16811 -1.13661,-3.08691 l -1.67751,-1.67418 -0.68526,0.43218 c -3.49425,2.19969 -4.29768,2.8809 -4.90158,4.15314 -0.80127,1.68876 -0.51354,4.60206 0.75645,7.64207 0.22482,0.53757 0.23688,0.54405 0.61092,0.34308 z m 159.65778,-1.56789 c 1.82745,-5.43977 1.17,-6.96365 -4.55922,-10.5704 l -0.68517,-0.43218 -1.67778,1.67418 c -1.92294,1.9188 -1.83933,1.68957 -1.13616,3.08691 1.04877,2.09232 6.66594,8.10836 7.37928,7.90505 0.0693,-0.0189 0.37746,-0.7686 0.67905,-1.66356 z M 137.79346,90.132074 c 0.51138,-0.10305 0.50958,-0.147959 -0.027,-0.707669 -0.87597,-0.91107 -2.24135,-3.454109 -3.24188,-6.039898 -0.37305,-0.96021 -0.69498,-1.766699 -0.71658,-1.791449 -0.0657,-0.0774 -2.31417,1.509479 -3.15459,2.232089 -1.27179,1.094039 -5.15799,5.638048 -4.97655,5.819038 0.0369,0.0369 1.09008,0.12708 2.33685,0.19998 1.24785,0.0693 3.00555,0.17397 3.90564,0.228689 2.15199,0.12969 5.35886,0.16299 5.87456,0.0567 z m 180.0921,-0.0522 c 1.15281,-0.0666 3.05649,-0.178829 4.23242,-0.244799 1.1754,-0.0639 2.16882,-0.14994 2.20662,-0.18819 0.18144,-0.18135 -3.70322,-4.724189 -4.97618,-5.819398 -0.84042,-0.72261 -3.08709,-2.311919 -3.15459,-2.231999 -0.0216,0.0243 -0.34353,0.831149 -0.71667,1.791359 -1.00044,2.585879 -2.36583,5.128828 -3.2418,6.039898 -0.51597,0.53775 -0.53325,0.621629 -0.14184,0.697409 0.55233,0.10557 3.69279,0.0801 5.79204,-0.0423 z M 48.459588,127.17813 c -0.72054,-0.25821 -2.458439,-0.84024 -3.862168,-1.29357 -1.40382,-0.45333 -4.025969,-1.3248 -5.826058,-1.93743 -4.425479,-1.50561 -14.525365,-4.39011 -18.440363,-5.26689 -1.08954,-0.24381 -2.541419,-0.64746 -3.226139,-0.89685 -0.68499,-0.24858 -1.420109,-0.49293 -1.637009,-0.54297 -0.21519,-0.0486 -1.42542,-0.49221 -2.687849,-0.98199 -1.26153,-0.48924 -3.2361292,-1.15298 -4.3847087,-1.47644 -2.4008391,-0.67221 -5.1733781,-1.49175 -7.0650874,-2.08737 l -1.31048946,-0.41193 1.04723956,-0.0882 c 0.5774398,-0.0486 4.0231785,-0.12582 7.6590872,-0.16686 10.9244658,-0.12771 10.7320458,-0.11088 14.6153648,-1.33227 3.738418,-1.17747 6.068967,-2.41425 6.068967,-3.22101 0,-0.73863 -1.944899,-3.32316 -3.302818,-4.38939 -3.079799,-2.41695 -8.730087,-5.537068 -12.275636,-6.779518 -1.939409,-0.68058 -8.5078766,-3.896998 -8.2645167,-4.047388 0.0801,-0.0495 0.8416797,-0.054 1.6873194,-0.0117 4.3652683,0.2286 14.1236043,0.30204 15.7415343,0.11556 7.016307,-0.80469 9.730346,-2.08827 15.110184,-7.149328 5.048098,-4.748128 5.942608,-6.460197 8.263347,-15.817854 0.58248,-2.345939 1.14093,-3.893848 2.618099,-7.258407 3.651119,-8.312667 0.38556,-15.649464 -9.757976,-21.922732 -0.97236,-0.601199 -2.384549,-1.538369 -3.139919,-2.084849 -1.30158,-0.94149 -4.767208,-3.025889 -5.031268,-3.025889 -0.0657,0 -0.59841,-0.22986 -1.18008,-0.5085 -1.366739,-0.657989 -2.104379,-0.988829 -2.899259,-1.302479 -0.35541,-0.13968 -1.293749,-0.56205 -2.084939,-0.93789 -0.79173,-0.3771 -1.645739,-0.774809 -1.898189,-0.883349 -0.7506,-0.32994 -0.26136,-0.32274 0.989999,0.0135 3.642119,0.975779 4.813649,1.315619 6.565228,1.902869 1.06506,0.35757 2.201489,0.71937 2.525759,0.80388 0.32256,0.0819 1.884149,0.669869 3.467879,1.302479 9.191246,3.665339 18.365303,6.826948 21.798981,7.512747 4.714019,0.94113 10.140027,0.67662 11.676416,-0.56637 l 0.29052,-0.235169 -0.3726,-0.92754 c -0.5004,-1.24326 -2.101859,-3.360689 -4.061428,-5.368138 -1.57869,-1.619639 -1.93347,-1.915019 -4.326749,-3.621329 -0.7083,-0.503729 -1.588139,-1.183499 -1.955069,-1.509929 -0.60363,-0.53604 -1.983689,-1.40256 -4.785748,-3.006179 -0.54027,-0.30942 -1.33587,-0.80856 -1.76787,-1.11195 -0.431459,-0.301499 -1.502459,-0.971279 -2.380049,-1.484459 -0.876509,-0.5157 -2.113289,-1.361789 -2.749229,-1.880999 -0.634949,-0.51858 -1.473029,-1.16775 -1.863269,-1.44054 -0.39069,-0.27279 -0.65844,-0.49788 -0.59634,-0.49788 0.58662,0 9.078837,2.604869 11.058116,3.392819 3.338009,1.32795 5.855128,1.986209 8.508777,2.230829 6.513837,0.59634 13.420345,0.0225 20.286442,-1.686509 0.83106,-0.20673 2.012399,-0.47439 2.624579,-0.59472 6.040348,-1.186199 10.886486,-3.300119 15.333567,-6.691857 0.89118,-0.68013 2.07531,-1.57347 2.63187,-1.98567 4.52843,-3.364918 5.489,-4.140088 6.33617,-5.117578 0.49626,-0.569429 1.10637,-1.1597392 1.35837,-1.3117491 0.25236,-0.15057 1.01772,-0.8129697 1.70163,-1.4691595 0.68409,-0.6551997 1.3959,-1.3019395 1.58085,-1.4341494 l 0.33642,-0.2412899 -0.36297,0.7638297 c -0.69093,1.4491794 -3.00051,4.7703582 -6.52887,9.3835762 -3.03776,3.972149 -5.36822,6.411418 -13.00202,13.609975 -2.753189,2.595779 -3.639329,3.709979 -7.726767,9.716126 -2.694419,3.957569 -3.582449,8.183067 -2.638709,12.548246 1.659239,7.669527 3.033718,10.604426 7.293777,15.573414 1.469879,1.714679 3.023009,3.719428 2.943089,3.800878 -0.13941,0.13941 -6.007498,-2.381579 -6.561718,-2.818619 -0.0756,-0.0594 -0.37674,-0.185939 -0.66456,-0.278639 -0.288449,-0.0891 -0.848609,-0.3321 -1.244249,-0.53208 -0.39591,-0.20061 -1.1655,-0.48366 -1.710809,-0.62892 -1.04499,-0.27918 -1.92096,-0.63711 -4.901039,-2.003849 -1.007729,-0.4626 -2.185649,-0.97848 -2.617649,-1.1484 -0.432359,-0.16812 -2.300129,-0.946529 -4.152958,-1.726829 -5.919658,-2.495699 -6.796707,-2.607479 -10.001696,-1.27431 -3.831389,1.59489 -7.585197,6.748198 -9.477447,13.011835 -1.394999,4.617719 -2.414519,8.585907 -2.578499,10.027347 l -0.0657,0.601019 0.81648,0.96993 c 0.85383,1.01187 0.89523,1.05498 2.485349,2.459519 0.54009,0.47646 1.39392,1.25163 1.898909,1.721699 0.50517,0.47214 1.62351,1.43892 2.487869,2.15118 0.86355,0.711809 1.95507,1.652759 2.42469,2.089979 1.681019,1.567349 3.972328,3.361859 4.068718,3.187619 0.0495,-0.0891 0.36081,-1.34514 0.6903,-2.784959 0.32967,-1.44027 0.741419,-3.088889 0.912239,-3.665789 0.17172,-0.57672 0.44226,-1.665359 0.60093,-2.422079 0.15849,-0.75591 0.40059,-1.758059 0.53694,-2.225789 0.61911,-2.125889 1.726739,-8.155977 1.898099,-10.342706 0.0468,-0.61128 0.11664,-1.28997 0.15084,-1.50516 0.0342,-0.21528 0.09288,-2.307419 0.13752,-4.647598 l 0.072,-4.254928 0.15849,0.720449 c 0.0837,0.39546 0.25884,1.25028 0.3789,1.89765 0.44262,2.361599 2.691269,9.245246 3.622409,11.087725 1.234709,2.44341 3.576868,6.110998 4.971598,7.781758 2.358089,2.824018 7.119447,7.187307 9.812966,8.990546 0.5391,0.36045 1.187639,0.8388 1.439189,1.06119 0.252,0.22284 1.21167,0.927629 2.13246,1.568069 1.948589,1.355309 1.979549,1.421369 0.368279,0.79848 -1.754009,-0.67842 -4.158988,-1.33452 -5.752617,-1.57347 -0.76842,-0.11367 -1.86606,-0.303659 -2.441879,-0.421379 -0.74196,-0.15039 -1.74222,-0.21285 -3.423059,-0.21276 l -2.376539,9e-5 -0.63567,0.3267 c -0.34929,0.180359 -0.76554,0.522359 -0.927,0.759509 -0.845009,1.25496 -3.792238,12.234959 -3.663898,13.651379 0.2808,3.09248 3.320908,3.54482 9.061556,1.34829 1.00791,-0.38502 2.214719,-0.82809 2.683619,-0.98424 0.46818,-0.1557 1.55808,-0.62307 2.421089,-1.03743 0.86463,-0.41571 1.77795,-0.83295 2.03031,-0.92565 0.543059,-0.20205 1.178009,-0.47475 2.421899,-1.04265 1.129049,-0.51642 3.766858,-1.58355 3.804748,-1.53999 0.0144,0.0162 -0.44379,0.7389 -1.020059,1.6029 -1.16469,1.74744 -1.65537,2.55744 -2.655269,4.38588 -4.489739,8.21141 -11.596406,11.72105 -21.618172,10.67678 -2.158379,-0.22464 -5.952958,-0.4392 -9.464757,-0.53262 -1.400759,-0.036 -2.566799,-0.0873 -2.593889,-0.11835 -0.0504,-0.0504 1.07748,-3.78828 1.94247,-6.42564 1.066229,-3.24908 2.008079,-6.57134 2.144069,-7.5545 l 0.0819,-0.61659 -0.81945,-0.62757 c -0.45063,-0.34515 -1.647089,-1.33578 -2.658779,-2.2023 -1.01115,-0.86751 -2.368619,-2.01645 -3.016349,-2.55294 -1.561409,-1.29474 -5.456248,-4.631849 -6.967437,-5.968619 -0.66312,-0.586979 -1.708199,-1.399499 -2.321279,-1.808819 l -1.11375,-0.74169 -0.46332,0.31491 c -0.25506,0.17343 -0.913679,0.79857 -1.460339,1.38762 -1.3419,1.443959 -3.628799,3.390658 -5.183548,4.414318 -0.70299,0.46107 -1.27602,0.88308 -1.27584,0.93447 0,0.0513 0.11385,0.78696 0.25281,1.62927 0.77778,4.6845 0.65727,7.72272 -0.45036,11.20868 -0.286649,0.9081 -0.315989,1.125 -0.17649,1.30824 0.88614,1.1583 5.025149,5.37471 6.834328,6.96429 0.82422,0.72306 1.594619,1.46088 1.710539,1.63971 0.11736,0.17838 0.56502,0.73269 0.99522,1.23255 1.083689,1.25874 1.116629,1.23183 -0.72306,0.57384 z m 32.009298,-5.74137 c 3.112919,-0.5427 5.241148,-1.66941 8.160207,-4.31856 1.598309,-1.45116 1.884059,-1.98395 0.7758,-1.44594 -9.497247,4.61898 -16.660164,2.99619 -16.660164,-3.77297 v -1.18053 l 0.98991,-3.99978 c 2.654459,-10.724128 3.688558,-12.281217 8.337686,-12.537087 0.77409,-0.0414 1.40832,-0.10899 1.40832,-0.14589 0,-0.0369 -0.78255,-0.86967 -1.738889,-1.846349 -2.42343,-2.477159 -3.514139,-3.831479 -5.565058,-6.907768 -1.41147,-2.117339 -1.80387,-2.625209 -1.90035,-2.455289 -0.11727,0.21321 -0.388529,1.34307 -0.811439,3.396959 -0.32643,1.582199 -1.09746,4.735078 -1.39284,5.694478 -0.1431,0.468 -0.46296,1.764359 -0.70992,2.880629 -0.387809,1.755449 -1.888469,7.384227 -2.132639,8.003067 -0.0657,0.17298 -0.37593,-0.01 -1.590389,-0.94752 -0.8289,-0.63756 -1.623329,-1.21536 -1.767689,-1.28295 -0.1449,-0.0639 -0.94563,-0.698399 -1.78164,-1.408319 -2.233799,-1.893059 -3.330179,-2.783339 -4.501438,-3.653369 -0.57555,-0.427049 -2.284469,-1.956869 -3.796379,-3.400198 -1.513079,-1.44342 -3.074578,-2.875769 -3.470218,-3.184199 -0.39636,-0.3078 -1.20825,-1.00881 -1.80522,-1.554929 l -1.085309,-0.99243 0.0639,-0.9945 c 0.14319,-2.151809 0.61407,-4.171318 1.777679,-7.604187 0.49806,-1.475729 1.17945,-3.566879 1.51182,-4.647778 2.327219,-7.569357 6.996327,-13.397395 12.114175,-15.124854 3.717539,-1.25523 5.354548,-1.06029 10.941116,1.300049 1.872179,0.79119 3.988888,1.670849 4.703398,1.957139 0.7137,0.28584 2.035169,0.85347 2.935259,1.26441 2.929319,1.333439 3.960178,1.777049 4.010038,1.727639 0.0261,-0.0261 -0.24552,-0.59337 -0.607679,-1.256219 -0.9432,-1.73925 -2.17683,-5.774488 -3.131819,-10.256216 -0.38232,-1.7955 -0.38178,-5.012909 0,-6.998758 0.71811,-3.721498 1.439369,-5.154298 5.421778,-10.774886 0.58635,-0.828089 1.416329,-1.999079 1.843289,-2.601269 0.97686,-1.382219 2.874509,-3.381568 5.415928,-5.706448 1.08819,-0.995039 1.957949,-1.829609 1.933019,-1.855169 -0.0243,-0.0243 -0.627209,0.19197 -1.337129,0.48132 -1.47015,0.60129 -4.808518,1.627829 -6.938458,2.135069 -10.979725,2.610449 -16.816043,3.313979 -23.543091,2.837789 -2.803499,-0.1971 -2.731859,-0.24705 -1.236509,0.8541 0.66798,0.4914 1.828349,1.515869 2.578859,2.276009 8.614437,8.727117 7.068147,13.287505 -4.505758,13.289935 l -2.880809,6.3e-4 -2.30193,-0.48708 c -2.768848,-0.58752 -6.101457,-1.549889 -8.476646,-2.448359 -0.95868,-0.36315 -1.7784,-0.65997 -1.82259,-0.65997 -0.0414,0 0.39528,0.48627 0.97443,1.08009 2.925089,3.000869 4.769188,7.508247 4.780348,11.684065 0.0099,2.850299 -0.28125,4.003199 -2.055689,8.186397 -1.34262,3.164489 -1.765349,4.359869 -2.220479,6.280018 -2.215979,9.349736 -3.616739,12.038035 -8.821797,16.933044 -6.275967,5.901117 -9.765536,7.526787 -17.823953,8.304116 l -2.422709,0.23409 1.108439,0.57033 c 6.829648,3.519629 10.912676,7.608508 11.209136,11.227318 l 0.081,1.02402 -0.43965,0.65124 c -1.455119,2.15001 -7.242297,4.75119 -12.243685,5.50206 -0.6921,0.10386 -1.28286,0.21276 -1.31301,0.2439 -0.0288,0.0288 0.64017,0.21356 1.4904,0.40814 3.504508,0.80397 16.804343,4.47318 17.254793,4.76064 0.0693,0.0441 0.38106,0.14904 0.68751,0.22842 l 0.55485,0.14364 -0.43569,-0.53595 c -0.23796,-0.29475 -0.74565,-0.91818 -1.12509,-1.38654 -0.380609,-0.46791 -0.828899,-1.14147 -0.996929,-1.49526 l -0.30465,-0.64422 0.20367,-0.46854 c 0.36459,-0.83115 0.930329,-2.66678 1.144529,-3.70304 0.43245,-2.10204 0.09279,-7.21719 -0.618389,-9.39933 -0.10665,-0.32319 -0.22806,-0.74574 -0.27189,-0.93654 -0.0423,-0.19143 -0.11367,-0.43488 -0.15426,-0.54234 -0.0504,-0.13437 0.17802,-0.34443 0.75249,-0.68985 2.396429,-1.438739 5.663967,-4.133248 7.589427,-6.256887 1.274039,-1.40625 3.461128,-3.617189 3.577318,-3.617189 0.0297,0 0.30807,0.23787 0.61812,0.531 0.30942,0.29322 1.24083,1.04067 2.068289,1.662119 0.82746,0.621 1.91691,1.49157 2.421179,1.93473 0.50436,0.442889 1.59417,1.326239 2.422709,1.963619 0.82755,0.63819 1.9179,1.551149 2.42253,2.028869 0.502469,0.477 1.975949,1.755359 3.271678,2.839409 1.29528,1.08369 2.865419,2.40426 3.487679,2.93454 0.62064,0.53019 1.613699,1.3455 2.204729,1.81143 1.22868,0.97002 1.48545,1.28394 1.70028,2.08143 l 0.154439,0.57114 -0.541979,1.84986 c -0.29934,1.01727 -0.63081,2.11572 -0.73746,2.43909 -0.15795,0.4815 -0.81261,2.69981 -2.053619,6.96689 -0.18639,0.6399 -0.43119,0.57807 2.986469,0.75555 1.656719,0.0828 3.777388,0.23652 4.713118,0.33282 2.116799,0.22077 5.589808,0.15399 7.266057,-0.13779 z m 319.567834,6.15843 c 0,-0.0432 0.35217,-0.49113 0.78165,-0.99081 0.4301,-0.49986 0.87776,-1.05408 0.99539,-1.23255 0.1161,-0.17883 0.88641,-0.91656 1.71036,-1.63971 1.80936,-1.58958 5.94837,-5.80599 6.8346,-6.96429 0.13959,-0.18324 0.11016,-0.40023 -0.17676,-1.30833 -1.10736,-3.48578 -1.22823,-6.52409 -0.45027,-11.20859 0.13905,-0.84231 0.25281,-1.57581 0.25299,-1.62927 0,-0.0513 -0.57294,-0.47331 -1.27575,-0.93438 -1.5552,-1.02375 -3.84183,-2.970449 -5.18382,-4.414408 -0.54675,-0.58905 -1.20519,-1.2141 -1.46034,-1.38762 l -0.46341,-0.31491 -1.11347,0.74178 c -0.61353,0.40932 -1.65807,1.22175 -2.32128,1.808639 -1.51146,1.33686 -5.40603,4.673969 -6.96744,5.968619 -0.64773,0.53649 -2.00511,1.68561 -3.01662,2.55303 -1.01178,0.86643 -2.20788,1.85715 -2.6586,2.2023 l -0.81927,0.62757 0.0819,0.61632 c 0.13635,0.98334 1.0782,4.3056 2.1447,7.55468 0.86499,2.63745 1.99404,6.37452 1.94202,6.42573 -0.0261,0.0261 -1.19304,0.0774 -2.59371,0.11835 -3.51189,0.0909 -7.3062,0.30798 -9.46485,0.53262 -10.0214,1.04427 -17.12834,-2.46546 -21.61826,-10.67678 -0.99945,-1.82844 -1.49013,-2.63844 -2.655,-4.38588 -0.57609,-0.864 -1.03464,-1.58526 -1.01979,-1.6029 0.0369,-0.0414 2.67552,1.02357 3.80448,1.53999 1.24398,0.5679 1.87893,0.84069 2.42208,1.04274 0.25209,0.09 1.16541,0.50976 2.03004,0.92538 0.86301,0.41454 1.95309,0.88191 2.42127,1.03761 0.4689,0.15615 1.67544,0.59922 2.68371,0.98433 5.74038,2.19653 8.78049,1.7441 9.06156,-1.34829 0.12825,-1.41633 -2.8188,-12.396509 -3.6639,-13.651469 -0.16164,-0.23706 -0.57789,-0.57915 -0.92709,-0.759419 l -0.63585,-0.32679 -2.37627,-9e-5 c -1.6812,-9e-5 -2.68092,0.0603 -3.42342,0.21285 -0.57537,0.11763 -1.67319,0.307709 -2.44152,0.421019 -1.5939,0.23922 -3.99861,0.89532 -5.75298,1.57374 -1.61091,0.622889 -1.57995,0.556829 0.36855,-0.79839 0.92088,-0.64044 1.88019,-1.345319 2.13255,-1.568069 0.25137,-0.22248 0.90009,-0.7011 1.43919,-1.06119 2.63169,-1.762829 7.30386,-6.021628 9.59193,-8.744217 1.6191,-1.926179 3.86433,-5.396308 5.19255,-8.028087 0.93123,-1.842929 3.17978,-8.726126 3.6224,-11.087725 0.12024,-0.64746 0.29169,-1.50228 0.37899,-1.89765 l 0.15849,-0.720539 0.072,4.255018 c 0.0396,2.340089 0.10341,4.432228 0.13743,4.647598 0.0342,0.2151 0.10206,0.89379 0.1512,1.50507 0.17109,2.186729 1.27881,8.216817 1.89819,10.342796 0.13599,0.46764 0.37827,1.469789 0.5364,2.225699 0.15894,0.75672 0.42921,1.845359 0.60129,2.422079 0.17082,0.57681 0.58248,2.225519 0.91215,3.665789 0.3294,1.439819 0.64098,2.693339 0.69048,2.784869 0.0929,0.17433 2.38734,-1.62009 4.06872,-3.187529 0.46926,-0.43722 1.56096,-1.37817 2.42442,-2.089979 0.86409,-0.71226 1.98297,-1.67904 2.48814,-2.15118 0.50481,-0.470069 1.35882,-1.245239 1.89846,-1.721609 1.59039,-1.404629 1.63179,-1.447739 2.48571,-2.459609 l 0.8163,-0.97002 -0.0657,-0.600929 c -0.24048,-2.11851 -2.53782,-10.388606 -3.66147,-13.169605 -0.77463,-1.92303 -3.88008,-6.626968 -5.15457,-7.811187 -1.40382,-1.3032 -3.41559,-2.29266 -5.54067,-2.726459 -1.9836,-0.40428 -2.36394,-0.30825 -7.70085,1.942379 -1.85282,0.78039 -3.72068,1.558709 -4.15304,1.726829 -0.43182,0.16992 -1.6092,0.68589 -2.61747,1.14858 -2.9799,1.367009 -3.85587,1.724489 -4.90095,2.003669 -0.54531,0.1449 -1.3149,0.42831 -1.71072,0.62892 -0.39555,0.19998 -0.95571,0.43983 -1.24416,0.53208 -0.288,0.0891 -0.58671,0.217259 -0.66474,0.278639 -0.55431,0.43695 -6.42249,2.958119 -6.56172,2.818619 -0.0774,-0.0774 1.47303,-2.086199 2.94291,-3.800878 4.26033,-4.968988 5.6349,-7.903797 7.29396,-15.573414 0.94383,-4.365089 0.0531,-8.590677 -2.63844,-12.548246 -4.08123,-5.997417 -4.96476,-7.107207 -7.72884,-9.716126 -7.68203,-7.250577 -9.96272,-9.638186 -13.00004,-13.609975 -3.52845,-4.613218 -5.83812,-7.9343968 -6.52914,-9.3835762 l -0.36288,-0.7638297 0.33624,0.2412899 c 0.18522,0.1322099 0.89676,0.7784997 1.58112,1.4341494 0.68373,0.6561898 1.44927,1.3185895 1.70154,1.4691595 0.252,0.1520099 0.86211,0.7424101 1.35855,1.3117491 0.8469,0.97758 1.80756,1.75266 6.33609,5.117578 0.55647,0.41211 1.74069,1.30536 2.63178,1.98576 4.44698,3.391738 9.29339,5.505478 15.33338,6.691767 0.61254,0.12033 1.79352,0.3879 2.62467,0.59472 9.52983,2.370959 19.63151,2.573909 25.89794,0.51579 1.02906,-0.33687 1.51668,-0.51696 3.09375,-1.13589 1.91763,-0.75357 10.31237,-3.317039 10.86182,-3.317039 0.0603,0 -0.20601,0.225 -0.59652,0.49788 -0.39024,0.27279 -1.22823,0.92196 -1.86345,1.44054 -0.63549,0.51921 -1.87262,1.365299 -2.74913,1.880909 -0.87759,0.51336 -1.94832,1.18305 -2.37969,1.484549 -0.43209,0.30339 -1.22805,0.80253 -1.76787,1.11195 -2.80224,1.603619 -4.18221,2.470139 -4.7862,3.006269 -0.36657,0.32634 -1.24632,1.00611 -1.95462,1.509839 -2.39328,1.7064 -2.74806,2.00169 -4.3272,3.621329 -1.95903,2.006999 -3.56067,4.124878 -4.06143,5.368228 l -0.37224,0.92727 0.29025,0.234989 c 0.76176,0.61767 2.65095,0.98667 5.72013,1.12275 3.80484,0.1656 7.12665,-0.53586 13.94226,-2.948399 7.15436,-2.530169 9.48455,-3.394259 13.8131,-5.120368 1.584,-0.63261 3.14541,-1.218599 3.46761,-1.302479 0.32481,-0.0819 1.46088,-0.44622 2.52639,-0.80388 1.75131,-0.58725 2.92257,-0.927 6.56478,-1.902779 1.25127,-0.33705 1.74041,-0.34389 0.99027,-0.0135 -0.25236,0.10872 -1.10673,0.506339 -1.89855,0.883439 -0.79092,0.37593 -1.72935,0.7983 -2.08467,0.93789 -0.7947,0.31374 -1.53288,0.64449 -2.89962,1.302479 -0.58113,0.27864 -1.11204,0.5085 -1.17972,0.5085 -0.26388,0 -3.72978,2.084399 -5.03127,3.025889 -0.75528,0.54657 -2.16756,1.48365 -3.14001,2.084759 -9.23481,5.711308 -12.96107,12.757495 -10.54763,19.945883 0.17496,0.51966 0.68246,1.766609 1.12733,2.770469 1.25955,2.840849 1.66851,4.001848 2.29167,6.511857 2.30922,9.306537 3.21021,11.028326 8.25228,15.770604 5.37984,5.061418 8.09388,6.344998 15.11019,7.149688 1.61747,0.18648 11.37635,0.11295 15.74135,-0.11556 0.84546,-0.0432 1.60371,-0.0378 1.68705,0.0117 0.2439,0.15057 -6.32511,3.366808 -8.26407,4.047388 -7.12359,2.496329 -15.57935,8.558188 -15.57935,11.168908 0,0.80703 2.33127,2.04372 6.06987,3.22119 3.88313,1.22148 3.69089,1.20456 14.61491,1.33236 3.63609,0.0414 7.08219,0.11646 7.65909,0.16659 l 1.04751,0.0882 -1.3104,0.4113 c -1.89189,0.59508 -4.66461,1.41516 -7.065,2.08719 -1.14885,0.32328 -3.12318,0.98738 -4.38507,1.47662 -1.26234,0.48969 -2.4723,0.93096 -2.68803,0.98199 -0.21627,0.0486 -0.95193,0.2943 -1.63656,0.54288 -0.68499,0.24939 -2.13642,0.65313 -3.22614,0.89694 -3.9221,0.8784 -14.02199,3.76326 -18.44036,5.26779 -1.8,0.61317 -4.2516,1.42506 -5.44698,1.80396 -1.1961,0.37953 -2.84535,0.92808 -3.66534,1.22031 -1.82888,0.6507 -2.08088,0.72612 -2.08088,0.62289 z m -23.43447,-6.01938 c 1.11537,-0.10341 3.35412,-0.25776 4.97556,-0.34119 3.34665,-0.17136 3.10644,-0.10971 2.92023,-0.74844 -1.24101,-4.26708 -1.8954,-6.48539 -2.05344,-6.96689 -0.10728,-0.32337 -0.43812,-1.42182 -0.73746,-2.43909 l -0.54198,-1.84986 0.15417,-0.57114 c 0.21501,-0.79749 0.4716,-1.11141 1.70064,-2.08143 0.59076,-0.46593 1.58391,-1.28124 2.20455,-1.81143 0.62199,-0.53028 2.19222,-1.85085 3.48777,-2.93454 1.29555,-1.08405 2.76921,-2.362409 3.27168,-2.839409 0.50463,-0.47772 1.59471,-1.390679 2.42226,-2.028869 0.82827,-0.63738 1.91853,-1.52073 2.42289,-1.963619 0.50427,-0.44316 1.59345,-1.31373 2.42127,-1.93473 0.82746,-0.621449 1.75895,-1.368899 2.0681,-1.662119 0.30987,-0.29313 0.58707,-0.531 0.61821,-0.531 0.11592,0 2.30337,2.210939 3.5775,3.617189 1.92492,2.123639 5.19264,4.818148 7.58934,6.256887 0.57456,0.34542 0.80433,0.55548 0.75222,0.68985 -0.0396,0.10746 -0.11034,0.35091 -0.15399,0.54234 -0.0423,0.1908 -0.16524,0.61335 -0.27216,0.93654 -0.71415,2.18214 -1.05075,7.29729 -0.61803,9.39933 0.21339,1.03626 0.77976,2.87189 1.14435,3.70304 l 0.20349,0.46854 -0.30465,0.64422 c -0.16767,0.35379 -0.61605,1.02735 -0.99693,1.49526 -0.37962,0.46836 -0.8874,1.09179 -1.12491,1.38654 l -0.43569,0.53595 0.55476,-0.14364 c 0.30645,-0.0765 0.61488,-0.18189 0.68733,-0.22842 0.45045,-0.28746 13.75065,-3.95667 17.25452,-4.76064 0.85077,-0.19458 1.52046,-0.3779 1.49076,-0.40814 -0.0288,-0.0288 -0.62064,-0.14004 -1.31346,-0.2439 -5.00066,-0.75087 -10.78838,-3.35205 -12.24296,-5.50206 l -0.43974,-0.65124 0.081,-1.02402 c 0.29691,-3.61881 4.37994,-7.707689 11.20958,-11.227318 l 1.10817,-0.57033 -2.42279,-0.23409 c -8.0586,-0.777329 -11.54799,-2.402999 -17.82378,-8.304116 -5.20497,-4.895009 -6.60564,-7.583308 -8.82161,-16.933044 -0.45522,-1.920149 -0.87795,-3.115529 -2.22066,-6.280018 -1.77462,-4.183198 -2.06433,-5.336098 -2.05569,-8.186397 0.0117,-4.175818 1.85526,-8.683196 4.78007,-11.684065 0.57915,-0.59382 1.01781,-1.08009 0.97434,-1.08009 -0.0414,0 -0.86382,0.29682 -1.82465,0.65997 -2.37267,0.89847 -5.70528,1.860839 -8.47431,2.448269 l -2.30202,0.48708 -2.88054,-6.3e-4 c -11.57409,0 -13.12028,-4.562908 -4.50585,-13.289935 0.75051,-0.76005 1.91061,-1.784519 2.57886,-2.275919 1.49553,-1.10115 1.56681,-1.05138 -1.23651,-0.8541 -6.72696,0.4761 -12.56318,-0.22743 -23.54309,-2.837879 -2.13021,-0.50715 -5.46849,-1.533779 -6.93873,-2.134979 -0.70956,-0.28935 -1.31202,-0.50715 -1.33704,-0.48141 -0.0243,0.0243 0.84465,0.86022 1.9332,1.855259 2.54079,2.32488 4.43889,4.324139 5.41593,5.706448 0.42705,0.60201 1.25667,1.77309 1.84329,2.601269 4.75893,6.717778 5.52204,8.589147 5.65614,13.877455 l 0.063,2.552219 -0.46566,2.029499 c -1.21923,5.307658 -1.98009,7.738917 -3.03003,9.686157 -0.32526,0.601739 -0.56727,1.114739 -0.54162,1.141739 0.0477,0.0477 1.09188,-0.40131 4.00887,-1.728719 0.90009,-0.41094 2.22156,-0.97848 2.93553,-1.26432 0.71424,-0.28638 2.83041,-1.165949 4.70313,-1.957229 5.58674,-2.360339 7.22348,-2.555279 10.94138,-1.299959 5.11794,1.727369 9.7866,7.555497 12.11382,15.124854 0.33228,1.080899 1.01403,3.171959 1.512,4.647778 1.16307,3.432779 1.6344,5.452378 1.77777,7.604187 l 0.0639,0.99441 -1.0854,0.99252 c -0.59715,0.546119 -1.40913,1.247129 -1.80522,1.554929 -0.39564,0.30834 -1.95741,1.740779 -3.47022,3.184199 -1.51218,1.443239 -3.22065,2.973149 -3.79665,3.400108 -1.17081,0.87003 -2.26746,1.76031 -4.50153,3.653459 -0.83556,0.70983 -1.63638,1.342529 -1.78137,1.408319 -0.14418,0.0639 -0.93879,0.6453 -1.76751,1.28295 -1.21437,0.93753 -1.52163,1.1205 -1.59021,0.94752 -0.24471,-0.61893 -1.74501,-6.247708 -2.13363,-8.003247 -0.24606,-1.11609 -0.56592,-2.412539 -0.70911,-2.880449 -0.29529,-0.9594 -1.06668,-4.112369 -1.39275,-5.694568 -0.423,-2.053889 -0.69426,-3.183749 -0.81153,-3.396869 -0.0919,-0.16992 -0.48879,0.33786 -1.90034,2.455289 -2.05083,3.076199 -3.14154,4.430609 -5.56515,6.907678 -0.95607,0.976769 -1.73907,1.807739 -1.73907,1.846439 0,0.0369 0.63441,0.10323 1.40832,0.14589 4.64958,0.25587 5.68368,1.812959 8.33804,12.536997 l 0.98946,3.99969 v 1.18062 c 0,6.76925 -7.16273,8.39204 -16.66016,3.77306 -2.3211,-1.12751 1.91358,2.79882 4.64607,4.30848 2.81349,1.55421 6.40854,2.05947 11.36024,1.59498 z"
     id="path1" />
</svg>
