<?xml version="1.0" encoding="UTF-8" standalone="no"?>
<!-- Created with Inkscape (http://www.inkscape.org/) -->

<svg
   version="1.1"
   id="svg1"
   width="500.00024"
   height="257.85864"
   viewBox="0 0 500.00024 257.85864"
   xmlns="http://www.w3.org/2000/svg"
   xmlns:svg="http://www.w3.org/2000/svg">
  <defs
     id="defs1" />
  <g
     id="layer1"
     style="display:inline"
     transform="translate(-3010.4397,-3151.4424)">
    <path
       style="fill:none;stroke:#000000;stroke-width:0.145457;stroke-opacity:1"
       d="m 3253.4378,3407.9959 c -4.0063,-4.5463 -5.3139,-5.9669 -6.3196,-6.867 -0.6183,-0.5528 -1.2931,-1.2353 -1.5016,-1.5154 -0.7123,-0.9628 -8.812,-8.6749 -9.9044,-9.4335 -0.6006,-0.4146 -1.6148,-1.1803 -2.2557,-1.6997 -0.6388,-0.5183 -1.4578,-1.1166 -1.8178,-1.331 -0.3599,-0.2133 -1.4391,-0.9589 -2.3997,-1.6542 -0.9604,-0.6955 -3.0877,-2.1104 -4.7277,-3.1441 -4.3868,-2.7643 -9.5738,-6.3198 -14.2405,-9.7618 -0.5116,-0.3768 -1.4008,-0.9807 -1.975,-1.3407 -0.5744,-0.36 -1.7596,-1.1178 -2.6337,-1.6836 -0.8739,-0.5652 -1.9739,-1.2527 -2.4421,-1.5268 -0.4697,-0.2742 -1.3886,-0.9902 -2.0435,-1.5902 -1.2542,-1.1519 -4.3156,-3.5548 -5.0104,-3.9328 -0.2257,-0.1234 -1.0267,-0.7147 -1.7792,-1.3135 -2.6212,-2.0899 -3.2769,-2.5717 -6.0232,-4.4283 -3.707,-2.5064 -5.5591,-3.8943 -8.0731,-6.048 -3.4232,-2.9323 -5.0214,-4.0478 -8.9462,-6.2415 -1.7998,-1.0058 -7.1934,-4.2335 -11.4051,-6.8258 -2.5318,-1.5587 -5.2578,-3.3409 -7.7985,-5.1003 -1.1213,-0.7762 -2.9209,-1.9176 -4.0002,-2.5363 -1.0792,-0.6175 -2.125,-1.2701 -2.3244,-1.4473 -0.4547,-0.4046 -1.8769,-1.3608 -2.8378,-1.9095 -1.1151,-0.637 -3.1467,-1.9931 -3.0816,-2.0573 0.03,-0.031 0.4433,0.039 0.9145,0.1604 1.5016,0.3802 2.2958,0.332 5.7314,-0.3511 1.7863,-0.3567 2.3579,-0.5304 4.8006,-1.4688 2.7674,-1.062 3.5086,-1.4267 6.1531,-3.0253 1.343,-0.8128 2.4951,-1.477 2.5599,-1.477 0.063,0 0.4061,-0.2493 0.7573,-0.5525 0.875,-0.7571 2.6343,-1.9288 3.9277,-2.6156 1.8827,-1.001 2.0907,-1.1071 2.2385,-1.1383 0.077,-0.016 0.3915,-0.1361 0.6912,-0.2645 0.4845,-0.2075 0.7842,-0.1 0.3961,0.1374 -0.08,0.049 -0.6377,1.0524 -1.2336,2.2271 -1.3173,2.5948 -2.1037,3.8658 -3.6716,5.9326 -0.6598,0.8707 -1.3057,1.8044 -1.4348,2.077 l -0.2351,0.4942 0.2309,0.4838 c 0.2823,0.5908 0.6692,0.7071 1.9621,0.5857 5.9531,-0.5545 10.682,-2.7123 18.6421,-8.5071 1.974,-1.4371 1.687,-1.1503 1.8043,-1.8 l 0.095,-0.5401 -0.7697,-0.2192 c -1.4303,-0.4088 -4.3496,-0.8599 -10.4421,-1.6144 -11.5571,-1.4285 -18.8431,-1.1973 -27.4269,0.8714 -3.0756,0.7419 -4.4711,1.3188 -9.2814,3.8413 -2.2105,1.1592 -2.3894,1.1878 -1.7385,0.2732 0.6812,-0.9565 1.7566,-2.7755 2.2337,-3.7805 0.2377,-0.5003 0.662,-1.3027 0.9437,-1.7831 2.5451,-4.3435 3.269,-7.4221 2.2673,-9.6368 -1.0529,-2.3294 -8.1665,-4.5573 -13.9452,-4.3681 l -2.0005,0.063 -1.2171,0.4562 c -1.6901,0.6343 -2.3966,1.0805 -3.5847,2.2713 -2.7077,2.7091 -2.4006,4.2417 1.8846,9.4304 0.7108,0.8592 1.3478,1.5635 1.4172,1.5635 0.067,0 0.1841,0.1465 0.2576,0.327 0.071,0.1804 0.5656,0.8836 1.0945,1.564 0.528,0.6809 1.1358,1.4983 1.3508,1.818 0.2138,0.3203 0.7679,1.0859 1.2306,1.7027 l 0.8417,1.1204 -0.547,-0.2286 c -1.6481,-0.6882 -5.8102,-2.9548 -6.665,-3.6276 -2.1013,-1.6564 -5.9255,-3.5241 -13.4476,-6.5659 -1.8792,-0.7618 -4.6943,-1.9038 -6.2534,-2.5391 -1.5603,-0.6368 -3.5439,-1.4152 -4.4087,-1.7294 -0.8641,-0.313 -2.6305,-1.0046 -3.927,-1.5347 -1.296,-0.5305 -3.8937,-1.4735 -5.7738,-2.0955 -5.5473,-1.834 -12.0161,-4.1737 -11.8903,-4.2988 0.018,-0.018 1.5074,-0.072 3.3075,-0.1231 4.0332,-0.1043 5.7029,-0.2059 6.5259,-0.3868 0.3482,-0.073 1.9186,-0.2354 3.4911,-0.3521 1.5713,-0.1171 3.118,-0.2467 3.4389,-0.2871 0.3189,-0.04 2.5126,-0.3038 4.8726,-0.5838 16.6536,-1.9774 18.8897,-2.8218 24.1514,-9.102 0.7096,-0.8488 1.5738,-1.7745 1.9209,-2.0591 0.3474,-0.2854 0.7985,-0.7697 1.0013,-1.078 1.3349,-2.0261 2.7461,-4.6999 2.7461,-5.2078 0,-0.1184 0.2649,-0.987 0.5878,-1.9301 0.6049,-1.757 0.9202,-3.0322 1.1598,-4.6959 0.073,-0.5194 0.3998,-1.7557 0.7214,-2.7426 0.3416,-1.0488 0.6153,-2.2146 0.6598,-2.7912 0.067,-0.9092 0.157,-1.4475 0.5159,-3.1216 0.2226,-1.0387 0.2104,-1.0554 -1.8015,-2.5169 -0.6729,-0.4892 -4.2978,-3.6959 -6.9961,-6.189 -2.5998,-2.4025 -5.6678,-4.914 -8.2881,-6.7858 -5.0065,-3.5766 -5.2636,-3.7868 -6.4883,-5.3074 -0.4395,-0.5456 -1.1675,-1.4249 -1.6156,-1.9518 -0.4489,-0.5281 -1.9116,-2.4606 -3.2497,-4.296 -2.5335,-3.4736 -3.0013,-4.086 -4.2366,-5.5358 -0.7509,-0.8813 -1.5158,-1.9543 -1.5158,-2.1242 0,-0.2163 3.8207,1.9143 6.2546,3.4883 1.4078,0.9107 3.0121,1.7198 4.4599,2.2479 0.5472,0.1997 1.616,0.6563 2.377,1.0175 6.421,3.039 13.3241,2.7296 16.2169,-0.7256 0.3918,-0.4678 1.0861,-1.2464 1.5413,-1.7307 0.4565,-0.4842 1.0987,-1.2966 1.4273,-1.8046 l 0.5984,-0.9253 -0.082,0.7145 c -0.2841,2.4173 -0.546,4.2456 -0.7952,5.5592 -0.1579,0.8233 -0.2855,1.8549 -0.2855,2.2921 0,0.4358 -0.098,1.4182 -0.2229,2.183 -0.5008,3.111 0.2567,4.7963 2.8869,6.4215 2.2915,1.4159 3.0092,1.5706 3.0926,0.6645 0.3541,-3.8163 0.5469,-5.5532 0.7225,-6.5153 0.1164,-0.6387 0.3439,-2.3742 0.5045,-3.8544 0.1615,-1.4803 0.3554,-3.0513 0.4319,-3.4914 0.075,-0.4403 0.3434,-2.3701 0.5911,-4.2889 0.7371,-5.7111 2.0484,-11.2874 4.1937,-17.8332 0.7182,-2.1931 1.4755,-4.6533 1.6814,-5.4678 0.5009,-1.9837 3.461,-10.8074 4.2354,-12.6295 0.3411,-0.8006 1.0514,-2.4046 1.5787,-3.5636 0.5275,-1.1616 0.96,-2.2192 0.9603,-2.3523 0,-0.1316 0.5649,-1.637 1.2547,-3.345 1.4355,-3.5473 2.617,-6.5216 4.6227,-11.6319 2.0353,-5.1843 4.6837,-10.4067 6.9838,-13.7692 0.7265,-1.0648 1.5928,-2.3603 1.9252,-2.8813 0.509,-0.7993 1.9831,-2.8356 2.4142,-3.3328 0.067,-0.077 -0.1341,0.4116 -0.4505,1.0909 -0.7725,1.6618 -1.5201,4.3045 -1.897,6.6919 -0.1689,1.0803 -0.6035,3.6647 -0.9627,5.7453 -1.863,10.774 -1.9002,13.1883 -0.4442,28.3666 1.759,18.3101 2.5225,22.5011 6.0451,33.0921 2.8825,8.673 10.5467,23.8562 12.0424,23.8562 0.4946,-1e-4 3.452,-0.4737 5.8505,-0.9375 1.0001,-0.1935 2.2105,-0.3924 2.6905,-0.4422 0.4807,-0.048 1.3958,-0.1819 2.0373,-0.296 0.6391,-0.1117 1.783,-0.2787 2.5409,-0.3719 0.7571,-0.089 2.1322,-0.3263 3.0553,-0.5185 0.922,-0.193 2.5931,-0.4843 3.7124,-0.6464 1.1205,-0.1633 3.3133,-0.6177 4.8733,-1.0112 1.5597,-0.3929 4.4722,-1.0089 6.4722,-1.3685 3.3077,-0.5958 5.0829,-0.9589 7.7837,-1.5945 0.5199,-0.1218 1.5993,-0.321 2.3997,-0.4422 1.2258,-0.1868 4.2232,-1.0271 7.2736,-2.0398 2.3205,-0.7713 5.6972,-2.7793 7.9276,-4.7164 2.6008,-2.257 2.6711,-2.3394 3.8949,-4.5978 l 0.6307,-1.1638 -0.1169,1.0904 c -0.408,3.7927 0.031,6.5384 1.5521,9.6725 1.5125,3.1232 9.2702,14.2694 11.3299,16.2811 l 0.7334,0.7139 -0.068,-3.3329 c -0.038,-1.8335 -0.1323,-4.1191 -0.2066,-5.0794 -0.073,-0.9595 -0.177,-3.1196 -0.2262,-4.7992 -0.047,-1.6806 -0.1481,-3.6772 -0.2203,-4.4364 -0.07,-0.7608 -0.2641,-2.9536 -0.4286,-4.874 -0.4395,-5.1455 -1.068,-8.2972 -2.4916,-12.5068 -0.8426,-2.4901 -0.8534,-2.5079 -1.5201,-2.6334 -0.8732,-0.1636 -1.2403,0.045 -2.6369,1.5145 -2.0822,2.1847 -1.8218,0.8341 0.4268,-2.2204 1.9009,-2.5804 2.2039,-3.0105 2.8281,-4.0094 0.9359,-1.4979 3.7683,-7.2359 4.1637,-8.4372 2.1087,-6.392 2.3511,-7.2262 3.0188,-10.3831 0.3074,-1.449 0.7255,-3.3548 0.9293,-4.2359 0.4013,-1.7248 0.7366,-3.9386 0.9517,-6.2545 0.071,-0.8005 0.2004,-1.8157 0.2818,-2.2548 0.08,-0.4399 0.2537,-1.8484 0.3792,-3.1261 0.359,-3.6384 0.6902,-6.1232 0.8383,-6.2709 0.1633,-0.1654 0.3969,0.101 0.3969,0.4599 0,0.1954 0.063,0.3547 0.1451,0.3547 0.077,0 0.1457,-0.1593 0.1457,-0.3547 0,-0.3547 0.2336,-0.6253 0.3971,-0.4599 0.148,0.1477 0.4786,2.6325 0.8381,6.2709 0.1249,1.2777 0.2958,2.6862 0.3791,3.1261 0.08,0.4391 0.21,1.4543 0.2822,2.2548 0.2147,2.3159 0.5498,4.5297 0.9509,6.2545 0.2043,0.8811 0.6222,2.7869 0.9294,4.2359 0.6678,3.1569 0.9106,3.9911 3.0188,10.3831 0.3959,1.2013 3.2282,6.9393 4.1641,8.4372 0.6241,0.9989 0.9267,1.429 2.8278,4.0094 2.249,3.0545 2.509,4.4051 0.427,2.2204 -2.3769,-2.4958 -2.9895,-2.3317 -4.1569,1.1189 -1.4237,4.2096 -2.0514,7.3613 -2.4917,12.5068 -0.1649,1.9204 -0.3569,4.1132 -0.4286,4.874 -0.07,0.7592 -0.1713,2.7558 -0.2199,4.4364 -0.047,1.6796 -0.1514,3.8397 -0.2264,4.7992 -0.073,0.9603 -0.1687,3.2459 -0.2067,5.0794 l -0.068,3.3329 0.7336,-0.7139 c 2.0598,-2.0117 9.8172,-13.1579 11.3304,-16.2811 1.5194,-3.1341 1.9598,-5.8798 1.5521,-9.6725 l -0.1177,-1.0904 0.6312,1.1638 c 1.2239,2.2586 1.2949,2.3423 3.8949,4.5973 2.2723,1.9718 5.5259,3.9067 7.9272,4.7127 2.879,0.9672 6.044,1.8566 7.2738,2.044 0.8,0.1212 1.8799,0.3204 2.4005,0.4422 2.7,0.6356 4.4752,0.9987 7.7828,1.5945 2.0001,0.3596 4.9127,0.9756 6.4724,1.3685 1.5597,0.3935 3.7528,0.8479 4.8733,1.0112 1.1193,0.1621 2.7903,0.4534 3.712,0.6464 0.924,0.1922 2.2987,0.4262 3.0552,0.5185 0.7583,0.089 1.9023,0.2602 2.5418,0.3719 0.641,0.1141 1.5563,0.2474 2.0366,0.296 0.4801,0.048 1.6913,0.2487 2.6913,0.4422 2.3994,0.4638 5.356,0.9374 5.8499,0.9375 1.4956,0 9.1599,-15.1832 12.0424,-23.8562 3.5226,-10.591 4.2859,-14.782 6.0456,-33.0921 1.4556,-15.1783 1.4188,-17.5926 -0.4447,-28.3666 -0.3593,-2.0806 -0.7934,-4.665 -0.9627,-5.7453 -0.3769,-2.3874 -1.1246,-5.0301 -1.8969,-6.6919 -0.3168,-0.6793 -0.5175,-1.1704 -0.4504,-1.0909 0.4313,0.4972 1.9051,2.5335 2.4146,3.3328 0.3318,0.521 1.1985,1.8165 1.9253,2.8813 2.2994,3.3625 4.9481,8.5849 6.9831,13.7692 2.0058,5.1103 3.1873,8.0846 4.6227,11.6319 0.6896,1.708 1.2543,3.2134 1.2546,3.345 0,0.1331 0.4327,1.1907 0.9603,2.3523 0.5273,1.159 1.2376,2.763 1.5788,3.5636 0.775,1.8221 3.7345,10.6458 4.2354,12.6295 0.2058,0.8145 0.9631,3.2747 1.6812,5.4678 2.1457,6.5458 3.457,12.1221 4.1939,17.8332 0.2474,1.9188 0.5135,3.8486 0.5911,4.2889 0.075,0.4401 0.2706,2.0111 0.432,3.4914 0.1606,1.4802 0.3879,3.2157 0.5044,3.8544 0.1755,0.9621 0.3683,2.699 0.7223,6.5153 0.081,0.9061 0.802,0.7514 3.0926,-0.6645 2.6305,-1.6252 3.3876,-3.3105 2.887,-6.4215 -0.1222,-0.7648 -0.2225,-1.7472 -0.2225,-2.183 0,-0.4372 -0.128,-1.4688 -0.2856,-2.2921 -0.2493,-1.3136 -0.5114,-3.1419 -0.7948,-5.5592 l -0.082,-0.7145 0.5986,0.9253 c 0.3281,0.508 0.9707,1.3204 1.4272,1.8046 0.4558,0.4843 1.1496,1.2629 1.5413,1.7307 2.8932,3.4552 9.7961,3.7646 16.217,0.7256 0.7608,-0.3612 1.8296,-0.8178 2.3773,-1.0175 1.4473,-0.5281 3.0518,-1.3372 4.4601,-2.2479 2.4332,-1.574 6.2545,-3.7046 6.2545,-3.4883 0,0.1699 -0.7655,1.2429 -1.5161,2.1242 -1.2355,1.4498 -1.7033,2.0622 -4.2361,5.5358 -1.3387,1.8354 -2.8007,3.7679 -3.2498,4.296 -0.4489,0.5269 -1.1766,1.4062 -1.6162,1.9518 -1.2249,1.5206 -1.4818,1.7308 -6.4883,5.3074 -2.6195,1.8718 -5.6884,4.3833 -8.2877,6.7858 -2.6986,2.4931 -6.3235,5.6998 -6.9967,6.189 -2.0119,1.4615 -2.0234,1.4782 -1.8013,2.5169 0.3587,1.6741 0.4472,2.2124 0.5159,3.1216 0.043,0.5766 0.3183,1.7424 0.6598,2.7912 0.3216,0.9869 0.6454,2.2232 0.7213,2.7426 0.2404,1.6637 0.5551,2.9389 1.16,4.6959 0.3235,0.9431 0.5878,1.8117 0.5878,1.9301 0,0.5079 1.4112,3.1817 2.746,5.2078 0.2029,0.3083 0.6547,0.7926 1.0012,1.078 0.3476,0.2846 1.2115,1.2103 1.9209,2.0591 5.2619,6.2802 7.4978,7.1246 24.1524,9.102 2.359,0.28 4.5528,0.5424 4.8724,0.5838 0.3203,0.04 1.8671,0.17 3.4387,0.2871 1.5718,0.1167 3.1422,0.275 3.4907,0.3521 0.823,0.1809 2.4925,0.279 6.5259,0.3868 1.8001,0.046 3.2888,0.1 3.3074,0.1231 0.1259,0.1252 -6.32,2.4558 -11.8895,4.297 -1.8811,0.6218 -4.3345,1.5076 -5.4551,1.9684 -1.1203,0.4595 -2.8871,1.1522 -3.9282,1.5376 -1.0394,0.3865 -3.1666,1.2215 -4.7269,1.8574 -1.559,0.6342 -4.3744,1.7753 -6.2537,2.5371 -7.5222,3.0418 -11.3461,4.9095 -13.4469,6.5659 -0.8546,0.6728 -5.0175,2.9394 -6.6657,3.6276 l -0.5469,0.2286 0.8418,-1.1204 c 0.4628,-0.6168 1.0176,-1.3824 1.2304,-1.7027 0.2153,-0.3197 0.8231,-1.1371 1.3511,-1.818 0.5296,-0.6804 1.0216,-1.3836 1.0943,-1.564 0.071,-0.1805 0.1893,-0.327 0.2584,-0.327 0.4575,0 4.0761,-4.893 4.6645,-6.3092 1.0952,-2.6286 -0.9046,-5.4405 -4.948,-6.956 l -1.2165,-0.4562 -2.0004,-0.063 c -5.7824,-0.1893 -12.9064,2.0428 -13.9403,4.3681 -0.9523,2.1433 -0.4602,4.6414 1.6903,8.5832 0.5569,1.0205 1.2002,2.2315 1.4273,2.69 0.5522,1.1142 1.473,2.6816 2.181,3.7125 0.7906,1.1488 0.698,1.1452 -1.5984,-0.056 -4.8099,-2.5226 -6.2054,-3.0994 -9.281,-3.8413 -8.5839,-2.0688 -15.8698,-2.2999 -27.4269,-0.8713 -6.0925,0.7545 -9.0118,1.2056 -10.4421,1.6144 l -0.7697,0.219 0.095,0.5402 c 0.1166,0.6497 -0.1706,0.3629 1.8034,1.8001 7.9599,5.7948 12.6893,7.9525 18.6422,8.507 1.2665,0.1192 1.6194,0.014 1.9355,-0.5732 l 0.263,-0.4871 -0.2384,-0.4987 c -0.1305,-0.2749 -0.7771,-1.2109 -1.437,-2.0818 -1.5678,-2.0668 -2.3542,-3.3374 -3.6715,-5.9325 -0.596,-1.1747 -1.1495,-2.1767 -1.2327,-2.2271 -0.3889,-0.2403 -0.086,-0.3449 0.3953,-0.1374 0.2993,0.1285 0.6109,0.2473 0.6915,0.2645 0.147,0.031 0.3559,0.1373 2.238,1.1383 1.2935,0.6867 3.0528,1.8584 3.9275,2.616 0.3515,0.3031 0.6925,0.5522 0.7577,0.5522 0.063,0 1.2166,0.6641 2.5597,1.4769 2.6444,1.5986 3.3857,1.9633 6.153,3.0253 2.4436,0.9382 3.0141,1.1121 4.8009,1.4688 3.4354,0.6831 4.2294,0.7313 5.731,0.3512 0.4712,-0.1204 0.8833,-0.1918 0.9149,-0.1605 0.062,0.062 -1.9669,1.4203 -3.0813,2.0573 -0.9612,0.5487 -2.3838,1.5049 -2.8375,1.9094 -0.2001,0.1774 -1.2458,0.8299 -2.325,1.4475 -1.0794,0.6187 -2.879,1.7601 -4.0003,2.5362 -2.5407,1.7601 -5.2664,3.5415 -7.7984,5.1002 -4.2111,2.5924 -9.6054,5.8204 -11.4057,6.8265 -3.9245,2.1932 -5.523,3.309 -8.9452,6.241 -2.5147,2.1535 -4.3666,3.5415 -8.074,6.0479 -2.7458,1.8566 -3.4013,2.3384 -6.0232,4.4283 -0.7522,0.5988 -1.5533,1.1901 -1.7787,1.3135 -0.698,0.3799 -3.7653,2.7861 -4.9424,3.8777 -0.6149,0.5683 -1.5331,1.2822 -2.0409,1.585 -0.5085,0.3039 -1.6389,1.0161 -2.5128,1.5835 -0.874,0.5677 -2.0593,1.3271 -2.6338,1.6873 -0.5745,0.3598 -1.4632,0.9639 -1.975,1.3406 -4.6668,3.442 -9.8532,6.9976 -14.2404,9.7617 -1.6393,1.0338 -3.7674,2.4488 -4.7275,3.1443 -0.9608,0.6954 -2.0398,1.4408 -2.3999,1.6541 -0.36,0.2145 -1.1787,0.8127 -1.8181,1.331 -0.6404,0.5194 -1.6546,1.2851 -2.2554,1.6998 -1.0923,0.7584 -9.1923,8.4712 -9.9043,9.4335 -0.2086,0.2804 -0.8837,0.9625 -1.5016,1.5153 -1.0054,0.9001 -2.3138,2.3207 -6.3201,6.867 -1.4395,1.634 -1.5786,1.6386 -0.7529,0.021 0.3378,-0.6624 0.9613,-2.0877 1.385,-3.168 0.4227,-1.0797 1.0035,-2.4878 1.2889,-3.1272 0.2857,-0.6403 0.7529,-2.0141 1.0395,-3.0554 1.9182,-6.9883 3.8721,-11.8381 6.4395,-15.9866 2.5395,-4.1017 3.2851,-5.9776 3.2994,-8.3056 l 0.011,-1.3095 -0.3868,-0.6531 c -1.8177,-3.0732 -6.7416,-3.1997 -11.8323,-0.3051 -0.9609,0.546 -2.7852,1.5388 -4.0559,2.2067 l -2.3104,1.2144 -0.4536,0.694 c -0.2493,0.3813 -0.5513,0.694 -0.6716,0.694 -0.1193,0 -0.4223,-0.3127 -0.6708,-0.694 l -0.4529,-0.694 -2.3112,-1.2144 c -1.2705,-0.6679 -3.0955,-1.6607 -4.0568,-2.2067 -5.09,-2.8946 -10.0146,-2.7681 -11.8315,0.3051 l -0.3863,0.6531 0.011,1.3095 c 0.014,2.328 0.7602,4.2039 3.2996,8.3056 2.5671,4.1485 4.5221,8.9983 6.4397,15.9866 0.2866,1.0413 0.7541,2.4151 1.0394,3.0554 0.285,0.6394 0.866,2.0475 1.289,3.1272 0.4237,1.0803 1.047,2.5056 1.3861,3.168 0.8243,1.616 0.6852,1.6114 -0.755,-0.021 z m -8.7875,-15.8774 c -1.347,-3.7674 -1.8089,-4.7326 -3.7589,-7.8505 -1.6081,-2.5703 -2.7244,-4.848 -3.2437,-6.6196 l -0.4045,-1.3809 v -1.9714 -1.9702 l 0.5501,-1.1138 c 2.3727,-4.8036 8.6473,-6.0716 15.3053,-3.0914 0.48,0.2159 1.1349,0.5074 1.4541,0.6506 0.32,0.1429 0.8443,0.3417 1.1643,0.4439 0.3195,0.098 1.3341,0.5859 2.2533,1.0761 2.7692,1.4766 2.1791,1.4766 4.9473,0 0.9199,-0.4902 1.934,-0.9753 2.2536,-1.0761 0.3204,-0.098 0.844,-0.301 1.1647,-0.4439 0.3195,-0.1432 0.9739,-0.4347 1.4539,-0.6506 6.6574,-2.9802 12.9325,-1.7122 15.306,3.0914 l 0.5496,1.1138 v 1.9702 1.9714 l -0.4047,1.3809 c -0.5192,1.7716 -1.6356,4.0493 -3.2434,6.6196 -1.9504,3.1175 -2.4122,4.0832 -3.7573,7.8473 -0.6858,1.9165 -1.2459,3.538 -1.2459,3.6039 0,0.063 1.7514,-1.6414 3.8914,-3.7928 2.2793,-2.2923 4.3734,-4.2615 5.0546,-4.7555 0.6404,-0.4623 1.5562,-1.179 2.0352,-1.5885 3.173,-2.7128 4.8695,-3.9255 9.675,-6.9176 2.0199,-1.2568 5.3233,-3.4815 7.3453,-4.9411 1.0401,-0.7528 2.5079,-1.7959 3.262,-2.3202 l 1.3695,-0.9553 -0.5706,-0.1 c -0.3127,-0.055 -1.1913,-0.2078 -1.9513,-0.3357 -2.4986,-0.4213 -10.5476,-2.6587 -12.9676,-3.604 -7.8709,-3.0784 -11.1012,-7.2439 -7.875,-10.1575 1.786,-1.6151 5.5957,-3.3211 7.4226,-3.3266 0.6099,0 0.3328,-0.2451 -0.9123,-0.7996 -6.0173,-2.6812 -9.9997,-6.0574 -12.5297,-10.621 -2.4304,-4.3835 -4.0566,-8.8471 -5.1386,-14.1098 -0.2467,-1.2012 -0.5441,-2.5007 -0.6593,-2.8904 -0.1148,-0.3897 -0.4445,-1.9273 -0.7302,-3.4182 -0.287,-1.4909 -0.8414,-3.9863 -1.2322,-5.5467 -0.8569,-3.4246 -1.9929,-8.8588 -3.1157,-14.9103 -0.4789,-2.5793 -1.0548,-7.9411 -0.8829,-8.2172 0.041,-0.066 0.3215,-0.2026 0.6207,-0.2988 0.8554,-0.2725 1.4749,-0.5707 2.7256,-1.3126 1.1225,-0.667 6.1587,-3.0055 12.5098,-5.8092 1.6794,-0.7414 4.3968,-1.8303 6.0362,-2.4191 1.64,-0.5894 3.445,-1.2993 4.0092,-1.5802 1.3829,-0.6858 1.2894,-0.724 2.6814,1.1269 0.6758,0.9005 1.5342,1.9965 1.9058,2.4366 1.0577,1.2464 2.8844,3.8558 3.8208,5.4549 0.4687,0.8 1.095,1.8147 1.3923,2.2553 2.7492,4.0551 4.1727,8.2854 4.9683,14.7638 0.2286,1.8618 0.057,1.7918 2.3016,0.9443 1.9943,-0.7515 5.0466,-1.6346 7.7219,-2.233 1.7741,-0.3971 1.7418,-0.3506 0.7996,-1.1195 -1.3398,-1.0952 -4.5951,-4.3913 -5.4379,-5.5067 -1.1598,-1.5358 -2.3421,-3.2774 -2.3421,-3.4495 0,-0.076 -0.688,-1.1219 -1.5274,-2.3172 -1.6236,-2.3122 -2.0874,-2.9888 -3.7898,-5.5189 -2.0229,-3.0069 -3.048,-4.5635 -4.3578,-6.6184 -0.7195,-1.1309 -1.7149,-2.6573 -2.211,-3.3926 -0.755,-1.117 -1.3029,-2.0027 -3.2004,-5.1656 -0.084,-0.1445 -0.5709,0.1149 -1.9346,1.0338 -3.6427,2.4598 -6.3145,3.8497 -18.1824,9.455 -6.6809,3.1557 -9.6251,4.3698 -9.8929,4.0806 -0.1,-0.1122 -0.49,-2.0408 -0.8582,-4.2824 -1.0567,-6.423 1.3458,-12.0434 9.6042,-22.4791 1.0245,-1.2945 2.3991,-3.0957 3.055,-4.003 6.058,-8.3899 11.5244,-10.3679 20.6259,-7.4683 1.0871,0.3471 2.7619,0.8715 3.7224,1.1665 0.9605,0.2948 2.5308,0.8161 3.4912,1.1597 8.2116,2.9364 15.012,4.9557 19.089,5.6679 1.6176,0.2845 3.9744,0.8073 5.2367,1.1639 2.3336,0.6596 5.7978,1.5339 6.0763,1.5339 0.2713,0 4.4362,-5.2025 4.4362,-5.5392 0,-0.1188 -0.2809,-0.1695 -2.8364,-0.5051 -0.9603,-0.1259 -2.8914,-0.4884 -4.2919,-0.8042 -3.5926,-0.8134 -3.5432,-0.8034 -6.7644,-1.438 -1.5994,-0.3156 -3.8246,-0.7128 -4.9446,-0.8803 -1.1204,-0.168 -2.5271,-0.4296 -3.1279,-0.5801 -1.4643,-0.3691 -3.6131,-0.814 -4.9459,-1.0233 -0.5993,-0.092 -1.4842,-0.294 -1.9626,-0.4405 -0.4807,-0.1454 -1.6731,-0.4012 -2.6506,-0.5648 -2.5291,-0.4308 -9.2597,-2.0635 -13.2057,-3.2083 -2.2599,-0.6546 -5.1103,-1.7545 -6.982,-2.6942 -1.5961,-0.8001 -1.9261,-1.0093 -3.3828,-2.132 -0.4242,-0.3276 -0.7912,-0.5695 -0.8198,-0.5376 -0.026,0.03 -0.2975,0.6444 -0.6023,1.3648 -1.2095,2.8667 -5.439,9.6731 -7.9955,12.8675 -0.9686,1.2107 -1.4938,1.9258 -2.4961,3.4019 -1.4379,2.118 -4.4687,4.9473 -6.7048,6.2571 -0.6593,0.3864 -1.2365,0.7615 -1.2813,0.8343 -0.2916,0.472 -0.4533,0.046 -0.7209,-1.8899 -0.5345,-3.8737 -0.6556,-7.7748 -0.3602,-11.5789 0.078,-1.0403 0.2108,-3.6903 0.288,-5.8918 0.075,-2.1997 0.2069,-4.6211 0.2892,-5.3818 0.078,-0.76 0.2155,-2.2001 0.2978,-3.2001 0.2883,-3.5181 0.4291,-4.8328 0.6581,-6.156 0.3293,-1.9005 1.1403,-5.2369 1.8114,-7.4446 1.5768,-5.1906 1.6087,-4.7938 -0.8108,-9.7626 -2.1275,-4.3705 -4.0432,-10.1018 -5.0854,-15.2211 -0.5009,-2.4608 -0.509,-2.4608 -1.0098,0 -1.0405,5.1174 -2.9508,10.8345 -5.0746,15.1934 -2.4303,4.988 -2.3986,4.5987 -0.8213,9.7903 0.6711,2.2077 1.4828,5.5441 1.8119,7.4446 0.2286,1.3232 0.3693,2.6379 0.6581,6.156 0.08,1 0.2169,2.4401 0.2976,3.2001 0.078,0.7607 0.2124,3.1821 0.2898,5.3818 0.075,2.2015 0.2064,4.8515 0.2881,5.8918 0.442,5.6821 -0.2866,14.7556 -1.0818,13.4688 -0.043,-0.07 -0.6223,-0.4479 -1.281,-0.8343 -2.2358,-1.3098 -5.2664,-4.1391 -6.7041,-6.2571 -1.0023,-1.4761 -1.528,-2.1912 -2.4961,-3.4019 -2.5573,-3.1944 -6.7872,-10.0008 -7.9969,-12.8675 -0.3039,-0.7204 -0.5761,-1.3358 -0.6058,-1.3686 -0.028,-0.032 -0.298,0.1346 -0.598,0.376 -3.696,2.9567 -8.2738,4.649 -20.2242,7.4743 -0.9834,0.2343 -2.5871,0.5594 -3.5644,0.7256 -0.9771,0.1636 -2.17,0.4194 -2.6483,0.5648 -0.4807,0.1465 -1.3646,0.3438 -1.965,0.4405 -1.3324,0.2093 -3.4808,0.6542 -4.9458,1.0233 -0.6008,0.1505 -2.0071,0.4121 -3.1273,0.5801 -1.12,0.1675 -3.3461,0.5647 -4.9453,0.8803 -3.2202,0.6346 -3.1711,0.6246 -6.7645,1.438 -1.4004,0.3158 -3.3315,0.6783 -4.2911,0.8042 -2.5554,0.3356 -2.836,0.3863 -2.836,0.5051 0,0.3367 4.1641,5.5392 4.4351,5.5392 0.2792,0 3.744,-0.8743 6.0775,-1.5339 1.2619,-0.3566 3.618,-0.8794 5.2369,-1.1639 4.0764,-0.7122 10.8757,-2.7315 19.0883,-5.6679 0.9598,-0.3436 2.53,-0.8649 3.4908,-1.1597 0.9604,-0.295 2.6354,-0.8194 3.7225,-1.1665 9.101,-2.8996 14.5671,-0.9216 20.6267,7.4683 0.6554,0.9073 2.0299,2.7085 3.0541,4.003 8.2582,10.4357 10.6608,16.0561 9.6047,22.4791 -0.3746,2.2798 -0.7555,4.1711 -0.8643,4.288 -0.2823,0.304 -3.9764,-1.2643 -12.2144,-5.187 -10.6408,-5.0674 -12.1882,-5.8812 -15.7828,-8.3072 -0.96,-0.6479 -1.7844,-1.1964 -1.833,-1.2189 -0.046,-0.021 -0.5567,0.763 -1.1335,1.7452 -0.5771,0.9832 -1.5202,2.4855 -2.0962,3.3391 -0.5758,0.8537 -1.6358,2.4783 -2.3563,3.6101 -1.3062,2.0528 -2.3241,3.5985 -4.3569,6.6203 -1.7032,2.5301 -2.1672,3.2067 -3.7904,5.5189 -0.8393,1.1953 -1.5251,2.2383 -1.5251,2.3172 0,0.1721 -1.184,1.9137 -2.3448,3.4495 -0.8357,1.1073 -4.095,4.41 -5.4155,5.4886 -0.9451,0.7715 -0.9617,0.7482 0.7776,1.1376 2.6756,0.5984 5.7273,1.4815 7.7215,2.233 2.2429,0.8475 2.074,0.9175 2.3027,-0.9443 0.7953,-6.4769 2.2094,-10.6827 4.9656,-14.7638 0.2968,-0.4406 0.9463,-1.4875 1.4436,-2.3273 1.0456,-1.7661 2.6435,-4.0538 3.7101,-5.3102 0.4076,-0.48 1.2934,-1.6088 1.9692,-2.5093 1.3898,-1.8509 1.2976,-1.8127 2.68,-1.1268 0.5649,0.281 2.3359,0.9781 3.9357,1.5514 1.5999,0.5727 3.8585,1.464 5.0179,1.9803 1.1607,0.5165 2.8303,1.2511 3.7095,1.6321 3.5836,1.5523 8.9337,4.065 9.8423,4.6227 1.0398,0.6395 1.9072,1.055 2.7755,1.3334 0.2985,0.092 0.5776,0.2306 0.6206,0.2999 0.1713,0.2761 -0.4042,5.6379 -0.883,8.2172 -1.0893,5.8665 -2.3504,11.8892 -3.1661,15.1284 -0.3635,1.4397 -0.8958,3.8377 -1.1824,5.3286 -0.2853,1.4909 -0.6141,3.0285 -0.7306,3.4182 -0.1144,0.3897 -0.4115,1.6892 -0.6581,2.8904 -1.0828,5.2627 -2.709,9.7263 -5.1386,14.1098 -1.4715,2.653 -2.0185,3.4178 -3.4034,4.7474 -1.5393,1.4787 -5.8003,4.2486 -8.6564,5.6281 -1.7094,0.8266 -1.9964,1.0433 -1.383,1.0451 1.8276,0.011 5.6367,1.7115 7.4239,3.3266 3.2254,2.9136 -0.011,7.0791 -7.8754,10.1575 -2.4207,0.9453 -10.4698,3.1827 -12.9677,3.604 -0.7601,0.1279 -1.6386,0.2787 -1.952,0.3357 l -0.5701,0.1 1.3698,0.9553 c 0.7541,0.5243 2.2214,1.5674 3.2621,2.3202 2.0207,1.4596 5.3244,3.6843 7.3451,4.9411 4.2438,2.6426 5.6474,3.6142 7.985,5.5289 1.8133,1.4861 2.9728,2.4135 4.4009,3.5215 0.5884,0.4552 2.6729,2.4577 4.6337,4.4496 1.9597,1.992 3.5803,3.5814 3.6009,3.531 0.021,-0.048 -0.5231,-1.659 -1.209,-3.5773 z m 9.2955,-33.3821 c -1.8698,-0.484 -3.4916,-1.492 -5.9304,-3.6895 -0.6098,-0.55 -1.2558,-1.1124 -1.434,-1.2504 -0.9647,-0.7466 -2.3285,-1.6233 -2.8535,-1.8333 -0.3277,-0.1305 -0.5973,-0.2858 -0.5973,-0.3425 0,-0.1205 1.3182,-0.7374 1.5775,-0.7374 2.4139,0 7.2319,-6.1769 9.1706,-11.7595 0.4667,-1.3444 0.9502,-2.6034 1.073,-2.797 0.2668,-0.4159 1.0011,-3.1585 1.3407,-4.9951 0.1317,-0.7137 0.4579,-1.9895 0.7253,-2.8371 1.0559,-3.3394 1.8243,-6.8892 2.1919,-10.1221 0.4166,-3.6737 0.4878,-4.2057 0.7079,-5.3824 0.1191,-0.6397 0.2371,-1.36 0.2603,-1.5996 0.026,-0.2721 0.1268,-0.4366 0.2625,-0.4366 0.1362,0 0.2342,0.1645 0.2629,0.4366 0.024,0.2396 0.1411,0.9599 0.2601,1.5996 0.2204,1.1767 0.2918,1.7087 0.7081,5.3824 0.3677,3.2329 1.136,6.7827 2.1919,10.1221 0.2676,0.8476 0.5933,2.1234 0.7254,2.8371 0.3392,1.8366 1.0739,4.5792 1.3402,4.9951 0.1231,0.1936 0.6066,1.4526 1.0731,2.797 1.9387,5.5826 6.7572,11.7595 9.171,11.7595 0.259,0 1.5777,0.6169 1.5777,0.7374 0,0.055 -0.2701,0.212 -0.5974,0.3425 -0.5243,0.21 -1.8889,1.0867 -2.8536,1.8333 -0.1781,0.138 -0.8247,0.7004 -1.4341,1.2504 -2.4791,2.233 -4.0626,3.2085 -5.9982,3.6968 -2.0607,0.5193 -2.7859,0.2464 -5.0036,-1.8775 l -1.4235,-1.3636 -1.4233,1.3636 c -2.2153,2.1219 -2.9894,2.408 -5.0712,1.8702 z m 2.534,-4.6064 c 1.2344,-1.3585 2.6731,-3.7918 3.4053,-5.7558 0.574,-1.541 0.5381,-1.5357 1.0513,-0.1453 1.1242,3.0458 3.5716,6.6046 4.6845,6.813 0.9174,0.1728 2.4704,-0.6911 4.4022,-2.4489 0.7546,-0.6846 0.7593,-0.6477 -0.2203,-1.7402 -2.537,-2.8303 -4.8489,-6.3392 -5.6316,-8.5516 -1.9667,-5.561 -2.2546,-6.5446 -2.9477,-10.0733 -0.3886,-1.9799 -0.7424,-3.6004 -0.7832,-3.6004 -0.04,0 -0.3943,1.6205 -0.7826,3.6004 -0.6936,3.5287 -0.9811,4.5123 -2.9478,10.0733 -0.7831,2.2124 -3.0946,5.7213 -5.6316,8.5516 -0.98,1.093 -0.9753,1.056 -0.2167,1.7402 3.02,2.7288 4.2371,3.0618 5.6182,1.537 z m -50.6601,13.2769 c 0.5971,-0.1384 2.3119,-0.2976 4.1445,-0.3841 3.9006,-0.1831 5.2232,-0.3786 8.8831,-1.3073 8.4582,-2.1498 12.6159,-3.8802 14.8273,-6.1735 l 0.6556,-0.679 -0.4363,-0.3617 c -2.3306,-1.9317 -6.2839,-2.7254 -13.4573,-2.7021 -2.3608,0.011 -4.5055,0.049 -4.7667,0.095 -0.5461,0.093 -4.2137,-0.2619 -5.9233,-0.5782 -0.64,-0.1169 -1.6222,-0.2844 -2.1826,-0.3702 -0.9763,-0.1485 -2.0057,-0.4169 -2.8863,-0.7541 l -0.4121,-0.1565 0.2675,-0.1556 c 0.1524,-0.086 1.2368,-0.1643 2.5364,-0.1769 2.4453,-0.024 3.4155,-0.1 5.4245,-0.4392 0.7116,-0.1193 1.3658,-0.1891 1.4542,-0.1569 0.2829,0.1 2.2176,-0.1591 4.0577,-0.5504 2.7784,-0.5913 3.6163,-0.8184 4.3514,-1.1853 0.3755,-0.1881 1.1862,-0.4788 1.8029,-0.6477 3.0345,-0.8324 9.0409,-4.0366 11.9245,-6.3592 3.2957,-2.6545 6.8945,-10.5759 8.5069,-18.7157 0.1736,-0.8764 0.3703,-1.7402 0.4393,-1.9207 0.066,-0.1799 0.3239,-1.4257 0.569,-2.7694 0.2443,-1.3435 0.8611,-4.1449 1.3714,-6.2245 0.5106,-2.08 1.1299,-4.7962 1.3745,-6.0357 0.2453,-1.2413 0.6082,-3.0412 0.8089,-4.0002 0.9234,-4.4301 1.4061,-7.212 1.4897,-8.574 l 0.087,-1.4805 -0.7121,-0.457 c -1.0222,-0.6544 -4.2583,-2.1689 -11.1109,-5.1982 -1.3211,-0.5822 -2.8594,-1.2697 -3.4192,-1.5265 -2.7057,-1.2361 -7.1328,-2.712 -7.4208,-2.4732 -0.1169,0.093 -1.1034,1.5144 -2.1915,3.1513 l -1.9803,2.9758 0.2682,0.208 c 3.0506,2.35 9.6327,3.952 11.9159,2.8985 1.6384,-0.7569 3.9361,-1.6477 4.5086,-1.7502 l 0.5727,-0.098 -0.6786,0.7083 c -0.8219,0.8582 -1.3005,1.6484 -2.7136,4.4905 -1.3567,2.7265 -1.3979,3.0058 -0.7023,4.8727 1.4114,3.7964 1.6272,5.1075 1.5995,9.8188 -0.04,7.4725 -2.0385,12.5196 -7.1472,18.0606 -3.1673,3.4347 -3.52,4.3973 -3.5243,9.6163 v 2.5791 l -0.5116,-0.5817 c -0.2802,-0.3205 -0.9901,-1.204 -1.5747,-1.9649 -0.5859,-0.7589 -1.1836,-1.48 -1.328,-1.5994 -0.1446,-0.12 -0.605,-0.7419 -1.0217,-1.3819 -1.3264,-2.0366 -7.6783,-8.9459 -8.223,-8.9459 -0.1586,0 -0.3342,4.3829 -0.2192,5.4071 0.2075,1.8268 0.82,5.468 1.0866,6.4493 0.3102,1.1452 0.9649,4.0644 1.1071,4.9376 l 0.09,0.5747 -0.6306,-0.5447 c -0.3465,-0.2993 -0.9905,-0.8339 -1.4303,-1.1894 -1.2917,-1.0398 -2.3451,-2.0849 -3.6166,-3.5877 -5.0795,-6.0009 -13.4606,-10.7376 -19.0008,-10.7376 h -0.9329 l -0.3514,0.4733 c -0.9025,1.213 -1.121,3.0373 -0.7656,6.3624 0.4341,4.0456 0.7679,5.305 2.1197,8.0005 0.3801,0.7609 1.0323,2.1363 1.4469,3.056 0.4145,0.9196 1.4697,3.0905 2.3435,4.8222 0.8739,1.7323 1.955,4.0559 2.4017,5.1639 0.4473,1.1083 1.1323,2.6699 1.5244,3.4699 0.7113,1.4532 2.0475,5.0501 2.5611,6.8894 0.066,0.2451 1.2205,0.1664 2.7424,-0.1854 z m 111.9909,0.169 c 0.4452,-1.6535 1.8466,-5.4269 2.5546,-6.8727 0.3918,-0.8001 1.0718,-2.3492 1.5126,-3.441 0.4408,-1.093 1.5894,-3.5497 2.5563,-5.4618 0.9665,-1.9115 1.7546,-3.5169 1.7546,-3.5674 0,-0.048 0.6478,-1.4546 1.437,-3.121 1.996,-4.2087 2.1176,-4.6297 2.5767,-8.9213 0.3539,-3.3263 0.1353,-5.15 -0.7668,-6.3624 l -0.3514,-0.4733 h -0.9327 c -5.5403,0 -13.9219,4.7367 -19.0008,10.7375 -1.2716,1.5029 -2.3249,2.548 -3.6169,3.5878 -0.4395,0.3554 -1.0838,0.8901 -1.4299,1.1893 l -0.6316,0.5448 0.09,-0.5748 c 0.143,-0.8732 0.7976,-3.7923 1.1078,-4.9381 0.2664,-0.9808 0.8788,-4.6219 1.0864,-6.4487 0.1153,-1.0244 -0.059,-5.4071 -0.2193,-5.4071 -0.5447,0 -6.8961,6.9093 -8.2226,8.9459 -0.417,0.6399 -0.8775,1.2619 -1.0217,1.3818 -0.1444,0.1195 -0.7423,0.8406 -1.3284,1.5994 -0.5843,0.761 -1.2941,1.6445 -1.5744,1.965 l -0.5117,0.5817 v -2.5791 c -0.011,-5.219 -0.3572,-6.1819 -3.5241,-9.6163 -5.1086,-5.541 -7.1063,-10.5882 -7.1473,-18.0606 -0.026,-4.7114 0.1872,-6.0224 1.5996,-9.8188 0.6951,-1.8669 0.6539,-2.1462 -0.7024,-4.8734 -1.413,-2.8415 -1.8916,-3.6316 -2.7137,-4.4898 l -0.6784,-0.7084 0.5728,0.098 c 0.5721,0.098 2.8699,0.9932 4.5085,1.7501 2.2837,1.0539 8.8641,-0.5481 11.9174,-2.8995 l 0.2686,-0.2092 -1.1417,-1.6917 c -0.6285,-0.9324 -1.4769,-2.2163 -1.8855,-2.857 -0.4078,-0.638 -0.8747,-1.2954 -1.0381,-1.4596 l -0.2989,-0.2984 -1.4341,0.4739 c -2.069,0.6834 -4.6221,1.6452 -5.7965,2.1812 -0.5596,0.2568 -2.0986,0.9443 -3.4194,1.5264 -6.8524,3.0293 -10.0885,4.5439 -11.1105,5.1983 l -0.712,0.457 0.088,1.4804 c 0.081,1.3615 0.5661,4.144 1.4896,8.5741 0.2004,0.9589 0.5636,2.7589 0.8086,4.0002 0.245,1.2394 0.8632,3.9556 1.3742,6.0357 0.5104,2.0795 1.1274,4.8809 1.3721,6.2244 0.2446,1.3437 0.5005,2.5895 0.5687,2.7694 0.065,0.1803 0.2659,1.0444 0.4394,1.9208 1.6115,8.1398 5.2108,16.0612 8.5069,18.7156 2.8836,2.3226 8.8899,5.5269 11.9245,6.3592 0.6165,0.1689 1.4276,0.4597 1.8029,0.6478 1.3381,0.6672 7.7255,1.9856 8.4087,1.7357 0.086,-0.032 0.7429,0.036 1.4545,0.1568 2.0092,0.3355 2.9794,0.4131 5.4246,0.4393 1.2996,0.012 2.3841,0.086 2.5364,0.1768 l 0.2675,0.1557 -0.4121,0.154 c -0.8835,0.3325 -1.9113,0.5998 -2.8869,0.7526 -0.5597,0.085 -1.5418,0.2572 -2.1819,0.3741 -1.7099,0.3163 -5.3771,0.6738 -5.9234,0.5783 -0.2615,-0.044 -2.4059,-0.087 -4.767,-0.095 -7.1731,-0.023 -11.127,0.7697 -13.4575,2.7021 l -0.4363,0.3615 0.6561,0.6792 c 2.2111,2.2933 6.369,4.0237 14.827,6.1734 3.6591,0.9286 4.9817,1.1241 8.8833,1.3078 2.6293,0.1241 5.1288,0.4375 5.3692,0.6739 0.1542,0.1524 1.4801,0.044 1.5246,-0.1213 z m -124.2498,-13.6833 c -0.875,-1.7072 -1.9353,-3.8833 -2.3567,-4.8378 -0.4232,-0.954 -1.0966,-2.3899 -1.4964,-3.1895 -0.9734,-1.9436 -1.6321,-3.6854 -1.9161,-5.0633 -1.9385,-9.4111 -0.1568,-14.9885 4.7782,-14.9577 5.3407,0.032 12.4733,3.2524 18.1234,8.1792 l 0.9444,0.8251 v -3.0012 c 0,-1.6514 0.031,-3.7943 0.069,-4.7631 0.081,-2.0721 0.2037,-1.8508 -1.7637,-3.2559 -2.2566,-1.6121 -3.9271,-2.2321 -16.2714,-6.032 -6.3468,-1.9537 -5.6135,-1.8025 -5.6313,-1.166 -0.021,0.7884 -0.323,1.1117 -2.4613,2.6468 -1.0903,0.7821 -2.4157,1.7384 -2.9455,2.1242 -7.1084,5.1693 -14.7467,8.1835 -20.0888,7.9268 -2.6044,-0.1247 -4.4401,-2.0168 -4.4401,-4.5746 v -1.0371 l -1.5614,0.7826 c -1.4505,0.7277 -4.4124,1.9666 -5.6753,2.3748 -0.7355,0.2376 -0.7233,0.2569 0.7701,1.1718 0.7188,0.4394 2.9247,1.8913 4.9043,3.2244 1.9793,1.3328 4.4829,2.9619 5.5625,3.6198 6.1251,3.7311 8.6852,5.264 10.1822,6.0944 4.345,2.4134 6.7332,4.0468 10.0546,6.8769 2.2994,1.9605 4.5583,3.6891 6.6013,5.0563 1.7247,1.1525 5.1725,3.5742 5.6726,3.9858 0.7306,0.5979 0.5961,0.2135 -1.0572,-3.0107 z m 135.1017,1.2629 c 0.9201,-0.6421 2.2941,-1.5836 3.0552,-2.0923 2.2425,-1.5002 4.4459,-3.1759 6.6361,-5.0498 3.4946,-2.99 5.4303,-4.3205 10.2287,-7.0246 2.0369,-1.1477 3.6954,-2.1403 10.1913,-6.0986 1.0797,-0.6582 3.5825,-2.2873 5.5625,-3.6201 1.9782,-1.3331 4.1852,-2.785 4.9043,-3.2244 1.4933,-0.9149 1.5057,-0.9342 0.7698,-1.1718 -1.2627,-0.4082 -4.2246,-1.6471 -5.6751,-2.3748 l -1.5613,-0.7826 v 1.0371 c 0,2.5578 -1.8358,4.4499 -4.44,4.5746 -5.3425,0.2567 -12.9806,-2.7575 -20.089,-7.9268 -0.5298,-0.3858 -1.8557,-1.3421 -2.9455,-2.1242 -2.1382,-1.5351 -2.439,-1.8584 -2.4611,-2.6468 -0.018,-0.6365 0.7151,-0.7877 -5.6315,1.166 -12.3442,3.7999 -14.0147,4.4199 -16.2715,6.032 -1.9676,1.4051 -1.8467,1.1838 -1.7635,3.2559 0.038,0.9688 0.069,3.1117 0.069,4.7631 v 3.0012 l 0.9443,-0.8251 c 5.6501,-4.9268 12.7825,-8.1468 18.1234,-8.1792 4.9352,-0.029 6.7163,5.5466 4.7781,14.9577 -0.2839,1.3779 -0.9425,3.1197 -1.916,5.0633 -0.3997,0.7996 -1.0731,2.2355 -1.4963,3.1895 -0.4213,0.9545 -1.4767,3.1206 -2.3453,4.8148 -1.7683,3.4481 -1.8355,3.6561 -0.9602,2.9515 0.3407,-0.2742 1.3713,-1.0233 2.291,-1.6656 z m -103.0269,-22.9283 c 0.5581,-1.0776 1.5339,-2.3277 3.638,-4.6557 2.53,-2.7997 4.1146,-5.597 5.2121,-9.199 l 0.5323,-1.7457 0.1544,-2.8306 c 0.239,-4.3425 -0.098,-6.6498 -1.5616,-10.6249 -0.5081,-1.3832 -0.6404,-3.0997 -0.3157,-4.1383 0.1237,-0.3965 0.2104,-0.729 0.1924,-0.7392 -0.016,-0.011 -0.7063,-0.1332 -1.533,-0.274 -2.6825,-0.4583 -6.1627,-1.7267 -8.6255,-3.1443 -0.6908,-0.3982 -1.2955,-0.7223 -1.3447,-0.7223 -0.145,0 -2.4195,3.7421 -2.4195,3.9814 0,0.032 0.6206,0.4048 1.3805,0.825 4.8029,2.6604 6.9357,6.672 5.9972,11.281 -1.1331,5.5634 -4.0831,6.9599 -9.2297,4.3648 -7.4941,-3.777 -11.8735,-5.1404 -21.5672,-6.7096 -3.7799,-0.6126 -9.9347,-1.9373 -13.8185,-2.9728 -1.4804,-0.3964 -3.9345,-0.9507 -5.4552,-1.2326 -4.1437,-0.7658 -8.2315,-1.6154 -9.0331,-1.8757 -0.975,-0.3148 -2.698,-0.739 -4.8165,-1.1865 -0.977,-0.2045 -2.2528,-0.5281 -2.8374,-0.7157 -0.5822,-0.1895 -1.6324,-0.5169 -2.3324,-0.7299 -1.6968,-0.5128 -1.6433,-0.5563 1.031,-0.8496 2.4603,-0.271 6.9864,-1.0087 7.5871,-1.2383 0.2003,-0.073 0.7572,-0.1842 1.2379,-0.2425 0.9883,-0.1167 5.5975,-1.1511 8.4358,-1.8942 1.0394,-0.2726 3.4622,-0.8963 5.3828,-1.387 1.9199,-0.4906 3.982,-1.0918 4.5816,-1.3335 1.685,-0.6822 8.5245,-3.1646 9.746,-3.5376 2.0489,-0.627 5.5991,-1.7994 6.1471,-2.0313 l 0.5469,-0.2297 0.3986,0.2536 c 0.5216,0.3351 3.7098,2.9944 5.2358,4.3707 l 1.2022,1.0825 0.2871,-0.3419 c 0.1592,-0.1883 0.4856,-0.6692 0.7278,-1.0693 0.24,-0.3998 0.6931,-1.132 1.0058,-1.6271 l 0.5655,-0.8992 -1.0236,-0.7731 c -0.5631,-0.4256 -1.8493,-1.3568 -2.8584,-2.0705 -2.5282,-1.7876 -5.1347,-3.7549 -6.3151,-4.765 -1.1639,-0.9957 -0.9722,-0.9621 -2.2265,-0.3918 -3.7605,1.7078 -11.3096,4.287 -13.8025,4.7179 -0.2398,0.04 -0.7966,0.1969 -1.2364,0.3472 -0.4398,0.1505 -1.2759,0.3811 -1.8584,0.5135 -0.5817,0.1339 -1.2358,0.3342 -1.4537,0.4484 -0.2197,0.1139 -0.5898,0.2076 -0.8248,0.208 h -0.427 l 0.427,-0.4487 c 0.235,-0.2459 0.8212,-0.7285 1.2995,-1.072 0.9088,-0.6512 2.0303,-1.7726 2.7698,-2.7697 0.2363,-0.3192 0.8133,-1.0397 1.2797,-1.6002 0.4655,-0.5607 1.3112,-1.8045 1.8767,-2.765 0.565,-0.9593 1.6403,-2.7697 2.3875,-4.0213 0.7487,-1.2524 1.3603,-2.3444 1.3603,-2.4286 0,-0.081 -1.0412,-1.0698 -2.3128,-2.1923 -2.1598,-1.9038 -4.1497,-3.9211 -5.2782,-5.3499 -0.2659,-0.3356 -1.0279,-1.2519 -1.6954,-2.0366 -2.8882,-3.3978 -6.5762,-8.5898 -7.9577,-11.2023 -0.542,-1.0234 -1.2141,-2.2209 -1.4948,-2.6608 -2.0252,-3.1773 -1.8499,-2.8409 -2.9054,-5.6008 -0.8034,-2.1002 -2.1908,-5.2769 -3.0623,-7.0127 -1.8604,-3.7067 -4.4125,-11.3506 -5.7803,-17.3159 -1.3979,-6.0888 -1.8186,-8.6366 -2.4573,-14.874 -0.2015,-1.9603 -0.4934,-4.807 -0.6511,-6.3265 -0.9877,-9.6091 -1.2294,-13.1526 -1.2366,-18.1851 l -0.011,-4.365 -1.2519,3.2022 c -0.689,1.7591 -1.6209,4.0967 -2.0733,5.1916 -0.4505,1.0964 -1.0427,2.672 -1.3148,3.5026 -0.2722,0.8318 -1.0833,2.8164 -1.8022,4.4093 -0.7177,1.5935 -1.471,3.2906 -1.6725,3.7706 -0.6327,1.5063 -3.3984,9.9252 -4.1022,12.4903 -0.369,1.3482 -0.9593,3.2652 -1.3109,4.2591 -1.7269,4.8996 -3.5742,12.3655 -4.0672,16.4335 -0.1263,1.0307 -0.4202,3.2486 -0.6536,4.9296 -0.235,1.6792 -0.4669,3.479 -0.5152,4.0003 -0.1333,1.4096 -0.3634,3.1284 -0.5947,4.4361 -0.1126,0.6386 -0.2708,2.0472 -0.3506,3.1261 -0.077,1.0804 -0.2703,2.5205 -0.4225,3.2005 -0.152,0.6809 -0.2649,1.2511 -0.2501,1.2668 0.2191,0.2355 5.9388,1.7092 7.2178,1.8583 0.4397,0.049 1.1419,0.1438 1.5629,0.2036 l 0.7607,0.1064 1.3647,-1.8282 c 1.5931,-2.1361 4.4313,-5.4542 5.5171,-6.4518 1.4639,-1.3467 5.6541,-4.3235 6.0809,-4.3235 0.1234,0 0.6578,-0.2904 1.1881,-0.6467 l 0.9655,-0.6467 0.7352,1.5382 c 0.4052,0.8458 0.7348,1.5818 0.7348,1.6332 0,0.1551 1.8919,4.8272 2.2123,5.4637 1.1903,2.3628 3.1347,5.3544 7.0829,10.8989 3.0633,4.3005 3.3692,4.6774 6.6324,8.1768 1.041,1.1139 2.3637,2.5478 2.9408,3.187 0.5786,0.6389 1.6415,1.7784 2.3634,2.5321 1.5867,1.6533 1.5837,1.198 0.017,4.4076 -2.212,4.5335 -4.1343,7.0584 -7.0666,9.2817 -0.7201,0.5456 -1.5382,1.2017 -1.8191,1.4585 -0.2794,0.2566 -0.7165,0.5553 -0.9718,0.6632 -0.2542,0.1043 -0.4975,0.2534 -0.5394,0.3213 -0.091,0.1535 0.7218,2.7413 1.3605,4.3164 0.4264,1.0491 1.1695,3.1785 1.1695,3.3505 0,0.1165 -0.4095,0.072 -0.4614,-0.046 -0.096,-0.2365 -3.702,-2.9781 -5.5784,-4.248 -0.5337,-0.36 -1.3072,-0.9019 -1.7197,-1.2045 -1.0722,-0.7874 -1.1644,-0.7903 -3.705,-0.1223 -5.7354,1.5104 -7.6947,1.8131 -11.7365,1.8191 -8.5988,0.013 -14.1136,-2.7957 -17.6628,-8.9995 -1.5746,-2.753 -0.7082,-8.8107 1.8673,-13.0348 0.166,-0.2722 0.3026,-0.5645 0.303,-0.6492 0,-0.267 -4.3624,-4.1658 -4.4335,-3.9623 -0.034,0.1 -0.2655,1.2821 -0.5098,2.6183 -1.6084,8.8099 -3.2235,13.5815 -5.8468,17.2807 -1.7342,2.447 -2.4745,3.4356 -3.3851,4.5315 -3.1685,3.8056 -7.791,6.8827 -11.9806,7.9772 -1.2445,0.3247 -9.0848,1.4723 -15.01,2.1965 -2.1203,0.2593 -3.9013,0.5105 -3.9586,0.5575 -0.055,0.046 1.0562,0.5367 2.4728,1.0891 1.418,0.5504 4.0502,1.5892 5.8494,2.3064 1.8005,0.7183 4.2229,1.6833 5.3822,2.144 2.9566,1.1788 8.2732,3.3964 8.8301,3.6847 0.2557,0.1326 0.4944,0.2412 0.5299,0.2412 0.034,0 -0.1325,-0.4744 -0.3718,-1.0547 -2.3657,-5.7276 3.9748,-12.0555 12.1038,-12.0789 4.812,-0.013 11.6776,1.8053 14.3793,3.808 3.1977,2.3714 3.9206,6.8919 1.8464,11.5811 l -0.3695,0.834 0.3275,-0.088 c 8.8809,-2.4741 15.7228,-2.9049 27.7462,-1.7498 9.4284,0.9065 13.4441,1.6861 20.6547,4.0122 1.2405,0.4006 3.1066,0.9775 4.1471,1.2825 10.2031,2.9906 14.0078,4.4593 16.931,6.5352 0.9105,0.6487 1.7168,1.1783 1.7899,1.1783 0.071,0 0.4734,0.3142 0.8885,0.7009 0.4155,0.3846 1.5074,1.3263 2.4283,2.0907 1.8623,1.5491 4.3447,4.0626 6.328,6.4079 1.5547,1.8401 1.3476,1.7694 1.9241,0.6548 z m -84.3868,-84.141 c -0.7525,-3.6413 -0.3103,-11.5228 0.9302,-16.6082 1.4924,-6.1094 5.9024,-14.9908 9.7708,-19.6769 0.3069,-0.3709 0.5574,-0.7175 0.5574,-0.7695 0,-0.1354 1.6787,-2.6145 1.9645,-2.9016 0.3449,-0.3427 0.5461,-0.1415 0.4718,0.4717 -0.056,0.4759 0.099,2.1764 0.4751,5.0373 0.071,0.5612 0.267,2.2954 0.435,3.8544 0.3112,2.9119 0.7196,5.2082 1.446,8.1464 0.2279,0.9198 0.4896,2.1315 0.5836,2.6918 0.09,0.5597 0.2265,1.3119 0.2961,1.672 l 0.1281,0.6547 -0.843,1.3086 c -0.4631,0.7197 -1.1896,1.8669 -1.6145,2.5463 -3.1111,4.9817 -5.1123,7.4456 -7.5618,9.3111 -0.359,0.2736 -1.0791,0.8849 -1.6008,1.356 -1.4277,1.2985 -4.0879,3.0473 -4.8947,3.2182 l -0.4591,0.094 z m 3.6233,-6.7391 c 0.048,-0.079 0.4299,-0.3776 0.8436,-0.6562 2.6008,-1.75 4.7458,-4.3482 7.5731,-9.1699 l 1.1166,-1.9011 -0.6691,-2.8985 c -0.6782,-2.9396 -1.2702,-6.0526 -1.478,-7.7728 l -0.1153,-0.9457 -0.8205,1.3094 c -0.9572,1.5265 -1.4718,2.5353 -2.9014,5.6914 -2.2447,4.9497 -3.1084,8.1765 -3.6169,13.5098 -0.081,0.8805 -0.1916,1.9117 -0.2394,2.2909 -0.078,0.651 0.07,0.9224 0.3073,0.5427 z m 152.2974,90.2253 c 1.9833,-2.3454 4.4659,-4.8588 6.3275,-6.408 0.9212,-0.7643 2.0129,-1.706 2.4286,-2.0906 0.4153,-0.3867 0.8149,-0.701 0.8875,-0.701 0.071,0 0.8807,-0.5296 1.7911,-1.1778 2.9229,-2.0764 6.7276,-3.545 16.9308,-6.5356 1.0405,-0.3051 2.9067,-0.8819 4.1474,-1.2826 7.2105,-2.3261 11.2263,-3.1057 20.6546,-4.0122 12.0236,-1.155 18.8653,-0.7243 27.7459,1.7499 l 0.3278,0.088 -0.3696,-0.834 c -2.0741,-4.6892 -1.3538,-9.2097 1.846,-11.5811 2.7014,-2.0028 9.568,-3.8214 14.3798,-3.8081 8.1284,0.023 14.4693,6.3514 12.1038,12.0789 -0.2395,0.5803 -0.4075,1.0547 -0.3718,1.0547 0.034,0 0.2743,-0.1053 0.5301,-0.2411 0.5564,-0.2884 5.873,-2.5059 8.8299,-3.6847 1.1596,-0.4607 3.5817,-1.4258 5.3819,-2.1441 1.7997,-0.7172 4.4315,-1.7559 5.8489,-2.3063 1.4174,-0.5524 2.5299,-1.0402 2.4725,-1.0891 -0.055,-0.046 -1.8374,-0.2983 -3.9577,-0.5576 -16.9368,-2.0708 -19.1064,-2.7474 -24.5302,-7.6502 -1.9268,-1.7404 -2.9723,-3.0031 -5.8459,-7.0549 -2.6229,-3.6992 -4.2383,-8.4708 -5.846,-17.2807 -0.2446,-1.3361 -0.4727,-2.5148 -0.51,-2.6183 -0.069,-0.2034 -4.4342,3.6953 -4.4334,3.9623 0,0.082 0.1366,0.3769 0.303,0.6492 2.5755,4.224 3.4417,10.2819 1.8671,13.0352 -3.5494,6.2033 -9.0645,9.0129 -17.6627,8.9996 -4.0417,-0.011 -6.0011,-0.3092 -11.7363,-1.8197 -2.5408,-0.668 -2.6331,-0.6651 -3.7055,0.1224 -0.4124,0.3026 -1.1857,0.8445 -1.7194,1.2044 -1.8764,1.2699 -5.4807,4.0121 -5.5784,4.2481 -0.049,0.1224 -0.4613,0.1646 -0.4613,0.046 0,-0.1721 0.742,-2.3015 1.1696,-3.3506 0.6383,-1.575 1.4548,-4.1627 1.3603,-4.3164 -0.041,-0.066 -0.2861,-0.2133 -0.5393,-0.3212 -0.2562,-0.1042 -0.693,-0.4067 -0.9719,-0.6633 -0.2812,-0.2561 -1.0991,-0.9128 -1.8191,-1.4583 -2.9326,-2.2235 -4.8553,-4.7484 -7.0665,-9.2817 -1.5671,-3.2097 -1.5688,-2.7544 0.017,-4.4078 0.7219,-0.7534 1.7854,-1.8931 2.3637,-2.532 0.5772,-0.6392 1.8999,-2.0732 2.9411,-3.1871 3.2629,-3.4993 3.5691,-3.8762 6.6319,-8.1768 3.9487,-5.5442 5.8929,-8.536 7.0834,-10.8988 0.3204,-0.6365 2.2121,-5.3087 2.2121,-5.4638 0,-0.05 0.3298,-0.7874 0.735,-1.6332 l 0.7349,-1.5381 0.964,0.6467 c 0.5317,0.3564 1.0663,0.6467 1.189,0.6467 0.4276,0 4.6178,2.9767 6.0813,4.3229 1.0862,0.9977 3.9242,4.3157 5.5174,6.4518 l 1.3647,1.8283 0.7603,-0.1064 c 0.4209,-0.058 1.1235,-0.1513 1.5631,-0.2036 1.2794,-0.1491 6.9988,-1.6228 7.2179,-1.8583 0.015,-0.015 -0.095,-0.5859 -0.2502,-1.2668 -0.1526,-0.6799 -0.343,-2.1201 -0.4226,-3.2005 -0.077,-1.0789 -0.2375,-2.4877 -0.351,-3.126 -0.2313,-1.3078 -0.4606,-3.0265 -0.5942,-4.4362 -0.047,-0.5207 -0.2801,-2.3211 -0.515,-4.0003 -0.234,-1.6809 -0.5276,-3.8989 -0.6535,-4.9295 -0.4933,-4.0681 -2.3405,-11.534 -4.0674,-16.4335 -0.3518,-0.994 -0.9418,-2.911 -1.311,-4.2591 -0.7042,-2.5652 -3.4695,-10.9841 -4.1027,-12.4902 -0.2013,-0.4802 -0.9542,-2.1773 -1.6718,-3.7708 -0.7191,-1.5929 -1.5301,-3.5775 -1.8023,-4.4093 -0.2719,-0.8306 -0.8642,-2.4062 -1.3147,-3.5026 -0.4523,-1.0948 -1.3855,-3.4325 -2.0741,-5.1916 l -1.2517,-3.2022 -0.011,4.365 c -0.011,5.0326 -0.2491,8.5761 -1.2373,18.1852 -0.157,1.5194 -0.449,4.3661 -0.6508,6.3264 -0.6381,6.2376 -1.059,8.7852 -2.4571,14.8741 -1.3677,5.9652 -3.9198,13.6092 -5.78,17.3158 -0.8715,1.7358 -2.2598,4.9127 -3.0625,7.0127 -0.9116,2.3854 -1.058,2.6976 -1.7935,3.8542 -0.3317,0.5202 -0.832,1.3059 -1.1117,1.7467 -0.2817,0.4398 -0.9527,1.6373 -1.4948,2.6607 -1.3815,2.6125 -5.0695,7.8046 -7.9578,11.2029 -0.6675,0.7841 -1.4301,1.7004 -1.6955,2.0361 -1.1287,1.4287 -3.1186,3.4461 -5.278,5.3499 -1.272,1.1224 -2.3133,2.1081 -2.3133,2.1924 0,0.081 0.612,1.176 1.3608,2.4284 0.7473,1.2517 1.8225,3.062 2.3875,4.0215 0.5655,0.9604 1.4088,2.2041 1.8765,2.7648 0.4664,0.5606 1.0436,1.281 1.2797,1.5998 0.7396,0.9975 1.8612,2.1189 2.7699,2.7701 0.4783,0.3435 1.0646,0.8261 1.2991,1.0724 l 0.4274,0.4484 h -0.4274 c -0.2345,0 -0.6047,-0.09 -0.8244,-0.2081 -0.2181,-0.1142 -0.872,-0.3144 -1.4537,-0.4484 -0.5824,-0.1324 -1.4186,-0.363 -1.8584,-0.5135 -0.4398,-0.1506 -0.9965,-0.3071 -1.2364,-0.3472 -2.4929,-0.4308 -10.0428,-3.0101 -13.8025,-4.7178 -1.2545,-0.5704 -1.0624,-0.604 -2.2264,0.3917 -1.1806,1.0102 -3.7883,2.9774 -6.3158,4.7652 -1.0084,0.7135 -2.2951,1.645 -2.858,2.0703 l -1.0234,0.7732 0.5651,0.8991 c 0.3131,0.4951 0.7662,1.2273 1.0056,1.6271 0.2429,0.4001 0.5687,0.8811 0.7284,1.0693 l 0.2864,0.3419 1.2029,-1.0825 c 1.5262,-1.3763 4.7142,-4.0356 5.2356,-4.3706 l 0.3988,-0.2537 0.5462,0.2297 c 0.5486,0.2319 4.0983,1.4044 6.1468,2.0315 1.2226,0.3728 8.0618,2.8552 9.7471,3.5375 0.5995,0.2413 2.6617,0.8429 4.5815,1.3334 1.9206,0.4907 4.3435,1.1145 5.3821,1.387 2.8388,0.7431 7.4482,1.7772 8.4366,1.8942 0.4799,0.055 1.0377,0.166 1.2378,0.2425 0.6004,0.2296 5.1265,0.9673 7.5869,1.2383 2.6744,0.2933 2.728,0.3368 1.0303,0.8497 -0.699,0.2129 -1.7492,0.5403 -2.3316,0.7299 -0.5847,0.1875 -1.8606,0.5111 -2.8379,0.7157 -2.1178,0.4475 -3.8412,0.8716 -4.8163,1.1864 -0.8012,0.2605 -4.8896,1.11 -9.0331,1.8757 -1.5206,0.282 -3.9749,0.8362 -5.455,1.2326 -3.8835,1.0355 -10.0388,2.3602 -13.8188,2.9729 -9.6934,1.5691 -14.0726,2.9325 -21.5667,6.7095 -5.1468,2.5951 -8.0966,1.1986 -9.2299,-4.3648 -0.9387,-4.609 1.1947,-8.6206 5.997,-11.281 0.7603,-0.4202 1.3797,-0.7919 1.3797,-0.8249 0,-0.2393 -2.2736,-3.9815 -2.4183,-3.9815 -0.047,0 -0.6538,0.3241 -1.3452,0.7223 -2.4622,1.4176 -5.9423,2.6861 -8.6253,3.1444 -0.8263,0.1407 -1.5154,0.2642 -1.5336,0.2743 -0.016,0.011 0.068,0.3424 0.1934,0.7388 0.3322,1.0654 0.1943,2.7547 -0.3423,4.2138 -3.2865,8.9285 -1.7345,17.5771 4.364,24.3247 2.1039,2.328 3.0796,3.5781 3.6377,4.6557 0.5765,1.1145 0.3696,1.1853 1.924,-0.6546 z m 81.642,-83.2394 c -0.632,-0.1909 -3.5797,-2.2005 -4.6177,-3.1492 -0.5219,-0.473 -1.2418,-1.0859 -1.6011,-1.3595 -2.4494,-1.8655 -4.4506,-4.3294 -7.5619,-9.3111 -0.4247,-0.6794 -1.151,-1.8266 -1.6142,-2.5463 l -0.8433,-1.3086 0.1284,-0.6547 c 0.068,-0.3601 0.204,-1.1123 0.296,-1.672 0.09,-0.5603 0.3559,-1.772 0.5836,-2.6918 0.7266,-2.9382 1.1349,-5.2345 1.4459,-8.1464 0.1681,-1.559 0.3638,-3.2932 0.4352,-3.8544 0.3733,-2.8609 0.5327,-4.5614 0.4751,-5.0373 -0.072,-0.6132 0.1267,-0.8144 0.4719,-0.4717 0.2856,0.2871 1.9645,2.7662 1.9645,2.9016 0,0.051 0.2503,0.3986 0.5573,0.7695 3.0047,3.6402 7.1115,11.2739 8.8329,16.4162 1.775,5.3071 2.5533,11.8153 2.0999,17.5846 -0.2239,2.8468 -0.1991,2.7873 -1.0525,2.5311 z m -2.4953,-7.5286 c -0.046,-0.3792 -0.1561,-1.4104 -0.2397,-2.2909 -0.5084,-5.3333 -1.3718,-8.5601 -3.6165,-13.5098 -1.4298,-3.1561 -1.9445,-4.1649 -2.9018,-5.6914 l -0.82,-1.3094 -0.1157,0.9457 c -0.2074,1.7202 -0.7995,4.8332 -1.4779,7.7728 l -0.6687,2.8985 1.1163,1.9011 c 2.8274,4.8217 4.9721,7.4199 7.5731,9.1699 0.4135,0.2786 0.7923,0.5745 0.8434,0.6562 0.2352,0.3797 0.3885,0.1053 0.3075,-0.5427 z m -153.7119,70.8198 c 0.3111,-0.3108 0.8885,-2.5701 0.8885,-3.4735 0,-2.1488 -1.5494,-4.3288 -4.1448,-5.8318 -1.186,-0.6867 -1.1967,-0.6812 -1.3716,0.642 -0.071,0.5562 -0.3381,2.2075 -0.5895,3.6705 -0.2516,1.4636 -0.4375,2.8707 -0.4133,3.1283 l 0.043,0.467 1.2624,0.6253 c 1.8562,0.9202 3.8234,1.2711 4.3223,0.7722 z m 78.1336,-0.029 c 0.3618,-0.075 1.2122,-0.4177 1.891,-0.754 l 1.2326,-0.6133 0.043,-0.4671 c 0.024,-0.2576 -0.1614,-1.6647 -0.4136,-3.1283 -0.251,-1.4631 -0.5182,-3.1144 -0.5892,-3.6706 -0.1748,-1.3231 -0.1855,-1.3288 -1.3719,-0.6417 -3.4313,1.9868 -4.6213,4.3839 -3.8367,7.7235 0.4627,1.9759 0.639,2.0656 3.0419,1.5515 z m -103.2999,-7.4314 c 1.3918,-0.8403 3.5462,-2.4741 4.7496,-3.5989 0.7358,-0.6858 1.6017,-1.4591 1.9269,-1.7185 0.6044,-0.4815 1.4963,-1.5461 2.442,-2.9122 l 0.5306,-0.7671 -0.1977,-0.2404 c -0.1053,-0.1342 -1.0143,-0.9582 -2.0117,-1.8313 l -1.8155,-1.5894 -0.5856,0.097 c -0.3215,0.054 -0.7486,0.1115 -0.9484,0.1238 -0.1998,0.013 -0.3965,0.06 -0.4362,0.1053 -0.039,0.045 -0.6521,0.1987 -1.3592,0.337 -1.2236,0.2418 -2.4002,0.5439 -5.1874,1.3349 -0.6797,0.1943 -1.859,0.5186 -2.6175,0.7235 -0.761,0.205 -2.2664,0.6566 -3.346,1.0041 -1.9955,0.6424 -8.3149,2.3094 -14.758,3.8925 -0.9106,0.2242 -0.8547,0.2407 5.0121,1.424 1.5602,0.3155 4.1127,0.8956 5.673,1.2898 5.3434,1.3489 10.7992,2.5232 12.202,2.6225 0.1064,0.011 0.4369,-0.1283 0.727,-0.3033 z m 128.7551,-0.038 c 2.2749,-0.3811 5.6747,-1.1435 10.179,-2.2801 1.5603,-0.3941 4.1125,-0.9741 5.6725,-1.2891 5.8673,-1.1836 5.9229,-1.2003 5.0122,-1.4244 -6.4429,-1.5831 -12.7621,-3.2501 -14.7576,-3.8919 -1.0797,-0.3482 -2.5851,-0.7998 -3.3462,-1.0045 -0.7582,-0.2051 -1.9381,-0.5294 -2.6173,-0.7231 -2.7875,-0.7917 -3.9638,-1.0937 -5.1873,-1.3355 -0.7074,-0.1383 -1.3187,-0.2899 -1.3592,-0.3366 -0.039,-0.045 -0.2367,-0.092 -0.4363,-0.1053 -0.1997,-0.013 -0.6269,-0.067 -0.9481,-0.1239 l -0.586,-0.097 -1.8151,1.5895 c -0.9982,0.873 -1.9034,1.6975 -2.0125,1.8312 l -0.1971,0.2403 0.5304,0.7672 c 0.9486,1.37 1.8384,2.4313 2.4444,2.9123 0.3262,0.2594 1.1558,0.9968 1.8428,1.6384 1.5705,1.4669 4.9862,4.0027 5.3783,3.9951 0.048,0 1.0404,-0.1607 2.2031,-0.3556 z m -171.555,-17.5356 c 2.3259,-0.1762 3.8233,-0.4291 6.6342,-1.1158 l 2.1476,-0.5233 -0.1836,-0.2217 c -0.097,-0.1222 -1.2302,-1.0065 -2.5107,-1.9655 -2.8586,-2.1423 -2.4714,-1.5719 -3.1208,-4.6092 -0.9964,-4.6666 -1.6707,-6.6106 -2.6274,-7.566 -2.4614,-2.4623 -5.7387,-1.7847 -9.304,1.9234 l -0.6577,0.6842 -1.2366,-0.8181 c -1.8052,-1.1958 -3.9297,-2.5154 -4.0449,-2.5128 -0.7195,0.012 -2.2096,5.3268 -2.2096,7.8807 v 1.1773 l 0.4548,0.7422 c 2.6942,4.3918 6.2875,6.4794 11.9093,6.9206 2.075,0.1629 2.6619,0.1633 4.7494,0.011 z m 218.2455,-0.226 c 4.4335,-0.6824 7.6435,-2.8286 10.018,-6.6986 l 0.4552,-0.7422 v -1.1773 c 0,-2.5539 -1.4904,-7.8687 -2.2101,-7.8807 -0.1152,0 -2.2394,1.317 -4.0449,2.5128 l -1.2363,0.8181 -0.6579,-0.6842 c -3.5653,-3.7081 -6.8425,-4.3857 -9.3038,-1.9234 -0.9567,0.9554 -1.6311,2.8994 -2.6276,7.566 -0.6495,3.0373 -0.2625,2.4669 -3.1209,4.6092 -1.2802,0.959 -2.4096,1.8433 -2.5107,1.9655 l -0.1834,0.2217 2.1473,0.5236 c 5.0672,1.2394 9.2059,1.5156 13.2751,0.8895 z m -157.8049,-3.4099 c 0.6675,-1.0392 1.9585,-3.0523 2.8683,-4.4737 0.9108,-1.4196 2.1346,-3.3016 2.72,-4.1809 0.5866,-0.8791 1.4082,-2.2549 1.8264,-3.0545 0.8639,-1.651 2.115,-3.418 2.421,-3.418 0.3581,0 2.0985,1.0335 3.4516,2.0505 2.798,2.1023 11.2877,6.7011 16.0008,8.666 0.4801,0.2006 1.7562,0.8078 2.8373,1.3505 3.0667,1.5404 5.8109,2.6892 5.9926,2.5097 0.098,-0.098 0.1281,-0.8951 0.077,-2.3114 -0.1692,-4.9864 -1.8366,-8.2595 -8.6924,-17.0664 -1.7191,-2.2087 -2.8709,-3.7318 -4.8161,-6.3676 -2.5084,-3.3997 -5.977,-5.4151 -9.3148,-5.414 -2.7569,0 -4.3292,0.433 -17.5793,4.8449 -4.6791,1.5578 -9.2298,3.0283 -10.109,3.2679 -3.0456,0.8265 -4.2365,1.1638 -8.2731,2.3365 -2.2289,0.6495 -4.3722,1.298 -4.7613,1.4436 l -0.7081,0.2653 1.0529,1.0312 c 0.8771,0.8595 2.7622,2.4642 5.3213,4.5271 0.267,0.2157 0.5425,0.4972 0.6113,0.6252 0.1668,0.3132 -0.9965,3.0175 -1.9973,4.6409 -0.4197,0.6813 -1.1359,1.8582 -1.5911,2.6184 -0.457,0.7599 -0.8991,1.4706 -0.9834,1.5812 -0.082,0.1053 -0.2297,0.4196 -0.3237,0.6899 l -0.1688,0.4924 h 0.3143 c 0.1728,0 0.453,-0.093 0.6223,-0.2156 0.3826,-0.2685 4.4897,-1.8966 5.1479,-2.0411 0.6272,-0.1372 2.8789,-1.1907 3.9906,-1.8677 1.117,-0.6781 1.0706,-0.6853 2.1212,0.343 0.4909,0.4795 1.1632,1.0849 1.4948,1.341 0.7853,0.6109 2.5778,2.1985 4.2339,3.7507 0.7266,0.6793 1.8432,1.627 2.4811,2.1062 0.6381,0.479 1.4183,1.0845 1.7325,1.3459 0.7579,0.6288 0.6216,0.7261 1.9965,-1.4171 z m 92.7203,1.4171 c 0.3141,-0.2614 1.0943,-0.8669 1.7321,-1.3459 0.6382,-0.4792 1.7549,-1.4269 2.4809,-2.1062 1.6567,-1.5522 3.4488,-3.1398 4.2344,-3.7507 0.3314,-0.2561 1.004,-0.8615 1.4949,-1.341 1.0506,-1.0283 1.0041,-1.0211 2.121,-0.343 1.1114,0.677 3.3636,1.7305 3.9906,1.8677 0.6579,0.1445 4.7651,1.7726 5.1477,2.0411 0.1696,0.1189 0.4495,0.2156 0.6224,0.2156 h 0.3145 l -0.1688,-0.4924 c -0.09,-0.2703 -0.2391,-0.5812 -0.3239,-0.6899 -0.082,-0.1053 -0.5261,-0.8213 -0.9836,-1.5812 -0.4552,-0.7602 -1.1716,-1.9371 -1.5906,-2.6184 -1.0009,-1.6234 -2.1641,-4.3277 -1.9974,-4.6409 0.067,-0.128 0.3444,-0.4095 0.6109,-0.6252 2.5593,-2.0629 4.4446,-3.6676 5.3218,-4.5271 l 1.0529,-1.0312 -0.7081,-0.2653 c -0.3891,-0.1456 -2.5329,-0.7941 -4.762,-1.4436 -4.0359,-1.1727 -5.2269,-1.51 -8.2724,-2.3365 -0.8794,-0.2396 -5.4301,-1.7101 -10.1095,-3.2679 -13.2495,-4.4119 -14.8221,-4.844 -17.5792,-4.8449 -3.3381,0 -6.806,2.0143 -9.3143,5.414 -1.9453,2.6358 -3.0975,4.1589 -4.8164,6.3676 -6.8561,8.8069 -8.523,12.08 -8.6922,17.0664 -0.046,1.4163 -0.019,2.2093 0.078,2.3114 0.1815,0.1795 2.9261,-0.9693 5.9926,-2.5097 1.0811,-0.5427 2.3569,-1.1499 2.837,-1.3505 4.7134,-1.9649 13.2032,-6.5637 16.0008,-8.666 1.3534,-1.017 3.0939,-2.0505 3.4514,-2.0505 0.3065,0 1.558,1.767 2.4213,3.418 0.4184,0.7996 1.2406,2.1754 1.8267,3.0545 0.5852,0.8793 1.8087,2.7613 2.7195,4.1809 0.9103,1.4214 2.2012,3.4345 2.8688,4.4737 1.3748,2.1432 1.2382,2.0459 1.9965,1.4171 z m -139.2457,-0.4342 c -0.048,-0.2611 -0.1723,-0.6041 -0.2713,-0.7647 -1.1411,-1.8549 -1.8282,-6.9656 -1.2436,-9.2508 0.8537,-3.3357 2.2622,-4.9067 6.8936,-7.6852 l 0.5492,-0.3299 -1.0992,-1.1857 c -1.1618,-1.2523 -2.7374,-3.3041 -5.2051,-6.7854 l -1.4953,-2.1091 -1.9591,-0.088 c -1.0787,-0.048 -2.6152,-0.1619 -3.4155,-0.2475 -0.7993,-0.083 -2.1419,-0.1169 -2.9812,-0.07 -1.6074,0.085 -7.6144,-0.361 -10.1097,-0.7541 -0.7204,-0.1133 -2.2264,-0.3409 -3.346,-0.5058 -5.2485,-0.772 -9.9116,-1.8114 -12.0151,-2.6785 -3.4043,-1.4003 -4.3145,-1.858 -5.4705,-2.7479 -3.1969,-2.4584 -4.6863,-5.822 -4.1383,-9.3343 0.1902,-1.2172 0.2392,-1.1527 -0.6408,-0.8198 -3.3239,1.2573 -8.2695,1.1162 -12.5666,-0.3543 -1.0462,-0.3582 -1.9379,-0.652 -1.9821,-0.652 -0.043,0 0.2694,0.5043 0.6933,1.1188 0.822,1.1916 0.5267,0.9511 6.8341,5.5729 2.6214,1.9186 4.9242,3.8319 7.5804,6.2931 2.9401,2.7243 6.4253,5.7809 8.3097,7.2873 2.3724,1.8955 7.5007,6.424 7.5061,6.6258 0.011,0.2508 2.8776,2.5842 4.0335,3.28 l 1.344,0.8081 1.3477,-0.9293 c 6.3581,-4.3847 12.525,-2.1242 14.4279,5.2918 1.185,4.6147 1.714,6.3299 2.0208,6.5445 1.1163,0.7828 3.0006,2.2678 4.2456,3.345 2.016,1.7466 2.3051,1.899 2.1535,1.1288 z m 184.1573,0.3039 c 0.1742,-0.089 0.9708,-0.7369 1.7705,-1.4311 1.2446,-1.0781 3.1242,-2.5603 4.2457,-3.3467 0.3065,-0.2147 0.8355,-1.9298 2.0209,-6.5445 1.9029,-7.416 8.0699,-9.6765 14.4278,-5.2918 l 1.3475,0.9293 1.3444,-0.8081 c 1.1555,-0.6958 4.0265,-3.0292 4.0333,-3.28 0.011,-0.2019 5.1336,-4.7303 7.5062,-6.6257 1.8845,-1.5066 5.3697,-4.5631 8.3096,-7.2873 2.6563,-2.4617 4.9588,-4.3745 7.5806,-6.2935 6.307,-4.6215 6.012,-4.3809 6.8337,-5.5727 0.4243,-0.6144 0.7367,-1.1187 0.6935,-1.1187 -0.043,0 -0.9358,0.2931 -1.982,0.652 -4.2971,1.4701 -9.243,1.6113 -12.5667,0.3543 -0.8799,-0.3329 -0.8309,-0.3973 -0.6409,0.8196 0.5478,3.5126 -0.9414,6.8761 -4.138,9.3345 -1.156,0.8896 -2.0663,1.3476 -5.4709,2.7477 -2.1033,0.8673 -6.7663,1.906 -12.0151,2.6787 -1.1194,0.1649 -2.6254,0.3922 -3.346,0.5059 -2.4952,0.393 -8.5022,0.8405 -10.1098,0.754 -0.8389,-0.044 -2.1815,-0.013 -2.9811,0.07 -0.8,0.083 -2.3366,0.1956 -3.4153,0.2468 l -1.959,0.088 -1.4953,2.1091 c -2.4678,3.4813 -4.0433,5.5331 -5.2054,6.7854 l -1.099,1.1857 0.5494,0.3292 c 4.6312,2.7791 6.0395,4.3502 6.8935,7.6859 0.5845,2.2851 -0.099,7.3958 -1.2439,9.2508 -0.1972,0.3221 -0.4101,1.2378 -0.2856,1.2378 0.042,0 0.2217,-0.073 0.3974,-0.1692 z m -180.3995,-1.5893 c 1.4887,-0.7963 6.847,-6.744 7.8151,-8.6771 0.7808,-1.5526 0.874,-1.2979 -1.2629,-3.4299 l -1.8639,-1.8602 -0.7614,0.4802 c -3.8825,2.4441 -4.7752,3.201 -5.4462,4.6146 -0.8903,1.8764 -0.5706,5.1134 0.8405,8.4912 0.2498,0.5973 0.2632,0.6045 0.6788,0.3812 z m 177.3976,-1.7421 c 2.0305,-6.0442 1.3,-7.7374 -5.0658,-11.7449 l -0.7613,-0.4802 -1.8642,1.8602 c -2.1366,2.132 -2.0437,1.8773 -1.2624,3.4299 1.1653,2.3248 7.4066,9.0093 8.1992,8.7834 0.077,-0.021 0.4194,-0.854 0.7545,-1.8484 z m -186.1651,-29.3205 c 0.5682,-0.1145 0.5662,-0.1644 -0.03,-0.7863 -0.9733,-1.0123 -2.4904,-3.8379 -3.6021,-6.711 -0.4145,-1.0669 -0.7722,-1.963 -0.7962,-1.9905 -0.073,-0.086 -2.5713,1.6772 -3.5051,2.4801 -1.4131,1.2156 -5.7311,6.2645 -5.5295,6.4656 0.041,0.041 1.2112,0.1412 2.5965,0.2222 1.3865,0.077 3.3395,0.1933 4.3396,0.2541 2.3911,0.1441 5.9543,0.1811 6.5273,0.063 z m 200.1024,-0.058 c 1.2809,-0.074 3.3961,-0.1987 4.7027,-0.272 1.306,-0.071 2.4098,-0.1666 2.4518,-0.2091 0.2016,-0.2015 -4.1147,-5.2491 -5.5291,-6.466 -0.9338,-0.8029 -3.4301,-2.5688 -3.5051,-2.48 -0.024,0.027 -0.3817,0.9235 -0.7963,1.9904 -1.1116,2.8732 -2.6287,5.6987 -3.602,6.711 -0.5733,0.5975 -0.5925,0.6907 -0.1576,0.7749 0.6137,0.1173 4.1031,0.089 6.4356,-0.047 z m -299.3623,41.2203 c -0.8006,-0.2869 -2.7316,-0.9336 -4.2913,-1.4373 -1.5598,-0.5037 -4.4733,-1.472 -6.4734,-2.1527 -4.9172,-1.6729 -16.1393,-4.8779 -20.4893,-5.8521 -1.2106,-0.2709 -2.8238,-0.7194 -3.5846,-0.9965 -0.7611,-0.2762 -1.5779,-0.5477 -1.8189,-0.6033 -0.2391,-0.054 -1.5838,-0.5469 -2.9865,-1.0911 -1.4017,-0.5436 -3.5957,-1.2811 -4.8719,-1.6405 -2.6676,-0.7469 -5.7482,-1.6575 -7.8501,-2.3193 l -1.4561,-0.4577 1.1636,-0.098 c 0.6416,-0.054 4.4702,-0.1398 8.5101,-0.1854 12.1383,-0.1419 11.9245,-0.1232 16.2393,-1.4803 4.1538,-1.3083 6.7433,-2.6825 6.7433,-3.5789 0,-0.8207 -2.161,-3.6924 -3.6698,-4.8771 -3.422,-2.6855 -9.7001,-6.1523 -13.6396,-7.5328 -2.1549,-0.7562 -9.4532,-4.33 -9.1828,-4.4971 0.089,-0.055 0.9352,-0.06 1.8748,-0.013 4.8503,0.254 15.6929,0.3356 17.4906,0.1284 7.7959,-0.8941 10.8115,-2.3203 16.7891,-7.9437 5.609,-5.2757 6.6029,-7.178 9.1815,-17.5754 0.6472,-2.6066 1.2677,-4.3265 2.909,-8.0649 4.0568,-9.2363 0.4284,-17.3883 -10.8422,-24.3586 -1.0804,-0.668 -2.6495,-1.7093 -3.4888,-2.3165 -1.4462,-1.0461 -5.2969,-3.3621 -5.5903,-3.3621 -0.073,0 -0.6649,-0.2554 -1.3112,-0.565 -1.5186,-0.7311 -2.3382,-1.0987 -3.2214,-1.4472 -0.3949,-0.1552 -1.4375,-0.6245 -2.3166,-1.0421 -0.8797,-0.419 -1.8286,-0.8609 -2.1091,-0.9815 -0.834,-0.3666 -0.2904,-0.3586 1.1,0.015 4.0468,1.0842 5.3485,1.4618 7.2947,2.1143 1.1834,0.3973 2.4461,0.7993 2.8064,0.8932 0.3584,0.091 2.0935,0.7443 3.8532,1.4472 10.2125,4.0726 20.4059,7.5855 24.2211,8.3475 5.2378,1.0457 11.2667,0.7518 12.9738,-0.6293 l 0.3228,-0.2613 -0.414,-1.0306 c -0.556,-1.3814 -2.3354,-3.7341 -4.5127,-5.9646 -1.7541,-1.7996 -2.1483,-2.1278 -4.8075,-4.0237 -0.787,-0.5597 -1.7646,-1.315 -2.1723,-1.6777 -0.6707,-0.5956 -2.2041,-1.5584 -5.3175,-3.3402 -0.6003,-0.3438 -1.4843,-0.8984 -1.9643,-1.2355 -0.4794,-0.335 -1.6694,-1.0792 -2.6445,-1.6494 -0.9739,-0.573 -2.3481,-1.5131 -3.0547,-2.09 -0.7055,-0.5762 -1.6367,-1.2975 -2.0703,-1.6006 -0.4341,-0.3031 -0.7316,-0.5532 -0.6626,-0.5532 0.6518,0 10.0876,2.8943 12.2868,3.7698 3.7089,1.4755 6.5057,2.2069 9.4542,2.4787 7.2376,0.6626 14.9115,0.025 22.5405,-1.8739 0.9234,-0.2297 2.236,-0.5271 2.9162,-0.6608 6.7115,-1.318 12.0961,-3.6668 17.0373,-7.4354 0.9902,-0.7557 2.3059,-1.7483 2.9243,-2.2063 5.0316,-3.7388 6.0989,-4.6001 7.0402,-5.6862 0.5514,-0.6327 1.2293,-1.2886 1.5093,-1.4575 0.2804,-0.1673 1.1308,-0.9033 1.8907,-1.6324 0.7601,-0.728 1.551,-1.4466 1.7565,-1.5935 l 0.3738,-0.2681 -0.4033,0.8487 c -0.7677,1.6102 -3.3339,5.3004 -7.2543,10.4262 -3.3753,4.4135 -5.9647,7.1238 -14.4467,15.1222 -3.0591,2.8842 -4.0437,4.1222 -8.5853,10.7957 -2.9938,4.3973 -3.9805,9.0923 -2.9319,13.9425 1.8436,8.5217 3.3708,11.7827 8.1042,17.3038 1.6332,1.9052 3.3589,4.1327 3.2701,4.2232 -0.1549,0.1549 -6.675,-2.6462 -7.2908,-3.1318 -0.084,-0.066 -0.4186,-0.2066 -0.7384,-0.3096 -0.3205,-0.099 -0.9429,-0.369 -1.3825,-0.5912 -0.4399,-0.2229 -1.295,-0.5374 -1.9009,-0.6988 -1.1611,-0.3102 -2.1344,-0.7079 -5.4456,-2.2265 -1.1197,-0.514 -2.4285,-1.0872 -2.9085,-1.276 -0.4804,-0.1868 -2.5557,-1.0517 -4.6144,-1.9187 -6.5774,-2.773 -7.5519,-2.8972 -11.113,-1.4159 -4.2571,1.7721 -8.428,7.498 -10.5305,14.4576 -1.55,5.1308 -2.6828,9.5399 -2.865,11.1415 l -0.073,0.6678 0.9072,1.0777 c 0.9487,1.1243 0.9947,1.1722 2.7615,2.7328 0.6001,0.5294 1.5488,1.3907 2.1099,1.913 0.5613,0.5246 1.8039,1.5988 2.7643,2.3902 0.9595,0.7909 2.1723,1.8364 2.6941,2.3222 1.8678,1.7415 4.4137,3.7354 4.5208,3.5418 0.055,-0.099 0.4009,-1.4946 0.767,-3.0944 0.3663,-1.6003 0.8238,-3.4321 1.0136,-4.0731 0.1908,-0.6408 0.4914,-1.8504 0.6677,-2.6912 0.1761,-0.8399 0.4451,-1.9534 0.5966,-2.4731 0.6879,-2.3621 1.9186,-9.0622 2.109,-11.4919 0.052,-0.6792 0.1296,-1.4333 0.1676,-1.6724 0.038,-0.2392 0.1032,-2.5638 0.1528,-5.164 l 0.08,-4.7277 0.1761,0.8005 c 0.093,0.4394 0.2876,1.3892 0.421,2.1085 0.4918,2.624 2.9903,10.2725 4.0249,12.3197 1.3719,2.7149 3.9743,6.79 5.524,8.6464 2.6201,3.1378 7.9105,7.9859 10.9033,9.9895 0.599,0.4005 1.3196,0.932 1.5991,1.1791 0.28,0.2476 1.3463,1.0307 2.3694,1.7423 2.1651,1.5059 2.1995,1.5793 0.4092,0.8872 -1.9489,-0.7538 -4.6211,-1.4828 -6.3918,-1.7483 -0.8538,-0.1263 -2.0734,-0.3374 -2.7132,-0.4682 -0.8244,-0.1671 -1.9358,-0.2365 -3.8034,-0.2364 l -2.6406,1e-4 -0.7063,0.363 c -0.3881,0.2004 -0.8506,0.5804 -1.03,0.8439 -0.9389,1.3944 -4.2136,13.5944 -4.071,15.1682 0.312,3.4361 3.6899,3.9387 10.0684,1.4981 1.1199,-0.4278 2.4608,-0.9201 2.9818,-1.0936 0.5202,-0.173 1.7312,-0.6923 2.6901,-1.1527 0.9607,-0.4619 1.9755,-0.9255 2.2559,-1.0285 0.6034,-0.2245 1.3089,-0.5275 2.691,-1.1585 1.2545,-0.5738 4.1854,-1.7595 4.2275,-1.7111 0.016,0.018 -0.4931,0.821 -1.1334,1.781 -1.2941,1.9416 -1.8393,2.8416 -2.9503,4.8732 -4.9886,9.1238 -12.8849,13.0234 -24.0202,11.8631 -2.3982,-0.2496 -6.6144,-0.488 -10.5164,-0.5918 -1.5564,-0.04 -2.852,-0.097 -2.8821,-0.1315 -0.056,-0.056 1.1972,-4.2092 2.1583,-7.1396 1.1847,-3.6101 2.2312,-7.3015 2.3823,-8.3939 l 0.091,-0.6851 -0.9105,-0.6973 c -0.5007,-0.3835 -1.8301,-1.4842 -2.9542,-2.447 -1.1235,-0.9639 -2.6318,-2.2405 -3.3515,-2.8366 -1.7349,-1.4386 -6.0625,-5.1465 -7.7416,-6.6318 -0.7368,-0.6522 -1.898,-1.555 -2.5792,-2.0098 l -1.2375,-0.8241 -0.5148,0.3499 c -0.2834,0.1927 -1.0152,0.8873 -1.6226,1.5418 -1.491,1.6044 -4.032,3.7674 -5.7595,4.9048 -0.7811,0.5123 -1.4178,0.9812 -1.4176,1.0383 0,0.057 0.1265,0.8744 0.2809,1.8103 0.8642,5.205 0.7303,8.5808 -0.5004,12.4541 -0.3185,1.009 -0.3511,1.25 -0.1961,1.4536 0.9846,1.287 5.5835,5.9719 7.5937,7.7381 0.9158,0.8034 1.7718,1.6232 1.9006,1.8219 0.1304,0.1982 0.6278,0.8141 1.1058,1.3695 1.2041,1.3986 1.2407,1.3687 -0.8034,0.6376 z m 35.5659,-6.3793 c 3.4588,-0.603 5.8235,-1.8549 9.0669,-4.7984 1.7759,-1.6124 2.0934,-2.2044 0.862,-1.6066 -10.5525,5.1322 -18.5113,3.3291 -18.5113,-4.1922 v -1.3117 l 1.0999,-4.4442 c 2.9494,-11.9157 4.0984,-13.6458 9.2641,-13.9301 0.8601,-0.046 1.5648,-0.1211 1.5648,-0.1621 0,-0.041 -0.8695,-0.9663 -1.9321,-2.0515 -2.6927,-2.7524 -3.9046,-4.2572 -6.1834,-7.6753 -1.5683,-2.3526 -2.0043,-2.9169 -2.1115,-2.7281 -0.1303,0.2369 -0.4317,1.4923 -0.9016,3.7744 -0.3627,1.758 -1.2194,5.2612 -1.5476,6.3272 -0.159,0.52 -0.5144,1.9604 -0.7888,3.2007 -0.4309,1.9505 -2.0983,8.2047 -2.3696,8.8923 -0.073,0.1922 -0.4177,-0.011 -1.7671,-1.0528 -0.921,-0.7084 -1.8037,-1.3504 -1.9641,-1.4255 -0.161,-0.071 -1.0507,-0.776 -1.9796,-1.5648 -2.482,-2.1034 -3.7002,-3.0926 -5.0016,-4.0593 -0.6395,-0.4745 -2.5383,-2.1743 -4.2182,-3.778 -1.6812,-1.6038 -3.4162,-3.1953 -3.8558,-3.538 -0.4404,-0.342 -1.3425,-1.1209 -2.0058,-1.7277 l -1.2059,-1.1027 0.071,-1.105 c 0.1591,-2.3909 0.6823,-4.6348 1.9752,-8.4491 0.5534,-1.6397 1.3105,-3.9632 1.6798,-5.1642 2.5858,-8.4104 7.7737,-14.886 13.4602,-16.8054 4.1306,-1.3947 5.9495,-1.1781 12.1568,1.4445 2.0802,0.8791 4.4321,1.8565 5.226,2.1746 0.793,0.3176 2.2613,0.9483 3.2614,1.4049 3.2548,1.4816 4.4002,1.9745 4.4556,1.9196 0.029,-0.029 -0.2728,-0.6593 -0.6752,-1.3958 -1.048,-1.9325 -2.4187,-6.4161 -3.4798,-11.3958 -0.4248,-1.995 -0.4242,-5.5699 0,-7.7764 0.7979,-4.135 1.5993,-5.727 6.0242,-11.9721 0.6515,-0.9201 1.5737,-2.2212 2.0481,-2.8903 1.0854,-1.5358 3.1939,-3.7573 6.0177,-6.3405 1.2091,-1.1056 2.1755,-2.0329 2.1478,-2.0613 -0.027,-0.027 -0.6969,0.2133 -1.4857,0.5348 -1.6335,0.6681 -5.3428,1.8087 -7.7094,2.3723 -12.1997,2.9005 -18.6845,3.6822 -26.159,3.1531 -3.115,-0.219 -3.0354,-0.2745 -1.3739,0.949 0.7422,0.546 2.0315,1.6843 2.8654,2.5289 9.5716,9.6968 7.8535,14.7639 -5.0064,14.7666 l -3.2009,7e-4 -2.5577,-0.5412 c -3.0765,-0.6528 -6.7794,-1.7221 -9.4185,-2.7204 -1.0652,-0.4035 -1.976,-0.7333 -2.0251,-0.7333 -0.046,0 0.4392,0.5403 1.0827,1.2001 3.2501,3.3343 5.2991,8.3425 5.3115,12.9823 0.011,3.167 -0.3125,4.448 -2.2841,9.096 -1.4918,3.5161 -1.9615,4.8443 -2.4672,6.9778 -2.4622,10.3886 -4.0186,13.3756 -9.802,18.8145 -6.9733,6.5568 -10.8506,8.3631 -19.8044,9.2268 l -2.6919,0.2601 1.2316,0.6337 c 7.5885,3.9107 12.1252,8.4539 12.4546,12.4748 l 0.09,1.1378 -0.4885,0.7236 c -1.6168,2.3889 -8.047,5.2791 -13.6041,6.1134 -0.769,0.1154 -1.4254,0.2364 -1.4589,0.271 -0.032,0.032 0.7113,0.2373 1.656,0.4535 3.8939,0.8933 18.6715,4.9702 19.172,5.2896 0.077,0.049 0.4234,0.1656 0.7639,0.2538 l 0.6165,0.1596 -0.4841,-0.5955 c -0.2644,-0.3275 -0.8285,-1.0202 -1.2501,-1.5406 -0.4229,-0.5199 -0.921,-1.2683 -1.1077,-1.6614 l -0.3385,-0.7158 0.2263,-0.5206 c 0.4051,-0.9235 1.0337,-2.9631 1.2717,-4.1145 0.4805,-2.3356 0.1031,-8.0191 -0.6871,-10.4437 -0.1185,-0.3591 -0.2534,-0.8286 -0.3021,-1.0406 -0.047,-0.2127 -0.1263,-0.4832 -0.1714,-0.6026 -0.056,-0.1493 0.1978,-0.3827 0.8361,-0.7665 2.6627,-1.5986 6.2933,-4.5925 8.4327,-6.9521 1.4156,-1.5625 3.8457,-4.0191 3.9748,-4.0191 0.033,0 0.3423,0.2643 0.6868,0.59 0.3438,0.3258 1.3787,1.1563 2.2981,1.8468 0.9194,0.69 2.1299,1.6573 2.6902,2.1497 0.5604,0.4921 1.7713,1.4736 2.6919,2.1818 0.9195,0.7091 2.131,1.7235 2.6917,2.2543 0.5583,0.53 2.1955,1.9504 3.6352,3.1549 1.4392,1.2041 3.1838,2.6714 3.8752,3.2606 0.6896,0.5891 1.793,1.495 2.4497,2.0127 1.3652,1.0778 1.6505,1.4266 1.8892,2.3127 l 0.1716,0.6346 -0.6022,2.0554 c -0.3326,1.1303 -0.7009,2.3508 -0.8194,2.7101 -0.1755,0.535 -0.9029,2.9998 -2.2818,7.741 -0.2071,0.711 -0.4791,0.6423 3.3183,0.8395 1.8408,0.092 4.1971,0.2628 5.2368,0.3698 2.352,0.2453 6.2109,0.1711 8.0734,-0.1531 z m 355.0755,6.8427 c 0,-0.048 0.3913,-0.5457 0.8685,-1.1009 0.4779,-0.5554 0.9753,-1.1712 1.106,-1.3695 0.129,-0.1987 0.9849,-1.0184 1.9004,-1.8219 2.0104,-1.7662 6.6093,-6.4511 7.594,-7.7381 0.1551,-0.2036 0.1224,-0.4447 -0.1964,-1.4537 -1.2304,-3.8731 -1.3647,-7.249 -0.5003,-12.454 0.1545,-0.9359 0.2809,-1.7509 0.2811,-1.8103 0,-0.057 -0.6366,-0.5259 -1.4175,-1.0382 -1.728,-1.1375 -4.2687,-3.3005 -5.7598,-4.9049 -0.6075,-0.6545 -1.3391,-1.349 -1.6226,-1.5418 l -0.5149,-0.3499 -1.2372,0.8242 c -0.6817,0.4548 -1.8423,1.3575 -2.5792,2.0096 -1.6794,1.4854 -6.0067,5.1933 -7.7416,6.6318 -0.7197,0.5961 -2.2279,1.8729 -3.3518,2.8367 -1.1242,0.9627 -2.4532,2.0635 -2.954,2.447 l -0.9103,0.6973 0.091,0.6848 c 0.1515,1.0926 1.198,4.784 2.383,8.3941 0.9611,2.9305 2.2156,7.0828 2.1578,7.1397 -0.029,0.029 -1.3256,0.086 -2.8819,0.1315 -3.9021,0.101 -8.118,0.3422 -10.5165,0.5918 -11.1349,1.1603 -19.0315,-2.7394 -24.0203,-11.8631 -1.1105,-2.0316 -1.6557,-2.9316 -2.95,-4.8732 -0.6401,-0.96 -1.1496,-1.7614 -1.1331,-1.781 0.041,-0.046 2.9728,1.1373 4.2272,1.7111 1.3822,0.631 2.0877,0.9341 2.6912,1.1586 0.2801,0.1 1.2949,0.5664 2.2556,1.0282 0.9589,0.4606 2.1701,0.9799 2.6903,1.1529 0.521,0.1735 1.8616,0.6658 2.9819,1.0937 6.3782,2.4406 9.7561,1.9379 10.0684,-1.4981 0.1425,-1.5737 -3.132,-13.7739 -4.071,-15.1683 -0.1796,-0.2634 -0.6421,-0.6435 -1.0301,-0.8438 l -0.7065,-0.3631 -2.6403,-1e-4 c -1.868,-10e-5 -2.9788,0.067 -3.8038,0.2365 -0.6393,0.1307 -1.8591,0.3419 -2.7128,0.4678 -1.771,0.2658 -4.4429,0.9948 -6.3922,1.7486 -1.7899,0.6921 -1.7555,0.6187 0.4095,-0.8871 1.0232,-0.7116 2.0891,-1.4948 2.3695,-1.7423 0.2793,-0.2472 1.0001,-0.779 1.5991,-1.1791 2.9241,-1.9587 8.1154,-6.6907 10.6577,-9.7158 1.799,-2.1402 4.2937,-5.9959 5.7695,-8.9201 1.0347,-2.0477 3.5331,-9.6957 4.0249,-12.3197 0.1336,-0.7194 0.3241,-1.6692 0.4211,-2.1085 l 0.1761,-0.8006 0.08,4.7278 c 0.044,2.6001 0.1149,4.9247 0.1527,5.164 0.038,0.239 0.1134,0.9931 0.168,1.6723 0.1901,2.4297 1.4209,9.1298 2.1091,11.492 0.1511,0.5196 0.4203,1.6331 0.596,2.473 0.1766,0.8408 0.4769,2.0504 0.6681,2.6912 0.1898,0.6409 0.6472,2.4728 1.0135,4.0731 0.366,1.5998 0.7122,2.9926 0.7672,3.0943 0.1032,0.1937 2.6526,-1.8001 4.5208,-3.5417 0.5214,-0.4858 1.7344,-1.5313 2.6938,-2.3222 0.9601,-0.7914 2.2033,-1.8656 2.7646,-2.3902 0.5609,-0.5223 1.5098,-1.3836 2.1094,-1.9129 1.7671,-1.5607 1.8131,-1.6086 2.7619,-2.7329 l 0.907,-1.0778 -0.073,-0.6677 c -0.2672,-2.3539 -2.8198,-11.5429 -4.0683,-14.6329 -0.8607,-2.1367 -4.3112,-7.3633 -5.7273,-8.6791 -1.5598,-1.448 -3.7951,-2.5474 -6.1563,-3.0294 -2.204,-0.4492 -2.6266,-0.3425 -8.5565,2.1582 -2.0587,0.8671 -4.1341,1.7319 -4.6145,1.9187 -0.4798,0.1888 -1.788,0.7621 -2.9083,1.2762 -3.311,1.5189 -4.2843,1.9161 -5.4455,2.2263 -0.6059,0.161 -1.461,0.4759 -1.9008,0.6988 -0.4395,0.2222 -1.0619,0.4887 -1.3824,0.5912 -0.32,0.099 -0.6519,0.2414 -0.7386,0.3096 -0.6159,0.4855 -7.1361,3.2868 -7.2908,3.1318 -0.086,-0.086 1.6367,-2.318 3.2699,-4.2232 4.7337,-5.5211 6.261,-8.782 8.1044,-17.3038 1.0487,-4.8501 0.059,-9.5452 -2.9316,-13.9425 -4.5347,-6.6638 -5.5164,-7.8969 -8.5876,-10.7957 -8.5356,-8.0562 -11.0697,-10.7091 -14.4445,-15.1222 -3.9205,-5.1258 -6.4868,-8.816 -7.2546,-10.4262 l -0.4032,-0.8487 0.3736,0.2681 c 0.2058,0.1469 0.9964,0.865 1.7568,1.5935 0.7597,0.7291 1.6103,1.4651 1.8906,1.6324 0.28,0.1689 0.9579,0.8249 1.5095,1.4575 0.941,1.0862 2.0084,1.9474 7.0401,5.6862 0.6183,0.4579 1.9341,1.4504 2.9242,2.2064 4.9411,3.7686 10.326,6.1172 17.0371,7.4353 0.6806,0.1337 1.9928,0.431 2.9163,0.6608 10.5887,2.6344 21.8128,2.8599 28.7755,0.5731 1.1434,-0.3743 1.6852,-0.5744 3.4375,-1.2621 2.1307,-0.8373 11.4582,-3.6856 12.0687,-3.6856 0.067,0 -0.2289,0.25 -0.6628,0.5532 -0.4336,0.3031 -1.3647,1.0244 -2.0705,1.6006 -0.7061,0.5769 -2.0807,1.517 -3.0546,2.0899 -0.9751,0.5704 -2.1648,1.3145 -2.6441,1.6495 -0.4801,0.3371 -1.3645,0.8917 -1.9643,1.2355 -3.1136,1.7818 -4.6469,2.7446 -5.318,3.3403 -0.4073,0.3626 -1.3848,1.1179 -2.1718,1.6776 -2.6592,1.896 -3.0534,2.2241 -4.808,4.0237 -2.1767,2.23 -3.9563,4.5832 -4.5127,5.9647 l -0.4136,1.0303 0.3225,0.2611 c 0.8464,0.6863 2.9455,1.0963 6.3557,1.2475 4.2276,0.184 7.9185,-0.5954 15.4914,-3.276 7.9493,-2.8113 10.5384,-3.7714 15.3479,-5.6893 1.76,-0.7029 3.4949,-1.354 3.8529,-1.4472 0.3609,-0.091 1.6232,-0.4958 2.8071,-0.8932 1.9459,-0.6525 3.2473,-1.03 7.2942,-2.1142 1.3903,-0.3745 1.9338,-0.3821 1.1003,-0.015 -0.2804,0.1208 -1.2297,0.5626 -2.1095,0.9816 -0.8788,0.4177 -1.9215,0.887 -2.3163,1.0421 -0.883,0.3486 -1.7032,0.7161 -3.2218,1.4472 -0.6457,0.3096 -1.2356,0.565 -1.3108,0.565 -0.2932,0 -4.1442,2.316 -5.5903,3.3621 -0.8392,0.6073 -2.4084,1.6485 -3.4889,2.3164 -10.2609,6.3459 -14.4012,14.175 -11.7196,22.1621 0.1944,0.5774 0.7583,1.9629 1.2526,3.0783 1.3995,3.1565 1.8539,4.4465 2.5463,7.2354 2.5658,10.3406 3.5669,12.2537 9.1692,17.5229 5.9776,5.6238 8.9932,7.05 16.7891,7.9441 1.7972,0.2072 12.6404,0.1255 17.4904,-0.1284 0.9394,-0.048 1.7819,-0.042 1.8745,0.013 0.271,0.1673 -7.0279,3.7409 -9.1823,4.4971 -7.9151,2.7737 -17.3104,9.5091 -17.3104,12.4099 0,0.8967 2.5903,2.2708 6.7443,3.5791 4.3146,1.3572 4.101,1.3384 16.2388,1.4804 4.0401,0.046 7.8691,0.1294 8.5101,0.1851 l 1.1639,0.098 -1.456,0.457 c -2.1021,0.6612 -5.1829,1.5724 -7.85,2.3191 -1.2765,0.3592 -3.4702,1.0971 -4.8723,1.6407 -1.4026,0.5441 -2.747,1.0344 -2.9867,1.0911 -0.2403,0.054 -1.0577,0.327 -1.8184,0.6032 -0.7611,0.2771 -2.3738,0.7257 -3.5846,0.9966 -4.3579,0.976 -15.58,4.1814 -20.4893,5.8531 -2,0.6813 -4.724,1.5834 -6.0522,2.0044 -1.329,0.4217 -3.1615,1.0312 -4.0726,1.3559 -2.0321,0.723 -2.3121,0.8068 -2.3121,0.6921 z m -26.0383,-6.6882 c 1.2393,-0.1149 3.7268,-0.2864 5.5284,-0.3791 3.7185,-0.1904 3.4516,-0.1219 3.2447,-0.8316 -1.3789,-4.7412 -2.106,-7.206 -2.2816,-7.741 -0.1192,-0.3593 -0.4868,-1.5798 -0.8194,-2.7101 l -0.6022,-2.0554 0.1713,-0.6346 c 0.2389,-0.8861 0.524,-1.2349 1.8896,-2.3127 0.6564,-0.5177 1.7599,-1.4236 2.4495,-2.0127 0.6911,-0.5892 2.4358,-2.0565 3.8753,-3.2606 1.4395,-1.2045 3.0769,-2.6249 3.6352,-3.1549 0.5607,-0.5308 1.7719,-1.5452 2.6914,-2.2543 0.9203,-0.7082 2.1317,-1.6897 2.6921,-2.1818 0.5603,-0.4924 1.7705,-1.4597 2.6903,-2.1497 0.9194,-0.6905 1.9544,-1.521 2.2979,-1.8468 0.3443,-0.3257 0.6523,-0.59 0.6869,-0.59 0.1288,0 2.5593,2.4566 3.975,4.0191 2.1388,2.3596 5.7696,5.3535 8.4326,6.9521 0.6384,0.3838 0.8937,0.6172 0.8358,0.7665 -0.044,0.1194 -0.1226,0.3899 -0.1711,0.6026 -0.047,0.212 -0.1836,0.6815 -0.3024,1.0406 -0.7935,2.4246 -1.1675,8.1081 -0.6867,10.4437 0.2371,1.1514 0.8664,3.191 1.2715,4.1145 l 0.2261,0.5206 -0.3385,0.7158 c -0.1863,0.3931 -0.6845,1.1415 -1.1077,1.6614 -0.4218,0.5204 -0.986,1.2131 -1.2499,1.5406 l -0.4841,0.5955 0.6164,-0.1596 c 0.3405,-0.085 0.6832,-0.2021 0.7637,-0.2538 0.5005,-0.3194 15.2785,-4.3963 19.1717,-5.2896 0.9453,-0.2162 1.6894,-0.4199 1.6564,-0.4535 -0.032,-0.032 -0.6896,-0.1556 -1.4594,-0.271 -5.5563,-0.8343 -11.9871,-3.7245 -13.6033,-6.1134 l -0.4886,-0.7236 0.09,-1.1378 c 0.3299,-4.0209 4.8666,-8.5641 12.4551,-12.4748 l 1.2313,-0.6337 -2.692,-0.2601 c -8.954,-0.8637 -12.8311,-2.67 -19.8042,-9.2268 -5.7833,-5.4389 -7.3396,-8.4259 -9.8018,-18.8145 -0.5058,-2.1335 -0.9755,-3.4617 -2.4674,-6.9778 -1.9718,-4.648 -2.2937,-5.929 -2.2841,-9.096 0.013,-4.6398 2.0614,-9.648 5.3112,-12.9823 0.6435,-0.6598 1.1309,-1.2001 1.0826,-1.2001 -0.046,0 -0.9598,0.3298 -2.0274,0.7333 -2.6363,0.9983 -6.3392,2.0676 -9.4159,2.7203 l -2.5578,0.5412 -3.2006,-7e-4 c -12.8601,0 -14.5781,-5.0699 -5.0065,-14.7666 0.8339,-0.8445 2.1229,-1.9828 2.8654,-2.5288 1.6617,-1.2235 1.7409,-1.1682 -1.3739,-0.949 -7.4744,0.529 -13.9591,-0.2527 -26.159,-3.1532 -2.3669,-0.5635 -6.0761,-1.7042 -7.7097,-2.3722 -0.7884,-0.3215 -1.4578,-0.5635 -1.4856,-0.5349 -0.027,0.027 0.9385,0.9558 2.148,2.0614 2.8231,2.5832 4.9321,4.8046 6.0177,6.3405 0.4745,0.6689 1.3963,1.9701 2.0481,2.8903 5.2877,7.4642 6.1356,9.5435 6.2846,15.4194 l 0.07,2.8358 -0.5174,2.255 c -1.3547,5.8974 -2.2001,8.5988 -3.3667,10.7624 -0.3614,0.6686 -0.6303,1.2386 -0.6018,1.2686 0.053,0.053 1.2132,-0.4459 4.4543,-1.9208 1.0001,-0.4566 2.4684,-1.0872 3.2617,-1.4048 0.7936,-0.3182 3.1449,-1.2955 5.2257,-2.1747 6.2075,-2.6226 8.0261,-2.8392 12.1571,-1.4444 5.6866,1.9193 10.874,8.395 13.4598,16.8054 0.3692,1.201 1.1267,3.5244 1.68,5.1642 1.2923,3.8142 1.816,6.0582 1.9753,8.4491 l 0.071,1.1049 -1.206,1.1028 c -0.6635,0.6068 -1.5657,1.3857 -2.0058,1.7277 -0.4396,0.3426 -2.1749,1.9342 -3.8558,3.538 -1.6802,1.6036 -3.5785,3.3035 -4.2185,3.7779 -1.3009,0.9667 -2.5194,1.9559 -5.0017,4.0594 -0.9284,0.7887 -1.8182,1.4917 -1.9793,1.5648 -0.1602,0.071 -1.0431,0.717 -1.9639,1.4255 -1.3493,1.0417 -1.6907,1.245 -1.7669,1.0528 -0.2719,-0.6877 -1.9389,-6.9419 -2.3707,-8.8925 -0.2734,-1.2401 -0.6288,-2.6806 -0.7879,-3.2005 -0.3281,-1.066 -1.1852,-4.5693 -1.5475,-6.3273 -0.47,-2.2821 -0.7714,-3.5375 -0.9017,-3.7743 -0.1021,-0.1888 -0.5431,0.3754 -2.1115,2.7281 -2.2787,3.418 -3.4906,4.9229 -6.1835,7.6752 -1.0623,1.0853 -1.9323,2.0086 -1.9323,2.0516 0,0.041 0.7049,0.1147 1.5648,0.1621 5.1662,0.2843 6.3152,2.0144 9.2645,13.93 l 1.0994,4.4441 v 1.3118 c 0,7.5214 -7.9586,9.3245 -18.5113,4.1923 -2.579,-1.2528 2.1262,3.1098 5.1623,4.7872 3.1261,1.7269 7.1206,2.2883 12.6225,1.7722 z"
       id="path1" />
  </g>
</svg>
