0
SECTION
2
HEADER
9
$INSUNITS
70
4
0
ENDSEC
0
SECTION
2
TABLES
0
TABLE
2
LTYPE
0
LTYPE
72
65
70
64
2
CONTINUOUS
3
______
73
0
40
0
0
ENDTAB
0
TABLE
2
LAYER
0
ENDTAB
0
ENDSEC
0
SECTION
2
ENTITIES
0
LINE
8
0
10
-0.4203351
20
29.4078785
11
16.7931505
21
24.1451879
0
LINE
8
0
10
16.7931505
20
24.1451879
11
11.5304599
21
6.9317023
0
LINE
8
0
10
11.5304599
20
6.9317023
11
-5.6830257
21
12.1943929
0
LINE
8
0
10
-5.6830257
20
12.1943929
11
-0.4203351
21
29.4078785
0
LINE
8
0
10
20.0229112
20
22.955196
11
36.7122206
21
16.2122774
0
LINE
8
0
10
36.7122206
20
16.2122774
11
29.969302
21
-0.477032
0
LINE
8
0
10
29.969302
20
-0.477032
11
13.2799926
21
6.2658866
0
LINE
8
0
10
13.2799926
20
6.2658866
11
20.0229112
21
22.955196
0
LINE
8
0
10
27.1404365
20
40.5716892
11
43.8297459
21
33.8287706
0
LINE
8
0
10
43.8297459
20
33.8287706
11
37.0868273
21
17.1394612
0
LINE
8
0
10
37.0868273
20
17.1394612
11
20.3975179
21
23.8823798
0
LINE
8
0
10
20.3975179
20
23.8823798
11
27.1404365
21
40.5716892
0
LINE
8
0
10
34.2579618
20
58.1881824
11
50.9472712
21
51.4452638
0
LINE
8
0
10
50.9472712
20
51.4452638
11
44.2043526
21
34.7559544
0
LINE
8
0
10
44.2043526
20
34.7559544
11
27.5150432
21
41.498873
0
LINE
8
0
10
27.5150432
20
41.498873
11
34.2579618
21
58.1881824
0
LINE
8
0
10
41.6266549
20
19.222473
11
57.6647723
21
11.050644
0
LINE
8
0
10
57.6647723
20
11.050644
11
49.4929433
21
-4.9874734
0
LINE
8
0
10
49.4929433
20
-4.9874734
11
33.4548259
21
3.1843556
0
LINE
8
0
10
33.4548259
20
3.1843556
11
41.6266549
21
19.222473
0
LINE
8
0
10
50.2524744
20
36.151597
11
66.2905918
21
27.979768
0
LINE
8
0
10
66.2905918
20
27.979768
11
58.1187628
21
11.9416506
0
LINE
8
0
10
58.1187628
20
11.9416506
11
42.0806454
21
20.1134796
0
LINE
8
0
10
42.0806454
20
20.1134796
11
50.2524744
21
36.151597
0
LINE
8
0
10
58.8782939
20
53.080721
11
74.9164113
21
44.908892
0
LINE
8
0
10
74.9164113
20
44.908892
11
66.7445823
21
28.8707746
0
LINE
8
0
10
66.7445823
20
28.8707746
11
50.7064649
21
37.0426036
0
LINE
8
0
10
50.7064649
20
37.0426036
11
58.8782939
21
53.080721
0
LINE
8
0
10
55.8318359
20
5.2506143
11
71.8699533
21
-2.9212147
0
LINE
8
0
10
71.8699533
20
-2.9212147
11
63.6981243
21
-18.9593321
0
LINE
8
0
10
63.6981243
20
-18.9593321
11
47.6600069
21
-10.7875031
0
LINE
8
0
10
47.6600069
20
-10.7875031
11
55.8318359
21
5.2506143
0
LINE
8
0
10
64.4576553
20
22.1797383
11
80.4957727
21
14.0079093
0
LINE
8
0
10
80.4957727
20
14.0079093
11
72.3239437
21
-2.0302081
0
LINE
8
0
10
72.3239437
20
-2.0302081
11
56.2858263
21
6.1416209
0
LINE
8
0
10
56.2858263
20
6.1416209
11
64.4576553
21
22.1797383
0
LINE
8
0
10
73.0834748
20
39.1088623
11
89.1215922
21
30.9370333
0
LINE
8
0
10
89.1215922
20
30.9370333
11
80.9497632
21
14.8989159
0
LINE
8
0
10
80.9497632
20
14.8989159
11
64.9116458
21
23.0707449
0
LINE
8
0
10
64.9116458
20
23.0707449
11
73.0834748
21
39.1088623
0
LINE
8
0
10
76.8468743
20
4.6438536
11
92.8849917
21
-3.5279754
0
LINE
8
0
10
92.8849917
20
-3.5279754
11
84.7131627
21
-19.5660928
0
LINE
8
0
10
84.7131627
20
-19.5660928
11
68.6750453
21
-11.3942638
0
LINE
8
0
10
68.6750453
20
-11.3942638
11
76.8468743
21
4.6438536
0
LINE
8
0
10
85.4726938
20
21.5729776
11
101.5108112
21
13.4011486
0
LINE
8
0
10
101.5108112
20
13.4011486
11
93.3389822
21
-2.6369688
0
LINE
8
0
10
93.3389822
20
-2.6369688
11
77.3008648
21
5.5348602
0
LINE
8
0
10
77.3008648
20
5.5348602
11
85.4726938
21
21.5729776
0
LINE
8
0
10
70.8669321
20
-17.7465019
11
84.243539
21
-29.7908528
0
LINE
8
0
10
84.243539
20
-29.7908528
11
72.1991881
21
-43.1674597
0
LINE
8
0
10
72.1991881
20
-43.1674597
11
58.8225812
21
-31.1231088
0
LINE
8
0
10
58.8225812
20
-31.1231088
11
70.8669321
21
-17.7465019
0
LINE
8
0
10
91.3283135
20
-39.3210525
11
97.4846761
21
-56.2355197
0
LINE
8
0
10
97.4846761
20
-56.2355197
11
80.5702089
21
-62.3918823
0
LINE
8
0
10
80.5702089
20
-62.3918823
11
74.4138463
21
-45.4774151
0
LINE
8
0
10
74.4138463
20
-45.4774151
11
91.3283135
21
-39.3210525
0
LINE
8
0
10
216.3169743
20
24.1451879
11
233.5304599
21
29.4078785
0
LINE
8
0
10
233.5304599
20
29.4078785
11
238.7931505
21
12.1943929
0
LINE
8
0
10
238.7931505
20
12.1943929
11
221.5796649
21
6.9317023
0
LINE
8
0
10
221.5796649
20
6.9317023
11
216.3169743
21
24.1451879
0
LINE
8
0
10
196.3979042
20
16.2122774
11
213.0872136
21
22.955196
0
LINE
8
0
10
213.0872136
20
22.955196
11
219.8301322
21
6.2658866
0
LINE
8
0
10
219.8301322
20
6.2658866
11
203.1408228
21
-0.477032
0
LINE
8
0
10
203.1408228
20
-0.477032
11
196.3979042
21
16.2122774
0
LINE
8
0
10
189.2803789
20
33.8287706
11
205.9696883
21
40.5716892
0
LINE
8
0
10
205.9696883
20
40.5716892
11
212.7126069
21
23.8823798
0
LINE
8
0
10
212.7126069
20
23.8823798
11
196.0232975
21
17.1394612
0
LINE
8
0
10
196.0232975
20
17.1394612
11
189.2803789
21
33.8287706
0
LINE
8
0
10
182.1628536
20
51.4452638
11
198.852163
21
58.1881824
0
LINE
8
0
10
198.852163
20
58.1881824
11
205.5950816
21
41.498873
0
LINE
8
0
10
205.5950816
20
41.498873
11
188.9057722
21
34.7559544
0
LINE
8
0
10
188.9057722
20
34.7559544
11
182.1628536
21
51.4452638
0
LINE
8
0
10
175.4453525
20
11.050644
11
191.4834699
21
19.222473
0
LINE
8
0
10
191.4834699
20
19.222473
11
199.6552989
21
3.1843556
0
LINE
8
0
10
199.6552989
20
3.1843556
11
183.6171815
21
-4.9874734
0
LINE
8
0
10
183.6171815
20
-4.9874734
11
175.4453525
21
11.050644
0
LINE
8
0
10
166.819533
20
27.979768
11
182.8576504
21
36.151597
0
LINE
8
0
10
182.8576504
20
36.151597
11
191.0294794
21
20.1134796
0
LINE
8
0
10
191.0294794
20
20.1134796
11
174.991362
21
11.9416506
0
LINE
8
0
10
174.991362
20
11.9416506
11
166.819533
21
27.979768
0
LINE
8
0
10
158.1937135
20
44.908892
11
174.2318309
21
53.080721
0
LINE
8
0
10
174.2318309
20
53.080721
11
182.4036599
21
37.0426036
0
LINE
8
0
10
182.4036599
20
37.0426036
11
166.3655425
21
28.8707746
0
LINE
8
0
10
166.3655425
20
28.8707746
11
158.1937135
21
44.908892
0
LINE
8
0
10
161.2401715
20
-2.9212147
11
177.2782889
21
5.2506143
0
LINE
8
0
10
177.2782889
20
5.2506143
11
185.4501179
21
-10.7875031
0
LINE
8
0
10
185.4501179
20
-10.7875031
11
169.4120005
21
-18.9593321
0
LINE
8
0
10
169.4120005
20
-18.9593321
11
161.2401715
21
-2.9212147
0
LINE
8
0
10
152.6143521
20
14.0079093
11
168.6524695
21
22.1797383
0
LINE
8
0
10
168.6524695
20
22.1797383
11
176.8242985
21
6.1416209
0
LINE
8
0
10
176.8242985
20
6.1416209
11
160.7861811
21
-2.0302081
0
LINE
8
0
10
160.7861811
20
-2.0302081
11
152.6143521
21
14.0079093
0
LINE
8
0
10
143.9885326
20
30.9370333
11
160.02665
21
39.1088623
0
LINE
8
0
10
160.02665
20
39.1088623
11
168.198479
21
23.0707449
0
LINE
8
0
10
168.198479
20
23.0707449
11
152.1603616
21
14.8989159
0
LINE
8
0
10
152.1603616
20
14.8989159
11
143.9885326
21
30.9370333
0
LINE
8
0
10
140.2251331
20
-3.5279754
11
156.2632505
21
4.6438536
0
LINE
8
0
10
156.2632505
20
4.6438536
11
164.4350795
21
-11.3942638
0
LINE
8
0
10
164.4350795
20
-11.3942638
11
148.3969621
21
-19.5660928
0
LINE
8
0
10
148.3969621
20
-19.5660928
11
140.2251331
21
-3.5279754
0
LINE
8
0
10
131.5993136
20
13.4011486
11
147.637431
21
21.5729776
0
LINE
8
0
10
147.637431
20
21.5729776
11
155.80926
21
5.5348602
0
LINE
8
0
10
155.80926
20
5.5348602
11
139.7711426
21
-2.6369688
0
LINE
8
0
10
139.7711426
20
-2.6369688
11
131.5993136
21
13.4011486
0
LINE
8
0
10
148.8665858
20
-29.7908528
11
162.2431927
21
-17.7465019
0
LINE
8
0
10
162.2431927
20
-17.7465019
11
174.2875436
21
-31.1231088
0
LINE
8
0
10
174.2875436
20
-31.1231088
11
160.9109367
21
-43.1674597
0
LINE
8
0
10
160.9109367
20
-43.1674597
11
148.8665858
21
-29.7908528
0
LINE
8
0
10
135.6254487
20
-56.2355197
11
141.7818113
21
-39.3210525
0
LINE
8
0
10
141.7818113
20
-39.3210525
11
158.6962785
21
-45.4774151
0
LINE
8
0
10
158.6962785
20
-45.4774151
11
152.5399159
21
-62.3918823
0
LINE
8
0
10
152.5399159
20
-62.3918823
11
135.6254487
21
-56.2355197
0
ENDSEC
0
EOF