<?xml version="1.0" standalone="no"?>
 <!DOCTYPE svg PUBLIC "-//W3C//DTD SVG 1.1//EN" 
 "http://www.w3.org/Graphics/SVG/1.1/DTD/svg11.dtd"> 
<svg
  xmlns:svg="http://www.w3.org/2000/svg"
  xmlns="http://www.w3.org/2000/svg"
  xmlns:xlink="http://www.w3.org/1999/xlink"
  version="1.1"
  width="297.0022mm" height="210.0072mm" viewBox="0.0000 0.0000 297.0022 210.0072">
<title>SVG Image created as kazhan-Edge_Cuts.svg date 2024/12/11 00:28:42 </title>
  <desc>Image generated by PCBNEW </desc>
<g style="fill:#000000; fill-opacity:1.0000;stroke:#000000; stroke-opacity:1.0000;
stroke-linecap:round; stroke-linejoin:round;"
 transform="translate(0 0) scale(1 1)">
</g>
<g style="fill:none; 
stroke:#000000; stroke-width:0.1500; stroke-opacity:1; 
stroke-linecap:round; stroke-linejoin:round;">
<path d="M177.0022 166.0072
L285.0022 166.0072
L285.0022 198.0072
L177.0022 198.0072
L177.0022 166.0072
" />
</g>
<g style="fill:none; 
stroke:#000000; stroke-width:0.1500; stroke-opacity:1; 
stroke-linecap:round; stroke-linejoin:round;">
<path d="M10.0000 10.0000
L287.0022 10.0000
L287.0022 200.0072
L10.0000 200.0072
L10.0000 10.0000
" />
</g>
<g style="fill:none; 
stroke:#000000; stroke-width:0.1500; stroke-opacity:1; 
stroke-linecap:round; stroke-linejoin:round;">
<path d="M12.0000 12.0000
L285.0022 12.0000
L285.0022 198.0072
L12.0000 198.0072
L12.0000 12.0000
" />
</g>
<g style="fill:none; 
stroke:#000000; stroke-width:0.1500; stroke-opacity:1; 
stroke-linecap:round; stroke-linejoin:round;">
<path d="M60.0000 12.0000
L60.0000 10.0000
" />
</g>
<g style="fill:none; 
stroke:#000000; stroke-width:0.1500; stroke-opacity:1; 
stroke-linecap:round; stroke-linejoin:round;">
<path d="M110.0000 12.0000
L110.0000 10.0000
" />
</g>
<g style="fill:none; 
stroke:#000000; stroke-width:0.1500; stroke-opacity:1; 
stroke-linecap:round; stroke-linejoin:round;">
<path d="M160.0000 12.0000
L160.0000 10.0000
" />
</g>
<g style="fill:none; 
stroke:#000000; stroke-width:0.1500; stroke-opacity:1; 
stroke-linecap:round; stroke-linejoin:round;">
<path d="M210.0000 12.0000
L210.0000 10.0000
" />
</g>
<g style="fill:none; 
stroke:#000000; stroke-width:0.1500; stroke-opacity:1; 
stroke-linecap:round; stroke-linejoin:round;">
<path d="M260.0000 12.0000
L260.0000 10.0000
" />
</g>
<g style="fill:none; 
stroke:#000000; stroke-width:0.1500; stroke-opacity:1; 
stroke-linecap:round; stroke-linejoin:round;">
<text x="35.0000" y="11.6500"
textLength="1.4281" font-size="1.7333" lengthAdjust="spacingAndGlyphs"
text-anchor="start" opacity="0">1</text>
<g class="stroked-text"><desc>1</desc>
<path d="M36.0892 11.5936
L35.3463 11.5936
" />
<path d="M35.7177 11.5936
L35.7177 10.2936
" />
<path d="M35.7177 10.2936
L35.5939 10.4793
" />
<path d="M35.5939 10.4793
L35.4701 10.6031
" />
<path d="M35.4701 10.6031
L35.3463 10.6650
" />
</g></g>
<g style="fill:none; 
stroke:#000000; stroke-width:0.1500; stroke-opacity:1; 
stroke-linecap:round; stroke-linejoin:round;">
<text x="85.0000" y="11.6500"
textLength="1.4281" font-size="1.7333" lengthAdjust="spacingAndGlyphs"
text-anchor="start" opacity="0">2</text>
<g class="stroked-text"><desc>2</desc>
<path d="M85.3463 10.4174
L85.4082 10.3555
" />
<path d="M85.4082 10.3555
L85.5320 10.2936
" />
<path d="M85.5320 10.2936
L85.8415 10.2936
" />
<path d="M85.8415 10.2936
L85.9654 10.3555
" />
<path d="M85.9654 10.3555
L86.0273 10.4174
" />
<path d="M86.0273 10.4174
L86.0892 10.5412
" />
<path d="M86.0892 10.5412
L86.0892 10.6650
" />
<path d="M86.0892 10.6650
L86.0273 10.8507
" />
<path d="M86.0273 10.8507
L85.2844 11.5936
" />
<path d="M85.2844 11.5936
L86.0892 11.5936
" />
</g></g>
<g style="fill:none; 
stroke:#000000; stroke-width:0.1500; stroke-opacity:1; 
stroke-linecap:round; stroke-linejoin:round;">
<text x="135.0000" y="11.6500"
textLength="1.4281" font-size="1.7333" lengthAdjust="spacingAndGlyphs"
text-anchor="start" opacity="0">3</text>
<g class="stroked-text"><desc>3</desc>
<path d="M135.2844 10.2936
L136.0892 10.2936
" />
<path d="M136.0892 10.2936
L135.6558 10.7888
" />
<path d="M135.6558 10.7888
L135.8415 10.7888
" />
<path d="M135.8415 10.7888
L135.9654 10.8507
" />
<path d="M135.9654 10.8507
L136.0273 10.9127
" />
<path d="M136.0273 10.9127
L136.0892 11.0365
" />
<path d="M136.0892 11.0365
L136.0892 11.3460
" />
<path d="M136.0892 11.3460
L136.0273 11.4698
" />
<path d="M136.0273 11.4698
L135.9654 11.5317
" />
<path d="M135.9654 11.5317
L135.8415 11.5936
" />
<path d="M135.8415 11.5936
L135.4701 11.5936
" />
<path d="M135.4701 11.5936
L135.3463 11.5317
" />
<path d="M135.3463 11.5317
L135.2844 11.4698
" />
</g></g>
<g style="fill:none; 
stroke:#000000; stroke-width:0.1500; stroke-opacity:1; 
stroke-linecap:round; stroke-linejoin:round;">
<text x="185.0000" y="11.6500"
textLength="1.4281" font-size="1.7333" lengthAdjust="spacingAndGlyphs"
text-anchor="start" opacity="0">4</text>
<g class="stroked-text"><desc>4</desc>
<path d="M185.9654 10.7269
L185.9654 11.5936
" />
<path d="M185.6558 10.2317
L185.3463 11.1603
" />
<path d="M185.3463 11.1603
L186.1511 11.1603
" />
</g></g>
<g style="fill:none; 
stroke:#000000; stroke-width:0.1500; stroke-opacity:1; 
stroke-linecap:round; stroke-linejoin:round;">
<text x="235.0000" y="11.6500"
textLength="1.4281" font-size="1.7333" lengthAdjust="spacingAndGlyphs"
text-anchor="start" opacity="0">5</text>
<g class="stroked-text"><desc>5</desc>
<path d="M236.0273 10.2936
L235.4082 10.2936
" />
<path d="M235.4082 10.2936
L235.3463 10.9127
" />
<path d="M235.3463 10.9127
L235.4082 10.8507
" />
<path d="M235.4082 10.8507
L235.5320 10.7888
" />
<path d="M235.5320 10.7888
L235.8415 10.7888
" />
<path d="M235.8415 10.7888
L235.9654 10.8507
" />
<path d="M235.9654 10.8507
L236.0273 10.9127
" />
<path d="M236.0273 10.9127
L236.0892 11.0365
" />
<path d="M236.0892 11.0365
L236.0892 11.3460
" />
<path d="M236.0892 11.3460
L236.0273 11.4698
" />
<path d="M236.0273 11.4698
L235.9654 11.5317
" />
<path d="M235.9654 11.5317
L235.8415 11.5936
" />
<path d="M235.8415 11.5936
L235.5320 11.5936
" />
<path d="M235.5320 11.5936
L235.4082 11.5317
" />
<path d="M235.4082 11.5317
L235.3463 11.4698
" />
</g></g>
<g style="fill:none; 
stroke:#000000; stroke-width:0.1500; stroke-opacity:1; 
stroke-linecap:round; stroke-linejoin:round;">
<text x="285.0000" y="11.6500"
textLength="1.4281" font-size="1.7333" lengthAdjust="spacingAndGlyphs"
text-anchor="start" opacity="0">6</text>
<g class="stroked-text"><desc>6</desc>
<path d="M285.9654 10.2936
L285.7177 10.2936
" />
<path d="M285.7177 10.2936
L285.5939 10.3555
" />
<path d="M285.5939 10.3555
L285.5320 10.4174
" />
<path d="M285.5320 10.4174
L285.4082 10.6031
" />
<path d="M285.4082 10.6031
L285.3463 10.8507
" />
<path d="M285.3463 10.8507
L285.3463 11.3460
" />
<path d="M285.3463 11.3460
L285.4082 11.4698
" />
<path d="M285.4082 11.4698
L285.4701 11.5317
" />
<path d="M285.4701 11.5317
L285.5939 11.5936
" />
<path d="M285.5939 11.5936
L285.8415 11.5936
" />
<path d="M285.8415 11.5936
L285.9654 11.5317
" />
<path d="M285.9654 11.5317
L286.0273 11.4698
" />
<path d="M286.0273 11.4698
L286.0892 11.3460
" />
<path d="M286.0892 11.3460
L286.0892 11.0365
" />
<path d="M286.0892 11.0365
L286.0273 10.9127
" />
<path d="M286.0273 10.9127
L285.9654 10.8507
" />
<path d="M285.9654 10.8507
L285.8415 10.7888
" />
<path d="M285.8415 10.7888
L285.5939 10.7888
" />
<path d="M285.5939 10.7888
L285.4701 10.8507
" />
<path d="M285.4701 10.8507
L285.4082 10.9127
" />
<path d="M285.4082 10.9127
L285.3463 11.0365
" />
</g></g>
<g style="fill:none; 
stroke:#000000; stroke-width:0.1500; stroke-opacity:1; 
stroke-linecap:round; stroke-linejoin:round;">
<path d="M60.0000 198.0072
L60.0000 200.0072
" />
</g>
<g style="fill:none; 
stroke:#000000; stroke-width:0.1500; stroke-opacity:1; 
stroke-linecap:round; stroke-linejoin:round;">
<path d="M110.0000 198.0072
L110.0000 200.0072
" />
</g>
<g style="fill:none; 
stroke:#000000; stroke-width:0.1500; stroke-opacity:1; 
stroke-linecap:round; stroke-linejoin:round;">
<path d="M160.0000 198.0072
L160.0000 200.0072
" />
</g>
<g style="fill:none; 
stroke:#000000; stroke-width:0.1500; stroke-opacity:1; 
stroke-linecap:round; stroke-linejoin:round;">
<path d="M210.0000 198.0072
L210.0000 200.0072
" />
</g>
<g style="fill:none; 
stroke:#000000; stroke-width:0.1500; stroke-opacity:1; 
stroke-linecap:round; stroke-linejoin:round;">
<path d="M260.0000 198.0072
L260.0000 200.0072
" />
</g>
<g style="fill:none; 
stroke:#000000; stroke-width:0.1500; stroke-opacity:1; 
stroke-linecap:round; stroke-linejoin:round;">
<text x="35.0000" y="199.6572"
textLength="1.4281" font-size="1.7333" lengthAdjust="spacingAndGlyphs"
text-anchor="start" opacity="0">1</text>
<g class="stroked-text"><desc>1</desc>
<path d="M36.0892 199.6008
L35.3463 199.6008
" />
<path d="M35.7177 199.6008
L35.7177 198.3008
" />
<path d="M35.7177 198.3008
L35.5939 198.4865
" />
<path d="M35.5939 198.4865
L35.4701 198.6103
" />
<path d="M35.4701 198.6103
L35.3463 198.6722
" />
</g></g>
<g style="fill:none; 
stroke:#000000; stroke-width:0.1500; stroke-opacity:1; 
stroke-linecap:round; stroke-linejoin:round;">
<text x="85.0000" y="199.6572"
textLength="1.4281" font-size="1.7333" lengthAdjust="spacingAndGlyphs"
text-anchor="start" opacity="0">2</text>
<g class="stroked-text"><desc>2</desc>
<path d="M85.3463 198.4246
L85.4082 198.3627
" />
<path d="M85.4082 198.3627
L85.5320 198.3008
" />
<path d="M85.5320 198.3008
L85.8415 198.3008
" />
<path d="M85.8415 198.3008
L85.9654 198.3627
" />
<path d="M85.9654 198.3627
L86.0273 198.4246
" />
<path d="M86.0273 198.4246
L86.0892 198.5484
" />
<path d="M86.0892 198.5484
L86.0892 198.6722
" />
<path d="M86.0892 198.6722
L86.0273 198.8579
" />
<path d="M86.0273 198.8579
L85.2844 199.6008
" />
<path d="M85.2844 199.6008
L86.0892 199.6008
" />
</g></g>
<g style="fill:none; 
stroke:#000000; stroke-width:0.1500; stroke-opacity:1; 
stroke-linecap:round; stroke-linejoin:round;">
<text x="135.0000" y="199.6572"
textLength="1.4281" font-size="1.7333" lengthAdjust="spacingAndGlyphs"
text-anchor="start" opacity="0">3</text>
<g class="stroked-text"><desc>3</desc>
<path d="M135.2844 198.3008
L136.0892 198.3008
" />
<path d="M136.0892 198.3008
L135.6558 198.7960
" />
<path d="M135.6558 198.7960
L135.8415 198.7960
" />
<path d="M135.8415 198.7960
L135.9654 198.8579
" />
<path d="M135.9654 198.8579
L136.0273 198.9199
" />
<path d="M136.0273 198.9199
L136.0892 199.0437
" />
<path d="M136.0892 199.0437
L136.0892 199.3532
" />
<path d="M136.0892 199.3532
L136.0273 199.4770
" />
<path d="M136.0273 199.4770
L135.9654 199.5389
" />
<path d="M135.9654 199.5389
L135.8415 199.6008
" />
<path d="M135.8415 199.6008
L135.4701 199.6008
" />
<path d="M135.4701 199.6008
L135.3463 199.5389
" />
<path d="M135.3463 199.5389
L135.2844 199.4770
" />
</g></g>
<g style="fill:none; 
stroke:#000000; stroke-width:0.1500; stroke-opacity:1; 
stroke-linecap:round; stroke-linejoin:round;">
<text x="185.0000" y="199.6572"
textLength="1.4281" font-size="1.7333" lengthAdjust="spacingAndGlyphs"
text-anchor="start" opacity="0">4</text>
<g class="stroked-text"><desc>4</desc>
<path d="M185.9654 198.7341
L185.9654 199.6008
" />
<path d="M185.6558 198.2389
L185.3463 199.1675
" />
<path d="M185.3463 199.1675
L186.1511 199.1675
" />
</g></g>
<g style="fill:none; 
stroke:#000000; stroke-width:0.1500; stroke-opacity:1; 
stroke-linecap:round; stroke-linejoin:round;">
<text x="235.0000" y="199.6572"
textLength="1.4281" font-size="1.7333" lengthAdjust="spacingAndGlyphs"
text-anchor="start" opacity="0">5</text>
<g class="stroked-text"><desc>5</desc>
<path d="M236.0273 198.3008
L235.4082 198.3008
" />
<path d="M235.4082 198.3008
L235.3463 198.9199
" />
<path d="M235.3463 198.9199
L235.4082 198.8579
" />
<path d="M235.4082 198.8579
L235.5320 198.7960
" />
<path d="M235.5320 198.7960
L235.8415 198.7960
" />
<path d="M235.8415 198.7960
L235.9654 198.8579
" />
<path d="M235.9654 198.8579
L236.0273 198.9199
" />
<path d="M236.0273 198.9199
L236.0892 199.0437
" />
<path d="M236.0892 199.0437
L236.0892 199.3532
" />
<path d="M236.0892 199.3532
L236.0273 199.4770
" />
<path d="M236.0273 199.4770
L235.9654 199.5389
" />
<path d="M235.9654 199.5389
L235.8415 199.6008
" />
<path d="M235.8415 199.6008
L235.5320 199.6008
" />
<path d="M235.5320 199.6008
L235.4082 199.5389
" />
<path d="M235.4082 199.5389
L235.3463 199.4770
" />
</g></g>
<g style="fill:none; 
stroke:#000000; stroke-width:0.1500; stroke-opacity:1; 
stroke-linecap:round; stroke-linejoin:round;">
<text x="285.0000" y="199.6572"
textLength="1.4281" font-size="1.7333" lengthAdjust="spacingAndGlyphs"
text-anchor="start" opacity="0">6</text>
<g class="stroked-text"><desc>6</desc>
<path d="M285.9654 198.3008
L285.7177 198.3008
" />
<path d="M285.7177 198.3008
L285.5939 198.3627
" />
<path d="M285.5939 198.3627
L285.5320 198.4246
" />
<path d="M285.5320 198.4246
L285.4082 198.6103
" />
<path d="M285.4082 198.6103
L285.3463 198.8579
" />
<path d="M285.3463 198.8579
L285.3463 199.3532
" />
<path d="M285.3463 199.3532
L285.4082 199.4770
" />
<path d="M285.4082 199.4770
L285.4701 199.5389
" />
<path d="M285.4701 199.5389
L285.5939 199.6008
" />
<path d="M285.5939 199.6008
L285.8415 199.6008
" />
<path d="M285.8415 199.6008
L285.9654 199.5389
" />
<path d="M285.9654 199.5389
L286.0273 199.4770
" />
<path d="M286.0273 199.4770
L286.0892 199.3532
" />
<path d="M286.0892 199.3532
L286.0892 199.0437
" />
<path d="M286.0892 199.0437
L286.0273 198.9199
" />
<path d="M286.0273 198.9199
L285.9654 198.8579
" />
<path d="M285.9654 198.8579
L285.8415 198.7960
" />
<path d="M285.8415 198.7960
L285.5939 198.7960
" />
<path d="M285.5939 198.7960
L285.4701 198.8579
" />
<path d="M285.4701 198.8579
L285.4082 198.9199
" />
<path d="M285.4082 198.9199
L285.3463 199.0437
" />
</g></g>
<g style="fill:none; 
stroke:#000000; stroke-width:0.1500; stroke-opacity:1; 
stroke-linecap:round; stroke-linejoin:round;">
<path d="M10.0000 60.0000
L12.0000 60.0000
" />
</g>
<g style="fill:none; 
stroke:#000000; stroke-width:0.1500; stroke-opacity:1; 
stroke-linecap:round; stroke-linejoin:round;">
<path d="M10.0000 110.0000
L12.0000 110.0000
" />
</g>
<g style="fill:none; 
stroke:#000000; stroke-width:0.1500; stroke-opacity:1; 
stroke-linecap:round; stroke-linejoin:round;">
<path d="M10.0000 160.0000
L12.0000 160.0000
" />
</g>
<g style="fill:none; 
stroke:#000000; stroke-width:0.1500; stroke-opacity:1; 
stroke-linecap:round; stroke-linejoin:round;">
<text x="11.0000" y="35.6500"
textLength="1.3043" font-size="1.7333" lengthAdjust="spacingAndGlyphs"
text-anchor="middle" opacity="0">A</text>
<g class="stroked-text"><desc>A</desc>
<path d="M10.6905 35.2222
L11.3095 35.2222
" />
<path d="M10.5667 35.5936
L11.0000 34.2936
" />
<path d="M11.0000 34.2936
L11.4333 35.5936
" />
</g></g>
<g style="fill:none; 
stroke:#000000; stroke-width:0.1500; stroke-opacity:1; 
stroke-linecap:round; stroke-linejoin:round;">
<text x="11.0000" y="85.6500"
textLength="1.4900" font-size="1.7333" lengthAdjust="spacingAndGlyphs"
text-anchor="middle" opacity="0">B</text>
<g class="stroked-text"><desc>B</desc>
<path d="M11.0929 84.9127
L11.2786 84.9746
" />
<path d="M11.2786 84.9746
L11.3405 85.0365
" />
<path d="M11.3405 85.0365
L11.4024 85.1603
" />
<path d="M11.4024 85.1603
L11.4024 85.3460
" />
<path d="M11.4024 85.3460
L11.3405 85.4698
" />
<path d="M11.3405 85.4698
L11.2786 85.5317
" />
<path d="M11.2786 85.5317
L11.1548 85.5936
" />
<path d="M11.1548 85.5936
L10.6595 85.5936
" />
<path d="M10.6595 85.5936
L10.6595 84.2936
" />
<path d="M10.6595 84.2936
L11.0929 84.2936
" />
<path d="M11.0929 84.2936
L11.2167 84.3555
" />
<path d="M11.2167 84.3555
L11.2786 84.4174
" />
<path d="M11.2786 84.4174
L11.3405 84.5412
" />
<path d="M11.3405 84.5412
L11.3405 84.6650
" />
<path d="M11.3405 84.6650
L11.2786 84.7888
" />
<path d="M11.2786 84.7888
L11.2167 84.8507
" />
<path d="M11.2167 84.8507
L11.0929 84.9127
" />
<path d="M11.0929 84.9127
L10.6595 84.9127
" />
</g></g>
<g style="fill:none; 
stroke:#000000; stroke-width:0.1500; stroke-opacity:1; 
stroke-linecap:round; stroke-linejoin:round;">
<text x="11.0000" y="135.6500"
textLength="1.4900" font-size="1.7333" lengthAdjust="spacingAndGlyphs"
text-anchor="middle" opacity="0">C</text>
<g class="stroked-text"><desc>C</desc>
<path d="M11.4024 135.4698
L11.3405 135.5317
" />
<path d="M11.3405 135.5317
L11.1548 135.5936
" />
<path d="M11.1548 135.5936
L11.0310 135.5936
" />
<path d="M11.0310 135.5936
L10.8452 135.5317
" />
<path d="M10.8452 135.5317
L10.7214 135.4079
" />
<path d="M10.7214 135.4079
L10.6595 135.2841
" />
<path d="M10.6595 135.2841
L10.5976 135.0365
" />
<path d="M10.5976 135.0365
L10.5976 134.8507
" />
<path d="M10.5976 134.8507
L10.6595 134.6031
" />
<path d="M10.6595 134.6031
L10.7214 134.4793
" />
<path d="M10.7214 134.4793
L10.8452 134.3555
" />
<path d="M10.8452 134.3555
L11.0310 134.2936
" />
<path d="M11.0310 134.2936
L11.1548 134.2936
" />
<path d="M11.1548 134.2936
L11.3405 134.3555
" />
<path d="M11.3405 134.3555
L11.4024 134.4174
" />
</g></g>
<g style="fill:none; 
stroke:#000000; stroke-width:0.1500; stroke-opacity:1; 
stroke-linecap:round; stroke-linejoin:round;">
<text x="11.0000" y="185.6500"
textLength="1.4900" font-size="1.7333" lengthAdjust="spacingAndGlyphs"
text-anchor="middle" opacity="0">D</text>
<g class="stroked-text"><desc>D</desc>
<path d="M10.6595 185.5936
L10.6595 184.2936
" />
<path d="M10.6595 184.2936
L10.9690 184.2936
" />
<path d="M10.9690 184.2936
L11.1548 184.3555
" />
<path d="M11.1548 184.3555
L11.2786 184.4793
" />
<path d="M11.2786 184.4793
L11.3405 184.6031
" />
<path d="M11.3405 184.6031
L11.4024 184.8507
" />
<path d="M11.4024 184.8507
L11.4024 185.0365
" />
<path d="M11.4024 185.0365
L11.3405 185.2841
" />
<path d="M11.3405 185.2841
L11.2786 185.4079
" />
<path d="M11.2786 185.4079
L11.1548 185.5317
" />
<path d="M11.1548 185.5317
L10.9690 185.5936
" />
<path d="M10.9690 185.5936
L10.6595 185.5936
" />
</g></g>
<g style="fill:none; 
stroke:#000000; stroke-width:0.1500; stroke-opacity:1; 
stroke-linecap:round; stroke-linejoin:round;">
<path d="M287.0022 60.0000
L285.0022 60.0000
" />
</g>
<g style="fill:none; 
stroke:#000000; stroke-width:0.1500; stroke-opacity:1; 
stroke-linecap:round; stroke-linejoin:round;">
<path d="M287.0022 110.0000
L285.0022 110.0000
" />
</g>
<g style="fill:none; 
stroke:#000000; stroke-width:0.1500; stroke-opacity:1; 
stroke-linecap:round; stroke-linejoin:round;">
<path d="M287.0022 160.0000
L285.0022 160.0000
" />
</g>
<g style="fill:none; 
stroke:#000000; stroke-width:0.1500; stroke-opacity:1; 
stroke-linecap:round; stroke-linejoin:round;">
<text x="286.0022" y="35.6500"
textLength="1.3043" font-size="1.7333" lengthAdjust="spacingAndGlyphs"
text-anchor="middle" opacity="0">A</text>
<g class="stroked-text"><desc>A</desc>
<path d="M285.6927 35.2222
L286.3117 35.2222
" />
<path d="M285.5689 35.5936
L286.0022 34.2936
" />
<path d="M286.0022 34.2936
L286.4355 35.5936
" />
</g></g>
<g style="fill:none; 
stroke:#000000; stroke-width:0.1500; stroke-opacity:1; 
stroke-linecap:round; stroke-linejoin:round;">
<text x="286.0022" y="85.6500"
textLength="1.4900" font-size="1.7333" lengthAdjust="spacingAndGlyphs"
text-anchor="middle" opacity="0">B</text>
<g class="stroked-text"><desc>B</desc>
<path d="M286.0951 84.9127
L286.2808 84.9746
" />
<path d="M286.2808 84.9746
L286.3427 85.0365
" />
<path d="M286.3427 85.0365
L286.4046 85.1603
" />
<path d="M286.4046 85.1603
L286.4046 85.3460
" />
<path d="M286.4046 85.3460
L286.3427 85.4698
" />
<path d="M286.3427 85.4698
L286.2808 85.5317
" />
<path d="M286.2808 85.5317
L286.1570 85.5936
" />
<path d="M286.1570 85.5936
L285.6617 85.5936
" />
<path d="M285.6617 85.5936
L285.6617 84.2936
" />
<path d="M285.6617 84.2936
L286.0951 84.2936
" />
<path d="M286.0951 84.2936
L286.2189 84.3555
" />
<path d="M286.2189 84.3555
L286.2808 84.4174
" />
<path d="M286.2808 84.4174
L286.3427 84.5412
" />
<path d="M286.3427 84.5412
L286.3427 84.6650
" />
<path d="M286.3427 84.6650
L286.2808 84.7888
" />
<path d="M286.2808 84.7888
L286.2189 84.8507
" />
<path d="M286.2189 84.8507
L286.0951 84.9127
" />
<path d="M286.0951 84.9127
L285.6617 84.9127
" />
</g></g>
<g style="fill:none; 
stroke:#000000; stroke-width:0.1500; stroke-opacity:1; 
stroke-linecap:round; stroke-linejoin:round;">
<text x="286.0022" y="135.6500"
textLength="1.4900" font-size="1.7333" lengthAdjust="spacingAndGlyphs"
text-anchor="middle" opacity="0">C</text>
<g class="stroked-text"><desc>C</desc>
<path d="M286.4046 135.4698
L286.3427 135.5317
" />
<path d="M286.3427 135.5317
L286.1570 135.5936
" />
<path d="M286.1570 135.5936
L286.0332 135.5936
" />
<path d="M286.0332 135.5936
L285.8474 135.5317
" />
<path d="M285.8474 135.5317
L285.7236 135.4079
" />
<path d="M285.7236 135.4079
L285.6617 135.2841
" />
<path d="M285.6617 135.2841
L285.5998 135.0365
" />
<path d="M285.5998 135.0365
L285.5998 134.8507
" />
<path d="M285.5998 134.8507
L285.6617 134.6031
" />
<path d="M285.6617 134.6031
L285.7236 134.4793
" />
<path d="M285.7236 134.4793
L285.8474 134.3555
" />
<path d="M285.8474 134.3555
L286.0332 134.2936
" />
<path d="M286.0332 134.2936
L286.1570 134.2936
" />
<path d="M286.1570 134.2936
L286.3427 134.3555
" />
<path d="M286.3427 134.3555
L286.4046 134.4174
" />
</g></g>
<g style="fill:none; 
stroke:#000000; stroke-width:0.1500; stroke-opacity:1; 
stroke-linecap:round; stroke-linejoin:round;">
<text x="286.0022" y="185.6500"
textLength="1.4900" font-size="1.7333" lengthAdjust="spacingAndGlyphs"
text-anchor="middle" opacity="0">D</text>
<g class="stroked-text"><desc>D</desc>
<path d="M285.6617 185.5936
L285.6617 184.2936
" />
<path d="M285.6617 184.2936
L285.9712 184.2936
" />
<path d="M285.9712 184.2936
L286.1570 184.3555
" />
<path d="M286.1570 184.3555
L286.2808 184.4793
" />
<path d="M286.2808 184.4793
L286.3427 184.6031
" />
<path d="M286.3427 184.6031
L286.4046 184.8507
" />
<path d="M286.4046 184.8507
L286.4046 185.0365
" />
<path d="M286.4046 185.0365
L286.3427 185.2841
" />
<path d="M286.3427 185.2841
L286.2808 185.4079
" />
<path d="M286.2808 185.4079
L286.1570 185.5317
" />
<path d="M286.1570 185.5317
L285.9712 185.5936
" />
<path d="M285.9712 185.5936
L285.6617 185.5936
" />
</g></g>
<g style="fill:none; 
stroke:#000000; stroke-width:0.1500; stroke-opacity:1; 
stroke-linecap:round; stroke-linejoin:round;">
<text x="200.0022" y="193.8572"
textLength="7.0071" font-size="2.0000" lengthAdjust="spacingAndGlyphs"
text-anchor="start" opacity="0">Date: </text>
<g class="stroked-text"><desc>Date: </desc>
<path d="M200.4580 193.7933
L200.4580 192.2933
" />
<path d="M200.4580 192.2933
L200.8152 192.2933
" />
<path d="M200.8152 192.2933
L201.0295 192.3648
" />
<path d="M201.0295 192.3648
L201.1723 192.5076
" />
<path d="M201.1723 192.5076
L201.2437 192.6505
" />
<path d="M201.2437 192.6505
L201.3152 192.9362
" />
<path d="M201.3152 192.9362
L201.3152 193.1505
" />
<path d="M201.3152 193.1505
L201.2437 193.4362
" />
<path d="M201.2437 193.4362
L201.1723 193.5790
" />
<path d="M201.1723 193.5790
L201.0295 193.7219
" />
<path d="M201.0295 193.7219
L200.8152 193.7933
" />
<path d="M200.8152 193.7933
L200.4580 193.7933
" />
<path d="M202.6009 193.7933
L202.6009 193.0076
" />
<path d="M202.6009 193.0076
L202.5295 192.8648
" />
<path d="M202.5295 192.8648
L202.3866 192.7933
" />
<path d="M202.3866 192.7933
L202.1009 192.7933
" />
<path d="M202.1009 192.7933
L201.9580 192.8648
" />
<path d="M202.6009 193.7219
L202.4580 193.7933
" />
<path d="M202.4580 193.7933
L202.1009 193.7933
" />
<path d="M202.1009 193.7933
L201.9580 193.7219
" />
<path d="M201.9580 193.7219
L201.8866 193.5790
" />
<path d="M201.8866 193.5790
L201.8866 193.4362
" />
<path d="M201.8866 193.4362
L201.9580 193.2933
" />
<path d="M201.9580 193.2933
L202.1009 193.2219
" />
<path d="M202.1009 193.2219
L202.4580 193.2219
" />
<path d="M202.4580 193.2219
L202.6009 193.1505
" />
<path d="M203.1009 192.7933
L203.6723 192.7933
" />
<path d="M203.3152 192.2933
L203.3152 193.5790
" />
<path d="M203.3152 193.5790
L203.3866 193.7219
" />
<path d="M203.3866 193.7219
L203.5295 193.7933
" />
<path d="M203.5295 193.7933
L203.6723 193.7933
" />
<path d="M204.7437 193.7219
L204.6009 193.7933
" />
<path d="M204.6009 193.7933
L204.3152 193.7933
" />
<path d="M204.3152 193.7933
L204.1723 193.7219
" />
<path d="M204.1723 193.7219
L204.1009 193.5790
" />
<path d="M204.1009 193.5790
L204.1009 193.0076
" />
<path d="M204.1009 193.0076
L204.1723 192.8648
" />
<path d="M204.1723 192.8648
L204.3152 192.7933
" />
<path d="M204.3152 192.7933
L204.6009 192.7933
" />
<path d="M204.6009 192.7933
L204.7437 192.8648
" />
<path d="M204.7437 192.8648
L204.8152 193.0076
" />
<path d="M204.8152 193.0076
L204.8152 193.1505
" />
<path d="M204.8152 193.1505
L204.1009 193.2933
" />
<path d="M205.4580 193.6505
L205.5295 193.7219
" />
<path d="M205.5295 193.7219
L205.4580 193.7933
" />
<path d="M205.4580 193.7933
L205.3866 193.7219
" />
<path d="M205.3866 193.7219
L205.4580 193.6505
" />
<path d="M205.4580 193.6505
L205.4580 193.7933
" />
<path d="M205.4580 192.8648
L205.5295 192.9362
" />
<path d="M205.5295 192.9362
L205.4580 193.0076
" />
<path d="M205.4580 193.0076
L205.3866 192.9362
" />
<path d="M205.3866 192.9362
L205.4580 192.8648
" />
<path d="M205.4580 192.8648
L205.4580 193.0076
" />
</g></g>
<g style="fill:none; 
stroke:#000000; stroke-width:0.1500; stroke-opacity:1; 
stroke-linecap:round; stroke-linejoin:round;">
<path d="M177.0022 194.5072
L285.0022 194.5072
" />
</g>
<g style="fill:none; 
stroke:#000000; stroke-width:0.1500; stroke-opacity:1; 
stroke-linecap:round; stroke-linejoin:round;">
<text x="178.0022" y="196.6572"
textLength="20.8643" font-size="2.0000" lengthAdjust="spacingAndGlyphs"
text-anchor="start" opacity="0">KiCad E.D.A. 8.0.2</text>
<g class="stroked-text"><desc>KiCad E.D.A. 8.0.2</desc>
<path d="M178.4580 196.5933
L178.4580 195.0933
" />
<path d="M179.3152 196.5933
L178.6723 195.7362
" />
<path d="M179.3152 195.0933
L178.4580 195.9505
" />
<path d="M179.9580 196.5933
L179.9580 195.5933
" />
<path d="M179.9580 195.0933
L179.8866 195.1648
" />
<path d="M179.8866 195.1648
L179.9580 195.2362
" />
<path d="M179.9580 195.2362
L180.0295 195.1648
" />
<path d="M180.0295 195.1648
L179.9580 195.0933
" />
<path d="M179.9580 195.0933
L179.9580 195.2362
" />
<path d="M181.5295 196.4505
L181.4580 196.5219
" />
<path d="M181.4580 196.5219
L181.2437 196.5933
" />
<path d="M181.2437 196.5933
L181.1009 196.5933
" />
<path d="M181.1009 196.5933
L180.8866 196.5219
" />
<path d="M180.8866 196.5219
L180.7437 196.3790
" />
<path d="M180.7437 196.3790
L180.6723 196.2362
" />
<path d="M180.6723 196.2362
L180.6009 195.9505
" />
<path d="M180.6009 195.9505
L180.6009 195.7362
" />
<path d="M180.6009 195.7362
L180.6723 195.4505
" />
<path d="M180.6723 195.4505
L180.7437 195.3076
" />
<path d="M180.7437 195.3076
L180.8866 195.1648
" />
<path d="M180.8866 195.1648
L181.1009 195.0933
" />
<path d="M181.1009 195.0933
L181.2437 195.0933
" />
<path d="M181.2437 195.0933
L181.4580 195.1648
" />
<path d="M181.4580 195.1648
L181.5295 195.2362
" />
<path d="M182.8152 196.5933
L182.8152 195.8076
" />
<path d="M182.8152 195.8076
L182.7437 195.6648
" />
<path d="M182.7437 195.6648
L182.6009 195.5933
" />
<path d="M182.6009 195.5933
L182.3152 195.5933
" />
<path d="M182.3152 195.5933
L182.1723 195.6648
" />
<path d="M182.8152 196.5219
L182.6723 196.5933
" />
<path d="M182.6723 196.5933
L182.3152 196.5933
" />
<path d="M182.3152 196.5933
L182.1723 196.5219
" />
<path d="M182.1723 196.5219
L182.1009 196.3790
" />
<path d="M182.1009 196.3790
L182.1009 196.2362
" />
<path d="M182.1009 196.2362
L182.1723 196.0933
" />
<path d="M182.1723 196.0933
L182.3152 196.0219
" />
<path d="M182.3152 196.0219
L182.6723 196.0219
" />
<path d="M182.6723 196.0219
L182.8152 195.9505
" />
<path d="M184.1723 196.5933
L184.1723 195.0933
" />
<path d="M184.1723 196.5219
L184.0295 196.5933
" />
<path d="M184.0295 196.5933
L183.7437 196.5933
" />
<path d="M183.7437 196.5933
L183.6009 196.5219
" />
<path d="M183.6009 196.5219
L183.5295 196.4505
" />
<path d="M183.5295 196.4505
L183.4580 196.3076
" />
<path d="M183.4580 196.3076
L183.4580 195.8790
" />
<path d="M183.4580 195.8790
L183.5295 195.7362
" />
<path d="M183.5295 195.7362
L183.6009 195.6648
" />
<path d="M183.6009 195.6648
L183.7437 195.5933
" />
<path d="M183.7437 195.5933
L184.0295 195.5933
" />
<path d="M184.0295 195.5933
L184.1723 195.6648
" />
<path d="M186.0295 195.8076
L186.5295 195.8076
" />
<path d="M186.7437 196.5933
L186.0295 196.5933
" />
<path d="M186.0295 196.5933
L186.0295 195.0933
" />
<path d="M186.0295 195.0933
L186.7437 195.0933
" />
<path d="M187.3866 196.4505
L187.4580 196.5219
" />
<path d="M187.4580 196.5219
L187.3866 196.5933
" />
<path d="M187.3866 196.5933
L187.3152 196.5219
" />
<path d="M187.3152 196.5219
L187.3866 196.4505
" />
<path d="M187.3866 196.4505
L187.3866 196.5933
" />
<path d="M188.1009 196.5933
L188.1009 195.0933
" />
<path d="M188.1009 195.0933
L188.4580 195.0933
" />
<path d="M188.4580 195.0933
L188.6723 195.1648
" />
<path d="M188.6723 195.1648
L188.8152 195.3076
" />
<path d="M188.8152 195.3076
L188.8866 195.4505
" />
<path d="M188.8866 195.4505
L188.9580 195.7362
" />
<path d="M188.9580 195.7362
L188.9580 195.9505
" />
<path d="M188.9580 195.9505
L188.8866 196.2362
" />
<path d="M188.8866 196.2362
L188.8152 196.3790
" />
<path d="M188.8152 196.3790
L188.6723 196.5219
" />
<path d="M188.6723 196.5219
L188.4580 196.5933
" />
<path d="M188.4580 196.5933
L188.1009 196.5933
" />
<path d="M189.6009 196.4505
L189.6723 196.5219
" />
<path d="M189.6723 196.5219
L189.6009 196.5933
" />
<path d="M189.6009 196.5933
L189.5295 196.5219
" />
<path d="M189.5295 196.5219
L189.6009 196.4505
" />
<path d="M189.6009 196.4505
L189.6009 196.5933
" />
<path d="M190.2437 196.1648
L190.9580 196.1648
" />
<path d="M190.1009 196.5933
L190.6009 195.0933
" />
<path d="M190.6009 195.0933
L191.1009 196.5933
" />
<path d="M191.6009 196.4505
L191.6723 196.5219
" />
<path d="M191.6723 196.5219
L191.6009 196.5933
" />
<path d="M191.6009 196.5933
L191.5295 196.5219
" />
<path d="M191.5295 196.5219
L191.6009 196.4505
" />
<path d="M191.6009 196.4505
L191.6009 196.5933
" />
<path d="M193.6723 195.7362
L193.5295 195.6648
" />
<path d="M193.5295 195.6648
L193.4580 195.5933
" />
<path d="M193.4580 195.5933
L193.3866 195.4505
" />
<path d="M193.3866 195.4505
L193.3866 195.3790
" />
<path d="M193.3866 195.3790
L193.4580 195.2362
" />
<path d="M193.4580 195.2362
L193.5295 195.1648
" />
<path d="M193.5295 195.1648
L193.6723 195.0933
" />
<path d="M193.6723 195.0933
L193.9580 195.0933
" />
<path d="M193.9580 195.0933
L194.1009 195.1648
" />
<path d="M194.1009 195.1648
L194.1723 195.2362
" />
<path d="M194.1723 195.2362
L194.2437 195.3790
" />
<path d="M194.2437 195.3790
L194.2437 195.4505
" />
<path d="M194.2437 195.4505
L194.1723 195.5933
" />
<path d="M194.1723 195.5933
L194.1009 195.6648
" />
<path d="M194.1009 195.6648
L193.9580 195.7362
" />
<path d="M193.9580 195.7362
L193.6723 195.7362
" />
<path d="M193.6723 195.7362
L193.5295 195.8076
" />
<path d="M193.5295 195.8076
L193.4580 195.8790
" />
<path d="M193.4580 195.8790
L193.3866 196.0219
" />
<path d="M193.3866 196.0219
L193.3866 196.3076
" />
<path d="M193.3866 196.3076
L193.4580 196.4505
" />
<path d="M193.4580 196.4505
L193.5295 196.5219
" />
<path d="M193.5295 196.5219
L193.6723 196.5933
" />
<path d="M193.6723 196.5933
L193.9580 196.5933
" />
<path d="M193.9580 196.5933
L194.1009 196.5219
" />
<path d="M194.1009 196.5219
L194.1723 196.4505
" />
<path d="M194.1723 196.4505
L194.2437 196.3076
" />
<path d="M194.2437 196.3076
L194.2437 196.0219
" />
<path d="M194.2437 196.0219
L194.1723 195.8790
" />
<path d="M194.1723 195.8790
L194.1009 195.8076
" />
<path d="M194.1009 195.8076
L193.9580 195.7362
" />
<path d="M194.8866 196.4505
L194.9580 196.5219
" />
<path d="M194.9580 196.5219
L194.8866 196.5933
" />
<path d="M194.8866 196.5933
L194.8152 196.5219
" />
<path d="M194.8152 196.5219
L194.8866 196.4505
" />
<path d="M194.8866 196.4505
L194.8866 196.5933
" />
<path d="M195.8866 195.0933
L196.0295 195.0933
" />
<path d="M196.0295 195.0933
L196.1723 195.1648
" />
<path d="M196.1723 195.1648
L196.2437 195.2362
" />
<path d="M196.2437 195.2362
L196.3152 195.3790
" />
<path d="M196.3152 195.3790
L196.3866 195.6648
" />
<path d="M196.3866 195.6648
L196.3866 196.0219
" />
<path d="M196.3866 196.0219
L196.3152 196.3076
" />
<path d="M196.3152 196.3076
L196.2437 196.4505
" />
<path d="M196.2437 196.4505
L196.1723 196.5219
" />
<path d="M196.1723 196.5219
L196.0295 196.5933
" />
<path d="M196.0295 196.5933
L195.8866 196.5933
" />
<path d="M195.8866 196.5933
L195.7437 196.5219
" />
<path d="M195.7437 196.5219
L195.6723 196.4505
" />
<path d="M195.6723 196.4505
L195.6009 196.3076
" />
<path d="M195.6009 196.3076
L195.5295 196.0219
" />
<path d="M195.5295 196.0219
L195.5295 195.6648
" />
<path d="M195.5295 195.6648
L195.6009 195.3790
" />
<path d="M195.6009 195.3790
L195.6723 195.2362
" />
<path d="M195.6723 195.2362
L195.7437 195.1648
" />
<path d="M195.7437 195.1648
L195.8866 195.0933
" />
<path d="M197.0295 196.4505
L197.1009 196.5219
" />
<path d="M197.1009 196.5219
L197.0295 196.5933
" />
<path d="M197.0295 196.5933
L196.9580 196.5219
" />
<path d="M196.9580 196.5219
L197.0295 196.4505
" />
<path d="M197.0295 196.4505
L197.0295 196.5933
" />
<path d="M197.6723 195.2362
L197.7437 195.1648
" />
<path d="M197.7437 195.1648
L197.8866 195.0933
" />
<path d="M197.8866 195.0933
L198.2437 195.0933
" />
<path d="M198.2437 195.0933
L198.3866 195.1648
" />
<path d="M198.3866 195.1648
L198.4580 195.2362
" />
<path d="M198.4580 195.2362
L198.5295 195.3790
" />
<path d="M198.5295 195.3790
L198.5295 195.5219
" />
<path d="M198.5295 195.5219
L198.4580 195.7362
" />
<path d="M198.4580 195.7362
L197.6009 196.5933
" />
<path d="M197.6009 196.5933
L198.5295 196.5933
" />
</g></g>
<g style="fill:none; 
stroke:#000000; stroke-width:0.1500; stroke-opacity:1; 
stroke-linecap:round; stroke-linejoin:round;">
<path d="M177.0022 191.5072
L285.0022 191.5072
" />
</g>
<g style="fill:none; 
stroke:#000000; stroke-width:0.3000; stroke-opacity:1; 
stroke-linecap:round; stroke-linejoin:round;">
<text x="263.0022" y="193.8572"
textLength="6.3857" font-size="2.0000" lengthAdjust="spacingAndGlyphs"
text-anchor="start" opacity="0">Rev: </text>
<g class="stroked-text"><desc>Rev: </desc>
<path d="M264.4139 193.7855
L263.9139 193.0712
" />
<path d="M263.5567 193.7855
L263.5567 192.2855
" />
<path d="M263.5567 192.2855
L264.1281 192.2855
" />
<path d="M264.1281 192.2855
L264.2710 192.3570
" />
<path d="M264.2710 192.3570
L264.3424 192.4284
" />
<path d="M264.3424 192.4284
L264.4139 192.5712
" />
<path d="M264.4139 192.5712
L264.4139 192.7855
" />
<path d="M264.4139 192.7855
L264.3424 192.9284
" />
<path d="M264.3424 192.9284
L264.2710 192.9998
" />
<path d="M264.2710 192.9998
L264.1281 193.0712
" />
<path d="M264.1281 193.0712
L263.5567 193.0712
" />
<path d="M265.6281 193.7141
L265.4853 193.7855
" />
<path d="M265.4853 193.7855
L265.1996 193.7855
" />
<path d="M265.1996 193.7855
L265.0567 193.7141
" />
<path d="M265.0567 193.7141
L264.9853 193.5712
" />
<path d="M264.9853 193.5712
L264.9853 192.9998
" />
<path d="M264.9853 192.9998
L265.0567 192.8570
" />
<path d="M265.0567 192.8570
L265.1996 192.7855
" />
<path d="M265.1996 192.7855
L265.4853 192.7855
" />
<path d="M265.4853 192.7855
L265.6281 192.8570
" />
<path d="M265.6281 192.8570
L265.6996 192.9998
" />
<path d="M265.6996 192.9998
L265.6996 193.1427
" />
<path d="M265.6996 193.1427
L264.9853 193.2855
" />
<path d="M266.1996 192.7855
L266.5567 193.7855
" />
<path d="M266.5567 193.7855
L266.9139 192.7855
" />
<path d="M267.4853 193.6427
L267.5567 193.7141
" />
<path d="M267.5567 193.7141
L267.4853 193.7855
" />
<path d="M267.4853 193.7855
L267.4139 193.7141
" />
<path d="M267.4139 193.7141
L267.4853 193.6427
" />
<path d="M267.4853 193.6427
L267.4853 193.7855
" />
<path d="M267.4853 192.8570
L267.5567 192.9284
" />
<path d="M267.5567 192.9284
L267.4853 192.9998
" />
<path d="M267.4853 192.9998
L267.4139 192.9284
" />
<path d="M267.4139 192.9284
L267.4853 192.8570
" />
<path d="M267.4853 192.8570
L267.4853 192.9998
" />
</g></g>
<g style="fill:none; 
stroke:#000000; stroke-width:0.1500; stroke-opacity:1; 
stroke-linecap:round; stroke-linejoin:round;">
<text x="178.0022" y="193.8572"
textLength="9.3643" font-size="2.0000" lengthAdjust="spacingAndGlyphs"
text-anchor="start" opacity="0">Size: A4</text>
<g class="stroked-text"><desc>Size: A4</desc>
<path d="M178.3866 193.7219
L178.6009 193.7933
" />
<path d="M178.6009 193.7933
L178.9580 193.7933
" />
<path d="M178.9580 193.7933
L179.1009 193.7219
" />
<path d="M179.1009 193.7219
L179.1723 193.6505
" />
<path d="M179.1723 193.6505
L179.2437 193.5076
" />
<path d="M179.2437 193.5076
L179.2437 193.3648
" />
<path d="M179.2437 193.3648
L179.1723 193.2219
" />
<path d="M179.1723 193.2219
L179.1009 193.1505
" />
<path d="M179.1009 193.1505
L178.9580 193.0790
" />
<path d="M178.9580 193.0790
L178.6723 193.0076
" />
<path d="M178.6723 193.0076
L178.5295 192.9362
" />
<path d="M178.5295 192.9362
L178.4580 192.8648
" />
<path d="M178.4580 192.8648
L178.3866 192.7219
" />
<path d="M178.3866 192.7219
L178.3866 192.5790
" />
<path d="M178.3866 192.5790
L178.4580 192.4362
" />
<path d="M178.4580 192.4362
L178.5295 192.3648
" />
<path d="M178.5295 192.3648
L178.6723 192.2933
" />
<path d="M178.6723 192.2933
L179.0295 192.2933
" />
<path d="M179.0295 192.2933
L179.2437 192.3648
" />
<path d="M179.8866 193.7933
L179.8866 192.7933
" />
<path d="M179.8866 192.2933
L179.8152 192.3648
" />
<path d="M179.8152 192.3648
L179.8866 192.4362
" />
<path d="M179.8866 192.4362
L179.9580 192.3648
" />
<path d="M179.9580 192.3648
L179.8866 192.2933
" />
<path d="M179.8866 192.2933
L179.8866 192.4362
" />
<path d="M180.4580 192.7933
L181.2437 192.7933
" />
<path d="M181.2437 192.7933
L180.4580 193.7933
" />
<path d="M180.4580 193.7933
L181.2437 193.7933
" />
<path d="M182.3866 193.7219
L182.2437 193.7933
" />
<path d="M182.2437 193.7933
L181.9580 193.7933
" />
<path d="M181.9580 193.7933
L181.8152 193.7219
" />
<path d="M181.8152 193.7219
L181.7437 193.5790
" />
<path d="M181.7437 193.5790
L181.7437 193.0076
" />
<path d="M181.7437 193.0076
L181.8152 192.8648
" />
<path d="M181.8152 192.8648
L181.9580 192.7933
" />
<path d="M181.9580 192.7933
L182.2437 192.7933
" />
<path d="M182.2437 192.7933
L182.3866 192.8648
" />
<path d="M182.3866 192.8648
L182.4580 193.0076
" />
<path d="M182.4580 193.0076
L182.4580 193.1505
" />
<path d="M182.4580 193.1505
L181.7437 193.2933
" />
<path d="M183.1009 193.6505
L183.1723 193.7219
" />
<path d="M183.1723 193.7219
L183.1009 193.7933
" />
<path d="M183.1009 193.7933
L183.0295 193.7219
" />
<path d="M183.0295 193.7219
L183.1009 193.6505
" />
<path d="M183.1009 193.6505
L183.1009 193.7933
" />
<path d="M183.1009 192.8648
L183.1723 192.9362
" />
<path d="M183.1723 192.9362
L183.1009 193.0076
" />
<path d="M183.1009 193.0076
L183.0295 192.9362
" />
<path d="M183.0295 192.9362
L183.1009 192.8648
" />
<path d="M183.1009 192.8648
L183.1009 193.0076
" />
<path d="M184.8866 193.3648
L185.6009 193.3648
" />
<path d="M184.7437 193.7933
L185.2437 192.2933
" />
<path d="M185.2437 192.2933
L185.7437 193.7933
" />
<path d="M186.8866 192.7933
L186.8866 193.7933
" />
<path d="M186.5295 192.2219
L186.1723 193.2933
" />
<path d="M186.1723 193.2933
L187.1009 193.2933
" />
</g></g>
<g style="fill:none; 
stroke:#000000; stroke-width:0.1500; stroke-opacity:1; 
stroke-linecap:round; stroke-linejoin:round;">
<text x="263.0022" y="196.6572"
textLength="8.5071" font-size="2.0000" lengthAdjust="spacingAndGlyphs"
text-anchor="start" opacity="0">Id: 1/1</text>
<g class="stroked-text"><desc>Id: 1/1</desc>
<path d="M263.4580 196.5933
L263.4580 195.0933
" />
<path d="M264.8152 196.5933
L264.8152 195.0933
" />
<path d="M264.8152 196.5219
L264.6723 196.5933
" />
<path d="M264.6723 196.5933
L264.3866 196.5933
" />
<path d="M264.3866 196.5933
L264.2437 196.5219
" />
<path d="M264.2437 196.5219
L264.1723 196.4505
" />
<path d="M264.1723 196.4505
L264.1009 196.3076
" />
<path d="M264.1009 196.3076
L264.1009 195.8790
" />
<path d="M264.1009 195.8790
L264.1723 195.7362
" />
<path d="M264.1723 195.7362
L264.2437 195.6648
" />
<path d="M264.2437 195.6648
L264.3866 195.5933
" />
<path d="M264.3866 195.5933
L264.6723 195.5933
" />
<path d="M264.6723 195.5933
L264.8152 195.6648
" />
<path d="M265.5295 196.4505
L265.6009 196.5219
" />
<path d="M265.6009 196.5219
L265.5295 196.5933
" />
<path d="M265.5295 196.5933
L265.4580 196.5219
" />
<path d="M265.4580 196.5219
L265.5295 196.4505
" />
<path d="M265.5295 196.4505
L265.5295 196.5933
" />
<path d="M265.5295 195.6648
L265.6009 195.7362
" />
<path d="M265.6009 195.7362
L265.5295 195.8076
" />
<path d="M265.5295 195.8076
L265.4580 195.7362
" />
<path d="M265.4580 195.7362
L265.5295 195.6648
" />
<path d="M265.5295 195.6648
L265.5295 195.8076
" />
<path d="M268.1723 196.5933
L267.3152 196.5933
" />
<path d="M267.7437 196.5933
L267.7437 195.0933
" />
<path d="M267.7437 195.0933
L267.6009 195.3076
" />
<path d="M267.6009 195.3076
L267.4580 195.4505
" />
<path d="M267.4580 195.4505
L267.3152 195.5219
" />
<path d="M269.8866 195.0219
L268.6009 196.9505
" />
<path d="M271.1723 196.5933
L270.3152 196.5933
" />
<path d="M270.7437 196.5933
L270.7437 195.0933
" />
<path d="M270.7437 195.0933
L270.6009 195.3076
" />
<path d="M270.6009 195.3076
L270.4580 195.4505
" />
<path d="M270.4580 195.4505
L270.3152 195.5219
" />
</g></g>
<g style="fill:none; 
stroke:#000000; stroke-width:0.1500; stroke-opacity:1; 
stroke-linecap:round; stroke-linejoin:round;">
<path d="M177.0022 187.5072
L285.0022 187.5072
" />
</g>
<g style="fill:none; 
stroke:#000000; stroke-width:0.4000; stroke-opacity:1; 
stroke-linecap:round; stroke-linejoin:round;">
<text x="178.0022" y="190.3072"
textLength="9.6571" font-size="2.6667" lengthAdjust="spacingAndGlyphs"
text-anchor="start" opacity="0">Title: </text>
<g class="stroked-text"><desc>Title: </desc>
<path d="M178.6939 188.2116
L179.8368 188.2116
" />
<path d="M179.0154 190.2116
L179.2654 188.2116
" />
<path d="M180.2535 190.2116
L180.4201 188.8783
" />
<path d="M180.5035 188.2116
L180.3963 188.3069
" />
<path d="M180.3963 188.3069
L180.4796 188.4021
" />
<path d="M180.4796 188.4021
L180.5868 188.3069
" />
<path d="M180.5868 188.3069
L180.5035 188.2116
" />
<path d="M180.5035 188.2116
L180.4796 188.4021
" />
<path d="M181.0868 188.8783
L181.8487 188.8783
" />
<path d="M181.4558 188.2116
L181.2415 189.9259
" />
<path d="M181.2415 189.9259
L181.3130 190.1164
" />
<path d="M181.3130 190.1164
L181.4915 190.2116
" />
<path d="M181.4915 190.2116
L181.6820 190.2116
" />
<path d="M182.6344 190.2116
L182.4558 190.1164
" />
<path d="M182.4558 190.1164
L182.3844 189.9259
" />
<path d="M182.3844 189.9259
L182.5987 188.2116
" />
<path d="M184.1701 190.1164
L183.9677 190.2116
" />
<path d="M183.9677 190.2116
L183.5868 190.2116
" />
<path d="M183.5868 190.2116
L183.4082 190.1164
" />
<path d="M183.4082 190.1164
L183.3368 189.9259
" />
<path d="M183.3368 189.9259
L183.4320 189.1640
" />
<path d="M183.4320 189.1640
L183.5511 188.9735
" />
<path d="M183.5511 188.9735
L183.7535 188.8783
" />
<path d="M183.7535 188.8783
L184.1344 188.8783
" />
<path d="M184.1344 188.8783
L184.3130 188.9735
" />
<path d="M184.3130 188.9735
L184.3844 189.1640
" />
<path d="M184.3844 189.1640
L184.3606 189.3545
" />
<path d="M184.3606 189.3545
L183.3844 189.5450
" />
<path d="M185.1344 190.0212
L185.2177 190.1164
" />
<path d="M185.2177 190.1164
L185.1106 190.2116
" />
<path d="M185.1106 190.2116
L185.0273 190.1164
" />
<path d="M185.0273 190.1164
L185.1344 190.0212
" />
<path d="M185.1344 190.0212
L185.1106 190.2116
" />
<path d="M185.2654 188.9735
L185.3487 189.0688
" />
<path d="M185.3487 189.0688
L185.2415 189.1640
" />
<path d="M185.2415 189.1640
L185.1582 189.0688
" />
<path d="M185.1582 189.0688
L185.2654 188.9735
" />
<path d="M185.2654 188.9735
L185.2415 189.1640
" />
</g></g>
<g style="fill:none; 
stroke:#000000; stroke-width:0.1500; stroke-opacity:1; 
stroke-linecap:round; stroke-linejoin:round;">
<text x="178.0022" y="186.4572"
textLength="25.7214" font-size="2.0000" lengthAdjust="spacingAndGlyphs"
text-anchor="start" opacity="0">File: kazhan.kicad_pcb</text>
<g class="stroked-text"><desc>File: kazhan.kicad_pcb</desc>
<path d="M178.9580 185.6076
L178.4580 185.6076
" />
<path d="M178.4580 186.3933
L178.4580 184.8933
" />
<path d="M178.4580 184.8933
L179.1723 184.8933
" />
<path d="M179.7437 186.3933
L179.7437 185.3933
" />
<path d="M179.7437 184.8933
L179.6723 184.9648
" />
<path d="M179.6723 184.9648
L179.7437 185.0362
" />
<path d="M179.7437 185.0362
L179.8152 184.9648
" />
<path d="M179.8152 184.9648
L179.7437 184.8933
" />
<path d="M179.7437 184.8933
L179.7437 185.0362
" />
<path d="M180.6723 186.3933
L180.5295 186.3219
" />
<path d="M180.5295 186.3219
L180.4580 186.1790
" />
<path d="M180.4580 186.1790
L180.4580 184.8933
" />
<path d="M181.8152 186.3219
L181.6723 186.3933
" />
<path d="M181.6723 186.3933
L181.3866 186.3933
" />
<path d="M181.3866 186.3933
L181.2437 186.3219
" />
<path d="M181.2437 186.3219
L181.1723 186.1790
" />
<path d="M181.1723 186.1790
L181.1723 185.6076
" />
<path d="M181.1723 185.6076
L181.2437 185.4648
" />
<path d="M181.2437 185.4648
L181.3866 185.3933
" />
<path d="M181.3866 185.3933
L181.6723 185.3933
" />
<path d="M181.6723 185.3933
L181.8152 185.4648
" />
<path d="M181.8152 185.4648
L181.8866 185.6076
" />
<path d="M181.8866 185.6076
L181.8866 185.7505
" />
<path d="M181.8866 185.7505
L181.1723 185.8933
" />
<path d="M182.5295 186.2505
L182.6009 186.3219
" />
<path d="M182.6009 186.3219
L182.5295 186.3933
" />
<path d="M182.5295 186.3933
L182.4580 186.3219
" />
<path d="M182.4580 186.3219
L182.5295 186.2505
" />
<path d="M182.5295 186.2505
L182.5295 186.3933
" />
<path d="M182.5295 185.4648
L182.6009 185.5362
" />
<path d="M182.6009 185.5362
L182.5295 185.6076
" />
<path d="M182.5295 185.6076
L182.4580 185.5362
" />
<path d="M182.4580 185.5362
L182.5295 185.4648
" />
<path d="M182.5295 185.4648
L182.5295 185.6076
" />
<path d="M184.3866 186.3933
L184.3866 184.8933
" />
<path d="M184.5295 185.8219
L184.9580 186.3933
" />
<path d="M184.9580 185.3933
L184.3866 185.9648
" />
<path d="M186.2437 186.3933
L186.2437 185.6076
" />
<path d="M186.2437 185.6076
L186.1723 185.4648
" />
<path d="M186.1723 185.4648
L186.0295 185.3933
" />
<path d="M186.0295 185.3933
L185.7437 185.3933
" />
<path d="M185.7437 185.3933
L185.6009 185.4648
" />
<path d="M186.2437 186.3219
L186.1009 186.3933
" />
<path d="M186.1009 186.3933
L185.7437 186.3933
" />
<path d="M185.7437 186.3933
L185.6009 186.3219
" />
<path d="M185.6009 186.3219
L185.5295 186.1790
" />
<path d="M185.5295 186.1790
L185.5295 186.0362
" />
<path d="M185.5295 186.0362
L185.6009 185.8933
" />
<path d="M185.6009 185.8933
L185.7437 185.8219
" />
<path d="M185.7437 185.8219
L186.1009 185.8219
" />
<path d="M186.1009 185.8219
L186.2437 185.7505
" />
<path d="M186.8152 185.3933
L187.6009 185.3933
" />
<path d="M187.6009 185.3933
L186.8152 186.3933
" />
<path d="M186.8152 186.3933
L187.6009 186.3933
" />
<path d="M188.1723 186.3933
L188.1723 184.8933
" />
<path d="M188.8152 186.3933
L188.8152 185.6076
" />
<path d="M188.8152 185.6076
L188.7437 185.4648
" />
<path d="M188.7437 185.4648
L188.6009 185.3933
" />
<path d="M188.6009 185.3933
L188.3866 185.3933
" />
<path d="M188.3866 185.3933
L188.2437 185.4648
" />
<path d="M188.2437 185.4648
L188.1723 185.5362
" />
<path d="M190.1723 186.3933
L190.1723 185.6076
" />
<path d="M190.1723 185.6076
L190.1009 185.4648
" />
<path d="M190.1009 185.4648
L189.9580 185.3933
" />
<path d="M189.9580 185.3933
L189.6723 185.3933
" />
<path d="M189.6723 185.3933
L189.5295 185.4648
" />
<path d="M190.1723 186.3219
L190.0295 186.3933
" />
<path d="M190.0295 186.3933
L189.6723 186.3933
" />
<path d="M189.6723 186.3933
L189.5295 186.3219
" />
<path d="M189.5295 186.3219
L189.4580 186.1790
" />
<path d="M189.4580 186.1790
L189.4580 186.0362
" />
<path d="M189.4580 186.0362
L189.5295 185.8933
" />
<path d="M189.5295 185.8933
L189.6723 185.8219
" />
<path d="M189.6723 185.8219
L190.0295 185.8219
" />
<path d="M190.0295 185.8219
L190.1723 185.7505
" />
<path d="M190.8866 185.3933
L190.8866 186.3933
" />
<path d="M190.8866 185.5362
L190.9580 185.4648
" />
<path d="M190.9580 185.4648
L191.1009 185.3933
" />
<path d="M191.1009 185.3933
L191.3152 185.3933
" />
<path d="M191.3152 185.3933
L191.4580 185.4648
" />
<path d="M191.4580 185.4648
L191.5295 185.6076
" />
<path d="M191.5295 185.6076
L191.5295 186.3933
" />
<path d="M192.2437 186.2505
L192.3152 186.3219
" />
<path d="M192.3152 186.3219
L192.2437 186.3933
" />
<path d="M192.2437 186.3933
L192.1723 186.3219
" />
<path d="M192.1723 186.3219
L192.2437 186.2505
" />
<path d="M192.2437 186.2505
L192.2437 186.3933
" />
<path d="M192.9580 186.3933
L192.9580 184.8933
" />
<path d="M193.1009 185.8219
L193.5295 186.3933
" />
<path d="M193.5295 185.3933
L192.9580 185.9648
" />
<path d="M194.1723 186.3933
L194.1723 185.3933
" />
<path d="M194.1723 184.8933
L194.1009 184.9648
" />
<path d="M194.1009 184.9648
L194.1723 185.0362
" />
<path d="M194.1723 185.0362
L194.2437 184.9648
" />
<path d="M194.2437 184.9648
L194.1723 184.8933
" />
<path d="M194.1723 184.8933
L194.1723 185.0362
" />
<path d="M195.5295 186.3219
L195.3866 186.3933
" />
<path d="M195.3866 186.3933
L195.1009 186.3933
" />
<path d="M195.1009 186.3933
L194.9580 186.3219
" />
<path d="M194.9580 186.3219
L194.8866 186.2505
" />
<path d="M194.8866 186.2505
L194.8152 186.1076
" />
<path d="M194.8152 186.1076
L194.8152 185.6790
" />
<path d="M194.8152 185.6790
L194.8866 185.5362
" />
<path d="M194.8866 185.5362
L194.9580 185.4648
" />
<path d="M194.9580 185.4648
L195.1009 185.3933
" />
<path d="M195.1009 185.3933
L195.3866 185.3933
" />
<path d="M195.3866 185.3933
L195.5295 185.4648
" />
<path d="M196.8152 186.3933
L196.8152 185.6076
" />
<path d="M196.8152 185.6076
L196.7437 185.4648
" />
<path d="M196.7437 185.4648
L196.6009 185.3933
" />
<path d="M196.6009 185.3933
L196.3152 185.3933
" />
<path d="M196.3152 185.3933
L196.1723 185.4648
" />
<path d="M196.8152 186.3219
L196.6723 186.3933
" />
<path d="M196.6723 186.3933
L196.3152 186.3933
" />
<path d="M196.3152 186.3933
L196.1723 186.3219
" />
<path d="M196.1723 186.3219
L196.1009 186.1790
" />
<path d="M196.1009 186.1790
L196.1009 186.0362
" />
<path d="M196.1009 186.0362
L196.1723 185.8933
" />
<path d="M196.1723 185.8933
L196.3152 185.8219
" />
<path d="M196.3152 185.8219
L196.6723 185.8219
" />
<path d="M196.6723 185.8219
L196.8152 185.7505
" />
<path d="M198.1723 186.3933
L198.1723 184.8933
" />
<path d="M198.1723 186.3219
L198.0295 186.3933
" />
<path d="M198.0295 186.3933
L197.7437 186.3933
" />
<path d="M197.7437 186.3933
L197.6009 186.3219
" />
<path d="M197.6009 186.3219
L197.5295 186.2505
" />
<path d="M197.5295 186.2505
L197.4580 186.1076
" />
<path d="M197.4580 186.1076
L197.4580 185.6790
" />
<path d="M197.4580 185.6790
L197.5295 185.5362
" />
<path d="M197.5295 185.5362
L197.6009 185.4648
" />
<path d="M197.6009 185.4648
L197.7437 185.3933
" />
<path d="M197.7437 185.3933
L198.0295 185.3933
" />
<path d="M198.0295 185.3933
L198.1723 185.4648
" />
<path d="M198.5295 186.5362
L199.6723 186.5362
" />
<path d="M200.0295 185.3933
L200.0295 186.8933
" />
<path d="M200.0295 185.4648
L200.1723 185.3933
" />
<path d="M200.1723 185.3933
L200.4580 185.3933
" />
<path d="M200.4580 185.3933
L200.6009 185.4648
" />
<path d="M200.6009 185.4648
L200.6723 185.5362
" />
<path d="M200.6723 185.5362
L200.7437 185.6790
" />
<path d="M200.7437 185.6790
L200.7437 186.1076
" />
<path d="M200.7437 186.1076
L200.6723 186.2505
" />
<path d="M200.6723 186.2505
L200.6009 186.3219
" />
<path d="M200.6009 186.3219
L200.4580 186.3933
" />
<path d="M200.4580 186.3933
L200.1723 186.3933
" />
<path d="M200.1723 186.3933
L200.0295 186.3219
" />
<path d="M202.0295 186.3219
L201.8866 186.3933
" />
<path d="M201.8866 186.3933
L201.6009 186.3933
" />
<path d="M201.6009 186.3933
L201.4580 186.3219
" />
<path d="M201.4580 186.3219
L201.3866 186.2505
" />
<path d="M201.3866 186.2505
L201.3152 186.1076
" />
<path d="M201.3152 186.1076
L201.3152 185.6790
" />
<path d="M201.3152 185.6790
L201.3866 185.5362
" />
<path d="M201.3866 185.5362
L201.4580 185.4648
" />
<path d="M201.4580 185.4648
L201.6009 185.3933
" />
<path d="M201.6009 185.3933
L201.8866 185.3933
" />
<path d="M201.8866 185.3933
L202.0295 185.4648
" />
<path d="M202.6723 186.3933
L202.6723 184.8933
" />
<path d="M202.6723 185.4648
L202.8152 185.3933
" />
<path d="M202.8152 185.3933
L203.1009 185.3933
" />
<path d="M203.1009 185.3933
L203.2437 185.4648
" />
<path d="M203.2437 185.4648
L203.3152 185.5362
" />
<path d="M203.3152 185.5362
L203.3866 185.6790
" />
<path d="M203.3866 185.6790
L203.3866 186.1076
" />
<path d="M203.3866 186.1076
L203.3152 186.2505
" />
<path d="M203.3152 186.2505
L203.2437 186.3219
" />
<path d="M203.2437 186.3219
L203.1009 186.3933
" />
<path d="M203.1009 186.3933
L202.8152 186.3933
" />
<path d="M202.8152 186.3933
L202.6723 186.3219
" />
</g></g>
<g style="fill:none; 
stroke:#000000; stroke-width:0.1500; stroke-opacity:1; 
stroke-linecap:round; stroke-linejoin:round;">
<path d="M177.0022 181.5072
L285.0022 181.5072
" />
</g>
<g style="fill:none; 
stroke:#000000; stroke-width:0.1500; stroke-opacity:1; 
stroke-linecap:round; stroke-linejoin:round;">
<text x="178.0022" y="183.7572"
textLength="8.2214" font-size="2.0000" lengthAdjust="spacingAndGlyphs"
text-anchor="start" opacity="0">Sheet: </text>
<g class="stroked-text"><desc>Sheet: </desc>
<path d="M178.3866 183.6219
L178.6009 183.6933
" />
<path d="M178.6009 183.6933
L178.9580 183.6933
" />
<path d="M178.9580 183.6933
L179.1009 183.6219
" />
<path d="M179.1009 183.6219
L179.1723 183.5505
" />
<path d="M179.1723 183.5505
L179.2437 183.4076
" />
<path d="M179.2437 183.4076
L179.2437 183.2648
" />
<path d="M179.2437 183.2648
L179.1723 183.1219
" />
<path d="M179.1723 183.1219
L179.1009 183.0505
" />
<path d="M179.1009 183.0505
L178.9580 182.9790
" />
<path d="M178.9580 182.9790
L178.6723 182.9076
" />
<path d="M178.6723 182.9076
L178.5295 182.8362
" />
<path d="M178.5295 182.8362
L178.4580 182.7648
" />
<path d="M178.4580 182.7648
L178.3866 182.6219
" />
<path d="M178.3866 182.6219
L178.3866 182.4790
" />
<path d="M178.3866 182.4790
L178.4580 182.3362
" />
<path d="M178.4580 182.3362
L178.5295 182.2648
" />
<path d="M178.5295 182.2648
L178.6723 182.1933
" />
<path d="M178.6723 182.1933
L179.0295 182.1933
" />
<path d="M179.0295 182.1933
L179.2437 182.2648
" />
<path d="M179.8866 183.6933
L179.8866 182.1933
" />
<path d="M180.5295 183.6933
L180.5295 182.9076
" />
<path d="M180.5295 182.9076
L180.4580 182.7648
" />
<path d="M180.4580 182.7648
L180.3152 182.6933
" />
<path d="M180.3152 182.6933
L180.1009 182.6933
" />
<path d="M180.1009 182.6933
L179.9580 182.7648
" />
<path d="M179.9580 182.7648
L179.8866 182.8362
" />
<path d="M181.8152 183.6219
L181.6723 183.6933
" />
<path d="M181.6723 183.6933
L181.3866 183.6933
" />
<path d="M181.3866 183.6933
L181.2437 183.6219
" />
<path d="M181.2437 183.6219
L181.1723 183.4790
" />
<path d="M181.1723 183.4790
L181.1723 182.9076
" />
<path d="M181.1723 182.9076
L181.2437 182.7648
" />
<path d="M181.2437 182.7648
L181.3866 182.6933
" />
<path d="M181.3866 182.6933
L181.6723 182.6933
" />
<path d="M181.6723 182.6933
L181.8152 182.7648
" />
<path d="M181.8152 182.7648
L181.8866 182.9076
" />
<path d="M181.8866 182.9076
L181.8866 183.0505
" />
<path d="M181.8866 183.0505
L181.1723 183.1933
" />
<path d="M183.1009 183.6219
L182.9580 183.6933
" />
<path d="M182.9580 183.6933
L182.6723 183.6933
" />
<path d="M182.6723 183.6933
L182.5295 183.6219
" />
<path d="M182.5295 183.6219
L182.4580 183.4790
" />
<path d="M182.4580 183.4790
L182.4580 182.9076
" />
<path d="M182.4580 182.9076
L182.5295 182.7648
" />
<path d="M182.5295 182.7648
L182.6723 182.6933
" />
<path d="M182.6723 182.6933
L182.9580 182.6933
" />
<path d="M182.9580 182.6933
L183.1009 182.7648
" />
<path d="M183.1009 182.7648
L183.1723 182.9076
" />
<path d="M183.1723 182.9076
L183.1723 183.0505
" />
<path d="M183.1723 183.0505
L182.4580 183.1933
" />
<path d="M183.6009 182.6933
L184.1723 182.6933
" />
<path d="M183.8152 182.1933
L183.8152 183.4790
" />
<path d="M183.8152 183.4790
L183.8866 183.6219
" />
<path d="M183.8866 183.6219
L184.0295 183.6933
" />
<path d="M184.0295 183.6933
L184.1723 183.6933
" />
<path d="M184.6723 183.5505
L184.7437 183.6219
" />
<path d="M184.7437 183.6219
L184.6723 183.6933
" />
<path d="M184.6723 183.6933
L184.6009 183.6219
" />
<path d="M184.6009 183.6219
L184.6723 183.5505
" />
<path d="M184.6723 183.5505
L184.6723 183.6933
" />
<path d="M184.6723 182.7648
L184.7437 182.8362
" />
<path d="M184.7437 182.8362
L184.6723 182.9076
" />
<path d="M184.6723 182.9076
L184.6009 182.8362
" />
<path d="M184.6009 182.8362
L184.6723 182.7648
" />
<path d="M184.6723 182.7648
L184.6723 182.9076
" />
</g></g>
<g style="fill:none; 
stroke:#000000; stroke-width:0.3000; stroke-opacity:1; 
stroke-linecap:round; stroke-linejoin:round;">
<text x="178.0022" y="180.7572"
textLength="0.9000" font-size="2.0000" lengthAdjust="spacingAndGlyphs"
text-anchor="start" opacity="0"></text>
<g class="stroked-text"><desc></desc>
</g></g>
<g style="fill:none; 
stroke:#000000; stroke-width:0.1500; stroke-opacity:1; 
stroke-linecap:round; stroke-linejoin:round;">
<text x="178.0022" y="177.7572"
textLength="0.4500" font-size="2.0000" lengthAdjust="spacingAndGlyphs"
text-anchor="start" opacity="0"></text>
<g class="stroked-text"><desc></desc>
</g></g>
<g style="fill:none; 
stroke:#000000; stroke-width:0.1500; stroke-opacity:1; 
stroke-linecap:round; stroke-linejoin:round;">
<text x="178.0022" y="174.7572"
textLength="0.4500" font-size="2.0000" lengthAdjust="spacingAndGlyphs"
text-anchor="start" opacity="0"></text>
<g class="stroked-text"><desc></desc>
</g></g>
<g style="fill:none; 
stroke:#000000; stroke-width:0.1500; stroke-opacity:1; 
stroke-linecap:round; stroke-linejoin:round;">
<text x="178.0022" y="171.7572"
textLength="0.4500" font-size="2.0000" lengthAdjust="spacingAndGlyphs"
text-anchor="start" opacity="0"></text>
<g class="stroked-text"><desc></desc>
</g></g>
<g style="fill:none; 
stroke:#000000; stroke-width:0.1500; stroke-opacity:1; 
stroke-linecap:round; stroke-linejoin:round;">
<text x="178.0022" y="168.7572"
textLength="0.4500" font-size="2.0000" lengthAdjust="spacingAndGlyphs"
text-anchor="start" opacity="0"></text>
<g class="stroked-text"><desc></desc>
</g></g>
<g style="fill:none; 
stroke:#000000; stroke-width:0.1500; stroke-opacity:1; 
stroke-linecap:round; stroke-linejoin:round;">
<path d="M197.0022 191.5072
L197.0022 194.5072
" />
</g>
<g style="fill:none; 
stroke:#000000; stroke-width:0.1500; stroke-opacity:1; 
stroke-linecap:round; stroke-linejoin:round;">
<path d="M261.0022 191.5072
L261.0022 198.0072
" />
</g>
<g style="fill:none; 
stroke:#D0D2CD; stroke-width:0.2000; stroke-opacity:1; 
stroke-linecap:round; stroke-linejoin:round;">
<path d="M127.4319 37.4013
L124.3425 34.9478
" />
<path d="M25.9837 87.9274
L30.7772 86.2416
" />
<path d="M85.3509 27.1852
L82.0713 26.4097
" />
<path d="M61.4810 26.9524
L57.5807 29.2150
" />
<path d="M125.2162 145.2253
L126.1617 147.9715
" />
<path d="M65.7284 98.4850
L66.1708 98.7705
" />
<path d="M150.3708 151.4526
L154.4745 150.5380
" />
<path d="M100.6851 122.9335
L101.0103 123.2780
" />
<path d="M141.5721 47.4217
L134.4338 42.4041
" />
<path d="M130.0682 159.3537
L132.8490 157.5615
" />
<path d="M117.8097 27.1643
L117.3444 26.9657
" />
<path d="M157.3756 151.9492
L159.9595 153.4517
" />
<path d="M50.7776 34.1015
L47.8029 36.8307
" />
<path d="M40.1534 46.7941
L37.9085 50.8826
" />
<path d="M99.0490 113.4448
L99.9029 115.7821
" />
<path d="M156.0581 42.1438
L156.2345 41.1140
" />
<path d="M100.4387 118.0196
L100.6474 120.0988
" />
<path d="M45.0646 39.8208
L42.5268 43.1244
" />
<path d="M91.9732 28.1548
L88.6637 27.7598
" />
<path d="M156.1069 49.7534
L155.8924 47.2227
" />
<path d="M155.8924 47.2227
L155.8533 45.0934
" />
<path d="M155.8533 45.0934
L156.0581 42.1438
" />
<path d="M154.4745 150.5380
L157.3756 151.9492
" />
<path d="M66.6813 98.8916
L67.2099 98.8242
" />
<path d="M109.7081 27.9581
L104.4449 28.3694
" />
<path d="M71.1908 97.8133
L74.9599 97.4021
" />
<path d="M81.8270 98.1453
L84.9073 99.1832
" />
<path d="M101.0103 123.2780
L101.4798 123.4735
" />
<path d="M30.7772 86.2416
L35.2046 85.1239
" />
<path d="M46.4098 84.6247
L49.4919 85.2247
" />
<path d="M156.5576 52.6593
L156.1069 49.7534
" />
<path d="M84.9073 99.1832
L87.7403 100.5875
" />
<path d="M52.2674 86.1153
L54.7480 87.2412
" />
<path d="M33.6598 60.5266
L31.5840 66.1874
" />
<path d="M99.9029 115.7821
L100.4387 118.0196
" />
<path d="M119.7079 30.2208
L118.9762 29.0889
" />
<path d="M54.7480 87.2412
L56.9458 88.5468
" />
<path d="M66.1708 98.7705
L66.6813 98.8916
" />
<path d="M110.9880 126.9764
L113.5726 128.6646
" />
<path d="M104.9586 124.3561
L108.1223 125.5320
" />
<path d="M92.6290 104.2624
L94.6670 106.4164
" />
<path d="M154.0978 42.4345
L151.7854 43.5778
" />
<path d="M148.0319 45.0661
L141.5721 47.4217
" />
<path d="M42.5268 43.1244
L40.1534 46.7941
" />
<path d="M143.6227 153.2833
L150.3708 151.4526
" />
<path d="M65.4037 98.0593
L65.7284 98.4850
" />
<path d="M159.9595 153.4517
L162.2232 155.0015
" />
<path d="M64.1053 95.8296
L65.4037 98.0593
" />
<path d="M71.6409 22.3446
L70.4593 22.5254
" />
<path d="M121.7198 32.5486
L119.7079 30.2208
" />
<path d="M98.4356 28.4923
L91.9732 28.1548
" />
<path d="M100.5203 121.9616
L100.5174 122.4810
" />
<path d="M100.6474 120.0988
L100.5203 121.9616
" />
<path d="M25.2222 87.9073
L25.5344 88.0202
" />
<path d="M108.1223 125.5320
L110.9880 126.9764
" />
<path d="M127.6835 153.5012
L128.8261 158.9156
" />
<path d="M74.9599 97.4021
L78.5083 97.5322
" />
<path d="M47.8029 36.8307
L45.0646 39.8208
" />
<path d="M115.8930 130.5717
L117.9662 132.6730
" />
<path d="M72.7987 22.6625
L71.6409 22.3446
" />
<path d="M139.8723 154.5157
L143.6227 153.2833
" />
<path d="M65.7618 24.7401
L61.4810 26.9524
" />
<path d="M25.1187 87.1567
L25.0746 87.6119
" />
<path d="M162.2232 155.0015
L164.1640 156.5544
" />
<path d="M96.4222 108.7036
L97.8858 111.0659
" />
<path d="M124.1252 142.5247
L125.2162 145.2253
" />
<path d="M25.0746 87.6119
L25.2222 87.9073
" />
<path d="M29.4926 72.4776
L25.1187 87.1567
" />
<path d="M49.4919 85.2247
L52.2674 86.1153
" />
<path d="M119.8090 134.9438
L121.4385 137.3592
" />
<path d="M56.9458 88.5468
L58.8724 89.9768
" />
<path d="M54.0249 31.5805
L50.7776 34.1015
" />
<path d="M151.7854 43.5778
L148.0319 45.0661
" />
<path d="M129.2817 159.5719
L129.6499 159.5753
" />
<path d="M117.9662 132.6730
L119.8090 134.9438
" />
<path d="M87.7403 100.5875
L90.3172 102.3000
" />
<path d="M43.0091 84.3710
L46.4098 84.6247
" />
<path d="M67.2099 98.8242
L71.1908 97.8133
" />
<path d="M118.1888 27.5152
L117.8097 27.1643
" />
<path d="M168.6396 161.9131
L168.6396 55.9030
" />
<path d="M164.1640 156.5544
L165.7788 158.0661
" />
<path d="M88.6637 27.7598
L85.3509 27.1852
" />
<path d="M82.0713 26.4097
L78.8617 25.4117
" />
<path d="M168.6396 55.9030
L157.3054 55.9144
" />
<path d="M126.1617 147.9715
L127.6835 153.5012
" />
<path d="M132.8490 157.5615
L136.1991 155.9454
" />
<path d="M35.7559 55.4426
L33.6598 60.5266
" />
<path d="M117.3444 26.9657
L116.8232 26.9568
" />
<path d="M136.1991 155.9454
L139.8723 154.5157
" />
<path d="M57.5807 29.2150
L54.0249 31.5805
" />
<path d="M113.9319 27.4299
L109.7081 27.9581
" />
<path d="M94.6670 106.4164
L96.4222 108.7036
" />
<path d="M58.8724 89.9768
L60.5398 91.4755
" />
<path d="M116.8232 26.9568
L113.9319 27.4299
" />
<path d="M97.8858 111.0659
L99.0490 113.4448
" />
<path d="M60.5398 91.4755
L61.9599 92.9875
" />
<path d="M122.8716 139.8944
L124.1252 142.5247
" />
<path d="M100.5174 122.4810
L100.6851 122.9335
" />
<path d="M128.8261 158.9156
L128.9962 159.3500
" />
<path d="M128.9962 159.3500
L129.2817 159.5719
" />
<path d="M104.4449 28.3694
L98.4356 28.4923
" />
<path d="M70.4593 22.5254
L65.7618 24.7401
" />
<path d="M78.5083 97.5322
L81.8270 98.1453
" />
<path d="M156.2345 41.1140
L154.0978 42.4345
" />
<path d="M31.5840 66.1874
L29.4926 72.4776
" />
<path d="M61.9599 92.9875
L64.1053 95.8296
" />
<path d="M39.2780 84.5189
L43.0091 84.3710
" />
<path d="M157.3054 55.9144
L156.5576 52.6593
" />
<path d="M121.4385 137.3592
L122.8716 139.8944
" />
<path d="M165.7788 158.0661
L167.0650 159.4926
" />
<path d="M168.0195 160.7897
L168.6396 161.9131
" />
<path d="M101.4798 123.4735
L104.9586 124.3561
" />
<path d="M134.4338 42.4041
L127.4319 37.4013
" />
<path d="M167.0650 159.4926
L168.0195 160.7897
" />
<path d="M75.7586 24.1698
L72.7987 22.6625
" />
<path d="M90.3172 102.3000
L92.6290 104.2624
" />
<path d="M35.2046 85.1239
L39.2780 84.5189
" />
<path d="M25.5344 88.0202
L25.9837 87.9274
" />
<path d="M124.3425 34.9478
L121.7198 32.5486
" />
<path d="M129.6499 159.5753
L130.0682 159.3537
" />
<path d="M118.4512 27.9812
L118.1888 27.5152
" />
<path d="M78.8617 25.4117
L75.7586 24.1698
" />
<path d="M118.9762 29.0889
L118.4512 27.9812
" />
<path d="M37.9085 50.8826
L35.7559 55.4426
" />
<path d="M113.5726 128.6646
L115.8930 130.5717
" />
</g>
<g style="fill:none; 
stroke:#D0D2CD; stroke-width:0.2000; stroke-opacity:1; 
stroke-linecap:round; stroke-linejoin:round;">
<path d="M127.4319 37.4013
L124.3425 34.9478
" />
<path d="M25.9837 87.9274
L30.7772 86.2416
" />
<path d="M85.3509 27.1852
L82.0713 26.4097
" />
<path d="M61.4810 26.9524
L57.5807 29.2150
" />
<path d="M125.2162 145.2253
L126.1617 147.9715
" />
<path d="M65.7284 98.4850
L66.1708 98.7705
" />
<path d="M150.3708 151.4526
L154.4745 150.5380
" />
<path d="M100.6851 122.9335
L101.0103 123.2780
" />
<path d="M141.5721 47.4217
L134.4338 42.4041
" />
<path d="M130.0682 159.3537
L132.8490 157.5615
" />
<path d="M117.8097 27.1643
L117.3444 26.9657
" />
<path d="M157.3756 151.9492
L159.9595 153.4517
" />
<path d="M50.7776 34.1015
L47.8029 36.8307
" />
<path d="M40.1534 46.7941
L37.9085 50.8826
" />
<path d="M99.0490 113.4448
L99.9029 115.7821
" />
<path d="M156.0581 42.1438
L156.2345 41.1140
" />
<path d="M100.4387 118.0196
L100.6474 120.0988
" />
<path d="M45.0646 39.8208
L42.5268 43.1244
" />
<path d="M91.9732 28.1548
L88.6637 27.7598
" />
<path d="M156.1069 49.7534
L155.8924 47.2227
" />
<path d="M155.8924 47.2227
L155.8533 45.0934
" />
<path d="M155.8533 45.0934
L156.0581 42.1438
" />
<path d="M154.4745 150.5380
L157.3756 151.9492
" />
<path d="M66.6813 98.8916
L67.2099 98.8242
" />
<path d="M109.7081 27.9581
L104.4449 28.3694
" />
<path d="M71.1908 97.8133
L74.9599 97.4021
" />
<path d="M81.8270 98.1453
L84.9073 99.1832
" />
<path d="M101.0103 123.2780
L101.4798 123.4735
" />
<path d="M30.7772 86.2416
L35.2046 85.1239
" />
<path d="M46.4098 84.6247
L49.4919 85.2247
" />
<path d="M156.5576 52.6593
L156.1069 49.7534
" />
<path d="M84.9073 99.1832
L87.7403 100.5875
" />
<path d="M52.2674 86.1153
L54.7480 87.2412
" />
<path d="M33.6598 60.5266
L31.5840 66.1874
" />
<path d="M99.9029 115.7821
L100.4387 118.0196
" />
<path d="M119.7079 30.2208
L118.9762 29.0889
" />
<path d="M54.7480 87.2412
L56.9458 88.5468
" />
<path d="M66.1708 98.7705
L66.6813 98.8916
" />
<path d="M110.9880 126.9764
L113.5726 128.6646
" />
<path d="M104.9586 124.3561
L108.1223 125.5320
" />
<path d="M92.6290 104.2624
L94.6670 106.4164
" />
<path d="M154.0978 42.4345
L151.7854 43.5778
" />
<path d="M148.0319 45.0661
L141.5721 47.4217
" />
<path d="M42.5268 43.1244
L40.1534 46.7941
" />
<path d="M143.6227 153.2833
L150.3708 151.4526
" />
<path d="M65.4037 98.0593
L65.7284 98.4850
" />
<path d="M159.9595 153.4517
L162.2232 155.0015
" />
<path d="M64.1053 95.8296
L65.4037 98.0593
" />
<path d="M71.6409 22.3446
L70.4593 22.5254
" />
<path d="M121.7198 32.5486
L119.7079 30.2208
" />
<path d="M98.4356 28.4923
L91.9732 28.1548
" />
<path d="M100.5203 121.9616
L100.5174 122.4810
" />
<path d="M100.6474 120.0988
L100.5203 121.9616
" />
<path d="M25.2222 87.9073
L25.5344 88.0202
" />
<path d="M108.1223 125.5320
L110.9880 126.9764
" />
<path d="M127.6835 153.5012
L128.8261 158.9156
" />
<path d="M74.9599 97.4021
L78.5083 97.5322
" />
<path d="M47.8029 36.8307
L45.0646 39.8208
" />
<path d="M115.8930 130.5717
L117.9662 132.6730
" />
<path d="M72.7987 22.6625
L71.6409 22.3446
" />
<path d="M139.8723 154.5157
L143.6227 153.2833
" />
<path d="M65.7618 24.7401
L61.4810 26.9524
" />
<path d="M25.1187 87.1567
L25.0746 87.6119
" />
<path d="M162.2232 155.0015
L164.1640 156.5544
" />
<path d="M96.4222 108.7036
L97.8858 111.0659
" />
<path d="M124.1252 142.5247
L125.2162 145.2253
" />
<path d="M25.0746 87.6119
L25.2222 87.9073
" />
<path d="M29.4926 72.4776
L25.1187 87.1567
" />
<path d="M49.4919 85.2247
L52.2674 86.1153
" />
<path d="M119.8090 134.9438
L121.4385 137.3592
" />
<path d="M56.9458 88.5468
L58.8724 89.9768
" />
<path d="M54.0249 31.5805
L50.7776 34.1015
" />
<path d="M151.7854 43.5778
L148.0319 45.0661
" />
<path d="M129.2817 159.5719
L129.6499 159.5753
" />
<path d="M117.9662 132.6730
L119.8090 134.9438
" />
<path d="M87.7403 100.5875
L90.3172 102.3000
" />
<path d="M43.0091 84.3710
L46.4098 84.6247
" />
<path d="M67.2099 98.8242
L71.1908 97.8133
" />
<path d="M118.1888 27.5152
L117.8097 27.1643
" />
<path d="M168.6396 161.9131
L168.6396 55.9030
" />
<path d="M164.1640 156.5544
L165.7788 158.0661
" />
<path d="M88.6637 27.7598
L85.3509 27.1852
" />
<path d="M82.0713 26.4097
L78.8617 25.4117
" />
<path d="M168.6396 55.9030
L157.3054 55.9144
" />
<path d="M126.1617 147.9715
L127.6835 153.5012
" />
<path d="M132.8490 157.5615
L136.1991 155.9454
" />
<path d="M35.7559 55.4426
L33.6598 60.5266
" />
<path d="M117.3444 26.9657
L116.8232 26.9568
" />
<path d="M136.1991 155.9454
L139.8723 154.5157
" />
<path d="M57.5807 29.2150
L54.0249 31.5805
" />
<path d="M113.9319 27.4299
L109.7081 27.9581
" />
<path d="M94.6670 106.4164
L96.4222 108.7036
" />
<path d="M58.8724 89.9768
L60.5398 91.4755
" />
<path d="M116.8232 26.9568
L113.9319 27.4299
" />
<path d="M97.8858 111.0659
L99.0490 113.4448
" />
<path d="M60.5398 91.4755
L61.9599 92.9875
" />
<path d="M122.8716 139.8944
L124.1252 142.5247
" />
<path d="M100.5174 122.4810
L100.6851 122.9335
" />
<path d="M128.8261 158.9156
L128.9962 159.3500
" />
<path d="M128.9962 159.3500
L129.2817 159.5719
" />
<path d="M104.4449 28.3694
L98.4356 28.4923
" />
<path d="M70.4593 22.5254
L65.7618 24.7401
" />
<path d="M78.5083 97.5322
L81.8270 98.1453
" />
<path d="M156.2345 41.1140
L154.0978 42.4345
" />
<path d="M31.5840 66.1874
L29.4926 72.4776
" />
<path d="M61.9599 92.9875
L64.1053 95.8296
" />
<path d="M39.2780 84.5189
L43.0091 84.3710
" />
<path d="M157.3054 55.9144
L156.5576 52.6593
" />
<path d="M121.4385 137.3592
L122.8716 139.8944
" />
<path d="M165.7788 158.0661
L167.0650 159.4926
" />
<path d="M168.0195 160.7897
L168.6396 161.9131
" />
<path d="M101.4798 123.4735
L104.9586 124.3561
" />
<path d="M134.4338 42.4041
L127.4319 37.4013
" />
<path d="M167.0650 159.4926
L168.0195 160.7897
" />
<path d="M75.7586 24.1698
L72.7987 22.6625
" />
<path d="M90.3172 102.3000
L92.6290 104.2624
" />
<path d="M35.2046 85.1239
L39.2780 84.5189
" />
<path d="M25.5344 88.0202
L25.9837 87.9274
" />
<path d="M124.3425 34.9478
L121.7198 32.5486
" />
<path d="M129.6499 159.5753
L130.0682 159.3537
" />
<path d="M118.4512 27.9812
L118.1888 27.5152
" />
<path d="M78.8617 25.4117
L75.7586 24.1698
" />
<path d="M118.9762 29.0889
L118.4512 27.9812
" />
<path d="M37.9085 50.8826
L35.7559 55.4426
" />
<path d="M113.5726 128.6646
L115.8930 130.5717
" />
</g> 
</svg>
