<?xml version="1.0" encoding="UTF-8" standalone="no"?>
<!-- Created with Inkscape (http://www.inkscape.org/) -->

<svg
   width="299.14813mm"
   height="144.39436mm"
   viewBox="0 0 299.14813 144.39436"
   version="1.1"
   id="svg1"
   xml:space="preserve"
   inkscape:version="1.3.2 (091e20e, 2023-11-25, custom)"
   sodipodi:docname="kazhanSecond.svg"
   xmlns:inkscape="http://www.inkscape.org/namespaces/inkscape"
   xmlns:sodipodi="http://sodipodi.sourceforge.net/DTD/sodipodi-0.dtd"
   xmlns="http://www.w3.org/2000/svg"
   xmlns:svg="http://www.w3.org/2000/svg"><sodipodi:namedview
     id="namedview1"
     pagecolor="#505050"
     bordercolor="#eeeeee"
     borderopacity="1"
     inkscape:showpageshadow="0"
     inkscape:pageopacity="0"
     inkscape:pagecheckerboard="0"
     inkscape:deskcolor="#505050"
     inkscape:document-units="mm"
     inkscape:zoom="0.35355339"
     inkscape:cx="60.811183"
     inkscape:cy="804.68751"
     inkscape:window-width="1920"
     inkscape:window-height="1009"
     inkscape:window-x="1912"
     inkscape:window-y="660"
     inkscape:window-maximized="1"
     inkscape:current-layer="layer3"
     showguides="true" /><defs
     id="defs1"><inkscape:path-effect
       effect="fillet_chamfer"
       id="path-effect10"
       is_visible="true"
       lpeversion="1"
       nodesatellites_param="F,0,0,1,0,0,0,1 @ F,0,0,1,0,0,0,1 @ F,0,0,1,0,0,0,1 @ F,0,0,1,0,0,0,1 @ F,0,1,1,0,1.0583333,0,1 @ F,0,1,1,0,1.0583333,0,1 @ F,0,0,1,0,1.3229167,0,1 @ F,0,0,1,0,1.3229167,0,1 @ F,0,0,1,0,1.3229167,0,1 @ F,0,0,1,0,1.3229167,0,1 @ F,0,0,1,0,0,0,1 @ F,0,0,1,0,0,0,1 @ F,0,0,1,0,0,0,1"
       radius="5"
       unit="px"
       method="auto"
       mode="F"
       chamfer_steps="1"
       flexible="false"
       use_knot_distance="true"
       apply_no_radius="true"
       apply_with_radius="true"
       only_selected="true"
       hide_knots="false" /></defs><g
     inkscape:groupmode="layer"
     id="layer1"
     inkscape:label="Шар 4"
     style="display:inline"><g
       style="fill:#000000;fill-opacity:1;stroke:#000000;stroke-linecap:round;stroke-linejoin:round;stroke-opacity:1"
       id="g1"
       transform="translate(-12.674726,150.55952)" /><g
       style="fill:none;stroke:#000000;stroke-width:0.3;stroke-linecap:round;stroke-linejoin:round;stroke-opacity:1"
       id="g861"
       transform="translate(-12.674726,150.55952)"><text
         x="178.0022"
         y="180.7572"
         textLength="0.89999998"
         font-size="2px"
         lengthAdjust="spacingAndGlyphs"
         text-anchor="start"
         opacity="0"
         id="text859" /><g
         class="stroked-text"
         id="g860"><desc
           id="desc859" /></g></g><g
       style="fill:none;stroke:#000000;stroke-width:0.15;stroke-linecap:round;stroke-linejoin:round;stroke-opacity:1"
       id="g863"
       transform="translate(-12.674726,150.55952)"><text
         x="178.0022"
         y="177.7572"
         textLength="0.44999999"
         font-size="2px"
         lengthAdjust="spacingAndGlyphs"
         text-anchor="start"
         opacity="0"
         id="text861" /><g
         class="stroked-text"
         id="g862"><desc
           id="desc861" /></g></g><g
       style="fill:none;stroke:#000000;stroke-width:0.15;stroke-linecap:round;stroke-linejoin:round;stroke-opacity:1"
       id="g865"
       transform="translate(-12.674726,150.55952)"><text
         x="178.0022"
         y="174.7572"
         textLength="0.44999999"
         font-size="2px"
         lengthAdjust="spacingAndGlyphs"
         text-anchor="start"
         opacity="0"
         id="text863" /><g
         class="stroked-text"
         id="g864"><desc
           id="desc863" /></g></g><g
       style="fill:none;stroke:#000000;stroke-width:0.15;stroke-linecap:round;stroke-linejoin:round;stroke-opacity:1"
       id="g867"
       transform="translate(-12.674726,150.55952)"><text
         x="178.0022"
         y="171.7572"
         textLength="0.44999999"
         font-size="2px"
         lengthAdjust="spacingAndGlyphs"
         text-anchor="start"
         opacity="0"
         id="text865" /><g
         class="stroked-text"
         id="g866"><desc
           id="desc865" /></g></g><g
       style="fill:none;stroke:#000000;stroke-width:0.15;stroke-linecap:round;stroke-linejoin:round;stroke-opacity:1"
       id="g869"
       transform="translate(-12.674726,150.55952)"><text
         x="178.0022"
         y="168.7572"
         textLength="0.44999999"
         font-size="2px"
         lengthAdjust="spacingAndGlyphs"
         text-anchor="start"
         opacity="0"
         id="text867" /><g
         class="stroked-text"
         id="g868"><desc
           id="desc867" /></g></g><g
       style="fill:none;stroke:#c2c2c2;stroke-width:0.1;stroke-linecap:round;stroke-linejoin:round;stroke-opacity:1"
       id="g874"
       transform="translate(-12.674726,150.55952)"><path
         d="m 256.969,54.368 8.9564,-16.8129"
         id="path871" /><path
         d="M 240.1489,45.4245 256.969,54.368"
         id="path872" /><path
         d="m 249.0923,28.6044 -8.9434,16.8201"
         id="path873" /><path
         d="M 265.9125,37.5478 249.1053,28.6116"
         id="path874" /></g><g
       style="fill:none;stroke:#c2c2c2;stroke-width:0.2;stroke-linecap:round;stroke-linejoin:round;stroke-opacity:1"
       id="g882"
       transform="translate(-12.674726,150.55952)"><path
         d="m 271.9762,78 -17.2135,5.2627"
         id="path875" /><path
         d="m 105.053,93.1156 -8.1719,16.0381"
         id="path876" /><path
         d="m 208.6284,79.1437 16.0381,-8.1718"
         id="path877" /><path
         d="m 117.8962,109.7605 -16.0381,-8.1718"
         id="path878" /><path
         d="M 197.6181,101.5887 181.58,109.7605"
         id="path879" /><path
         d="M 46.463,83.9285 53.2059,67.2392"
         id="path880" /><path
         d="m 245.8956,66.312 -16.6893,6.7429"
         id="path881" /><path
         d="M 134.6938,76.7932 126.522,92.8314"
         id="path882" /></g><g
       style="fill:none;stroke:#c2c2c2;stroke-width:0.1;stroke-linecap:round;stroke-linejoin:round;stroke-opacity:1"
       id="g884"
       transform="translate(-12.674726,150.55952)"><path
         d="m 74.8097,70.9719 7.8663,24.21"
         id="path883" /><path
         d="m 83.4355,54.0428 7.8663,24.2099"
         id="path884" /></g><g
       style="fill:none;stroke:#c2c2c2;stroke-width:0.2;stroke-linecap:round;stroke-linejoin:round;stroke-opacity:1"
       id="g894"
       transform="translate(-12.674726,150.55952)"><path
         d="M 181.58,109.7605 173.4082,93.7224"
         id="path885" /><path
         d="m 201.3815,67.1236 -16.0381,8.1719"
         id="path886" /><path
         d="M 89.4689,84.0528 97.6407,68.0147"
         id="path887" /><path
         d="m 126.068,93.7224 -8.1718,16.0381"
         id="path888" /><path
         d="m 122.3046,59.2574 -8.1718,16.0381"
         id="path889" /><path
         d="m 249.5,66.0492 17.2135,-5.2627"
         id="path890" /><path
         d="m 191.8793,135.6718 -6.1564,16.9145"
         id="path891" /><path
         d="M 60.3235,49.6227 67.441,32.0062"
         id="path892" /><path
         d="M 199.5486,61.3236 191.3767,45.2855"
         id="path893" /><path
         d="M 236.3238,90.6714 229.5809,73.9821"
         id="path894" /></g><g
       style="fill:none;stroke:#c2c2c2;stroke-width:0.1;stroke-linecap:round;stroke-linejoin:round;stroke-opacity:1"
       id="g895"
       transform="translate(-12.674726,150.55952)"><path
         d="M 49.9762,66.0492 27.5,78"
         id="path895" /></g><g
       style="fill:none;stroke:#c2c2c2;stroke-width:0.2;stroke-linecap:round;stroke-linejoin:round;stroke-opacity:1"
       id="g898"
       transform="translate(-12.674726,150.55952)"><path
         d="m 185.7974,76.1865 16.0381,-8.1718"
         id="path896" /><path
         d="M 49.9762,66.0492 44.7135,83.2627"
         id="path897" /><path
         d="m 195.4262,107.9409 12.0444,13.3766"
         id="path898" /></g><g
       style="fill:none;stroke:#c2c2c2;stroke-width:0.1;stroke-linecap:round;stroke-linejoin:round;stroke-opacity:1"
       id="g899"
       transform="translate(-12.674726,150.55952)"><path
         d="m 89.0149,84.9438 7.8662,24.2099"
         id="path899" /></g><g
       style="fill:none;stroke:#c2c2c2;stroke-width:0.2;stroke-linecap:round;stroke-linejoin:round;stroke-opacity:1"
       id="g903"
       transform="translate(-12.674726,150.55952)"><path
         d="m 194.4232,93.1156 16.0381,-8.1718"
         id="path900" /><path
         d="M 108.0994,45.2855 99.9276,61.3236"
         id="path901" /><path
         d="m 189.4463,85.5505 8.1718,16.0382"
         id="path902" /><path
         d="m 32.7627,60.7865 17.2135,5.2627"
         id="path903" /></g><g
       style="fill:none;stroke:#c2c2c2;stroke-width:0.1;stroke-linecap:round;stroke-linejoin:round;stroke-opacity:1"
       id="g904"
       transform="translate(-12.674726,150.55952)"><path
         d="m 104.05,107.9409 1.3322,25.421"
         id="path904" /></g><g
       style="fill:none;stroke:#c2c2c2;stroke-width:0.2;stroke-linecap:round;stroke-linejoin:round;stroke-opacity:1"
       id="g906"
       transform="translate(-12.674726,150.55952)"><path
         d="m 215.5867,53.1518 -16.0381,8.1718"
         id="path905" /><path
         d="m 130.6677,146.4299 -16.9145,6.1564"
         id="path906" /></g><g
       style="fill:none;stroke:#c2c2c2;stroke-width:0.1;stroke-linecap:round;stroke-linejoin:round;stroke-opacity:1"
       id="g907"
       transform="translate(-12.674726,150.55952)"><path
         d="m 83.8895,53.1518 24.2099,-7.8663"
         id="path907" /></g><g
       style="fill:none;stroke:#c2c2c2;stroke-width:0.2;stroke-linecap:round;stroke-linejoin:round;stroke-opacity:1"
       id="g909"
       transform="translate(-12.674726,150.55952)"><path
         d="M 90.8478,79.1437 82.676,95.1819"
         id="path908" /><path
         d="M 84.1303,38.7491 77.3874,55.4384"
         id="path909" /></g><g
       style="fill:none;stroke:#c2c2c2;stroke-width:0.1;stroke-linecap:round;stroke-linejoin:round;stroke-opacity:1"
       id="g910"
       transform="translate(-12.674726,150.55952)"><path
         d="M 36.1067,80.6313 50.7253,32.8161"
         id="path910" /></g><g
       style="fill:none;stroke:#c2c2c2;stroke-width:0.2;stroke-linecap:round;stroke-linejoin:round;stroke-opacity:1"
       id="g916"
       transform="translate(-12.674726,150.55952)"><path
         d="m 207.4149,37.1137 8.1718,16.0381"
         id="path911" /><path
         d="M 99.4736,62.2146 91.3018,78.2527"
         id="path912" /><path
         d="m 173.4082,93.7224 16.0381,-8.1719"
         id="path913" /><path
         d="M 254.7627,83.2627 249.5,66.0492"
         id="path914" /><path
         d="m 53.5805,66.312 6.743,-16.6893"
         id="path915" /><path
         d="m 174.9648,129.5154 16.9145,6.1564"
         id="path916" /></g><g
       style="fill:none;stroke:#c2c2c2;stroke-width:0.1;stroke-linecap:round;stroke-linejoin:round;stroke-opacity:1"
       id="g917"
       transform="translate(-12.674726,150.55952)"><path
         d="m 271.9762,78 -8.6068,2.6313"
         id="path917" /></g><g
       style="fill:none;stroke:#c2c2c2;stroke-width:0.2;stroke-linecap:round;stroke-linejoin:round;stroke-opacity:1"
       id="g918"
       transform="translate(-12.674726,150.55952)"><path
         d="M 185.3434,75.2955 177.1716,59.2574"
         id="path918" /></g><g
       style="fill:none;stroke:#c2c2c2;stroke-width:0.1;stroke-linecap:round;stroke-linejoin:round;stroke-opacity:1"
       id="g920"
       transform="translate(-12.674726,150.55952)"><path
         d="M 266.7135,60.7865 254.7627,83.2627"
         id="path919" /><path
         d="m 134.6938,76.7932 -24.2099,7.8663"
         id="path920" /></g><g
       style="fill:none;stroke:#c2c2c2;stroke-width:0.2;stroke-linecap:round;stroke-linejoin:round;stroke-opacity:1"
       id="g921"
       transform="translate(-12.674726,150.55952)"><path
         d="M 63.1523,90.6714 46.463,83.9285"
         id="path921" /></g><g
       style="fill:none;stroke:#c2c2c2;stroke-width:0.1;stroke-linecap:round;stroke-linejoin:round;stroke-opacity:1"
       id="g924"
       transform="translate(-12.674726,150.55952)"><path
         d="M 113.6788,76.1865 89.4689,84.0528"
         id="path922" /><path
         d="M 32.7627,60.7865 44.7135,83.2627"
         id="path923" /><path
         d="m 97.6407,68.0147 7.8663,24.2099"
         id="path924" /></g><g
       style="fill:none;stroke:#c2c2c2;stroke-width:0.2;stroke-linecap:round;stroke-linejoin:round;stroke-opacity:1"
       id="g926"
       transform="translate(-12.674726,150.55952)"><path
         d="M 105.3822,133.3619 92.0056,121.3175"
         id="path925" /><path
         d="M 92.0056,121.3175 104.05,107.9409"
         id="path926" /></g><g
       style="fill:none;stroke:#c2c2c2;stroke-width:0.1;stroke-linecap:round;stroke-linejoin:round;stroke-opacity:1"
       id="g927"
       transform="translate(-12.674726,150.55952)"><path
         d="M 75.2637,70.0809 99.4736,62.2146"
         id="path927" /></g><g
       style="fill:none;stroke:#c2c2c2;stroke-width:0.2;stroke-linecap:round;stroke-linejoin:round;stroke-opacity:1"
       id="g929"
       transform="translate(-12.674726,150.55952)"><path
         d="m 200.0026,62.2146 16.0381,-8.1718"
         id="path928" /><path
         d="m 117.4266,119.9852 -12.0444,13.3767"
         id="path929" /></g><g
       style="fill:none;stroke:#c2c2c2;stroke-width:0.1;stroke-linecap:round;stroke-linejoin:round;stroke-opacity:1"
       id="g930"
       transform="translate(-12.674726,150.55952)"><path
         d="m 126.068,93.7224 -24.2099,7.8663"
         id="path930" /></g><g
       style="fill:none;stroke:#c2c2c2;stroke-width:0.2;stroke-linecap:round;stroke-linejoin:round;stroke-opacity:1"
       id="g934"
       transform="translate(-12.674726,150.55952)"><path
         d="m 168.8085,146.4299 6.1563,-16.9145"
         id="path931" /><path
         d="m 180.8205,68.6214 8.1718,16.0381"
         id="path932" /><path
         d="m 67.441,32.0062 16.6893,6.7429"
         id="path933" /><path
         d="m 191.3767,45.2855 16.0382,-8.1718"
         id="path934" /></g><g
       style="fill:none;stroke:#c2c2c2;stroke-width:0.1;stroke-linecap:round;stroke-linejoin:round;stroke-opacity:1"
       id="g935"
       transform="translate(-12.674726,150.55952)"><path
         d="M 84.1303,38.7491 60.6981,48.6955"
         id="path935" /></g><g
       style="fill:none;stroke:#c2c2c2;stroke-width:0.2;stroke-linecap:round;stroke-linejoin:round;stroke-opacity:1"
       id="g937"
       transform="translate(-12.674726,150.55952)"><path
         d="M 80.843,100.9819 89.0149,84.9438"
         id="path936" /><path
         d="m 92.0613,37.1137 16.0381,8.1718"
         id="path937" /></g><g
       style="fill:none;stroke:#c2c2c2;stroke-width:0.1;stroke-linecap:round;stroke-linejoin:round;stroke-opacity:1"
       id="g938"
       transform="translate(-12.674726,150.55952)"><path
         d="M 90.8478,79.1437 66.6379,87.01"
         id="path938" /></g><g
       style="fill:none;stroke:#c2c2c2;stroke-width:0.2;stroke-linecap:round;stroke-linejoin:round;stroke-opacity:1"
       id="g945"
       transform="translate(-12.674726,150.55952)"><path
         d="M 69.8952,73.9821 63.1523,90.6714"
         id="path939" /><path
         d="m 215.3459,38.7491 16.6893,-6.7429"
         id="path940" /><path
         d="m 201.8355,68.0147 8.1718,16.0381"
         id="path941" /><path
         d="M 27.5,78 32.7627,60.7865"
         id="path942" /><path
         d="m 182.0496,119.9852 13.3766,-12.0443"
         id="path943" /><path
         d="m 222.4634,56.3656 16.6893,-6.7429"
         id="path944" /><path
         d="m 218.6331,100.9819 -16.0381,8.1718"
         id="path945" /></g><g
       style="fill:none;stroke:#c2c2c2;stroke-width:0.1;stroke-linecap:round;stroke-linejoin:round;stroke-opacity:1"
       id="g946"
       transform="translate(-12.674726,150.55952)"><path
         d="M 164.7823,76.7932 H 134.6938"
         id="path946" /></g><g
       style="fill:none;stroke:#c2c2c2;stroke-width:0.2;stroke-linecap:round;stroke-linejoin:round;stroke-opacity:1"
       id="g948"
       transform="translate(-12.674726,150.55952)"><path
         d="M 96.8811,109.1537 80.843,100.9819"
         id="path947" /><path
         d="M 66.6379,87.01 74.8097,70.9719"
         id="path948" /></g><g
       style="fill:none;stroke:#c2c2c2;stroke-width:0.1;stroke-linecap:round;stroke-linejoin:round;stroke-opacity:1"
       id="g949"
       transform="translate(-12.674726,150.55952)"><path
         d="m 118.6557,68.6214 7.8663,24.21"
         id="path949" /></g><g
       style="fill:none;stroke:#c2c2c2;stroke-width:0.2;stroke-linecap:round;stroke-linejoin:round;stroke-opacity:1"
       id="g954"
       transform="translate(-12.674726,150.55952)"><path
         d="m 83.4355,54.0428 16.0381,8.1718"
         id="path950" /><path
         d="M 216.8002,95.1819 208.6284,79.1437"
         id="path951" /><path
         d="M 77.3874,55.4384 60.6981,48.6955"
         id="path952" /><path
         d="m 193.2097,51.0855 8.1718,16.0381"
         id="path953" /><path
         d="m 185.7229,152.5863 -16.9144,-6.1564"
         id="path954" /></g><g
       style="fill:none;stroke:#c2c2c2;stroke-width:0.1;stroke-linecap:round;stroke-linejoin:round;stroke-opacity:1"
       id="g956"
       transform="translate(-12.674726,150.55952)"><path
         d="m 92.0613,37.1137 7.8663,24.2099"
         id="path955" /><path
         d="m 258.1067,63.4179 5.2627,17.2134"
         id="path956" /></g><g
       style="fill:none;stroke:#c2c2c2;stroke-width:0.2;stroke-linecap:round;stroke-linejoin:round;stroke-opacity:1"
       id="g958"
       transform="translate(-12.674726,150.55952)"><path
         d="M 208.1744,78.2527 200.0026,62.2146"
         id="path957" /><path
         d="m 210.0073,84.0528 -16.0381,8.1718"
         id="path958" /></g><g
       style="fill:none;stroke:#c2c2c2;stroke-width:0.1;stroke-linecap:round;stroke-linejoin:round;stroke-opacity:1"
       id="g959"
       transform="translate(-12.674726,150.55952)"><path
         d="m 105.053,93.1156 -24.21,7.8663"
         id="path959" /></g><g
       style="fill:none;stroke:#c2c2c2;stroke-width:0.2;stroke-linecap:round;stroke-linejoin:round;stroke-opacity:1"
       id="g960"
       transform="translate(-12.674726,150.55952)"><path
         d="m 107.5969,135.6718 16.9144,-6.1564"
         id="path960" /></g><g
       style="fill:none;stroke:#c2c2c2;stroke-width:0.1;stroke-linecap:round;stroke-linejoin:round;stroke-opacity:1"
       id="g961"
       transform="translate(-12.674726,150.55952)"><path
         d="m 117.4266,119.9852 -25.421,1.3323"
         id="path961" /></g><g
       style="fill:none;stroke:#c2c2c2;stroke-width:0.2;stroke-linecap:round;stroke-linejoin:round;stroke-opacity:1"
       id="g968"
       transform="translate(-12.674726,150.55952)"><path
         d="m 60.3235,49.6227 16.6893,6.7429"
         id="path962" /><path
         d="M 75.2637,70.0809 83.4355,54.0428"
         id="path963" /><path
         d="m 229.5809,73.9821 16.6893,-6.7429"
         id="path964" /><path
         d="M 44.7135,83.2627 27.5,78"
         id="path965" /><path
         d="m 98.0947,67.1236 8.1718,-16.0381"
         id="path966" /><path
         d="m 74.8097,70.9719 16.0381,8.1718"
         id="path967" /><path
         d="m 177.1716,59.2574 16.0381,-8.1719"
         id="path968" /></g><g
       style="fill:none;stroke:#c2c2c2;stroke-width:0.1;stroke-linecap:round;stroke-linejoin:round;stroke-opacity:1"
       id="g969"
       transform="translate(-12.674726,150.55952)"><path
         d="m 149.7381,76.7932 v 69.6367"
         id="path969" /></g><g
       style="fill:none;stroke:#c2c2c2;stroke-width:0.2;stroke-linecap:round;stroke-linejoin:round;stroke-opacity:1"
       id="g970"
       transform="translate(-12.674726,150.55952)"><path
         d="M 266.7135,60.7865 271.9762,78"
         id="path970" /></g><g
       style="fill:none;stroke:#c2c2c2;stroke-width:0.1;stroke-linecap:round;stroke-linejoin:round;stroke-opacity:1"
       id="g971"
       transform="translate(-12.674726,150.55952)"><path
         d="M 69.8952,73.9821 46.463,83.9285"
         id="path971" /></g><g
       style="fill:none;stroke:#c2c2c2;stroke-width:0.2;stroke-linecap:round;stroke-linejoin:round;stroke-opacity:1"
       id="g976"
       transform="translate(-12.674726,150.55952)"><path
         d="m 253.0132,83.9285 -16.6894,6.7429"
         id="path972" /><path
         d="m 210.4613,84.9438 8.1718,16.0381"
         id="path973" /><path
         d="M 193.9692,92.2246 185.7974,76.1865"
         id="path974" /><path
         d="m 89.0149,84.9438 16.0381,8.1718"
         id="path975" /><path
         d="M 222.0888,55.4384 215.3459,38.7491"
         id="path976" /></g><g
       style="fill:none;stroke:#c2c2c2;stroke-width:0.1;stroke-linecap:round;stroke-linejoin:round;stroke-opacity:1"
       id="g977"
       transform="translate(-12.674726,150.55952)"><path
         d="m 53.2059,67.2392 9.9464,23.4322"
         id="path977" /></g><g
       style="fill:none;stroke:#c2c2c2;stroke-width:0.2;stroke-linecap:round;stroke-linejoin:round;stroke-opacity:1"
       id="g980"
       transform="translate(-12.674726,150.55952)"><path
         d="m 106.2665,51.0855 16.0381,8.1719"
         id="path978" /><path
         d="m 232.8383,87.01 -16.0381,8.1719"
         id="path979" /><path
         d="m 104.05,107.9409 13.3766,12.0443"
         id="path980" /></g><g
       style="fill:none;stroke:#c2c2c2;stroke-width:0.1;stroke-linecap:round;stroke-linejoin:round;stroke-opacity:1"
       id="g981"
       transform="translate(-12.674726,150.55952)"><path
         d="m 107.5969,135.6718 23.0708,10.7581"
         id="path981" /></g><g
       style="fill:none;stroke:#c2c2c2;stroke-width:0.2;stroke-linecap:round;stroke-linejoin:round;stroke-opacity:1"
       id="g983"
       transform="translate(-12.674726,150.55952)"><path
         d="M 113.6788,76.1865 105.507,92.2246"
         id="path982" /><path
         d="M 126.522,92.8314 110.4839,84.6595"
         id="path983" /></g><g
       style="fill:none;stroke:#c2c2c2;stroke-width:0.1;stroke-linecap:round;stroke-linejoin:round;stroke-opacity:1"
       id="g986"
       transform="translate(-12.674726,150.55952)"><path
         d="M 77.0128,56.3656 53.5805,66.312"
         id="path984" /><path
         d="M 249.5,66.0492 271.9762,78"
         id="path985" /><path
         d="m 67.441,32.0062 9.9464,23.4322"
         id="path986" /></g><g
       style="fill:none;stroke:#c2c2c2;stroke-width:0.2;stroke-linecap:round;stroke-linejoin:round;stroke-opacity:1"
       id="g987"
       transform="translate(-12.674726,150.55952)"><path
         d="m 110.4839,84.6595 8.1718,-16.0381"
         id="path987" /></g><g
       style="fill:none;stroke:#c2c2c2;stroke-width:0.1;stroke-linecap:round;stroke-linejoin:round;stroke-opacity:1"
       id="g988"
       transform="translate(-12.674726,150.55952)"><path
         d="m 124.5113,129.5154 -10.7581,23.0709"
         id="path988" /></g><g
       style="fill:none;stroke:#c2c2c2;stroke-width:0.2;stroke-linecap:round;stroke-linejoin:round;stroke-opacity:1"
       id="g991"
       transform="translate(-12.674726,150.55952)"><path
         d="m 110.0299,85.5505 16.0381,8.1719"
         id="path989" /><path
         d="M 77.0128,56.3656 70.2699,73.0549"
         id="path990" /><path
         d="m 118.6557,68.6214 16.0381,8.1718"
         id="path991" /></g><g
       style="fill:none;stroke:#c2c2c2;stroke-width:0.1;stroke-linecap:round;stroke-linejoin:round;stroke-opacity:1"
       id="g992"
       transform="translate(-12.674726,150.55952)"><path
         d="m 106.2665,51.0855 7.8663,24.21"
         id="path992" /></g><g
       style="fill:none;stroke:#c2c2c2;stroke-width:0.2;stroke-linecap:round;stroke-linejoin:round;stroke-opacity:1"
       id="g1002"
       transform="translate(-12.674726,150.55952)"><path
         d="M 114.1328,75.2955 98.0947,67.1236"
         id="path993" /><path
         d="M 70.2699,73.0549 53.5805,66.312"
         id="path994" /><path
         d="m 164.7823,76.7932 16.0382,-8.1718"
         id="path995" /><path
         d="m 238.7781,48.6955 -16.6893,6.7429"
         id="path996" /><path
         d="m 232.0352,32.0062 6.7429,16.6893"
         id="path997" /><path
         d="m 101.8581,101.5887 8.1718,-16.0382"
         id="path998" /><path
         d="m 188.9923,84.6595 -16.0381,8.1719"
         id="path999" /><path
         d="M 224.6665,70.9719 232.8383,87.01"
         id="path1000" /><path
         d="M 173.4082,93.7224 164.7823,76.7932"
         id="path1001" /><path
         d="M 207.4706,121.3175 194.094,133.3619"
         id="path1002" /></g><g
       style="fill:none;stroke:#c2c2c2;stroke-width:0.1;stroke-linecap:round;stroke-linejoin:round;stroke-opacity:1"
       id="g1003"
       transform="translate(-12.674726,150.55952)"><path
         d="m 98.0947,67.1236 24.2099,-7.8662"
         id="path1003" /></g><g
       style="fill:none;stroke:#c2c2c2;stroke-width:0.2;stroke-linecap:round;stroke-linejoin:round;stroke-opacity:1"
       id="g1009"
       transform="translate(-12.674726,150.55952)"><path
         d="M 83.8895,53.1518 92.0613,37.1137"
         id="path1004" /><path
         d="m 124.5113,129.5154 6.1564,16.9145"
         id="path1005" /><path
         d="M 91.3018,78.2527 75.2637,70.0809"
         id="path1006" /><path
         d="M 194.094,133.3619 182.0496,119.9852"
         id="path1007" /><path
         d="m 224.2125,70.0809 -16.0381,8.1718"
         id="path1008" /><path
         d="M 105.507,92.2246 89.4689,84.0528"
         id="path1009" /></g><g
       style="fill:none;stroke:#c2c2c2;stroke-width:0.1;stroke-linecap:round;stroke-linejoin:round;stroke-opacity:1"
       id="g1010"
       transform="translate(-12.674726,150.55952)"><path
         d="M 168.8085,146.4299 H 130.6677"
         id="path1010" /></g><g
       style="fill:none;stroke:#c2c2c2;stroke-width:0.2;stroke-linecap:round;stroke-linejoin:round;stroke-opacity:1"
       id="g1011"
       transform="translate(-12.674726,150.55952)"><path
         d="M 82.676,95.1819 66.6379,87.01"
         id="path1011" /></g><g
       style="fill:none;stroke:#c2c2c2;stroke-width:0.1;stroke-linecap:round;stroke-linejoin:round;stroke-opacity:1"
       id="g1012"
       transform="translate(-12.674726,150.55952)"><path
         d="m 110.0299,85.5505 7.8663,24.21"
         id="path1012" /></g><g
       style="fill:none;stroke:#c2c2c2;stroke-width:0.2;stroke-linecap:round;stroke-linejoin:round;stroke-opacity:1"
       id="g1020"
       transform="translate(-12.674726,150.55952)"><path
         d="M 229.2063,73.0549 222.4634,56.3656"
         id="path1013" /><path
         d="m 239.1527,49.6227 6.7429,16.6893"
         id="path1014" /><path
         d="M 202.595,109.1537 194.4232,93.1156"
         id="path1015" /><path
         d="M 99.9276,61.3236 83.8895,53.1518"
         id="path1016" /><path
         d="m 246.2702,67.2392 6.743,16.6893"
         id="path1017" /><path
         d="m 97.6407,68.0147 16.0381,8.1718"
         id="path1018" /><path
         d="m 53.2059,67.2392 16.6893,6.7429"
         id="path1019" /><path
         d="m 216.0407,54.0428 8.1718,16.0381"
         id="path1020" /></g><g
       style="fill:none;stroke:#c2c2c2;stroke-width:0.1;stroke-linecap:round;stroke-linejoin:round;stroke-opacity:1"
       id="g1021"
       transform="translate(-12.674726,150.55952)"><path
         d="m 60.3235,49.6227 9.9464,23.4322"
         id="path1021" /></g><g
       style="fill:none;stroke:#c2c2c2;stroke-width:0.2;stroke-linecap:round;stroke-linejoin:round;stroke-opacity:1"
       id="g1022"
       transform="translate(-12.674726,150.55952)"><path
         d="m 113.7532,152.5863 -6.1563,-16.9145"
         id="path1022" /></g><g
       style="fill:none;stroke:#c2c2c2;stroke-width:0.15;stroke-linecap:round;stroke-linejoin:round;stroke-opacity:1"
       id="g1173"
       transform="translate(-12.674726,150.55952)"><text
         x="82"
         y="35.599998"
         textLength="3.3929"
         font-size="1.3333px"
         lengthAdjust="spacingAndGlyphs"
         text-anchor="start"
         opacity="0"
         id="text1022">-22</text><g
         class="stroked-text"
         id="g1043"><desc
           id="desc1022">-22</desc><path
           d="m 82.3368,35.0889 h 0.7619"
           id="path1023" /><path
           d="m 83.5273,34.5651 0.0476,-0.0477"
           id="path1024" /><path
           d="m 83.5749,34.5174 0.0952,-0.0476"
           id="path1025" /><path
           d="m 83.6701,34.4698 h 0.2381"
           id="path1026" /><path
           d="m 83.9082,34.4698 0.0952,0.0476"
           id="path1027" /><path
           d="m 84.0034,34.5174 0.0477,0.0477"
           id="path1028" /><path
           d="m 84.0511,34.5651 0.0476,0.0952"
           id="path1029" /><path
           d="m 84.0987,34.6603 v 0.0952"
           id="path1030" /><path
           d="m 84.0987,34.7555 -0.0476,0.1429"
           id="path1031" /><path
           d="m 84.0511,34.8984 -0.5715,0.5714"
           id="path1032" /><path
           d="m 83.4796,35.4698 h 0.6191"
           id="path1033" /><path
           d="m 84.4796,34.5651 0.0477,-0.0477"
           id="path1034" /><path
           d="m 84.5273,34.5174 0.0952,-0.0476"
           id="path1035" /><path
           d="m 84.6225,34.4698 h 0.2381"
           id="path1036" /><path
           d="m 84.8606,34.4698 0.0952,0.0476"
           id="path1037" /><path
           d="m 84.9558,34.5174 0.0476,0.0477"
           id="path1038" /><path
           d="m 85.0034,34.5651 0.0477,0.0952"
           id="path1039" /><path
           d="m 85.0511,34.6603 v 0.0952"
           id="path1040" /><path
           d="m 85.0511,34.7555 -0.0477,0.1429"
           id="path1041" /><path
           d="M 85.0034,34.8984 84.432,35.4698"
           id="path1042" /><path
           d="m 84.432,35.4698 h 0.6191"
           id="path1043" /></g><text
         x="127.4"
         y="131"
         textLength="3.3929"
         font-size="1.3333px"
         lengthAdjust="spacingAndGlyphs"
         text-anchor="start"
         opacity="0"
         id="text1043">-70</text><g
         class="stroked-text"
         id="g1066"><desc
           id="desc1043">-70</desc><path
           d="m 127.7368,130.4889 h 0.7619"
           id="path1044" /><path
           d="m 128.8796,129.8698 h 0.6667"
           id="path1045" /><path
           d="m 129.5463,129.8698 -0.4286,1"
           id="path1046" /><path
           d="m 130.1177,129.8698 h 0.0953"
           id="path1047" /><path
           d="m 130.213,129.8698 0.0952,0.0476"
           id="path1048" /><path
           d="m 130.3082,129.9174 0.0476,0.0477"
           id="path1049" /><path
           d="m 130.3558,129.9651 0.0476,0.0952"
           id="path1050" /><path
           d="m 130.4034,130.0603 0.0477,0.1905"
           id="path1051" /><path
           d="m 130.4511,130.2508 v 0.2381"
           id="path1052" /><path
           d="m 130.4511,130.4889 -0.0477,0.1904"
           id="path1053" /><path
           d="m 130.4034,130.6793 -0.0476,0.0953"
           id="path1054" /><path
           d="m 130.3558,130.7746 -0.0476,0.0476"
           id="path1055" /><path
           d="m 130.3082,130.8222 -0.0952,0.0476"
           id="path1056" /><path
           d="m 130.213,130.8698 h -0.0953"
           id="path1057" /><path
           d="m 130.1177,130.8698 -0.0952,-0.0476"
           id="path1058" /><path
           d="m 130.0225,130.8222 -0.0476,-0.0476"
           id="path1059" /><path
           d="m 129.9749,130.7746 -0.0476,-0.0953"
           id="path1060" /><path
           d="m 129.9273,130.6793 -0.0477,-0.1904"
           id="path1061" /><path
           d="m 129.8796,130.4889 v -0.2381"
           id="path1062" /><path
           d="m 129.8796,130.2508 0.0477,-0.1905"
           id="path1063" /><path
           d="m 129.9273,130.0603 0.0476,-0.0952"
           id="path1064" /><path
           d="m 129.9749,129.9651 0.0476,-0.0477"
           id="path1065" /><path
           d="m 130.0225,129.9174 0.0952,-0.0476"
           id="path1066" /></g><text
         x="47.200001"
         y="63.200001"
         textLength="3.3929"
         font-size="1.3333px"
         lengthAdjust="spacingAndGlyphs"
         text-anchor="start"
         opacity="0"
         id="text1066">-17</text><g
         class="stroked-text"
         id="g1074"><desc
           id="desc1066">-17</desc><path
           d="m 47.5368,62.6889 h 0.7619"
           id="path1067" /><path
           d="M 49.2987,63.0698 H 48.7273"
           id="path1068" /><path
           d="m 49.013,63.0698 v -1"
           id="path1069" /><path
           d="m 49.013,62.0698 -0.0953,0.1429"
           id="path1070" /><path
           d="m 48.9177,62.2127 -0.0952,0.0952"
           id="path1071" /><path
           d="m 48.8225,62.3079 -0.0952,0.0476"
           id="path1072" /><path
           d="m 49.632,62.0698 h 0.6667"
           id="path1073" /><path
           d="m 50.2987,62.0698 -0.4286,1"
           id="path1074" /></g><text
         x="117.65"
         y="116.4"
         textLength="6.7262001"
         font-size="1.3333px"
         lengthAdjust="spacingAndGlyphs"
         text-anchor="start"
         opacity="0"
         id="text1074">-41,998</text><g
         class="stroked-text"
         id="g1159"><desc
           id="desc1074">-41,998</desc><path
           d="m 117.9868,115.8889 h 0.7619"
           id="path1075" /><path
           d="m 119.6534,115.6032 v 0.6666"
           id="path1076" /><path
           d="m 119.4153,115.2222 -0.238,0.7143"
           id="path1077" /><path
           d="m 119.1773,115.9365 h 0.619"
           id="path1078" /><path
           d="m 120.7011,116.2698 h -0.5715"
           id="path1079" /><path
           d="m 120.4153,116.2698 v -1"
           id="path1080" /><path
           d="m 120.4153,115.2698 -0.0952,0.1429"
           id="path1081" /><path
           d="m 120.3201,115.4127 -0.0952,0.0952"
           id="path1082" /><path
           d="m 120.2249,115.5079 -0.0953,0.0476"
           id="path1083" /><path
           d="m 121.1773,116.2222 v 0.0476"
           id="path1084" /><path
           d="m 121.1773,116.2698 -0.0477,0.0953"
           id="path1085" /><path
           d="m 121.1296,116.3651 -0.0476,0.0476"
           id="path1086" /><path
           d="m 121.6534,116.2698 h 0.1905"
           id="path1087" /><path
           d="m 121.8439,116.2698 0.0953,-0.0476"
           id="path1088" /><path
           d="m 121.9392,116.2222 0.0476,-0.0476"
           id="path1089" /><path
           d="m 121.9868,116.1746 0.0952,-0.1429"
           id="path1090" /><path
           d="m 122.082,116.0317 0.0476,-0.1905"
           id="path1091" /><path
           d="m 122.1296,115.8412 v -0.3809"
           id="path1092" /><path
           d="m 122.1296,115.4603 -0.0476,-0.0952"
           id="path1093" /><path
           d="m 122.082,115.3651 -0.0476,-0.0477"
           id="path1094" /><path
           d="m 122.0344,115.3174 -0.0952,-0.0476"
           id="path1095" /><path
           d="m 121.9392,115.2698 h -0.1905"
           id="path1096" /><path
           d="m 121.7487,115.2698 -0.0953,0.0476"
           id="path1097" /><path
           d="m 121.6534,115.3174 -0.0476,0.0477"
           id="path1098" /><path
           d="m 121.6058,115.3651 -0.0476,0.0952"
           id="path1099" /><path
           d="m 121.5582,115.4603 v 0.2381"
           id="path1100" /><path
           d="m 121.5582,115.6984 0.0476,0.0952"
           id="path1101" /><path
           d="m 121.6058,115.7936 0.0476,0.0476"
           id="path1102" /><path
           d="m 121.6534,115.8412 0.0953,0.0477"
           id="path1103" /><path
           d="m 121.7487,115.8889 h 0.1905"
           id="path1104" /><path
           d="m 121.9392,115.8889 0.0952,-0.0477"
           id="path1105" /><path
           d="m 122.0344,115.8412 0.0476,-0.0476"
           id="path1106" /><path
           d="m 122.082,115.7936 0.0476,-0.0952"
           id="path1107" /><path
           d="m 122.6058,116.2698 h 0.1905"
           id="path1108" /><path
           d="m 122.7963,116.2698 0.0952,-0.0476"
           id="path1109" /><path
           d="m 122.8915,116.2222 0.0477,-0.0476"
           id="path1110" /><path
           d="m 122.9392,116.1746 0.0952,-0.1429"
           id="path1111" /><path
           d="m 123.0344,116.0317 0.0476,-0.1905"
           id="path1112" /><path
           d="m 123.082,115.8412 v -0.3809"
           id="path1113" /><path
           d="m 123.082,115.4603 -0.0476,-0.0952"
           id="path1114" /><path
           d="m 123.0344,115.3651 -0.0476,-0.0477"
           id="path1115" /><path
           d="m 122.9868,115.3174 -0.0953,-0.0476"
           id="path1116" /><path
           d="m 122.8915,115.2698 h -0.1904"
           id="path1117" /><path
           d="m 122.7011,115.2698 -0.0953,0.0476"
           id="path1118" /><path
           d="m 122.6058,115.3174 -0.0476,0.0477"
           id="path1119" /><path
           d="m 122.5582,115.3651 -0.0476,0.0952"
           id="path1120" /><path
           d="m 122.5106,115.4603 v 0.2381"
           id="path1121" /><path
           d="m 122.5106,115.6984 0.0476,0.0952"
           id="path1122" /><path
           d="m 122.5582,115.7936 0.0476,0.0476"
           id="path1123" /><path
           d="m 122.6058,115.8412 0.0953,0.0477"
           id="path1124" /><path
           d="m 122.7011,115.8889 h 0.1904"
           id="path1125" /><path
           d="m 122.8915,115.8889 0.0953,-0.0477"
           id="path1126" /><path
           d="m 122.9868,115.8412 0.0476,-0.0476"
           id="path1127" /><path
           d="m 123.0344,115.7936 0.0476,-0.0952"
           id="path1128" /><path
           d="m 123.6534,115.6984 -0.0952,-0.0476"
           id="path1129" /><path
           d="m 123.5582,115.6508 -0.0476,-0.0476"
           id="path1130" /><path
           d="m 123.5106,115.6032 -0.0476,-0.0953"
           id="path1131" /><path
           d="m 123.463,115.5079 v -0.0476"
           id="path1132" /><path
           d="m 123.463,115.4603 0.0476,-0.0952"
           id="path1133" /><path
           d="m 123.5106,115.3651 0.0476,-0.0477"
           id="path1134" /><path
           d="m 123.5582,115.3174 0.0952,-0.0476"
           id="path1135" /><path
           d="m 123.6534,115.2698 h 0.1905"
           id="path1136" /><path
           d="m 123.8439,115.2698 0.0953,0.0476"
           id="path1137" /><path
           d="m 123.9392,115.3174 0.0476,0.0477"
           id="path1138" /><path
           d="m 123.9868,115.3651 0.0476,0.0952"
           id="path1139" /><path
           d="m 124.0344,115.4603 v 0.0476"
           id="path1140" /><path
           d="m 124.0344,115.5079 -0.0476,0.0953"
           id="path1141" /><path
           d="m 123.9868,115.6032 -0.0476,0.0476"
           id="path1142" /><path
           d="m 123.9392,115.6508 -0.0953,0.0476"
           id="path1143" /><path
           d="m 123.8439,115.6984 h -0.1905"
           id="path1144" /><path
           d="m 123.6534,115.6984 -0.0952,0.0476"
           id="path1145" /><path
           d="m 123.5582,115.746 -0.0476,0.0476"
           id="path1146" /><path
           d="m 123.5106,115.7936 -0.0476,0.0953"
           id="path1147" /><path
           d="m 123.463,115.8889 v 0.1904"
           id="path1148" /><path
           d="m 123.463,116.0793 0.0476,0.0953"
           id="path1149" /><path
           d="m 123.5106,116.1746 0.0476,0.0476"
           id="path1150" /><path
           d="m 123.5582,116.2222 0.0952,0.0476"
           id="path1151" /><path
           d="m 123.6534,116.2698 h 0.1905"
           id="path1152" /><path
           d="m 123.8439,116.2698 0.0953,-0.0476"
           id="path1153" /><path
           d="m 123.9392,116.2222 0.0476,-0.0476"
           id="path1154" /><path
           d="m 123.9868,116.1746 0.0476,-0.0953"
           id="path1155" /><path
           d="m 124.0344,116.0793 v -0.1904"
           id="path1156" /><path
           d="m 124.0344,115.8889 -0.0476,-0.0953"
           id="path1157" /><path
           d="m 123.9868,115.7936 -0.0476,-0.0476"
           id="path1158" /><path
           d="m 123.9392,115.746 -0.0953,-0.0476"
           id="path1159" /></g><text
         x="106.5"
         y="41.75"
         textLength="3.3929"
         font-size="1.3333px"
         lengthAdjust="spacingAndGlyphs"
         text-anchor="start"
         opacity="0"
         id="text1159">-27</text><g
         class="stroked-text"
         id="g1172"><desc
           id="desc1159">-27</desc><path
           d="m 106.8368,41.2389 h 0.7619"
           id="path1160" /><path
           d="m 108.0273,40.7151 0.0476,-0.0477"
           id="path1161" /><path
           d="m 108.0749,40.6674 0.0952,-0.0476"
           id="path1162" /><path
           d="m 108.1701,40.6198 h 0.2381"
           id="path1163" /><path
           d="m 108.4082,40.6198 0.0952,0.0476"
           id="path1164" /><path
           d="m 108.5034,40.6674 0.0477,0.0477"
           id="path1165" /><path
           d="m 108.5511,40.7151 0.0476,0.0952"
           id="path1166" /><path
           d="m 108.5987,40.8103 v 0.0952"
           id="path1167" /><path
           d="m 108.5987,40.9055 -0.0476,0.1429"
           id="path1168" /><path
           d="m 108.5511,41.0484 -0.5715,0.5714"
           id="path1169" /><path
           d="m 107.9796,41.6198 h 0.6191"
           id="path1170" /><path
           d="m 108.932,40.6198 h 0.6667"
           id="path1171" /><path
           d="m 109.5987,40.6198 -0.4286,1"
           id="path1172" /></g></g><g
       style="fill:none;stroke:#c2c2c2;stroke-width:0.1;stroke-linecap:round;stroke-linejoin:round;stroke-opacity:1"
       id="g1183"
       transform="translate(-12.674726,150.55952)"><path
         d="m 33.5508,37.5551 8.9434,16.8201"
         id="path1173" /><path
         d="M 42.4942,54.3752 59.3143,45.4318"
         id="path1174" /><path
         d="M 50.3709,28.6116 33.5508,37.5551"
         id="path1175" /><path
         d="M 59.3143,45.4318 50.3709,28.6116"
         id="path1176" /><path
         d="m 148.7381,90.6116 h 2.25"
         id="path1177" /><path
         d="m 149.7381,84.8616 v 9.75"
         id="path1178" /><path
         d="m 149.7381,90.6116 v -5.75"
         id="path1179" /><path
         d="M 33.5637,37.5478 42.5072,54.368"
         id="path1180" /><path
         d="M 42.5072,54.368 59.3273,45.4245"
         id="path1181" /><path
         d="M 50.3839,28.6044 33.5637,37.5478"
         id="path1182" /><path
         d="M 59.3273,45.4245 50.3839,28.6044"
         id="path1183" /></g></g><g
     inkscape:groupmode="layer"
     id="layer3"
     inkscape:label="Шар 3"
     style="display:inline"
     transform="translate(563.33532,300.67287)"><path
       id="path2"
       style="fill:none;fill-opacity:0;stroke:#ff0000;stroke-width:0.1"
       d="m -426.29565,-93.807563 -11.33315,0.01137 c -2.44429,-9.122227 -1.07086,-14.800347 -1.07086,-14.800347 -3.29429,2.11075 -3.68263,2.35668 -14.66246,6.30766 -9.22559,-6.73451 -21.24177,-13.79958 -23.20986,-19.68966 -0.18488,-0.55333 -0.70425,-0.93057 -1.2788,-0.82328 -5.21656,0.97411 -28.93044,4.71635 -44.51373,-4.37866 -0.50439,-0.29438 -1.33697,-0.35502 -1.86945,-0.11397 -26.42659,11.96302 -33.3489,21.45243 -45.58154,64.740624 -0.19868,0.703083 0.1865,1.041587 0.86504,0.770692 26.56212,-10.604488 37.00273,5.397256 39.42001,10.131855 0.33208,0.650419 1.11147,0.991148 1.80614,0.764898 21.78105,-7.094 34.89986,13.883522 33.31041,23.137429 -0.12349,0.718951 0.24313,1.368722 0.95956,1.511869 19.42339,3.880929 24.68437,21.3335414 27.34622,35.4421495 0.13545,0.717947 0.66559,0.8862245 1.24217,0.4380348 6.43763,-5.0041826 21.5723,-8.244824 24.40631,-8.81561359 8.15673,3.60182989 12.96003,8.65001679 14.16503,11.37501729 V -93.820999"
       sodipodi:nodetypes="ccccccccccccc"
       inkscape:path-effect="#path-effect10"
       inkscape:original-d="m -426.29565,-93.807563 -11.33315,0.01137 c -2.44429,-9.122227 -1.07086,-14.800347 -1.07086,-14.800347 -3.29429,2.11075 -3.68263,2.35668 -14.66246,6.30766 -9.76915,-7.1313 -22.66743,-14.63326 -23.45046,-20.71823 0,0 -28.93444,6.308 -46.45621,-4.72153 -27.48726,12.29017 -34.29807,21.54077 -46.90535,66.448169 31.04209,-13.106491 40.69803,9.572708 41.20039,10.828596 23.61474,-8.731052 37.4769,15.428838 34.2178,23.978704 21.11353,3.449553 26.24309,22.3585887 28.88804,36.979138 5.6943,-5.4932324 22.41451,-9.0755158 25.40827,-9.67847929 8.15673,3.60182989 12.96003,8.65001679 14.16503,11.37501729 V -93.820999" /></g></svg>
